<?xml version="1.0" encoding="UTF-8"?>
<svg id="Layer_1" data-name="Layer 1" xmlns="http://www.w3.org/2000/svg" xmlns:xlink="http://www.w3.org/1999/xlink" viewBox="0 0 467.77 869.68">
  <defs>
    <style>
      .cls-1 {
        fill: none;
      }

      .cls-2 {
        fill: #be7e51;
      }

      .cls-3 {
        fill: #d6d6d6;
      }

      .cls-4 {
        fill: #ce8e48;
      }

      .cls-5 {
        fill: #b89579;
      }

      .cls-6 {
        fill: #ebc07f;
      }

      .cls-7 {
        fill: #551d1a;
      }

      .cls-8 {
        fill: #3a3a3a;
      }

      .cls-9 {
        fill: #131311;
      }

      .cls-10 {
        fill: #652725;
      }

      .cls-11 {
        fill: #62c4ed;
      }

      .cls-12 {
        fill: #fff;
      }

      .cls-13 {
        fill: #0372bd;
      }

      .cls-14 {
        fill: #fefefe;
      }

      .cls-15 {
        fill: #8c5641;
      }

      .cls-16 {
        fill: #85c7e2;
      }

      .cls-17 {
        fill: #491817;
      }

      .cls-18 {
        fill: #57a1d3;
      }

      .cls-19 {
        fill: #555;
      }

      .cls-20 {
        clip-path: url(#clippath);
      }

      .cls-21 {
        fill: #0070bc;
      }
    </style>
    <clipPath id="clippath">
      <rect class="cls-1" x="0" y="0" width="466.03" height="415.32"/>
    </clipPath>
  </defs>
  <g class="cls-20">
    <g>
      <path class="cls-6" d="M411.95,578.07c-5.52-1.43-9.25-5.73-12.32-10.38,0-3.58-2.76-11.09-2.35-13.55,2.76-15.39,11.25-29.24,17.13-43.56,4.5-11.25,6.08-36.5,5.88-48.51l-.1-5.01c-.92-14.47-2.91-30.88-10.28-43.71l-4.29-7.31c11.81,5.06,35.63-31.8,51.43-21.27,3.07,2.04,3.68,13.14,7.62,25.36,11.66,36.55-12.22,71.21-24.69,92.02,6.7,4.55,7.57,6.39,3.32,14.01-1.64,2.91-3.22,6.19-4.65,9.2,13.14,10.43,10.43,9.56,6.59,23.52-1.89,6.9,2.71,5.62-5.67,11.96.82,18.4-14.16,16.56-27.55,17.28l-.05-.05Z"/>
      <path class="cls-2" d="M423.7,448.02c-.97,2.97-1.18,6.9-3.53,9.05-.92-14.47-2.91-30.88-10.28-43.71l-4.29-7.31c10.58,4.5,43.2-32.31,52.91-19.78,2.66,3.43-29.09,43.96-34.81,61.75Z"/>
      <path class="cls-12" d="M367.06,277.07l.41.82c9.15,8.44,17.18,16.87,25.92,25.66,3.22,3.27,9.2,6.03,12.58,8.9,4.75,4.04,10.94,10.89,14.88,15.75,11.76,14.57,20.5,31.03,29.85,47.03l1.18,1.53c1.38,4.65,3.22,6.08,6.7,9.51l-3.17,3.89c-9.61,10.89-21.27,22.65-34.92,28.27l-7.87,3.17c-3.02-3.73-4.81-7.72-6.54-12.12-4.45,10.68-10.38,25.05-14.67,35.43-4.29,10.43-20.24,44.73-20.76,54.14.87,3.32,1.18,5.93,1.58,9.3-5.37,4.04-5.57,9.76-13.34,11.86-1.48-.15-12.98,5.52-15.64,6.65-5.98,2.4-12.12,4.5-18.35,6.19-12.93,3.58-25,4.6-38.34,3.32-1.43-.15-4.09-.56-5.37-.46-9.36-.05-25.61-11.14-33.38-16.36-3.22-2.97-2.97-7.82-3.48-12.32l-.31-.66c.2-1.23.61-4.4.46-5.57-3.94-28.37-4.96-58.74-9.76-86.8-.41-5.06-.36-12.42-.46-17.64l-.46-2.56c-1.43-.51-11.91-9.05-13.85-10.58-4.65-3.89-9-7.67-13.96-11.2-1.18-4.5,0-5.37,2.81-8.69,2.91-3.48,6.08-8.23,9.15-12.01l29.04-35.32c2.15-2.66,10.07-13.55,11.66-14.47,10.63-6.03,22.75-11.86,33.54-17.89l.82,3.22c4.14,8.64,8.69,4.75,16.67,5.06-.61-3.17-.87-5.57-1.12-8.79,16-.1,35.22-4.91,47.8-15.23,3.53-2.91,5.47-7.57,9.46-10.48-.31,6.65-1.64,13.6,1.23,19.53l.05-.05Z"/>
      <path class="cls-11" d="M265.43,323.44c-6.13,35.17-9.36,66.25-9,102.24.31,30.83,3.94,61.81,3.99,92.48,28.12,14.26,39.93,12.22,70.19,3.73-.15-55.98,2.76-114.77,17.74-168.91l.66-2.04c4.24-3.78,8.08-7.41,13.09-10.12-17.48,64.46-22.03,108.58-20.45,176.37,10.17-4.81,20.24-9.97,28.37-17.89l.51-.26c.87,3.32,1.18,5.93,1.58,9.3-5.37,4.04-5.57,9.76-13.34,11.86-1.48-.15-12.98,5.52-15.64,6.65-5.98,2.4-12.12,4.5-18.35,6.19-12.93,3.58-25,4.6-38.34,3.32-1.43-.15-4.09-.56-5.37-.46-9.36-.05-25.61-11.14-33.38-16.36-3.22-2.97-2.97-7.82-3.48-12.32l.72-.15c1.58.51,5.21,4.5,6.59,5.93-.61-32.97-4.35-64.26-4.86-96.72-.26-34.76,4.24-69.37,13.29-102.91,1.84,3.32,3.63,6.7,5.37,10.07h.1Z"/>
      <path class="cls-18" d="M311.6,309.89c1.43,1.23,2.86,2.4,4.24,3.73,13.39,26.43,7.67,29.8,1.99,57.41-9.56-11.81-12.68-19.89-16.41-34.51-1.74.51-1.38.66-2.76,2.45-12.27,11.91-17.38,11.2-31.59,16.87l-.82-.92c2.45-7.36,5.47-14.77,8.28-22.03l1.38-2.91c1.38-4.14,4.5-7.36,7.36-10.53,8.74-5.47,12.32-8.64,22.14-13.14,2.04,1.07,4.35,2.2,6.19,3.53v.05Z"/>
      <path class="cls-21" d="M311.6,309.89c-6.59,2.71-27.86,14.52-34.56,20.35-.36-.1-.77-.15-1.12-.26,1.38-4.14,4.5-7.36,7.36-10.53,8.74-5.47,12.32-8.64,22.14-13.14,2.04,1.07,4.35,2.2,6.19,3.53v.05Z"/>
      <path class="cls-3" d="M393.95,394.9c2.86,2.4,6.75,10.68,9.1,11.91-.26-4.81-3.17-3.99-3.58-8.49l.36-1.07c2.5,2.25,10.68,10.84,12.83,11.3.36,1.07.26,1.18.87,2.1l-.56,1.12c1.69,2.71,4.81,4.75,7.41,6.59l-7.87,3.17c-3.02-3.73-4.81-7.72-6.54-12.12-4.45,10.68-10.38,25.05-14.67,35.43-4.29,10.43-20.24,44.73-20.76,54.14l-.51.26c-.51-.97-1.43-2.61-1.38-3.68,1.07-19.38,6.44-38.85,7.36-58.28.97-20.55.51-41.36.97-61.96,3.12,6.29,9.41,18.71,16.92,19.58h.05Z"/>
      <path class="cls-2" d="M367.06,277.07l.41.82c-1.33,4.55-2.86,5.88-6.34,9.1-9.71,3.32-40.59,27.96-49.18,16.15.05-1.28-1.84-9.3-2.25-11.09-.61-3.17-.87-5.57-1.12-8.79,16-.1,35.22-4.91,47.8-15.23,3.53-2.91,5.47-7.57,9.46-10.48-.31,6.65-1.64,13.6,1.23,19.53h0Z"/>
      <path class="cls-15" d="M367.47,277.84c-1.33,4.55-2.86,5.88-6.34,9.1-9.71,3.32-40.59,27.96-49.18,16.15,13.14-3.02,33.84-9.87,44.83-17.99,2.3-1.74,6.39-6.19,8.49-8.44l1.79.31.41.82v.05Z"/>
      <path class="cls-12" d="M451.82,376.76c1.38,4.65,3.22,6.08,6.7,9.51l-3.17,3.89c-9.61,10.89-21.27,22.65-34.92,28.27-2.61-1.89-5.73-3.94-7.41-6.59l.56-1.12c-.61-.87-.56-1.02-.87-2.1,8.33-5.73,15.64-10.53,23.06-17.53,4.35-4.14,10.68-12.47,14.93-15.8l1.18,1.53-.05-.05Z"/>
      <path class="cls-11" d="M451.82,376.76c-8.13,11.6-25.61,27.96-38.24,33.94-.61-.87-.56-1.02-.87-2.1,8.33-5.73,15.64-10.53,23.06-17.53,4.35-4.14,10.68-12.47,14.93-15.8l1.18,1.53-.05-.05Z"/>
      <path class="cls-6" d="M309.7,292.05c.41,1.79,2.3,9.82,2.25,11.09,8.59,11.76,39.47-12.83,49.18-16.15-9.97,10.17-30.98,21.83-44.63,26.43l-.66.2c-1.33-1.33-2.76-2.5-4.24-3.73-1.89-1.38-4.14-2.45-6.19-3.53-2.76-2.4-15.03-16.31-15.44-18.86l.82-.97,2.3.51c4.14,8.64,8.69,4.75,16.67,5.06l-.05-.05Z"/>
      <path class="cls-3" d="M233.79,393.98c-1.43-.51-11.91-9.05-13.85-10.58l2.35-2.91c.46-2.61.2-1.99-1.23-4.81,3.07-3.58,8.23-11.5,11.3-13.65l1.18.1c1.07,2.15.97,29.91.72,34.4l-.46-2.56h0Z"/>
      <path class="cls-3" d="M351.73,341.99c-.87,2.86-1.94,6.03-2.71,8.95l-.66,2.04c-2.3.1-16.97,12.83-20.3,15.29-.41-9.15-2.15-18.91-2.86-28.27l5.16,14.57c6.65-3.32,14.83-8.59,21.32-12.52l.05-.05Z"/>
      <path class="cls-3" d="M364.86,331.62c2.45-1.94,26.94-19.94,27.5-20.14-9.56,11.4-19.17,18.51-29.75,28.42l2.25-8.28Z"/>
      <path class="cls-3" d="M269.73,356.26c-.82,0-1.89-.15-2.71-.36,14.16-5.67,19.27-5.01,31.59-16.87-.15,10.99-19.68,16.77-28.88,17.23Z"/>
      <path class="cls-18" d="M362.61,339.9l-.46.87c-5.01,2.71-8.84,6.34-13.09,10.12.77-2.86,1.84-6.03,2.71-8.95,1.38-1.69,10.79-8.59,13.09-10.38l-2.25,8.28v.05Z"/>
      <path class="cls-3" d="M275.91,330.03l-1.38,2.91c-1.99.36-2.35,1.02-5.11,1.28l-1.43-1.33c-.82-2.2-1.02-2.56-.77-4.91,5.93-2.86,10.43-5.78,16-8.54-2.86,3.22-5.98,6.39-7.36,10.53l.05.05Z"/>
      <path class="cls-11" d="M399.47,398.33c.41,4.5,3.32,3.68,3.58,8.49-2.35-1.23-6.19-9.51-9.1-11.91-3.12-4.6-4.5-7.62-6.24-12.93,4.09,5.88,7.11,10.12,12.12,15.34l-.36,1.07v-.05Z"/>
      <path class="cls-4" d="M275.2,480.43c.15,1.28-.41,2.61-1.48,3.37-1.07.77-2.45.92-3.63.36-1.79-.82-2.61-2.97-1.84-4.75.82-1.84,2.91-2.66,4.75-1.89,1.23.51,2.04,1.64,2.2,2.91h0Z"/>
      <path class="cls-4" d="M278.26,445.97c-1.12,1.64-3.37,2.04-5.06.92-1.64-1.12-2.04-3.37-.92-5.06,1.12-1.64,3.43-2.04,5.06-.92,1.64,1.12,2.04,3.37.92,5.06Z"/>
      <path class="cls-4" d="M284.81,406c0,1.28-.72,2.45-1.89,3.07-1.12.61-2.5.51-3.58-.2-1.58-1.07-1.99-3.12-1.02-4.75.97-1.58,3.07-2.15,4.7-1.23,1.12.61,1.79,1.84,1.79,3.12h0Z"/>
      <path class="cls-4" d="M292.88,370.26c-.87,1.64-2.91,2.3-4.6,1.53-1.12-.56-1.89-1.69-1.94-2.97-.05-1.28.56-2.45,1.64-3.12,1.07-.66,2.45-.66,3.53,0,1.64.92,2.2,2.97,1.33,4.65l.05-.1Z"/>
      <path class="cls-6" d="M412.2,31.33c1.28.77,7.72,4.4,8.44,5.11-2.66,4.29-16.41,27.55-19.32,28.47l-.2.36c-2.61,5.06-6.03,10.28-8.23,14.62,6.24,2.81,15.23,6.8,20.86,10.43-6.39,11.09-14.21,19.32-20.19,28.93,27.35,20.19,22.08,50.46,6.39,75.66,12.22,3.83,10.43,14.16,7,24.49-4.45,13.39-12.17,20.6-25.61,24.38-3.12,5.98-7.82,12.32-14.93,13.6l-.61.2c-3.99,2.91-5.93,7.62-9.46,10.48-12.58,10.28-31.75,15.13-47.8,15.23.31,3.27.51,5.62,1.12,8.79-8.03-.31-12.52,3.58-16.67-5.06l-.82-3.22c-.26-2.61-.1-3.12.46-5.57v-.66c-9.3-2.2-19.58-4.24-28.12-8.33-6.13-3.58-8.95-10.02-8.59-16.92,1.48-28.07,11.14-55.98,14.72-83.74l-3.63-4.81c-.66-6.24.72-18.56-.87-23.21-2.35-4.96-3.53-8.28-5.27-13.5-4.04-16.72-4.04-33.28,12.88-42.28l.51-.82c-.26-2.4-.26-4.81-.1-7.21,1.28-16.26,11.35-21.37,26.07-20.09,3.83.66,10.07,1.89,13.55,3.58-6.03,4.4-14.52,11.66-10.63,20.3,1.28-.31,7.31-6.03,11.55-7.77v-17.28c0-1.99-.1-2.5.36-4.4.61-4.7,1.38-9.66,2.1-14.37,1.38-11.09,4.19-25.2,6.03-36.55,7.11-.82,14.16,1.02,20.81,3.58,24.08,8.33,45.91,13.8,68.14,27.61l.05-.05Z"/>
      <path class="cls-7" d="M412.2,31.33c1.28.77,7.72,4.4,8.44,5.11-2.66,4.29-16.41,27.55-19.32,28.47l-.2.36c-2.61,5.06-6.03,10.28-8.23,14.62,6.24,2.81,15.23,6.8,20.86,10.43-6.39,11.09-14.21,19.32-20.19,28.93,27.35,20.19,22.08,50.46,6.39,75.66-23.98,5.88-21.73,31.59-39.21,29.6-1.84-2.56,9.05-12.88,10.89-17.13,4.91-11.09,9.92-30.11,10.48-41.82-4.45-2.71-7.46-4.6-11.6-7.72-5.01-4.5-6.7-7.46-8.64-13.75-.36-7.51,3.78-12.06,2.3-17.79-1.74-2.25-1.28-1.58-4.24-2.76-4.75.1-7.77.46-12.27,2.15l-.66-.31c.61-2.1,1.23-3.53.72-5.57-1.89-.72-2.15-.15-4.45.61-12.52,3.48-21.78,6.13-34.71,2.71-7.21-3.83-11.76-7.16-16.82-13.6-4.19.31-14.01.66-17.18,2.71-.77,6.19-1.48,12.01-1.84,18.25-3.12,3.99-4.35,5.52-6.49,10.12-2.35-4.96-3.53-8.28-5.27-13.5-4.04-16.72-4.04-33.28,12.88-42.28l.51-.82c-.26-2.4-.26-4.81-.1-7.21,1.28-16.26,11.35-21.37,26.07-20.09,3.83.66,10.07,1.89,13.55,3.58-6.03,4.4-14.52,11.66-10.63,20.3,1.28-.31,7.31-6.03,11.55-7.77v-17.28c0-1.99-.1-2.5.36-4.4.61-4.7,1.38-9.66,2.1-14.37,1.38-11.09,4.19-25.2,6.03-36.55,7.11-.82,14.16,1.02,20.81,3.58,24.08,8.33,45.91,13.8,68.14,27.61v-.1Z"/>
      <path class="cls-12" d="M412.2,31.33c1.28.77,7.72,4.4,8.44,5.11-2.66,4.29-16.41,27.55-19.32,28.47l-.2.36c-2.61,5.06-6.03,10.28-8.23,14.62l-.61-.2c-17.94-7.62-36.19-14.47-54.7-20.45-6.24-1.99-14.88-4.7-21.37-6.59-.41-.56-.77-1.02-1.02-1.43.61-4.7,1.38-9.66,2.1-14.37,1.38-11.09,4.19-25.2,6.03-36.55,7.11-.82,14.16,1.02,20.81,3.58,24.08,8.33,45.91,13.8,68.14,27.61l-.05-.15Z"/>
      <path class="cls-11" d="M337.16,41.76c23.72,7.51,41,13.65,64.16,23.11l-.2.36c-2.61,5.06-6.03,10.28-8.23,14.62l-.61-.2c-17.94-7.62-36.19-14.47-54.7-20.45-6.24-1.99-14.88-4.7-21.37-6.59-.41-.56-.77-1.02-1.02-1.43.61-4.7,1.38-9.66,2.1-14.37,2.56.41,5.27.82,7.77,1.43l12.12,3.58v-.05Z"/>
      <path class="cls-12" d="M328.93,1.63c-.61,7.21-4.7,32.51-3.89,36.55-2.5-.61-5.21-1.02-7.77-1.43,1.38-11.09,4.19-25.2,6.03-36.55,2.2.36,4.14.26,5.67,1.43h-.05Z"/>
      <path class="cls-12" d="M316.2,52.54c6.49,1.94,15.13,4.6,21.37,6.59,18.51,6.03,36.76,12.83,54.7,20.45l.61.2c6.24,2.81,15.23,6.8,20.86,10.43-6.39,11.09-14.21,19.32-20.19,28.93-5.78-3.48-14.77-6.85-21.22-9.46l-7.62-2.86c-6.49-1.79-16.21-6.13-22.95-8.38-9.71-3.22-19.17-6.13-28.93-9.1-1.43-3.32-1.38-5.01-1.69-8.69,2.5-2.76,6.13-5.01,7.72-7.62l-.66-.66-3.43.41v-17.28c0-1.99-.1-2.5.36-4.4.31.41.61.87,1.02,1.43h.05Z"/>
      <path class="cls-3" d="M413.74,90.22c-6.39,11.09-14.21,19.32-20.19,28.93-5.78-3.48-14.77-6.85-21.22-9.46,7-10.28,13.19-19.73,19.94-30.06l.61.2c6.24,2.81,15.23,6.8,20.86,10.43v-.05Z"/>
      <path class="cls-10" d="M313.84,60.21c-6.03,4.4-14.52,11.66-10.63,20.3,1.28-.31,7.31-6.03,11.55-7.77l3.43-.41.66.66c-1.58,2.61-5.21,4.86-7.72,7.62.26,3.68.2,5.37,1.69,8.69,9.76,2.97,19.27,5.88,28.93,9.1,6.75,2.25,16.46,6.54,22.95,8.38-12.37,7.26-22.8,14.42-38.14,10.28-2.86-.77-5.62-1.84-8.18-3.22,1.12-3.02,9-6.54,9.97-9.61-6.29-4.24-25.77,10.17-40.33-6.65,1.02,3.89,1.99,8.28,3.68,11.86-4.19.31-14.01.66-17.18,2.71-.77,6.19-1.48,12.01-1.84,18.25-3.12,3.99-4.35,5.52-6.49,10.12-2.35-4.96-3.53-8.28-5.27-13.5-4.04-16.72-4.04-33.28,12.88-42.28l.51-.82c-.26-2.4-.26-4.81-.1-7.21,1.28-16.26,11.35-21.37,26.07-20.09,3.83.66,10.07,1.89,13.55,3.58h0Z"/>
      <path class="cls-17" d="M303.21,80.56c1.28-.31,7.31-6.03,11.55-7.77l3.43-.41.66.66c-1.58,2.61-5.21,4.86-7.72,7.62.26,3.68.2,5.37,1.69,8.69-2.76,4.81-5.88,6.59-10.38,9.71-10.68-7.62-13.75-18.76-12.17-31.34,2.66-3.68,6.7-7.92,10.02-11.04,3.83.66,10.07,1.89,13.55,3.58-6.03,4.4-14.52,11.66-10.63,20.3h0Z"/>
      <path class="cls-17" d="M272.64,130.45c-3.12,3.99-4.35,5.52-6.49,10.12-2.35-4.96-3.53-8.28-5.27-13.5,2.71-4.96,4.09-21.73,6.24-23.11,4.14,3.83-1.07,5.78,7.36,8.28-.77,6.19-1.48,12.01-1.84,18.25v-.05Z"/>
      <path class="cls-7" d="M274.33,83.98c2.3.82,4.81,3.27,5.27,5.73-2.15-.05-4.4-3.22-5.78-4.91l.51-.82h0Z"/>
      <path class="cls-17" d="M370.49,157.7c-5.01-4.5-6.7-7.46-8.64-13.75l1.02-1.53c2.4.72,3.48,1.58,5.57,2.91,5.98-1.38,9.61-2.56,15.39-4.65-11.2,8.38-7.36,9-13.34,16.97v.05Z"/>
      <path class="cls-2" d="M366.4,257.29l-.61.2c-3.99,2.91-5.93,7.62-9.46,10.48-12.58,10.28-31.75,15.13-47.8,15.23.31,3.27,3.37,21.98,9.41,23.06-8.03-.31-20.76-10.68-24.9-19.27l-.82-3.22c-.26-2.61-.1-3.12.46-5.57v-.66l2.56-1.58c14.47,4.55,58.23-.92,71.26-27.91-.05,1.89-.41,7.67-.1,9.2v.05Z"/>
      <path class="cls-17" d="M275.3,234.23s.97-6.29,25.61-1.69c24.64,4.6,30.93,7.31,31.13,12.68.2,5.37,0,13.19-13.04,12.83-13.09-.41-19.43-8.38-29.04-9.2-9.61-.87-11.14-.97-15.08,1.89-3.94,2.86.41-16.51.41-16.51Z"/>
      <path class="cls-14" d="M318.91,240.57c8.03,3.58,3.22,12.12-4.45,8.28-7.67-3.83-15.34-7.46-26.02-6.65s-9.46.72-9.46-4.6c0-4.91,16.36-1.74,22.08-1.07,2.35,1.07,9.82.46,17.84,4.04h0Z"/>
      <path class="cls-7" d="M366.4,257.29c-.26-1.53,0-7.36.1-9.2,2.1-3.99,4.14-8.03,6.19-12.06,2.91,5.06,3.22,5.83,8.64,7.72-3.12,5.98-7.82,12.32-14.93,13.6v-.05Z"/>
      <path class="cls-4" d="M311.8,127.23c-2.15-1.12-2.76-1.79-3.32-4.19,12.93,3.43,22.24.77,34.71-2.71-8.54,10.12-18.45,13.7-31.39,6.9Z"/>
      <path class="cls-2" d="M292.63,277.58c-9.3-2.2-19.58-4.24-28.12-8.33,8.54,4.09,10.68-1.58,30.72,6.75l-2.61,1.58Z"/>
      <path class="cls-4" d="M346.51,129.74l-.66-.97c.36-1.28.51-2.25,1.12-3.43l.66.31c4.5-1.69,7.57-2.04,12.27-2.15-4.6,1.38-8.74,6.24-13.39,6.29v-.05Z"/>
      <path class="cls-7" d="M333.41,129.11c7.57,13.91,30.64,23.79,37.38,32.52.78,3.19.42,2.42-.84,5.99-2.64,5.42-4.45,8.92-8.66,13.45,2.28,9.12,1.38,13.77-3.13,21.99-.54,1.02-1.14,1.98-1.74,3l.24.45-.42,1.47c-15.87,14.22-33.96-3.7-29.03-22.69.9-3.51,1.62-5.55,3.07-8.86,1.74-8.8,19.48-10.77,31.74-5.99-2.4.32-22.72-9.12-24.83-10.14-2.16-4.46-7.51-1.34-7.33-6.5l-4.81-6.5s-6.66-25.95,6.57-21.17l1.8,2.99Z"/>
      <path class="cls-2" d="M333.46,172.91c-1.02,1.27-1.86,2.42-3.07,3.51,0-1.47,0-1.02-.36-2.49-2.4.32-2.58.45-4.63-.64-2.16-4.46-.36-20.85-.24-26.01,7.69,2.23,27.95,19.57,35.23,23.14-3.79,0-25.49-2.29-26.93,2.49Z"/>
      <path class="cls-2" d="M361.35,181.14c-3.19-7.52-7.09-9.12-13.71-12.69,8.84.76,13.89,1.85,22.36-.76-2.64,5.42-4.45,8.92-8.66,13.45h0Z"/>
      <path class="cls-14" d="M343.08,181.14c1.56,4.02.66,6.63-3.13,8.35-3.31-1.21-3.55-2.23-4.15-6.06-5.47,17.08,2.04,36.85,20.74,22.69l.24.45-.42,1.47c-15.87,14.22-33.96-3.7-29.03-22.69.9-3.51,1.62-5.55,3.07-8.86,1.2-1.08,2.04-2.23,3.07-3.51,3.07-.76,6.79-1.91,9.86-1.47l.54,1.21c-2.16,4.14-4.27,4.59-5.89,7.52,3.67-.38,2.4-.76,5.11.89Z"/>
      <path class="cls-7" d="M304.28,144.41c.51,5.37-2.04,23.52-1.69,28.93-.51,1.48-1.18,3.12-1.53,4.6-1.74.61-3.27-1.07-4.65-2.1-.56,7.51-3.37,24.18-13.5,24.08-15.64.56-12.17-19.48-4.09-28.27-1.53.46-1.99.72-3.63.77-.41-1.33-1.07-8.13-1.99-11.76-4.6-14.88,18.26-20.09,19.26-30.42.79-8.1,6.66-10.07,11.65-3.71,2.86.61.12,14.65.12,17.82l.05.05Z"/>
      <path class="cls-7" d="M290.23,167.67c3.83,2.5,5.37,3.53,6.19,8.23-.56,7.51-3.37,24.18-13.5,24.08-15.64.56-12.17-19.48-4.09-28.27l.87-1.23-.26-.72c1.64-1.84,2.66-1.69,5.21-2.61,1.84.2,3.73.41,5.52.56l.05-.05Z"/>
      <path class="cls-14" d="M283.02,173.96c1.02.92,1.94,1.02,3.27,1.38l.61.92c-.61,2.35-.1,1.74-1.69,3.17-2.35-.05-1.43.2-3.53-1.18l-.87-1.64c-5.16,7.72-5.93,17.33,2.1,23.41-15.64.56-12.17-19.48-4.09-28.27l.87-1.23c3.43-.87,4.35-1.23,7.82-.61-1.99,1.33-3.48,1.99-4.5,4.09v-.05Z"/>
      <path class="cls-15" d="M302.65,173.34c-.51,1.48-1.18,3.12-1.53,4.6-1.74.61-3.27-1.07-4.65-2.1-.82-4.7-2.35-5.73-6.19-8.23-1.84-.1-3.73-.36-5.52-.56-2.61.92-3.58.77-5.21,2.61l.26.72-.87,1.23c-1.53.46-1.99.72-3.63.77-.41-1.33-1.07-8.13-1.99-11.76l1.64,1.28c6.8-.05,18.61-9.15,25.25-10.89,1.33-.34,2.25-.07,2.76.82.51,5.37-.61,16.05-.26,21.47l-.05.05Z"/>
      <path class="cls-2" d="M275.71,164.91c3.78.05,5.57-1.48,8.23-.51.92,1.64.87,1.07.77,2.71-2.61.92-3.58.77-5.21,2.61l.26.72-.87,1.23c-1.53.46-1.99.72-3.63.77-.41-1.33-1.07-8.13-1.99-11.76l1.64,1.28.82,2.91v.05Z"/>
      <path class="cls-2" d="M287.21,214.86c-1.43,1.33-1.28,1.99-1.18,3.48,3.32,4.75,17.84,8.74,23.11,4.96,1.48-1.07,3.63-2.4,5.27-2.97l.51.87c-.56,2.81-2.66,6.59-5.78,7.41-8.03,2.15-24.03-2.56-27.55-10.43-2.3-5.16,8.79-10.17,11.6-13.14,1.79-1.89,2.97-4.29,4.29-6.8l1.43.56c-3.73,10.33-3.27,8.38-11.6,16.05h-.1Z"/>
      <path class="cls-2" d="M378.05,230.96c-1.43-3.32,2.81-13.19,4.24-17.18l5.88.61c9.51,10.02-4.09,19.58-10.12,16.51v.05Z"/>
      <path class="cls-2" d="M397.27,210.05c-2.71,1.07-7.16,2.5-9.15,4.4l-5.88-.61c3.02-4.5,8.38-12.22,14.77-9.71,5.11,4.04,3.12,11.3,1.89,16.82-.82-4.04-1.28-6.65-1.69-10.84l.05-.05Z"/>
      <path class="cls-4" d="M284.3,258.41c-7.57-1.84-4.91-.97-9.92-3.37.05-1.48,5.06-.92,9.1-1.69,11.6-.2,12.93,1.69,18.35,4.45,11.5,5.78,4.09,5.11-17.48.61h-.05Z"/>
      <path class="cls-6" d="M255.97,255.17s-2.89,48.23,21.74,48.3c24.63.07,37.47,14.55,61.28-5.13s32.84-59.32,32.84-59.32l-72.67-8.78-33.41-3.12-9.78,28.05Z"/>
      <path class="cls-17" d="M274.22,240.08s4.46-14.49,23.31-4.91c18.86,9.58,23.67,15.23,23.83,26.41s0,27.47-9.98,26.73c-10.02-.85,1.05-15.8-22.22-19.17-7.36-1.81-8.53-2.02-11.54,3.94-12.25,5.56-3.4-33-3.4-33Z"/>
      <path class="cls-14" d="M311.31,247c6.14,5.55,2.46,16.06-3.4,10.22-5.87-5.84-18.34-9.34-26.52-9.51s-3.83-7.76-1.74-9.95c4.38-4.6,13.63.46,18.01,1.97,1.8,1.66,7.51,1.72,13.65,7.27h0Z"/>
      <path class="cls-4" d="M284.82,286.29c-5.79-2.77-3.76-1.46-7.59-5.08.04-2.23,3.87-1.39,6.96-2.54,8.88-.31,9.9,2.54,14.05,6.7,8.8,8.7,3.13,7.7-13.38.92h-.04Z"/>
      <path class="cls-2" d="M315.94,204.94l-.77-.51c-1.84-12.58,2.35-35.43,10.33-41.92-4.45,19.89-7.77,19.32-9.51,42.48l-.05-.05Z"/>
      <path class="cls-2" d="M297.38,198.19c1.69-3.48,5.67-16.92,3.73-20.24.36-1.48,1.02-3.17,1.53-4.6,1.07,5.78-1.43,19.89-3.83,25.46l-1.43-.56v-.05Z"/>
      <path class="cls-12" d="M415.37,789.05c1.53,9.05,5.06,12.01-3.78,16.1l-5.73,2.2c-9.71,2.04-19.22,2.81-28.99.31-3.73-.61-7.36-1.89-10.99-3.07-3.02-13.8-8.33-31.44-12.12-45.29l-20.65-76.07c-3.22-12.12-2.04-20.04-4.24-28.27-6.75-25-13.85-48.62-19.84-73.97-.31-2.35-2.56-10.28-3.22-12.98-6.95-1.07-10.94-2.35-17.43-4.86-6.24-5.11-6.29-10.38-6.49-17.84l-.77-9.41c1.28-.05,3.94.31,5.37.46,13.34,1.28,25.46.26,38.34-3.32,6.24-1.69,12.37-3.78,18.35-6.19,2.66-1.07,14.16-6.75,15.64-6.65,7.82-2.1,8.03-7.82,13.34-11.86,12.42,93.86,26.84,187.46,43.15,280.76l.05-.05Z"/>
      <path class="cls-12" d="M415.37,789.05c1.53,9.05,5.06,12.01-3.78,16.1.31-5.57-4.6-29.09-5.98-35.73-4.6-23.16-9.46-46.26-14.62-69.32-.92-4.04-1.79-8.38-2.86-12.37-6.95-25.2-9.87-50.66-13.96-76.43l-15.29-91.1c7.82-2.1,8.03-7.82,13.34-11.86,12.42,93.86,26.84,187.46,43.15,280.76v-.05Z"/>
      <path class="cls-21" d="M374.17,611.3c4.09,25.82,7,51.22,13.96,76.43,1.07,3.94,1.94,8.33,2.86,12.37,5.16,23.06,10.07,46.16,14.62,69.32,1.38,6.7,6.34,30.16,5.98,35.73-.87-1.48-2.04-7.41-2.4-9.3-5.83-30.21-11.81-60.43-18.3-90.48-3.53-16.31-8.38-32.05-11.2-48.57l-14.77-92.89c-2.15-13.19-4.29-29.7-7.41-42.28-11.91,7.67-39.72,15.34-54.14,16.61-3.78.31-15.23-.87-20.4-.87-.92,1.23-.97,6.08-1.07,7.92l-.77-9.41c1.28-.05,3.94.31,5.37.46,13.34,1.28,25.46.26,38.34-3.32,6.24-1.69,12.37-3.78,18.35-6.19,2.66-1.07,14.16-6.75,15.64-6.65l15.29,91.1h.05Z"/>
      <path class="cls-12" d="M281.18,535.85l.77,9.41c.15,7.51.26,12.73,6.49,17.84,6.44,2.45,10.43,3.78,17.43,4.86.72,2.66,2.91,10.63,3.22,12.98-10.07,12.32-7.97,187.05-8.03,214.66l-10.74,3.94c.2,4.14.36,6.95,0,11.14l1.28,1.64-2.76,1.43c-5.57-5.98-28.68-3.22-32.97-9.82l.87-6.34c-.97-.82-4.04-2.76-5.27-3.58-.1-35.99.41-72.03,0-108.02.51-7.67-3.27-19.48-2.35-26.74,5.27-41.92-1.23-83.63-1.12-125.71,0-4.75-.72-9.15-.2-14.01,7.82,5.16,24.03,16.26,33.38,16.36v-.05Z"/>
      <path class="cls-3" d="M305.82,567.95c.72,2.66,2.91,10.63,3.22,12.98-10.07,12.32-7.97,187.05-8.03,214.66l-10.74,3.94c-1.28-18.3.31-44.42-.41-64.21-.41-12.37-1.02-24.79-1.84-37.17-.82-10.89-2.15-21.22-2.2-32.21,0-31.03.31-61.81,2.04-92.73-10.17-4.29-15.13-6.85-20.76-16.36,4.19,1.64,17.69,7.72,21.22,6.29,6.44,2.45,10.43,3.78,17.43,4.86l.05-.05Z"/>
      <path class="cls-3" d="M290.33,810.62l1.28,1.64-2.76,1.43c-5.57-5.98-28.68-3.22-32.97-9.82l.87-6.34c14.98,3.73,17.79,3.94,33.18,2.25,0,2.66-.05,8.44.41,10.84Z"/>
      <path class="cls-2" d="M99.7,344.45c-12.37-1.84-22.49-5.06-35.53-6.19l-3.07-1.58c7.57-.87,31.18.2,40.54.26,12.58.1,28.93-.97,40.59-.41-8.64,6.95-31.75,9.56-42.53,7.92Z"/>
      <path class="cls-6" d="M170.35,364.33c7.21,7.16,14.93,14.01,21.78,21.47l13.85-13.65c4.91,3.53,9.3,7.31,13.96,11.2,1.94,1.58,12.42,10.07,13.85,10.58l.46,2.56c.1,5.27,0,12.58.46,17.64-25.71,20.3-43.66,36.04-71.83,7.11-10.53-9-28.12-47.59-33.48-61.45-23.46,1.23-46.52-7.82-65.18-21.57,13.09,1.12,23.21,4.35,35.53,6.19,10.79,1.64,33.94-.97,42.53-7.92l.41.56c9.41,8.9,18.45,18.2,27.71,27.3h-.05Z"/>
      <rect class="cls-16" y="317.79" width="194.87" height="19.73"/>
      <path class="cls-2" d="M219.93,383.35c1.94,1.58,12.42,10.07,13.85,10.58l.46,2.56c.1,5.27,0,12.58.46,17.64-25.71,20.3-43.66,36.04-71.83,7.11,5.78.46,19.53,12.78,30.93,9.15,26.02-8.28,0-32.21-1.64-44.58l13.85-13.65c4.91,3.53,9.3,7.31,13.96,11.2h-.05Z"/>
      <path class="cls-8" d="M288.8,813.69l2.76-1.43c1.02,6.03,1.07,21.37-.82,27.35-5.06,9.36-14.67,3.78-22.49,4.6-3.27.31-8.33,5.78-11.81,6.54-16.92,5.11-44.32,5.42-61.19,1.12-.26-2.1-.97-16.05.97-16.26,21.11-1.89,34.3-3.07,51.12-18.1-.1-2.25-.31-4.6.2-6.8,2.04-1.94,2.61-1.48,5.83-2.2,1.53-1.38,1.74-2.66,2.4-4.6,4.29,6.59,27.4,3.83,32.97,9.82l.05-.05Z"/>
      <path class="cls-19" d="M268.24,844.21c-3.27.31-8.33,5.78-11.81,6.54-16.92,5.11-44.32,5.42-61.19,1.12l.77-4.04c.92-.97,13.14,1.23,15.23,1.53,27.81,3.89,35.43-2.81,58.53-12.37,5.98,1.07,10.74,1.64,16.87,1.43,2.81-.1,2.66-.2,4.09,1.28-5.06,9.36-14.67,3.78-22.49,4.6v-.1Z"/>
      <path class="cls-12" d="M288.8,813.69c-7.62,4.81-12.68,7.21-21.83,8.95-6.19-2.5-13.6-8.49-19.58-5.16-.1-2.25-.31-4.6.2-6.8,2.04-1.94,2.61-1.48,5.83-2.2,1.53-1.38,1.74-2.66,2.4-4.6,4.29,6.59,27.4,3.83,32.97,9.82h0Z"/>
      <path class="cls-8" d="M412.46,812c.46,3.17-.31,3.94-2.15,6.75,5.98,12.22,11.66,23.52,16.97,36.09-.87,9.1-16.92,15.95-25.15,14.62-6.44-1.07-28.22-6.19-28.07-14.06,1.48-12.06,1.43-24.28,2.97-36.19l-.31-.56.2-10.99c9.76,2.56,19.27,1.74,28.99-.31,2.35,1.28,5.21,2.5,6.54,4.7v-.05Z"/>
      <path class="cls-3" d="M412.46,812c.46,3.17-.31,3.94-2.15,6.75-6.13-5.47-13.8-4.14-20.86-1.69-4.14-.1-8.59.82-12.68,1.53l.2-10.99c9.76,2.56,19.27,1.74,28.99-.31,2.35,1.28,5.21,2.5,6.54,4.7h-.05Z"/>
      <path class="cls-19" d="M402.08,869.46c-6.44-1.07-28.22-6.19-28.07-14.06,1.28,2.4,4.45,4.96,7,5.93,15.34,5.73,24.59,12.88,39.01.87-.05-1.84.05-1.94.66-3.73,1.74-1.79,4.19-2.61,6.54-3.58-.87,9.1-16.92,15.95-25.15,14.62v-.05Z"/>
      <path class="cls-12" d="M383.78,822.94c-3.12-.1-3.78-.56-6.08-3.02-.2-.26-.46-.46-.66-.72l-.31-.56c4.14-.66,8.54-1.64,12.68-1.53-1.64,2.25-3.12,4.86-5.62,5.83Z"/>
      <path class="cls-19" d="M411.84,840.17c-4.4.15-7.21-2.04-12.98-1.79-1.84.41-8.08,2.15-9.56,1.43l1.48.1.2-1.02c3.53-1.18,7.26-2.45,11.04-1.84,3.99.26,6.85.2,9.82,3.12Z"/>
      <path class="cls-3" d="M440.98,50.04c-3.99,5.73-16,21.37-18.66,26.99-2.81,4.81-5.37,8.59-8.54,13.19-5.62-3.63-14.62-7.57-20.86-10.43,2.2-4.35,5.62-9.51,8.23-14.62l.2-.36c2.91-.87,16.61-24.18,19.32-28.47,7.36,4.55,13.39,8.38,20.35,13.65l-.05.05Z"/>
      <path class="cls-21" d="M413.74,90.22c-5.62-3.63-14.62-7.57-20.86-10.43,2.2-4.35,5.62-9.51,8.23-14.62,3.94,1.69,17.94,9.2,21.16,11.81-2.81,4.81-5.37,8.59-8.54,13.19v.05Z"/>
      <path class="cls-9" d="M359.19,183.49c-.9,2.04-.84,2.29-2.46,3.63v1.59c1.56,3.31,1.5,5.04,1.44,8.86l1.02,2.61c-9.32,24.61-37.57,6.12-24.17-21.1,2.04-3.19,3.37-4.72,6.31-6.57,6.91-1.59,9.98-.57,15.21,4.97,1.2,2.42,1.74,3.44,2.58,5.99h.06Z"/>
      <path class="cls-11" d="M358.1,197.9c-4.03,18.68-23.98,13.64-24.29-1.85l.72-.83c4.93,0,19.54,21.36,22.18-6.5,1.56,3.31,1.5,5.04,1.5,8.86v.32h-.12Z"/>
      <path class="cls-13" d="M359.19,183.49c-.9,2.04-.84,2.29-2.46,3.63-4.99-12.62-13.41-7.2-21.64-8.03,2.04-3.19,3.37-4.72,6.31-6.57,6.91-1.59,9.98-.57,15.21,4.97,1.2,2.42,1.74,3.44,2.58,5.99h0Z"/>
      <path class="cls-14" d="M337.73,192.93c-3.73-5.04-2.52-9.05,2.34-11.92,4.21,5.23,1.62,8.03-2.34,11.92Z"/>
      <path class="cls-13" d="M359.19,200.13l-1.02-2.61c0-3.82.12-5.55-1.5-8.86v-1.59c1.68-1.34,1.62-1.59,2.52-3.63,1.44,6.57,1.68,9.82,0,16.7Z"/>
      <path class="cls-9" d="M295.49,179.38c-.77,1.53-.77,1.69-1.99,2.66l-.15,1.23c.92,2.61.72,3.94.46,6.85l.56,2.04c-8.23,18.2-26.84,2.35-15.54-17.59,1.64-2.3,2.66-3.43,4.91-4.65,4.96-.77,7.05.15,10.38,4.75.66,1.89.97,2.76,1.43,4.75l-.05-.05Z"/>
      <path class="cls-11" d="M293.75,190.32c-4.09,14.01-17.79,8.95-16.97-2.91l.56-.61c3.48.31,12.27,17.53,16-3.58.92,2.61.72,3.94.46,6.85v.26h-.05Z"/>
      <path class="cls-13" d="M295.49,179.38c-.77,1.53-.77,1.69-1.99,2.66-2.66-9.97-8.95-6.34-14.67-7.51,1.64-2.3,2.66-3.43,4.91-4.65,4.96-.77,7.05.15,10.38,4.75.66,1.89.97,2.76,1.43,4.75h-.05Z"/>
      <path class="cls-14" d="M279.8,185.31c-2.3-4.04-1.18-7.11,2.45-8.95,2.61,4.24.61,6.24-2.45,8.95Z"/>
      <path class="cls-13" d="M294.37,192.11l-.56-2.04c.26-2.91.41-4.24-.46-6.85l.15-1.23c1.23-.92,1.23-1.12,1.99-2.66.56,5.11.51,7.62-1.12,12.73v.05Z"/>
      <path class="cls-6" d="M437.3,560.64c-7.77-.46-29.55-6.59-28.32-17.59.97-8.54,7.92-14.26,13.04-20.19-.56,5.21,8.64,6.54,12.88,9.25l3.68-6.7c13.14,10.43,10.43,9.56,6.59,23.52-1.89,6.9,2.71,5.62-5.67,11.96l-2.25-.15.05-.1Z"/>
      <path class="cls-2" d="M436.38,559.26c2.4-1.33,4.55-6.08,5.93-8.69-12.88-1.28-20.65-5.21-29.5-14.88,6.08,3.22,28.93,19.78,33.13,9.36-1.28-7.87-16.26-10.74-17.64-13.85,1.43.51,3.07,1.02,4.45,1.64,4.7,1.89,11.14,8.54,15.03,5.01-1.79,7.62-2.3,16.67-8.64,22.44-8.18,7.46-25.92-6.54-30.88-12.52,8.59,1.53,18.61,16.87,28.12,11.5h0Z"/>
      <path class="cls-7" d="M434.9,532.06c-4.24-2.71-13.44-3.99-12.88-9.25,2.5-4.5,8.69-18.25,13.14-20.65,1.12-.56,3.43-.2,4.81,0,6.7,4.55,7.57,6.39,3.32,14.01-1.64,2.91-3.22,6.19-4.65,9.2l-3.68,6.7h-.05Z"/>
      <path class="cls-2" d="M402.39,560.95l-.2-.77c3.68,1.99,4.35,3.22,7.16,5.06,7.62,4.86,16,6.49,20.35,9.46l-.26.66c-4.96.46-6.8-.41-11.5-2.25-6.03-3.53-10.48-7.36-15.54-12.17h0Z"/>
      <path class="cls-5" d="M322.64,685.48c7.87,8.79,37.11,4.86,47.13,0,6.34-12.12,17.59-36.71,22.9-49.23-3.02-2.04-7.92-4.55-8.64-8.38-1.28-6.7,10.79-31.7,15.39-34.71l-5.73-2.86c-5.11,10.02-14.11,29.09-25.2,32.51-2.5.77-6.13.92-8.79,1.07-6.54,8.28-37.93,53.22-37.11,61.7l.05-.1ZM363.48,679.04c.66-4.86,12.73-24.95,15.69-30.01l1.28.92c.26,2.76-14.06,27.5-16.51,30.72l-.46-1.64h0ZM354.79,679.45c-.26-2.91,16.51-31.34,19.27-35.32l1.02,1.43c-.26,4.24-16.36,29.5-19.73,34.76l-.56-.87h0ZM344.47,678.32c.2-4.09,18.35-32.21,21.52-37.17l1.18,1.64c.05,3.89-18.15,31.39-21.68,37.01l-1.02-1.48h0Z"/>
      <path class="cls-7" d="M393.75,590.14c-2.35-2.15-2.2-1.38-3.02-4.14.87-6.29,5.98-12.17,8.95-18.35,3.02,4.65,6.8,8.95,12.32,10.38-2.4,4.35-4.65,9.25-7.72,13.19-1.43,1.84-2.66,1.58-4.75,1.79l-5.73-2.86h-.05Z"/>
    </g>
  </g>
</svg>