<?xml version="1.0" encoding="UTF-8"?>
<!-- Created with Grafika (https://www.grafika.cc/) -->
<svg xmlns="http://www.w3.org/2000/svg" xmlns:svg="http://www.w3.org/2000/svg" xmlns:xlink="http://www.w3.org/1999/xlink" width="1000" height="1000" viewBox="0 0 1000 1000" preserveAspectRatio="xMidYMid meet">
	<g transform="matrix(1, 0, 0, 1, 500, 500)">
		<g transform="matrix(1.7618972063064575, 0, 0, 1.7618972063064575, -0.489837646484375, -0.985137939453125)">
			<path transform="matrix(0.5, 0, 0, 0.5, -512, -512)" d="M1278.28,825.31 C1288.08,825.2 1316.05,832.63 1328.29,834.65 C1338.55,835.75 1357.99,840.49 1368.07,843.17 C1397.78,849.18 1407.55,854.57 1400.24,888.44 C1387.14,940.64 1377.82,994.42 1364.73,1046.71 C1360.4,1064 1355.61,1082.86 1352.47,1100.35 C1341.62,1105.84 1322.33,1119.56 1311.22,1126.61 C1288.75,1140.79 1264.86,1152.57 1239.93,1161.76 L1238.12,1162.43 C1237.55,1185.71 1236.52,1208.98 1235.04,1232.22 C1234.49,1240.47 1231.83,1265.51 1232.14,1272.31 L1231.97,1272.81 C1232.11,1285.3 1223.16,1351.09 1224.93,1355.73 C1254.86,1344.6 1286.16,1324.19 1312.67,1306.8 C1305.66,1345.59 1300.46,1389.09 1292.52,1426.72 C1286.1,1456.98 1283.72,1489.49 1277.86,1520.04 C1273.47,1542.95 1274.62,1570.18 1252.44,1584.58 C1236.29,1595.22 1212.5,1592.34 1193.57,1592.3 L1119,1592.08 L936.86,1592.02 C903.85,1592.02 864.25,1591.18 831.7,1592.4 C792.69,1592.99 781.33,1579.12 774.4,1542.69 C773.11,1539.01 769.22,1508.63 768.55,1503.35 C765.48,1479.02 762,1456.43 757.47,1432.29 C752.4,1406.03 748.65,1379.29 744.02,1352.89 C741.34,1337.57 737.07,1320.89 735.14,1305.83 C731.75,1283 724.22,1242.55 718.31,1219.86 C711.97,1198.66 707.07,1171.89 702.51,1149.93 C698.67,1131.42 693.27,1109.01 690.42,1090.62 C686,1063.37 679.62,1037.25 673.35,1010.41 L647.02,898.88 C636.78,855.69 637.84,856.63 680.12,843.89 C699.1,838.82 712.93,835.57 732.31,832.54 C747.33,830.55 762.41,829.01 777.52,827.92 C780.68,841.11 788.14,880.69 796.6,888.79 C808.1,892.72 828,887.6 841.47,888 C850.39,887.13 859.32,886.48 868.27,886.06 C871.59,891.17 872.84,904.58 874.67,911.06 C885.38,949.1 907.67,978.4 949.82,979.16 C967.13,981.09 990.28,979.2 1008.44,979.39 L1061.17,979.62 C1068.01,979.64 1081.02,979.21 1087.23,979.73 C1101,980.51 1141.07,975.88 1145.48,959.82 C1153.68,957.85 1164.35,931.93 1167.2,924.57 C1171.1,914.48 1174.04,895.16 1181.59,888.1 C1187.96,885.58 1216.03,889.38 1225.24,890.18 C1230.72,891.02 1239.16,891.16 1244.91,891.41 C1251.83,874.6 1260.9,835.53 1271.03,825.73 L1272.43,826.24 C1274.48,826.14 1276.26,825.7 1278.28,825.31 L1278.28,825.31 L1278.28,825.31 Z" style="fill:#9A2C29;" />
			<path transform="matrix(0.5, 0, 0, 0.5, -512, -512)" d="M735.14,1305.83 C750.47,1308.79 770.18,1314.29 784.36,1316.28 L784.95,1316.62 L902.99,1344.28 C953.48,1356.38 1003.47,1368.58 1054.93,1376.14 C1116.38,1385.15 1165.86,1378.31 1223.61,1356.36 L1224.93,1355.73 C1254.86,1344.6 1286.16,1324.19 1312.67,1306.8 C1305.66,1345.59 1300.46,1389.09 1292.52,1426.72 C1286.1,1456.98 1283.72,1489.49 1277.86,1520.04 C1273.47,1542.95 1274.62,1570.18 1252.44,1584.58 C1236.29,1595.22 1212.5,1592.34 1193.57,1592.3 L1119,1592.08 L936.86,1592.02 C903.85,1592.02 864.25,1591.18 831.7,1592.4 C792.69,1592.99 781.33,1579.12 774.4,1542.69 C773.11,1539.01 769.22,1508.63 768.55,1503.35 C765.48,1479.02 762,1456.43 757.47,1432.29 C752.4,1406.03 748.65,1379.29 744.02,1352.89 C741.34,1337.57 737.07,1320.89 735.14,1305.83 L735.14,1305.83 L735.14,1305.83 Z" style="fill:#F0DAB0;" />
			<path transform="matrix(0.5, 0, 0, 0.5, -512, -512)" d="M1209.29,1472.34 C1242.02,1458.01 1262.03,1443.72 1292.52,1426.72 C1286.1,1456.98 1283.72,1489.49 1277.86,1520.04 C1273.47,1542.95 1274.62,1570.18 1252.44,1584.58 C1236.29,1595.22 1212.5,1592.34 1193.57,1592.3 L1119,1592.08 L936.86,1592.02 C903.85,1592.02 864.25,1591.18 831.7,1592.4 C792.69,1592.99 781.33,1579.12 774.4,1542.69 C773.11,1539.01 769.22,1508.63 768.55,1503.35 C765.48,1479.02 762,1456.43 757.47,1432.29 C771.92,1434.28 789.34,1438.53 803.76,1441.76 L804.55,1441.75 C823.96,1443.98 851.21,1450.31 870.92,1454.37 L1004.62,1482.53 C1077.06,1497.19 1137.59,1505.39 1208.23,1473.22 L1209.29,1472.34 L1209.29,1472.34 L1209.29,1472.34 Z" style="fill:#551D1A;" />
			<path transform="matrix(0.5, 0, 0, 0.5, -512, -512)" d="M757.47,1432.29 C771.92,1434.28 789.34,1438.53 803.76,1441.76 L804.55,1441.75 C823.96,1443.98 851.21,1450.31 870.92,1454.37 L1004.62,1482.53 C1077.06,1497.19 1137.59,1505.39 1208.23,1473.22 C1205.12,1494.41 1204.45,1517.51 1185.41,1531.53 C1168.18,1544.2 1149.75,1541.18 1129.39,1541.09 L1067.8,1540.92 L910.26,1541.27 C880.44,1541.25 846.19,1540.41 816.69,1541.11 L816.2,1540.88 C808.99,1540.82 778.16,1539.42 774.4,1542.69 C773.11,1539.01 769.22,1508.63 768.55,1503.35 C765.48,1479.02 762,1456.43 757.47,1432.29 L757.47,1432.29 L757.47,1432.29 Z" style="fill:#9A2C29;" />
			<path transform="matrix(0.5, 0, 0, 0.5, -512, -512)" d="M757.47,1432.29 C771.92,1434.28 789.34,1438.53 803.76,1441.76 L804.55,1441.75 C802.55,1449.58 815.51,1525.89 816.2,1540.88 C808.99,1540.82 778.16,1539.42 774.4,1542.69 C773.11,1539.01 769.22,1508.63 768.55,1503.35 C765.48,1479.02 762,1456.43 757.47,1432.29 L757.47,1432.29 L757.47,1432.29 Z" style="fill:#C69876;" />
			<path transform="matrix(0.5, 0, 0, 0.5, -512, -512)" d="M816.2,1540.88 L816.69,1541.11 C816.53,1553.04 821.27,1567.68 825.81,1578.56 C827.42,1582.41 830.71,1588.78 831.7,1592.4 C792.69,1592.99 781.33,1579.12 774.4,1542.69 C778.16,1539.42 808.99,1540.82 816.2,1540.88 L816.2,1540.88 L816.2,1540.88 Z" style="fill:#9A2C29;" />
			<path transform="matrix(0.5, 0, 0, 0.5, -512, -512)" d="M1224.93,1355.73 C1254.86,1344.6 1286.16,1324.19 1312.67,1306.8 C1305.66,1345.59 1300.46,1389.09 1292.52,1426.72 C1262.03,1443.72 1242.02,1458.01 1209.29,1472.34 C1213.28,1447.56 1216.25,1421.51 1219.6,1396.62 C1220.72,1388.32 1224.21,1363.53 1223.61,1356.36 L1224.93,1355.73 L1224.93,1355.73 L1224.93,1355.73 Z" style="fill:#C69876;" />
			<path transform="matrix(0.5, 0, 0, 0.5, -512, -512)" d="M735.14,1305.83 C750.47,1308.79 770.18,1314.29 784.36,1316.28 L784.95,1316.62 L797.89,1402.94 C799.43,1413.19 801.55,1432.94 803.76,1441.76 C789.34,1438.53 771.92,1434.28 757.47,1432.29 C752.4,1406.03 748.65,1379.29 744.02,1352.89 C741.34,1337.57 737.07,1320.89 735.14,1305.83 L735.14,1305.83 L735.14,1305.83 Z" style="fill:#F6EDC7;" />
			<path transform="matrix(0.5, 0, 0, 0.5, -512, -512)" d="M690.42,1090.62 C712.22,1096.1 733.95,1101.89 755.59,1107.99 C803.13,1120.96 850.78,1133.55 898.52,1145.76 C992.43,1170.08 1093.58,1197.21 1190.03,1176.21 C1204.41,1173.08 1224.67,1168.11 1238.12,1162.43 C1237.55,1185.71 1236.52,1208.98 1235.04,1232.22 C1234.49,1240.47 1231.83,1265.51 1232.14,1272.31 L1231.97,1272.81 C1232.11,1285.3 1223.16,1351.09 1224.93,1355.73 L1223.61,1356.36 C1165.86,1378.31 1116.38,1385.15 1054.93,1376.14 C1003.47,1368.58 953.48,1356.38 902.99,1344.28 L784.95,1316.62 L784.36,1316.28 C770.18,1314.29 750.47,1308.79 735.14,1305.83 C731.75,1283 724.22,1242.55 718.31,1219.86 C711.97,1198.66 707.07,1171.89 702.51,1149.93 C698.67,1131.42 693.27,1109.01 690.42,1090.62 L690.42,1090.62 L690.42,1090.62 Z" style="fill:#F0DAB0;" />
			<path transform="matrix(0.5, 0, 0, 0.5, -512, -512)" d="M718.31,1219.86 C735.06,1223.06 755.29,1228.59 772.12,1232.74 L773.26,1232.92 C829.88,1248.18 886.83,1262.17 944.07,1274.86 C1054.66,1299.72 1124.03,1317.41 1231.97,1272.81 C1232.11,1285.3 1223.16,1351.09 1224.93,1355.73 L1223.61,1356.36 C1165.86,1378.31 1116.38,1385.15 1054.93,1376.14 C1003.47,1368.58 953.48,1356.38 902.99,1344.28 L784.95,1316.62 L784.36,1316.28 C770.18,1314.29 750.47,1308.79 735.14,1305.83 C731.75,1283 724.22,1242.55 718.31,1219.86 L718.31,1219.86 L718.31,1219.86 Z" style="fill:#9A2C29;" />
			<path transform="matrix(0.5, 0, 0, 0.5, -512, -512)" d="M718.31,1219.86 C735.06,1223.06 755.29,1228.59 772.12,1232.74 L773.26,1232.92 C776,1259.82 782.31,1291.34 784.36,1316.28 C770.18,1314.29 750.47,1308.79 735.14,1305.83 C731.75,1283 724.22,1242.55 718.31,1219.86 L718.31,1219.86 L718.31,1219.86 Z" style="fill:#C69876;" />
			<path transform="matrix(0.5, 0, 0, 0.5, -512, -512)" d="M690.42,1090.62 C712.22,1096.1 733.95,1101.89 755.59,1107.99 C758.01,1123.68 774.96,1225.87 772.12,1232.74 C755.29,1228.59 735.06,1223.06 718.31,1219.86 C711.97,1198.66 707.07,1171.89 702.51,1149.93 C698.67,1131.42 693.27,1109.01 690.42,1090.62 L690.42,1090.62 L690.42,1090.62 Z" style="fill:#F6EDC7;" />
			<path transform="matrix(0.5, 0, 0, 0.5, -512, -512)" d="M1278.28,825.31 C1288.08,825.2 1316.05,832.63 1328.29,834.65 C1338.55,835.75 1357.99,840.49 1368.07,843.17 C1397.78,849.18 1407.55,854.57 1400.24,888.44 C1393.11,884.45 1369.38,879.27 1360.69,877.16 C1336.82,871.22 1312.86,865.62 1288.83,860.36 C1276.7,898.2 1282.16,935.95 1229.79,924.31 C1221.78,922.76 1213.31,921.48 1205.23,920.14 L1200,934.82 C1186.5,972.29 1169.34,1003.86 1132.1,1021.11 C1123.41,1025.22 1114.14,1028 1104.62,1029.33 C1081.91,1032.41 1045.09,1030.41 1021.41,1030.86 C996.69,1030.15 970.85,1031.59 946.22,1029.71 C903.43,1026.45 867.64,990.49 851.5,952.73 C846.89,941.92 844.48,930.8 839.58,920.15 L838.94,918.79 C769.19,926.21 779.09,931.13 749.18,868.18 C741.32,869 731.65,870.27 724.1,872.39 C705.73,876.07 687.76,881.51 670.44,888.63 C664.7,890.97 651.7,897.7 647.02,898.88 C636.78,855.69 637.84,856.63 680.12,843.89 C699.1,838.82 712.93,835.57 732.31,832.54 C747.33,830.55 762.41,829.01 777.52,827.92 C780.68,841.11 788.14,880.69 796.6,888.79 C808.1,892.72 828,887.6 841.47,888 C850.39,887.13 859.32,886.48 868.27,886.06 C871.59,891.17 872.84,904.58 874.67,911.06 C885.38,949.1 907.67,978.4 949.82,979.16 C967.13,981.09 990.28,979.2 1008.44,979.39 L1061.17,979.62 C1068.01,979.64 1081.02,979.21 1087.23,979.73 C1101,980.51 1141.07,975.88 1145.48,959.82 C1153.68,957.85 1164.35,931.93 1167.2,924.57 C1171.1,914.48 1174.04,895.16 1181.59,888.1 C1187.96,885.58 1216.03,889.38 1225.24,890.18 C1230.72,891.02 1239.16,891.16 1244.91,891.41 C1251.83,874.6 1260.9,835.53 1271.03,825.73 L1272.43,826.24 C1274.48,826.14 1276.26,825.7 1278.28,825.31 L1278.28,825.31 L1278.28,825.31 Z" style="fill:#CF4F44;" />
			<path transform="matrix(0.5, 0, 0, 0.5, -512, -512)" d="M1288.83,860.36 C1312.86,865.62 1336.82,871.22 1360.69,877.16 C1369.38,879.27 1393.11,884.45 1400.24,888.44 C1387.14,940.64 1377.82,994.42 1364.73,1046.71 C1360.4,1064 1355.61,1082.86 1352.47,1100.35 C1341.62,1105.84 1322.33,1119.56 1311.22,1126.61 C1288.75,1140.79 1264.86,1152.57 1239.93,1161.76 C1238.21,1156.23 1239.48,1124.43 1239.29,1116.16 C1237.8,1051.91 1237.35,988.17 1229.79,924.31 C1282.16,935.95 1276.7,898.2 1288.83,860.36 L1288.83,860.36 L1288.83,860.36 Z" style="fill:#551D1A;" />
			<path transform="matrix(0.5, 0, 0, 0.5, -512, -512)" d="M647.02,898.88 C651.7,897.7 664.7,890.97 670.44,888.63 C687.76,881.51 705.73,876.07 724.1,872.39 L755.59,1107.99 C733.95,1101.89 712.22,1096.1 690.42,1090.62 C686,1063.37 679.62,1037.25 673.35,1010.41 L647.02,898.88 L647.02,898.88 L647.02,898.88 Z" style="fill:#C69876;" />
			<path transform="matrix(0.5, 0, 0, 0.5, -512, -512)" d="M1111.86,472.53 C1118.16,465.66 1137.06,453.35 1145.97,458.99 C1167.91,472.88 1186.53,493.77 1205.69,511.32 C1209.47,514.8 1220.29,525.4 1217.66,530.83 C1211.92,557.75 1206.48,584.74 1201.35,611.79 C1217.5,615.11 1295.74,631.09 1303.65,638.94 C1303.96,641.68 1304.41,641.67 1303.53,643.78 C1298.31,683.87 1293.67,721.4 1286.14,761.38 C1282.55,780.44 1274.43,808.67 1272.43,826.24 L1271.03,825.73 C1260.9,835.53 1251.83,874.6 1244.91,891.41 C1239.16,891.16 1230.72,891.02 1225.24,890.18 C1216.03,889.38 1187.96,885.58 1181.59,888.1 C1174.04,895.16 1171.1,914.48 1167.2,924.57 C1164.35,931.93 1153.68,957.85 1145.48,959.82 C1141.07,975.88 1101,980.51 1087.23,979.73 C1081.02,979.21 1068.01,979.64 1061.17,979.62 L1008.44,979.39 C1007.02,973.15 1006.51,969.45 1005.78,963.09 C998.06,951.98 969.77,835.04 969.67,819.29 C966.15,800.19 958.46,757.53 957.96,738.29 C959.94,735.42 971.09,706.55 972.89,701.55 C985.83,665.75 999.27,630.13 1015.71,595.76 C1019.14,588.61 1030.44,560.43 1037.11,559.21 C1042.28,567.6 1063.66,592.95 1064.8,596.86 C1078.22,601.19 1092.12,604.36 1105.12,609.53 L1106.51,609.13 C1113.76,601.27 1099.38,586.77 1099.61,581.21 C1100.67,565.85 1103.46,546.91 1104.75,531.14 C1105.95,516.45 1108.29,485.61 1111.86,472.53 L1111.86,472.53 L1111.86,472.53 Z" style="fill:#F0DAB0;" />
			<path transform="matrix(0.5, 0, 0, 0.5, -512, -512)" d="M957.96,738.29 C959.94,735.42 971.09,706.55 972.89,701.55 C985.83,665.75 999.27,630.13 1015.71,595.76 C1019.14,588.61 1030.44,560.43 1037.11,559.21 C1042.28,567.6 1063.66,592.95 1064.8,596.86 C1078.22,601.19 1092.12,604.36 1105.12,609.53 C1106.54,614.52 1096.09,636.69 1094.38,643.81 C1087.22,662.78 1079.55,684.55 1071.46,702.92 C1071.02,709.53 1082.2,708.6 1087.8,709.5 C1101.35,712.97 1114.06,718.75 1126.87,721.72 C1131.03,727.82 1133.78,731.6 1136.53,738.55 L1136.07,741.18 C1133.14,759.45 1129.9,777.66 1126.35,795.82 C1124.44,805.59 1117.6,829.33 1122.75,837.47 C1120.51,841.71 1117.07,847.84 1115.93,852.38 C1105.46,893.96 1098.95,938.49 1087.23,979.73 C1081.02,979.21 1068.01,979.64 1061.17,979.62 L1008.44,979.39 C1007.02,973.15 1006.51,969.45 1005.78,963.09 C998.06,951.98 969.77,835.04 969.67,819.29 C966.15,800.19 958.46,757.53 957.96,738.29 L957.96,738.29 L957.96,738.29 Z" style="fill:#F0DAB0;" />
			<path transform="matrix(0.5, 0, 0, 0.5, -512, -512)" d="M957.96,738.29 C959.94,735.42 971.09,706.55 972.89,701.55 C985.83,665.75 999.27,630.13 1015.71,595.76 C1019.14,588.61 1030.44,560.43 1037.11,559.21 C1042.28,567.6 1063.66,592.95 1064.8,596.86 C1078.22,601.19 1092.12,604.36 1105.12,609.53 C1106.54,614.52 1096.09,636.69 1094.38,643.81 C1087.22,662.78 1079.55,684.55 1071.46,702.92 C1054.12,702.35 1032.12,694.11 1032.85,718.28 C1031.87,738.31 1026.32,773.64 1023.71,794.22 C1019.49,828.25 1015.66,862.32 1012.2,896.44 C1010.03,917 1006.91,942.65 1005.78,963.09 C998.06,951.98 969.77,835.04 969.67,819.29 C966.15,800.19 958.46,757.53 957.96,738.29 L957.96,738.29 L957.96,738.29 Z" style="fill:#CA885B;" />
			<path transform="matrix(0.5, 0, 0, 0.5, -512, -512)" d="M957.96,738.29 C959.94,735.42 971.09,706.55 972.89,701.55 C985.83,665.75 999.27,630.13 1015.71,595.76 C1019.14,588.61 1030.44,560.43 1037.11,559.21 C1042.28,567.6 1063.66,592.95 1064.8,596.86 C1055.28,622.03 1046.12,647.33 1037.32,672.76 C1034.8,680.15 1032.18,687.77 1029.93,695.41 C1018.76,733.4 996.89,767.93 978.85,802.96 C976.09,808.33 972.79,814.25 969.67,819.29 C966.15,800.19 958.46,757.53 957.96,738.29 L957.96,738.29 L957.96,738.29 Z" style="fill:#F0DAB0;" />
			<path transform="matrix(0.5, 0, 0, 0.5, -512, -512)" d="M1032.85,718.28 C1032.12,694.11 1054.12,702.35 1071.46,702.92 C1071.02,709.53 1082.2,708.6 1087.8,709.5 C1101.35,712.97 1114.06,718.75 1126.87,721.72 C1131.03,727.82 1133.78,731.6 1136.53,738.55 L1136.07,741.18 C1115.67,740.16 1095.26,740.49 1075,738.1 C1058.48,736.16 1046.97,723.6 1032.85,718.28 L1032.85,718.28 L1032.85,718.28 Z" style="fill:#F6EDC7;" />
			<path transform="matrix(0.5, 0, 0, 0.5, -512, -512)" d="M1111.86,472.53 C1118.16,465.66 1137.06,453.35 1145.97,458.99 C1167.91,472.88 1186.53,493.77 1205.69,511.32 C1209.47,514.8 1220.29,525.4 1217.66,530.83 C1213.5,529.44 1176.87,540.65 1170.68,543.19 C1164.71,589.65 1157.35,635.92 1148.61,681.94 C1146.18,695.06 1140.78,726.39 1136.53,738.55 C1133.78,731.6 1131.03,727.82 1126.87,721.72 C1114.06,718.75 1101.35,712.97 1087.8,709.5 C1082.2,708.6 1071.02,709.53 1071.46,702.92 C1079.55,684.55 1087.22,662.78 1094.38,643.81 C1096.09,636.69 1106.54,614.52 1105.12,609.53 L1106.51,609.13 C1113.76,601.27 1099.38,586.77 1099.61,581.21 C1100.67,565.85 1103.46,546.91 1104.75,531.14 C1105.95,516.45 1108.29,485.61 1111.86,472.53 L1111.86,472.53 L1111.86,472.53 Z" style="fill:#F0DAB0;" />
			<path transform="matrix(0.5, 0, 0, 0.5, -512, -512)" d="M1111.86,472.53 C1118.16,465.66 1137.06,453.35 1145.97,458.99 C1167.91,472.88 1186.53,493.77 1205.69,511.32 C1209.47,514.8 1220.29,525.4 1217.66,530.83 C1213.5,529.44 1176.87,540.65 1170.68,543.19 C1164.88,537.62 1150.52,520.16 1144.73,513.21 C1135.62,502.26 1118.98,484.06 1111.86,472.53 L1111.86,472.53 L1111.86,472.53 Z" style="fill:#F6EDC7;" />
			<path transform="matrix(0.5, 0, 0, 0.5, -512, -512)" d="M1094.38,643.81 C1098.24,650.21 1088.23,698.6 1087.8,709.5 C1082.2,708.6 1071.02,709.53 1071.46,702.92 C1079.55,684.55 1087.22,662.78 1094.38,643.81 L1094.38,643.81 L1094.38,643.81 Z" style="fill:#FDFDFD;" />
			<path transform="matrix(0.5, 0, 0, 0.5, -512, -512)" d="M1252.77,664.15 C1259.49,659.36 1296.2,642.36 1303.53,643.78 C1298.31,683.87 1293.67,721.4 1286.14,761.38 C1282.55,780.44 1274.43,808.67 1272.43,826.24 L1271.03,825.73 C1260.9,835.53 1251.83,874.6 1244.91,891.41 C1239.16,891.16 1230.72,891.02 1225.24,890.18 C1230.64,859.33 1234.74,819.12 1238.68,787.28 C1243.23,750.56 1251.68,700.01 1252.77,664.15 L1252.77,664.15 L1252.77,664.15 Z" style="fill:#EAC081;" />
			<path transform="matrix(0.5, 0, 0, 0.5, -512, -512)" d="M1170.68,543.19 C1176.87,540.65 1213.5,529.44 1217.66,530.83 C1211.92,557.75 1206.48,584.74 1201.35,611.79 C1190.45,611.16 1171.44,606.96 1175.63,623.79 C1174.87,632.13 1172.11,671.55 1170.14,676.33 C1168.24,697.23 1166.48,718.14 1164.86,739.07 C1164.14,748.65 1163.5,765.41 1162.26,774.19 L1161.76,766.76 L1160.92,766.89 C1149.73,784.17 1140.46,806.9 1129.86,823.01 C1128.04,826.87 1124.88,834.09 1122.75,837.47 C1117.6,829.33 1124.44,805.59 1126.35,795.82 C1129.9,777.66 1133.14,759.45 1136.07,741.18 L1136.53,738.55 C1140.78,726.39 1146.18,695.06 1148.61,681.94 C1157.35,635.92 1164.71,589.65 1170.68,543.19 L1170.68,543.19 L1170.68,543.19 Z" style="fill:#EAC081;" />
			<path transform="matrix(0.5, 0, 0, 0.5, -512, -512)" d="M1129.86,823.01 C1130.05,816.75 1166.37,680.96 1170.14,676.33 C1168.24,697.23 1166.48,718.14 1164.86,739.07 C1164.14,748.65 1163.5,765.41 1162.26,774.19 L1161.76,766.76 L1160.92,766.89 C1149.73,784.17 1140.46,806.9 1129.86,823.01 L1129.86,823.01 L1129.86,823.01 Z" style="fill:#EAA850;" />
			<path transform="matrix(0.5, 0, 0, 0.5, -512, -512)" d="M1129.86,823.01 C1140.46,806.9 1149.73,784.17 1160.92,766.89 L1161.76,766.76 L1162.26,774.19 C1159.86,811.82 1156.95,849.41 1153.51,886.96 C1151.16,911.21 1147.94,935.55 1145.48,959.82 C1141.07,975.88 1101,980.51 1087.23,979.73 C1098.95,938.49 1105.46,893.96 1115.93,852.38 C1117.07,847.84 1120.51,841.71 1122.75,837.47 C1124.88,834.09 1128.04,826.87 1129.86,823.01 L1129.86,823.01 L1129.86,823.01 Z" style="fill:#A0593D;" />
			<path transform="matrix(0.5, 0, 0, 0.5, -512, -512)" d="M1175.63,623.79 C1171.44,606.96 1190.45,611.16 1201.35,611.79 C1217.5,615.11 1295.74,631.09 1303.65,638.94 C1303.96,641.68 1304.41,641.67 1303.53,643.78 C1296.2,642.36 1259.49,659.36 1252.77,664.15 C1222.78,649.23 1203.88,643.53 1175.63,623.79 L1175.63,623.79 L1175.63,623.79 Z" style="fill:#F6EDC7;" />
			<path transform="matrix(0.5, 0, 0, 0.5, -512, -512)" d="M852.45,545.81 C846.67,528.86 917.57,484.9 936.98,491.06 C941.14,495.39 942.48,515.55 943.12,522.5 C946.15,561.95 948.77,601.44 950.98,640.95 C952.67,670.87 954.14,708.94 957.96,738.29 C958.46,757.53 966.15,800.19 969.67,819.29 C969.77,835.04 998.06,951.98 1005.78,963.09 C1006.51,969.45 1007.02,973.15 1008.44,979.39 C990.28,979.2 967.13,981.09 949.82,979.16 C907.67,978.4 885.38,949.1 874.67,911.06 C872.84,904.58 871.59,891.17 868.27,886.06 C862.77,871.85 855.96,832.81 853.61,816.86 C857.48,824.09 879.79,842.01 887.49,841.25 C891.71,830.75 872.12,760.59 870.2,745.55 C868.48,732.2 868.21,716.53 867.34,703 C865.34,670.29 862.87,637.62 859.93,604.98 C858.25,586.68 856.34,563.63 852.45,545.81 L852.45,545.81 L852.45,545.81 Z" style="fill:#F0DAB0;" />
			<path transform="matrix(0.5, 0, 0, 0.5, -512, -512)" d="M912.04,577.8 C914.82,567.43 936.57,531.9 943.12,522.5 C946.15,561.95 948.77,601.44 950.98,640.95 C952.67,670.87 954.14,708.94 957.96,738.29 C958.46,757.53 966.15,800.19 969.67,819.29 C969.77,835.04 998.06,951.98 1005.78,963.09 C1006.51,969.45 1007.02,973.15 1008.44,979.39 C990.28,979.2 967.13,981.09 949.82,979.16 C956.78,978.65 968.42,979.17 975.72,979.28 C973.2,966.6 968.76,950.71 965.16,938.09 C930.9,818.14 919.43,702.27 912.04,577.8 L912.04,577.8 L912.04,577.8 Z" style="fill:#EAC081;" />
			<path transform="matrix(0.5, 0, 0, 0.5, -512, -512)" d="M852.45,545.81 C846.67,528.86 917.57,484.9 936.98,491.06 C941.14,495.39 942.48,515.55 943.12,522.5 C936.57,531.9 914.82,567.43 912.04,577.8 C901.53,578.32 866.74,549.77 852.45,545.81 L852.45,545.81 L852.45,545.81 Z" style="fill:#F6EDC7;" />
			<path transform="matrix(0.5, 0, 0, 0.5, -512, -512)" d="M714.42,557.7 C709.41,544.01 775.43,484.77 793.89,490.94 C801.12,497.12 803.62,511.52 805.97,520.8 C809.12,531.69 810.28,545.18 812.57,556.6 C829.85,642.78 838.59,730.31 853.61,816.86 C855.96,832.81 862.77,871.85 868.27,886.06 C859.32,886.48 850.39,887.13 841.47,888 C828,887.6 808.1,892.72 796.6,888.79 C788.14,880.69 780.68,841.11 777.52,827.92 L772.51,814.93 C774.74,809.32 757.05,740.67 754.61,730.36 L731.35,627.7 C725.7,603.63 719.56,582.36 714.42,557.7 L714.42,557.7 L714.42,557.7 Z" style="fill:#F0DAB0;" />
			<path transform="matrix(0.5, 0, 0, 0.5, -512, -512)" d="M805.97,520.8 C809.12,531.69 810.28,545.18 812.57,556.6 C829.85,642.78 838.59,730.31 853.61,816.86 C855.96,832.81 862.77,871.85 868.27,886.06 C859.32,886.48 850.39,887.13 841.47,888 L846.92,886.56 C847.17,886.04 847.42,885.53 847.66,885.01 C825.68,823.3 789.65,630.25 777.46,582.06 C781.67,572.74 786.38,563.53 790.75,554.22 C795.8,543.48 800.53,531.12 805.97,520.8 L805.97,520.8 L805.97,520.8 Z" style="fill:#EAC081;" />
			<path transform="matrix(0.5, 0, 0, 0.5, -512, -512)" d="M714.42,557.7 C709.41,544.01 775.43,484.77 793.89,490.94 C801.12,497.12 803.62,511.52 805.97,520.8 C800.53,531.12 795.8,543.48 790.75,554.22 C786.38,563.53 781.67,572.74 777.46,582.06 C772.81,581.7 723.81,558.14 715.56,556.01 L714.42,557.7 L714.42,557.7 L714.42,557.7 Z" style="fill:#F6EDC7;" />
			<path transform="matrix(0.5, 0, 0, 0.5, -512, -512)" d="M599.25,695.45 C617.1,668.03 659.37,654.19 690.66,652.82 C694.38,652.66 694.72,653.22 696.94,655.67 C726.41,711.76 749.22,755.43 772.51,814.93 L777.52,827.92 C762.41,829.01 747.33,830.55 732.31,832.54 C712.93,835.57 699.1,838.82 680.12,843.89 C679,840.61 663.93,814.96 661.36,810.29 L628.54,749.88 C618.71,732.06 607.97,713.74 599.25,695.45 L599.25,695.45 L599.25,695.45 Z" style="fill:#F0DAB0;" />
			<path transform="matrix(0.5, 0, 0, 0.5, -512, -512)" d="M696.94,655.67 C726.41,711.76 749.22,755.43 772.51,814.93 L777.52,827.92 C762.41,829.01 747.33,830.55 732.31,832.54 C731.97,830.31 724.72,812.62 723.36,809.16 C715.56,789.18 706.97,768.36 699.13,748.47 C694.52,736.78 680.62,709.15 679.34,698.99 C684.99,684.62 690.64,669.71 696.94,655.67 L696.94,655.67 L696.94,655.67 Z" style="fill:#EAA850;" />
			<path transform="matrix(0.5, 0, 0, 0.5, -512, -512)" d="M599.25,695.45 C617.1,668.03 659.37,654.19 690.66,652.82 C694.38,652.66 694.72,653.22 696.94,655.67 C690.64,669.71 684.99,684.62 679.34,698.99 C671.39,695.07 610.39,694.45 599.25,695.45 L599.25,695.45 L599.25,695.45 Z" style="fill:#F6EDC7;" />
			<path transform="matrix(0.5, 0, 0, 0.5, -512, -512)" d="M1239.93,1161.76 C1264.86,1152.57 1288.75,1140.79 1311.22,1126.61 C1322.33,1119.56 1341.62,1105.84 1352.47,1100.35 C1347.1,1127.97 1341.55,1155.56 1335.84,1183.12 C1333.91,1192.81 1330.99,1212.12 1328.64,1220.75 C1324.15,1244.81 1318.3,1284.12 1312.67,1306.8 C1286.16,1324.19 1254.86,1344.6 1224.93,1355.73 C1223.16,1351.09 1232.11,1285.3 1231.97,1272.81 L1232.14,1272.31 C1231.83,1265.51 1234.49,1240.47 1235.04,1232.22 C1236.52,1208.98 1237.55,1185.71 1238.12,1162.43 L1239.93,1161.76 L1239.93,1161.76 L1239.93,1161.76 Z" style="fill:#C69876;" />
			<path transform="matrix(0.5, 0, 0, 0.5, -512, -512)" d="M1232.14,1272.31 C1251.26,1266.37 1289.53,1241.62 1307.38,1231.03 C1311.35,1228.67 1324.77,1219.54 1327.45,1218.72 L1328.64,1220.75 C1324.15,1244.81 1318.3,1284.12 1312.67,1306.8 C1286.16,1324.19 1254.86,1344.6 1224.93,1355.73 C1223.16,1351.09 1232.11,1285.3 1231.97,1272.81 L1232.14,1272.31 L1232.14,1272.31 L1232.14,1272.31 Z" style="fill:#551D1A;" />
			<path transform="matrix(0.5, 0, 0, 0.5, -512, -512)" d="M1359.63,655.82 C1366.63,666.77 1384.73,694.99 1389.91,705.92 C1404.67,707.93 1434.11,712.35 1447.55,717.56 C1421.31,753.89 1399.76,791.21 1376.49,829.4 C1373.7,833.98 1370.77,838.53 1368.07,843.17 C1357.99,840.49 1338.55,835.75 1328.29,834.65 C1316.05,832.63 1288.08,825.2 1278.28,825.31 C1281.97,816.54 1288.36,804.53 1292.69,795.52 L1329.45,719.47 C1338.23,701.03 1349.08,671.37 1359.63,655.82 L1359.63,655.82 L1359.63,655.82 Z" style="fill:#F0DAB0;" />
			<path transform="matrix(0.5, 0, 0, 0.5, -512, -512)" d="M1389.91,705.92 C1404.67,707.93 1434.11,712.35 1447.55,717.56 C1421.31,753.89 1399.76,791.21 1376.49,829.4 C1373.7,833.98 1370.77,838.53 1368.07,843.17 C1357.99,840.49 1338.55,835.75 1328.29,834.65 C1329.29,834.47 1328.78,834.62 1329.98,833.99 C1333.65,832.04 1385.99,718.38 1389.91,705.92 L1389.91,705.92 L1389.91,705.92 Z" style="fill:#EAA850;" />
			<path transform="matrix(0.5, 0, 0, 0.5, -512, -512)" d="M1359.63,655.82 C1366.49,650.65 1381.68,657.22 1390.26,660.47 C1414.73,669.71 1451.27,679.15 1449.83,712.17 C1449.75,713.97 1448.53,716.08 1447.55,717.56 C1434.11,712.35 1404.67,707.93 1389.91,705.92 C1384.73,694.99 1366.63,666.77 1359.63,655.82 L1359.63,655.82 L1359.63,655.82 Z" style="fill:#F6EDC7;" />
			<path transform="matrix(0.5, 0, 0, 0.5, -512, -512)" d="M1037.11,559.21 C1057.23,559.29 1083.1,570.38 1099.61,581.21 C1099.38,586.77 1113.76,601.27 1106.51,609.13 L1105.12,609.53 C1092.12,604.36 1078.22,601.19 1064.8,596.86 C1063.66,592.95 1042.28,567.6 1037.11,559.21 L1037.11,559.21 L1037.11,559.21 Z" style="fill:#F6EDC7;" />
		</g>
	</g>
</svg>