<?xml version="1.0" encoding="UTF-8"?>
<!-- Created with Grafika (https://www.grafika.cc/) -->
<svg xmlns="http://www.w3.org/2000/svg" xmlns:svg="http://www.w3.org/2000/svg" xmlns:xlink="http://www.w3.org/1999/xlink" width="1000" height="1000" viewBox="0 0 594.4 395.28" preserveAspectRatio="xMidYMid meet">
	<g transform="matrix(1, 0, 0, 1, 297.68951416015625, 187.55841064453125)">
		<path transform="matrix(0.5, 0, 0, 0.5, -512, -512)" d="M1018.94,648.93 C1017.1,648.91 1033.95,648.91 1033.24,648.9 C1144.3,651.56 1266.83,685.26 1345.47,767.95 C1383.63,807.5 1406.64,859.23 1410.44,914.06 C1409.62,928.57 1408.1,931.61 1394.82,938.84 C1395.88,939.67 1398.63,941.65 1399.28,942.58 C1408.08,946.6 1416.41,950.37 1422.17,958.66 C1425.9,965.11 1428.04,971.58 1428.69,979.03 C1429.37,985.62 1430.19,992.46 1432.64,998.68 C1456.88,1010.4 1476.25,1039.43 1492.71,1058.16 C1520.71,1090 1475.06,1089.61 1455.95,1081.31 C1452.98,1080.02 1441.39,1078.86 1438.09,1078.52 C1456.08,1119.65 1464.27,1155.85 1436.59,1194.18 C1439.73,1204.99 1443.24,1222.4 1444.2,1233.89 C1444.81,1234.52 1445.25,1235.39 1446.04,1235.76 C1451.39,1238.28 1466.59,1237.72 1473.34,1238.68 C1498.46,1242.24 1616.41,1260.04 1617.42,1291.91 C1617.59,1297.57 1614.17,1302.65 1610.33,1306.49 C1606.76,1310.06 1591.52,1322.07 1586.98,1323.54 C1566.51,1338.71 1525.4,1359.6 1502.86,1370.69 C1487.14,1378.26 1471.47,1385.92 1455.84,1393.67 C1423.51,1409.62 1419.25,1411.23 1383.3,1416.51 C1349.13,1421.26 1314.83,1425.05 1280.44,1427.89 C1104.82,1443.58 928.13,1443.29 752.56,1427.02 C728.48,1424.73 704.44,1422.08 680.43,1419.09 C644.52,1414.61 636.31,1412.74 603.45,1396.74 C554.85,1373.07 489.64,1352.48 448.12,1317.83 C447.81,1317.67 447.49,1317.54 447.19,1317.36 C440.27,1313.04 430.71,1305.68 428.95,1297.35 C427.95,1292.59 429.29,1288.33 432.12,1284.46 C455.28,1252.78 586.87,1232.15 624.51,1226.53 L627.9,1222.67 C601.78,1192.84 605.69,1147.76 623.1,1114.74 C625.78,1109.65 628.68,1104.68 631.36,1099.59 C607.12,1103.86 582.63,1112.81 558.25,1116.49 C556.01,1116.83 553.92,1115.6 552.04,1114.52 C551.48,1113.67 550.86,1112.85 550.54,1111.87 C544.78,1094.59 630.68,1058.64 641.08,1041.32 C625.59,1017.45 668.04,1012.5 674.49,1004.21 C672.8,991.44 672.97,976.53 677.77,964.42 C682.68,957.69 686.43,954.65 692.69,949.12 C682.91,948.48 672.66,948.69 662.81,948.72 C640.86,897 661.96,841.36 688.62,795.74 C757.38,692.68 899.73,647.25 1018.94,648.93 L1018.94,648.93 Z" style="fill:#F0DAB0;" />
		<path transform="matrix(0.5, 0, 0, 0.5, -512, -512)" d="M1433.72,1197.07 L1436.59,1194.18 C1439.73,1204.99 1443.24,1222.4 1444.2,1233.89 C1444.81,1234.52 1445.25,1235.39 1446.04,1235.76 C1451.39,1238.28 1466.59,1237.72 1473.34,1238.68 C1498.46,1242.24 1616.41,1260.04 1617.42,1291.91 C1617.59,1297.57 1614.17,1302.65 1610.33,1306.49 C1606.76,1310.06 1591.52,1322.07 1586.98,1323.54 C1566.51,1338.71 1525.4,1359.6 1502.86,1370.69 C1487.14,1378.26 1471.47,1385.92 1455.84,1393.67 C1423.51,1409.62 1419.25,1411.23 1383.3,1416.51 C1349.13,1421.26 1314.83,1425.05 1280.44,1427.89 C1104.82,1443.58 928.13,1443.29 752.56,1427.02 C728.48,1424.73 704.44,1422.08 680.43,1419.09 C644.52,1414.61 636.31,1412.74 603.45,1396.74 C554.85,1373.07 489.64,1352.48 448.12,1317.83 C447.81,1317.67 447.49,1317.54 447.19,1317.36 C440.27,1313.04 430.71,1305.68 428.95,1297.35 C427.95,1292.59 429.29,1288.33 432.12,1284.46 C455.28,1252.78 586.87,1232.15 624.51,1226.53 L627.9,1222.67 C645.96,1239.53 662.97,1246.39 687.99,1245.84 C700.88,1245.55 715.21,1242.42 727.7,1244.48 C736.2,1245.89 747.37,1250.81 755.32,1254.34 C778.01,1264.43 796.3,1266.88 821.07,1265.27 C848.99,1264.43 875.77,1252.39 900.41,1251.18 C913.88,1250.52 946.62,1264.64 966.49,1264.78 C982.61,1265.71 1003.02,1263 1018.32,1257.22 C1044.83,1247.2 1056.44,1252.76 1082.55,1257.53 C1097.1,1260.1 1111.88,1261.12 1126.65,1260.55 C1145.52,1259.84 1164.25,1257.02 1182.49,1252.12 C1194.22,1248.88 1213.67,1241.67 1224.66,1240.98 C1243.18,1239.81 1263.98,1246.19 1283.32,1246.87 C1313.07,1247.92 1325.55,1236.79 1351.29,1226.22 C1354.17,1225.04 1364.85,1225.18 1369.08,1224.67 C1395.51,1221.47 1414.22,1215.25 1433.72,1197.07 L1433.72,1197.07 Z" style="fill:#F6EDC7;" />
		<path transform="matrix(0.5, 0, 0, 0.5, -512, -512)" d="M1433.72,1197.07 L1436.59,1194.18 C1439.73,1204.99 1443.24,1222.4 1444.2,1233.89 L1445.14,1248.6 C1445.08,1299.97 1440.74,1299.74 1398.42,1324.34 C1340.48,1333.94 1263.55,1338.21 1204.18,1341.18 C1048.4,1349.72 892.2,1346.95 736.81,1332.88 C720.1,1331.24 660.94,1325.75 647.23,1321.64 C633.56,1305.12 627.79,1289.37 624.46,1268.48 C622.51,1252.37 622.71,1242.51 624.51,1226.53 L627.9,1222.67 C645.96,1239.53 662.97,1246.39 687.99,1245.84 C700.88,1245.55 715.21,1242.42 727.7,1244.48 C736.2,1245.89 747.37,1250.81 755.32,1254.34 C778.01,1264.43 796.3,1266.88 821.07,1265.27 C848.99,1264.43 875.77,1252.39 900.41,1251.18 C913.88,1250.52 946.62,1264.64 966.49,1264.78 C982.61,1265.71 1003.02,1263 1018.32,1257.22 C1044.83,1247.2 1056.44,1252.76 1082.55,1257.53 C1097.1,1260.1 1111.88,1261.12 1126.65,1260.55 C1145.52,1259.84 1164.25,1257.02 1182.49,1252.12 C1194.22,1248.88 1213.67,1241.67 1224.66,1240.98 C1243.18,1239.81 1263.98,1246.19 1283.32,1246.87 C1313.07,1247.92 1325.55,1236.79 1351.29,1226.22 C1354.17,1225.04 1364.85,1225.18 1369.08,1224.67 C1395.51,1221.47 1414.22,1215.25 1433.72,1197.07 L1433.72,1197.07 Z" style="fill:#CA885B;" />
		<path transform="matrix(0.5, 0, 0, 0.5, -512, -512)" d="M1433.72,1197.07 L1433.83,1198.82 C1436.11,1234.29 1453.73,1276.8 1402.22,1291.18 C1382.75,1296.61 1360.99,1297.67 1340.84,1299.59 C1308.15,1302.85 1275.39,1305.43 1242.6,1307.32 C1172.92,1310.82 1103.15,1312.43 1033.38,1312.15 C988.04,1312.08 940.44,1312.63 895.74,1304.5 C873.63,1300.48 835.75,1284.21 820.62,1267.3 L821.07,1265.27 C848.99,1264.43 875.77,1252.39 900.41,1251.18 C913.88,1250.52 946.62,1264.64 966.49,1264.78 C982.61,1265.71 1003.02,1263 1018.32,1257.22 C1044.83,1247.2 1056.44,1252.76 1082.55,1257.53 C1097.1,1260.1 1111.88,1261.12 1126.65,1260.55 C1145.52,1259.84 1164.25,1257.02 1182.49,1252.12 C1194.22,1248.88 1213.67,1241.67 1224.66,1240.98 C1243.18,1239.81 1263.98,1246.19 1283.32,1246.87 C1313.07,1247.92 1325.55,1236.79 1351.29,1226.22 C1354.17,1225.04 1364.85,1225.18 1369.08,1224.67 C1395.51,1221.47 1414.22,1215.25 1433.72,1197.07 L1433.72,1197.07 Z" style="fill:#EAC081;" />
		<path transform="matrix(0.5, 0, 0, 0.5, -512, -512)" d="M448.12,1317.83 L449.21,1318.16 C459.37,1321.36 469.3,1326.4 478.94,1329.51 C490.03,1333.09 504.65,1337.11 516.04,1339.68 C600.87,1358.79 687.08,1367.84 773.6,1374.12 C970.96,1388.6 1169.22,1385.66 1366.06,1365.33 C1415.99,1359.79 1473.98,1351.81 1523.11,1341.59 C1534.34,1339.21 1545.47,1336.36 1556.47,1333.06 C1561.83,1331.44 1583.62,1323.58 1586.98,1323.54 C1566.51,1338.71 1525.4,1359.6 1502.86,1370.69 C1487.14,1378.26 1471.47,1385.92 1455.84,1393.67 C1423.51,1409.62 1419.25,1411.23 1383.3,1416.51 C1349.13,1421.26 1314.83,1425.05 1280.44,1427.89 C1104.82,1443.58 928.13,1443.29 752.56,1427.02 C728.48,1424.73 704.44,1422.08 680.43,1419.09 C644.52,1414.61 636.31,1412.74 603.45,1396.74 C554.85,1373.07 489.64,1352.48 448.12,1317.83 L448.12,1317.83 Z" style="fill:#EAC081;" />
		<path transform="matrix(0.5, 0, 0, 0.5, -512, -512)" d="M624.46,1268.48 C627.79,1289.37 633.56,1305.12 647.23,1321.64 C646.31,1321.53 645.4,1321.41 644.49,1321.28 C631.34,1319.49 520.32,1303.33 578.33,1281.27 C590.71,1276.56 611.23,1271.47 624.46,1268.48 L624.46,1268.48 Z" style="fill:#EAC081;" />
		<path transform="matrix(0.5, 0, 0, 0.5, -512, -512)" d="M1445.14,1248.6 C1446.4,1256.06 1446.03,1264.95 1445.75,1272.58 C1458.34,1274.57 1516.09,1285.79 1476.93,1306.03 C1464.76,1312.32 1412.13,1325.6 1398.42,1324.34 C1440.74,1299.74 1445.08,1299.97 1445.14,1248.6 L1445.14,1248.6 Z" style="fill:#EAC081;" />
		<path transform="matrix(0.5, 0, 0, 0.5, -512, -512)" d="M1054.81,1161.98 C1062.14,1157.09 1073.93,1147.56 1081.14,1141.85 C1155.7,1082.92 1258.67,1075.7 1350.08,1075.01 C1375.73,1074.81 1412.5,1074.97 1438.09,1078.52 C1456.08,1119.65 1464.27,1155.85 1436.59,1194.18 L1433.72,1197.07 C1414.22,1215.25 1395.51,1221.47 1369.08,1224.67 C1364.85,1225.18 1354.17,1225.04 1351.29,1226.22 C1325.55,1236.79 1313.07,1247.92 1283.32,1246.87 C1263.98,1246.19 1243.18,1239.81 1224.66,1240.98 C1213.67,1241.67 1194.22,1248.88 1182.49,1252.12 C1164.25,1257.02 1145.52,1259.84 1126.65,1260.55 C1111.88,1261.12 1097.1,1260.1 1082.55,1257.53 C1056.44,1252.76 1044.83,1247.2 1018.32,1257.22 C1003.02,1263 982.61,1265.71 966.49,1264.78 C946.62,1264.64 913.88,1250.52 900.41,1251.18 C875.77,1252.39 848.99,1264.43 821.07,1265.27 C796.3,1266.88 778.01,1264.43 755.32,1254.34 C747.37,1250.81 736.2,1245.89 727.7,1244.48 C715.21,1242.42 700.88,1245.55 687.99,1245.84 C662.97,1246.39 645.96,1239.53 627.9,1222.67 C601.78,1192.84 605.69,1147.76 623.1,1114.74 C625.78,1109.65 628.68,1104.68 631.36,1099.59 L630.94,1098.25 C647.12,1092.58 695.37,1089.55 715.14,1085.58 C726.35,1084.13 741.69,1083.19 753.5,1081.92 C771.13,1079.54 793.11,1078.35 810.81,1077.84 C842.05,1078.18 888.02,1078.45 918.39,1085.14 C924.1,1086.32 930.21,1087.77 935.97,1088.37 L938.09,1089.14 C977.96,1097.68 1024.95,1134.12 1054.81,1161.98 L1054.81,1161.98 Z" style="fill:#41161B;" />
		<path transform="matrix(0.5, 0, 0, 0.5, -512, -512)" d="M715.14,1085.58 C726.35,1084.13 741.69,1083.19 753.5,1081.92 C751.72,1087 750.38,1092.43 746.9,1096.34 C740.34,1099.24 738.15,1094.55 734.5,1089.55 C731.54,1091.83 728.43,1094.31 725.4,1096.45 L715.14,1085.58 L715.14,1085.58 Z" style="fill:#BFB75C;" />
		<path transform="matrix(0.5, 0, 0, 0.5, -512, -512)" d="M1358.15,1102.42 C1395.27,1096.68 1424.69,1113.43 1417.79,1155.22 C1410.83,1197.42 1364.08,1205.56 1328.36,1198.72 C1286.49,1189.27 1230.34,1147.72 1295.19,1116.87 C1314.18,1107.84 1337.32,1104.19 1358.15,1102.42 L1358.15,1102.42 Z" style="fill:#551D1A;" />
		<path transform="matrix(0.5, 0, 0, 0.5, -512, -512)" d="M1183.11,1125.12 C1198.61,1123.6 1216.5,1134.13 1226.76,1145.15 C1241.92,1161.44 1235.5,1182.67 1219.37,1195.47 C1200.7,1210.27 1177.64,1210.19 1155.19,1207.67 C1132.3,1203.67 1112.12,1198.97 1100.28,1177.02 C1111.01,1156.72 1160.92,1131.12 1183.11,1125.12 L1183.11,1125.12 Z" style="fill:#551D1A;" />
		<path transform="matrix(0.5, 0, 0, 0.5, -512, -512)" d="M809.7,1106.42 C822.04,1104.88 871.63,1105.82 875.51,1121.15 C866.71,1140.18 814.31,1143.46 796.51,1143.74 C778.08,1144.04 756.19,1141.38 737.78,1138.88 C706.34,1133.81 692,1130.11 661.08,1120.84 C694.32,1117.57 728.29,1118.81 761.67,1112.81 C776.8,1110.1 794.46,1107.45 809.7,1106.42 L809.7,1106.42 Z" style="fill:#551D1A;" />
		<path transform="matrix(0.5, 0, 0, 0.5, -512, -512)" d="M986.52,1181.32 C997.63,1180.62 1015.28,1181.11 1021.51,1192 C1022.51,1205.95 998.84,1204.24 989.68,1204.34 C980.73,1204.14 957.77,1204.36 952.39,1196.37 C952.5,1186.4 978.54,1182.38 986.52,1181.32 L986.52,1181.32 Z" style="fill:#551D1A;" />
		<path transform="matrix(0.5, 0, 0, 0.5, -512, -512)" d="M1352.84,940.65 C1361.61,938.9 1386.61,936.45 1394.82,938.84 C1395.88,939.67 1398.63,941.65 1399.28,942.58 C1408.08,946.6 1416.41,950.37 1422.17,958.66 C1425.9,965.11 1428.04,971.58 1428.69,979.03 C1429.37,985.62 1430.19,992.46 1432.64,998.68 C1456.88,1010.4 1476.25,1039.43 1492.71,1058.16 C1520.71,1090 1475.06,1089.61 1455.95,1081.31 C1452.98,1080.02 1441.39,1078.86 1438.09,1078.52 C1412.5,1074.97 1375.73,1074.81 1350.08,1075.01 C1258.67,1075.7 1155.7,1082.92 1081.14,1141.85 C1073.93,1147.56 1062.14,1157.09 1054.81,1161.98 C1024.95,1134.12 977.96,1097.68 938.09,1089.14 C941.8,1086.34 945.4,1082.29 948.67,1078.89 C950.64,1080.08 952.62,1081.25 954.6,1082.41 C969.19,1090.96 978.88,1093.71 995.61,1089.82 C1013.96,1085.56 1021.04,1076.9 1029.89,1061.75 C1026.29,1056.92 1025.41,1055.67 1023.24,1050.11 L1023.47,1046.47 C1019.89,1039.93 1019.58,1031.03 1019.14,1023.67 C1021.48,1019.94 1020.4,1003.31 1020.16,998.48 L1027.61,998.14 C1028.29,990.22 1028.02,972.61 1027.54,964.57 C1028.32,963.44 1033.97,957.38 1035.29,955.84 L1033.21,953.41 L1029.03,948.02 C1043.47,948.04 1058.38,947.96 1072.79,948.68 C1077.34,947.79 1091.79,948.05 1097.27,948.05 C1113.09,948.13 1128.91,948.07 1144.73,947.88 C1203.89,946.62 1265.12,943.45 1323.91,942.98 C1332.22,941.63 1343.54,941.85 1352.84,940.65 L1352.84,940.65 Z" style="fill:#F6EDC7;" />
		<path transform="matrix(0.5, 0, 0, 0.5, -512, -512)" d="M1352.84,940.65 C1361.61,938.9 1386.61,936.45 1394.82,938.84 C1395.88,939.67 1398.63,941.65 1399.28,942.58 C1408.08,946.6 1416.41,950.37 1422.17,958.66 C1425.9,965.11 1428.04,971.58 1428.69,979.03 L1428,979.54 C1415.65,988.79 1412.91,995.13 1396.11,1000.17 C1370.72,1008.58 1328.68,1015.44 1301.42,1017.36 L1303.38,1014.29 C1286.81,1015.88 1251.75,1015.72 1235.24,1014.39 C1216.14,1012.73 1195.2,1009.33 1176.11,1006.49 C1130.61,997.15 1088.64,987.05 1047.31,965.52 C1042.62,962.11 1039.62,959.62 1035.29,955.84 L1033.21,953.41 L1029.03,948.02 C1043.47,948.04 1058.38,947.96 1072.79,948.68 C1077.34,947.79 1091.79,948.05 1097.27,948.05 C1113.09,948.13 1128.91,948.07 1144.73,947.88 C1203.89,946.62 1265.12,943.45 1323.91,942.98 C1332.22,941.63 1343.54,941.85 1352.84,940.65 L1352.84,940.65 Z" style="fill:#DFC7C9;" />
		<path transform="matrix(0.5, 0, 0, 0.5, -512, -512)" d="M1072.79,948.68 C1077.34,947.79 1091.79,948.05 1097.27,948.05 C1113.09,948.13 1128.91,948.07 1144.73,947.88 C1203.89,946.62 1265.12,943.45 1323.91,942.98 C1310.16,951.85 1251.85,965.4 1233.38,969.71 C1224.62,971.76 1199.12,975.89 1193.82,979.82 C1156.14,976.66 1108.33,961.93 1072.79,948.68 L1072.79,948.68 Z" style="fill:#551D1A;" />
		<path transform="matrix(0.5, 0, 0, 0.5, -512, -512)" d="M1352.84,940.65 C1365.98,947.44 1370.82,950.53 1379.66,962.92 C1376.24,967.29 1375.62,968.36 1371.31,971.63 C1335.97,984.86 1284.18,986.12 1246.6,985.01 C1228.96,983.79 1211.36,982.06 1193.82,979.82 C1199.12,975.89 1224.62,971.76 1233.38,969.71 C1251.85,965.4 1310.16,951.85 1323.91,942.98 C1332.22,941.63 1343.54,941.85 1352.84,940.65 L1352.84,940.65 Z" style="fill:#B42A29;" />
		<path transform="matrix(0.5, 0, 0, 0.5, -512, -512)" d="M1246.6,985.01 L1245.57,982.76 C1267,975.66 1294.28,971.73 1316.75,967.36 C1332.14,964.36 1357.77,962.02 1371.31,971.63 C1335.97,984.86 1284.18,986.12 1246.6,985.01 L1246.6,985.01 Z" style="fill:#9A2C29;" />
		<path transform="matrix(0.5, 0, 0, 0.5, -512, -512)" d="M1409.71,961.96 C1410.98,963.37 1410.56,962.78 1412.98,963.43 C1417.63,962.19 1418.13,961.55 1422.17,958.66 C1425.9,965.11 1428.04,971.58 1428.69,979.03 L1428,979.54 C1415.65,988.79 1412.91,995.13 1396.11,1000.17 C1370.72,1008.58 1328.68,1015.44 1301.42,1017.36 L1303.38,1014.29 C1327.58,1012.46 1367.89,1003.01 1388.98,990.82 C1401.97,983.32 1406.34,975.58 1409.71,961.96 L1409.71,961.96 Z" style="fill:#B42A29;" />
		<path transform="matrix(0.5, 0, 0, 0.5, -512, -512)" d="M1399.28,942.58 C1408.08,946.6 1416.41,950.37 1422.17,958.66 C1418.13,961.55 1417.63,962.19 1412.98,963.43 C1410.56,962.78 1410.98,963.37 1409.71,961.96 C1407.22,953.37 1404.36,949.73 1399.28,942.58 L1399.28,942.58 Z" style="fill:#551D1A;" />
		<path transform="matrix(0.5, 0, 0, 0.5, -512, -512)" d="M1035.29,955.84 C1039.62,959.62 1042.62,962.11 1047.31,965.52 C1088.64,987.05 1130.61,997.15 1176.11,1006.49 C1195.2,1009.33 1216.14,1012.73 1235.24,1014.39 C1251.75,1015.72 1286.81,1015.88 1303.38,1014.29 L1301.42,1017.36 C1296.22,1018.29 1291.11,1019.14 1285.96,1020.35 C1232.26,1031.52 1182.98,1031.29 1128.54,1027.71 C1128.22,1035.54 1129.25,1060.22 1125.89,1064.39 L1127.38,1065.39 C1121.55,1068.25 1115.47,1070.58 1109.23,1072.36 C1081.64,1080.07 1054.54,1075.73 1029.89,1061.75 C1026.29,1056.92 1025.41,1055.67 1023.24,1050.11 L1023.47,1046.47 C1019.89,1039.93 1019.58,1031.03 1019.14,1023.67 C1021.48,1019.94 1020.4,1003.31 1020.16,998.48 L1027.61,998.14 C1028.29,990.22 1028.02,972.61 1027.54,964.57 C1028.32,963.44 1033.97,957.38 1035.29,955.84 L1035.29,955.84 Z" style="fill:#CC3835;" />
		<path transform="matrix(0.5, 0, 0, 0.5, -512, -512)" d="M1019.14,1023.67 C1021.48,1019.94 1020.4,1003.31 1020.16,998.48 C1041.82,1008.35 1104.74,1025.19 1128.54,1027.71 C1128.22,1035.54 1129.25,1060.22 1125.89,1064.39 L1127.38,1065.39 C1121.55,1068.25 1115.47,1070.58 1109.23,1072.36 C1081.64,1080.07 1054.54,1075.73 1029.89,1061.75 C1026.29,1056.92 1025.41,1055.67 1023.24,1050.11 L1023.47,1046.47 C1019.89,1039.93 1019.58,1031.03 1019.14,1023.67 L1019.14,1023.67 Z" style="fill:#9A2C29;" />
		<path transform="matrix(0.5, 0, 0, 0.5, -512, -512)" d="M1023.47,1046.47 C1047.14,1055.08 1100.06,1062.96 1125.89,1064.39 L1127.38,1065.39 C1121.55,1068.25 1115.47,1070.58 1109.23,1072.36 C1081.64,1080.07 1054.54,1075.73 1029.89,1061.75 C1026.29,1056.92 1025.41,1055.67 1023.24,1050.11 L1023.47,1046.47 L1023.47,1046.47 Z" style="fill:#F6911B;" />
		<path transform="matrix(0.5, 0, 0, 0.5, -512, -512)" d="M1035.29,955.84 C1039.62,959.62 1042.62,962.11 1047.31,965.52 C1088.64,987.05 1130.61,997.15 1176.11,1006.49 L1177.05,1008.14 L1179.64,1008.24 L1179.21,1009.4 C1170.66,1009.93 1156.31,1008.38 1150.76,1008.99 C1122.28,1008.08 1101.13,1003.52 1073.6,999.5 C1063.5,998.03 1041.36,999.36 1027.61,998.14 C1028.29,990.22 1028.02,972.61 1027.54,964.57 C1028.32,963.44 1033.97,957.38 1035.29,955.84 L1035.29,955.84 Z" style="fill:#9A2C29;" />
		<path transform="matrix(0.5, 0, 0, 0.5, -512, -512)" d="M1035.29,955.84 C1039.62,959.62 1042.62,962.11 1047.31,965.52 C1041.49,966.2 1033.58,965.14 1027.54,964.57 C1028.32,963.44 1033.97,957.38 1035.29,955.84 L1035.29,955.84 Z" style="fill:#B42A29;" />
		<path transform="matrix(0.5, 0, 0, 0.5, -512, -512)" d="M1176.11,1006.49 C1195.2,1009.33 1216.14,1012.73 1235.24,1014.39 C1224.68,1016.66 1162.54,1011.73 1150.76,1008.99 C1156.31,1008.38 1170.66,1009.93 1179.21,1009.4 L1179.64,1008.24 L1177.05,1008.14 L1176.11,1006.49 L1176.11,1006.49 Z" style="fill:#9A2C29;" />
		<path transform="matrix(0.5, 0, 0, 0.5, -512, -512)" d="M1128.54,1027.71 C1182.98,1031.29 1232.26,1031.52 1285.96,1020.35 C1295.03,1035.87 1291.29,1060.33 1294.43,1064.24 L1295.71,1064.51 C1275.29,1068.09 1242.32,1068.61 1221.27,1069.8 C1207.67,1070.57 1182.41,1071.82 1169.12,1071.13 C1152.57,1058.44 1147.05,1059.22 1127.38,1065.39 L1125.89,1064.39 C1129.25,1060.22 1128.22,1035.54 1128.54,1027.71 L1128.54,1027.71 Z" style="fill:#B42A29;" />
		<path transform="matrix(0.5, 0, 0, 0.5, -512, -512)" d="M1396.11,1000.17 C1398.72,1006.79 1391.1,1034.26 1389.03,1042.19 L1377.9,1046.18 C1352.03,1053.83 1322.74,1062 1295.71,1064.51 L1294.43,1064.24 C1291.29,1060.33 1295.03,1035.87 1285.96,1020.35 C1291.11,1019.14 1296.22,1018.29 1301.42,1017.36 C1328.68,1015.44 1370.72,1008.58 1396.11,1000.17 L1396.11,1000.17 Z" style="fill:#551D1A;" />
		<path transform="matrix(0.5, 0, 0, 0.5, -512, -512)" d="M1396.11,1000.17 C1412.91,995.13 1415.65,988.79 1428,979.54 L1428.69,979.03 C1429.37,985.62 1430.19,992.46 1432.64,998.68 C1434.44,1006.53 1435.03,1009.93 1435.69,1017.94 L1430.84,1026.16 C1417.76,1035.21 1404.26,1038.07 1389.03,1042.19 C1391.1,1034.26 1398.72,1006.79 1396.11,1000.17 L1396.11,1000.17 Z" style="fill:#9A2C29;" />
		<path transform="matrix(0.5, 0, 0, 0.5, -512, -512)" d="M1389.03,1042.19 C1404.26,1038.07 1417.76,1035.21 1430.84,1026.16 C1424.77,1044.9 1394.78,1052.13 1377.9,1046.18 L1389.03,1042.19 L1389.03,1042.19 Z" style="fill:#F6911B;" />
		<path transform="matrix(0.5, 0, 0, 0.5, -512, -512)" d="M692.69,949.12 C735.92,947.27 782.01,948.07 825.53,948.09 L1029.03,948.02 L1033.21,953.41 L1035.29,955.84 C1033.97,957.38 1028.32,963.44 1027.54,964.57 C1028.02,972.61 1028.29,990.22 1027.61,998.14 L1020.16,998.48 C1020.4,1003.31 1021.48,1019.94 1019.14,1023.67 C1019.58,1031.03 1019.89,1039.93 1023.47,1046.47 L1023.24,1050.11 C1025.41,1055.67 1026.29,1056.92 1029.89,1061.75 C1021.04,1076.9 1013.96,1085.56 995.61,1089.82 C978.88,1093.71 969.19,1090.96 954.6,1082.41 C952.62,1081.25 950.64,1080.08 948.67,1078.89 C945.4,1082.29 941.8,1086.34 938.09,1089.14 L935.97,1088.37 C930.21,1087.77 924.1,1086.32 918.39,1085.14 C888.02,1078.45 842.05,1078.18 810.81,1077.84 C793.11,1078.35 771.13,1079.54 753.5,1081.92 C741.69,1083.19 726.35,1084.13 715.14,1085.58 C695.37,1089.55 647.12,1092.58 630.94,1098.25 L631.36,1099.59 C607.12,1103.86 582.63,1112.81 558.25,1116.49 C556.01,1116.83 553.92,1115.6 552.04,1114.52 C551.48,1113.67 550.86,1112.85 550.54,1111.87 C544.78,1094.59 630.68,1058.64 641.08,1041.32 C625.59,1017.45 668.04,1012.5 674.49,1004.21 C672.8,991.44 672.97,976.53 677.77,964.42 C682.68,957.69 686.43,954.65 692.69,949.12 L692.69,949.12 Z" style="fill:#B42A29;" />
		<path transform="matrix(0.5, 0, 0, 0.5, -512, -512)" d="M692.69,949.12 C735.92,947.27 782.01,948.07 825.53,948.09 L1029.03,948.02 L1033.21,953.41 L1035.29,955.84 C1033.97,957.38 1028.32,963.44 1027.54,964.57 C1028.02,972.61 1028.29,990.22 1027.61,998.14 L1020.16,998.48 C1020.4,1003.31 1021.48,1019.94 1019.14,1023.67 L1016.81,1025.1 C999.17,1029.24 981.33,1032.5 963.36,1034.87 C960.43,1024.53 960.1,988.91 959.99,977.4 C889.67,987.05 740.15,995.75 677.77,964.42 C682.68,957.69 686.43,954.65 692.69,949.12 L692.69,949.12 Z" style="fill:#9F5431;" />
		<path transform="matrix(0.5, 0, 0, 0.5, -512, -512)" d="M1033.21,953.41 L1035.29,955.84 C1033.97,957.38 1028.32,963.44 1027.54,964.57 C1028.02,972.61 1028.29,990.22 1027.61,998.14 L1020.16,998.48 C1020.4,1003.31 1021.48,1019.94 1019.14,1023.67 L1016.81,1025.1 C999.17,1029.24 981.33,1032.5 963.36,1034.87 C960.43,1024.53 960.1,988.91 959.99,977.4 C970.41,975.73 980.81,973.85 991.16,971.76 C1005.12,968.85 1025.28,965.46 1033.21,953.41 L1033.21,953.41 Z" style="fill:#551D1A;" />
		<path transform="matrix(0.5, 0, 0, 0.5, -512, -512)" d="M674.49,1004.21 C675.94,1012.23 675.46,1018.72 683.19,1023.09 C699.51,1032.32 728.04,1037.86 746.32,1041.38 C749.97,1041.79 771.52,1043.97 773.69,1044.57 C781.04,1045.06 791.32,1046.05 798.47,1046.05 C810.69,1066.28 818.66,1070.14 840.27,1077.16 C832.02,1077.15 818.59,1076.74 810.81,1077.84 C793.11,1078.35 771.13,1079.54 753.5,1081.92 C741.69,1083.19 726.35,1084.13 715.14,1085.58 C695.37,1089.55 647.12,1092.58 630.94,1098.25 L631.36,1099.59 C607.12,1103.86 582.63,1112.81 558.25,1116.49 C556.01,1116.83 553.92,1115.6 552.04,1114.52 C551.48,1113.67 550.86,1112.85 550.54,1111.87 C544.78,1094.59 630.68,1058.64 641.08,1041.32 C625.59,1017.45 668.04,1012.5 674.49,1004.21 L674.49,1004.21 Z" style="fill:#F6EDC7;" />
		<path transform="matrix(0.5, 0, 0, 0.5, -512, -512)" d="M674.49,1004.21 C675.94,1012.23 675.46,1018.72 683.19,1023.09 C699.51,1032.32 728.04,1037.86 746.32,1041.38 C748.14,1052.42 742.61,1057.83 746.31,1064.13 C731.42,1075.75 709.69,1064.26 695.87,1058.13 C688.08,1059.05 680,1060.34 672.22,1061.47 C662.78,1057.44 649.94,1047.51 641.08,1041.32 C625.59,1017.45 668.04,1012.5 674.49,1004.21 L674.49,1004.21 Z" style="fill:#BFB75C;" />
		<path transform="matrix(0.5, 0, 0, 0.5, -512, -512)" d="M746.32,1041.38 C749.97,1041.79 771.52,1043.97 773.69,1044.57 C762.33,1051.56 756.8,1056 746.31,1064.13 C742.61,1057.83 748.14,1052.42 746.32,1041.38 L746.32,1041.38 Z" style="fill:#A5AB4D;" />
		<path transform="matrix(0.5, 0, 0, 0.5, -512, -512)" d="M552.04,1114.52 C557.25,1111.15 623.66,1097.82 630.94,1098.25 L631.36,1099.59 C607.12,1103.86 582.63,1112.81 558.25,1116.49 C556.01,1116.83 553.92,1115.6 552.04,1114.52 L552.04,1114.52 Z" style="fill:#EAC081;" />
		<path transform="matrix(0.5, 0, 0, 0.5, -512, -512)" d="M1016.81,1025.1 L1019.14,1023.67 C1019.58,1031.03 1019.89,1039.93 1023.47,1046.47 L1023.24,1050.11 C1025.41,1055.67 1026.29,1056.92 1029.89,1061.75 C1021.04,1076.9 1013.96,1085.56 995.61,1089.82 C978.88,1093.71 969.19,1090.96 954.6,1082.41 C952.62,1081.25 950.64,1080.08 948.67,1078.89 C945.4,1082.29 941.8,1086.34 938.09,1089.14 L935.97,1088.37 C930.21,1087.77 924.1,1086.32 918.39,1085.14 C888.02,1078.45 842.05,1078.18 810.81,1077.84 C818.59,1076.74 832.02,1077.15 840.27,1077.16 C818.66,1070.14 810.69,1066.28 798.47,1046.05 C853.72,1044.94 908.78,1044.26 963.36,1034.87 C981.33,1032.5 999.17,1029.24 1016.81,1025.1 L1016.81,1025.1 Z" style="fill:#A5AB4D;" />
		<path transform="matrix(0.5, 0, 0, 0.5, -512, -512)" d="M1016.81,1025.1 L1019.14,1023.67 C1019.58,1031.03 1019.89,1039.93 1023.47,1046.47 L1023.24,1050.11 L1022.24,1050.64 L1020.1,1049.96 C1013.32,1044.02 1013.1,1032.89 1016.81,1025.1 L1016.81,1025.1 Z" style="fill:#BFB75C;" />
		<path transform="matrix(0.5, 0, 0, 0.5, -512, -512)" d="M918.39,1085.14 C919.34,1083.87 920.59,1081.59 922.06,1081.13 C925.85,1079.94 935.24,1084.87 935.97,1088.37 C930.21,1087.77 924.1,1086.32 918.39,1085.14 L918.39,1085.14 Z" style="fill:#F6EDC7;" />
		<path transform="matrix(0.5, 0, 0, 0.5, -512, -512)" d="M688.62,795.74 C694.23,806.45 698.64,817.27 704.92,827.56 C748.45,898.82 830.06,901.08 904.38,905.86 C918.96,906.8 933.85,907.6 948.59,908.37 C1056.04,913.2 1163.59,915.59 1271.16,915.52 L1368.13,914.89 C1381.99,914.73 1396.79,913.92 1410.44,914.06 C1409.62,928.57 1408.1,931.61 1394.82,938.84 C1386.61,936.45 1361.61,938.9 1352.84,940.65 C1343.54,941.85 1332.22,941.63 1323.91,942.98 C1265.12,943.45 1203.89,946.62 1144.73,947.88 C1128.91,948.07 1113.09,948.13 1097.27,948.05 C1091.79,948.05 1077.34,947.79 1072.79,948.68 C1058.38,947.96 1043.47,948.04 1029.03,948.02 L825.53,948.09 C782.01,948.07 735.92,947.27 692.69,949.12 C682.91,948.48 672.66,948.69 662.81,948.72 C640.86,897 661.96,841.36 688.62,795.74 L688.62,795.74 Z" style="fill:#CA885B;" />
		<path transform="matrix(0.5, 0, 0, 0.5, -512, -512)" d="M1261.45,745.9 C1298.93,750.81 1357.62,819.85 1372.04,854.25 C1376.51,864.9 1377.58,873.59 1365.79,878.29 C1346.68,881.24 1307.69,876.75 1296.06,858.65 C1289.57,848.55 1288.95,831.4 1283.3,819.8 C1275.33,802.68 1260.3,788.44 1253.57,770.77 C1249.17,759.22 1248.87,750.44 1261.45,745.9 L1261.45,745.9 Z" style="fill:#F6EDC7;" />
		<path transform="matrix(0.5, 0, 0, 0.5, -512, -512)" d="M1181.36,770.01 C1182.48,769.95 1183.59,769.92 1184.71,769.93 C1202.72,770.23 1207.1,795.27 1193.36,807.82 C1174.54,809.31 1167.77,782.41 1181.36,770.01 L1181.36,770.01 Z" style="fill:#F6EDC7;" />
		<path transform="matrix(0.5, 0, 0, 0.5, -512, -512)" d="M1064.49,729.96 C1084.1,729.35 1084.11,755.57 1067.98,763.05 C1047.64,764.56 1047.02,740.62 1064.49,729.96 L1064.49,729.96 Z" style="fill:#F6EDC7;" />
		<path transform="matrix(0.5, 0, 0, 0.5, -512, -512)" d="M960.39,794.03 C981.59,793.81 979.7,817.4 965.02,826.81 C942.87,827.73 944.59,804.17 960.39,794.03 L960.39,794.03 Z" style="fill:#F6EDC7;" />
		<path transform="matrix(0.5, 0, 0, 0.5, -512, -512)" d="M804.59,767.06 C825.54,765.39 829.54,782.38 815.2,796.15 C795.97,801.03 790.57,779.36 804.59,767.06 L804.59,767.06 Z" style="fill:#F6EDC7;" />
		<path transform="matrix(0.5, 0, 0, 0.5, -512, -512)" d="M1150.14,686.06 C1168.24,686.18 1175.15,705.63 1159.53,716.07 C1139.79,716.84 1132.99,692.61 1150.14,686.06 L1150.14,686.06 Z" style="fill:#F6EDC7;" />
		<path transform="matrix(0.5, 0, 0, 0.5, -512, -512)" d="M903.01,686.01 C904.51,686.28 906.57,686.65 907.99,687.14 C910.98,688.2 913.4,690.48 914.64,693.4 C918.94,703.7 910.85,712.59 901.58,716.1 C885.21,716.11 881.8,691.2 903.01,686.01 L903.01,686.01 Z" style="fill:#F6EDC7;" />
	</g>
</svg>