<?xml version="1.0" encoding="UTF-8"?>
<svg id="Layer_1" data-name="Layer 1" xmlns="http://www.w3.org/2000/svg" xmlns:xlink="http://www.w3.org/1999/xlink" viewBox="0 0 757.91 418.8">
  <defs>
    <style>
      .cls-1 {
        fill: none;
      }

      .cls-2 {
        fill: #d79f48;
      }

      .cls-3 {
        fill: #343b37;
      }

      .cls-4 {
        fill: #633614;
      }

      .cls-5 {
        fill: #783026;
      }

      .cls-6 {
        fill: #93382c;
      }

      .cls-7 {
        fill: #ff89ff;
      }

      .cls-8 {
        fill: #b0825b;
      }

      .cls-9 {
        fill: #bcbec0;
      }

      .cls-10 {
        fill: #f063af;
      }

      .cls-11 {
        fill: url(#linear-gradient);
      }

      .cls-12 {
        fill: #588c8a;
      }

      .cls-13 {
        fill: #ebc07f;
      }

      .cls-14 {
        fill: #551d1a;
      }

      .cls-15 {
        fill: #131311;
      }

      .cls-16 {
        clip-path: url(#clippath-1);
      }

      .cls-17 {
        clip-path: url(#clippath-2);
      }

      .cls-18 {
        fill: #fff;
      }

      .cls-19 {
        fill: #6bb199;
      }

      .cls-20 {
        fill: #fefefe;
      }

      .cls-21 {
        fill: #381714;
      }

      .cls-22 {
        fill: #965299;
      }

      .cls-23 {
        fill: #f3f1f8;
      }

      .cls-24 {
        clip-path: url(#clippath);
      }

      .cls-25 {
        fill: #ac672e;
      }
    </style>
    <clipPath id="clippath">
      <rect class="cls-1" width="757.91" height="418.8"/>
    </clipPath>
    <linearGradient id="linear-gradient" x1="4710.32" y1="3199.96" x2="4408.22" y2="3146.41" gradientTransform="translate(-2187.36 -1355.35) scale(.5)" gradientUnits="userSpaceOnUse">
      <stop offset="0" stop-color="#3c1a12"/>
      <stop offset="1" stop-color="#77352c"/>
    </linearGradient>
    <clipPath id="clippath-1">
      <path class="cls-1" d="M203.65,170.01c-8.7-10.95-4.47-26.62-18.57-29.62,0,0-22.55,4.83-31.38,15.07s-10.5,11.7-12,24.6c3.09,9.47,26.42,31.16,54.45,18.9,14.6-6.38,12.15-16.8,7.5-28.95Z"/>
    </clipPath>
    <clipPath id="clippath-2">
      <path class="cls-1" d="M282.4,158.01c-3-7.95-9.3-9.3-16.95-10.5v.15c-4.65.9-8.4,1.65-12.9,2.85.15.15-6.59,6.58-6.59,6.58l-4.21,6.02c-2.85,3.75-4.35,5.85-5.85,10.35-1.35,4.8-2.25,7.8-2.85,12.75.17.2.32.37.48.55-.1-.04-.2-.11-.33-.25-.15,3.75.15,4.35,1.35,7.95l3.6-.6h0c1.8-.6,4.05,6.3,8.25,7.5,8.25,2.1,23.25-3.15,30.45-7.2,1.65-3,3.6-7.65,5.1-10.95,2.7-10.8,2.55-14.55.45-25.2Z"/>
    </clipPath>
  </defs>
  <g class="cls-24">
    <g>
      <path class="cls-5" d="M176.8,22.26c3.45-9,6.6-14.85,15.75-19.2,13.2-6.3,32.55-1.8,45.45,3.75,51,21.75,118.35,87.9,94.35,148.8-5.25,14.4-16.2,24.3-24.15,36.9-12.75,20.1-19.05,48.9-10.05,71.7,8.1,20.7,26.7,27.9,47.1,18.75,6.9-3.15,10.65-8.55,14.4-15.15,5.7,19.35,4.05,28.05-4.95,46.35-13.8,26.4-28.95,40.5-56.1,51-1.65-1.35-8.25-9.75-10.35-12-11.55-12.45-25.35-24-42.45-26.7-4.5-.75-20.7-2.55-23.55-.45v1.95c-3.45-3.75-6-3.15-10.65-5.25l-.6-.3-.45.3c-2.55-3-4.8-5.25-7.65-8.1-2.85-2.85-3.15-2.85-4.5-5.7-.15-2.55.3-3,1.65-5.25,0-1.5,2.55-12.75,2.85-14.7,3,.45,6.75.9,9.75.75,23.4-.6,47.85-24.9,62.7-40.95,16.65-21,14.1-29.55,11.4-55.05-.45-4.35.45-10.8-.6-15-1.5,1.8-2.4,2.7-4.05,4.35,2.7-10.8,2.55-14.55.45-25.2,5.55-4.5,12-1.65,15.9-6l-.3-1.5c-2.25-2.1-4.5-1.2-7.35-1.8-1.8-.45-4.05-4.8-5.4-6.75l-1.8,2.4c-2.1.15-5.4-3.75-9.9-5.4v-1.5c-.3-2.7-.6-3.3-1.8-5.55-17.85-13.2-27.9-10.95-21.3-15.75-11.85-8.7-18.75-13.95-28.65-24.6-2.1,13.5-1.95,52.05-8.55,59.25-1.35.45-1.65.9-2.7.3-3.3-1.65-11.55-14.4-12.6-17.4-4.05-7.65-9.9-22.5-12.75-30.9-2.7-5.85-7.05-25.5-9.6-33.3v-1.8l-1.05-6c-1.95-13.05-1.95-26.85,2.1-39.45h0v.15Z"/>
      <path class="cls-14" d="M275.35,249.06c2.55,3.6,1.8,14.85,2.7,19.65,9,44.85,48.45,48,76.2,18.45-.6,8.55-4.2,21.6.3,27.3-13.8,26.4-28.95,40.5-56.1,51-1.65-1.35-8.25-9.75-10.35-12-11.55-12.45-25.35-24-42.45-26.7-4.5-.75-20.7-2.55-23.55-.45v1.95c-3.45-3.75-6-3.15-10.65-5.25l-.6-.3-.45.3c-2.55-3-4.8-5.25-7.65-8.1-2.85-2.85-3.15-2.85-4.5-5.7-.15-2.55.3-3,1.65-5.25,0-1.5,2.55-12.75,2.85-14.7,3,.45,6.75.9,9.75.75,23.4-.6,47.85-24.9,62.7-40.95h.15Z"/>
      <path class="cls-13" d="M593.39,138.31c2.4,8.4-6.62,13.9-12.77,17.5-15.45,8.85-34.6,4.94-46.79,1.15-29.4,44.4-63.29,100.15-103.79,135.7-6,5.25-15.3,12.9-22.65,16.05-20.23,27.55-97.94,81.25-123.81,82.05-3.57-5.88-21.93-50.98-21.3-57.7,3.07-.25,72.12-33.58,123.07-65.43,3.6-2.85,29.08-26.57,32.98-29.27,25.35-17.85,49.35-38.4,71.1-60.6,8.4-8.55,15.9-18.15,24.3-26.85-1.8-.9-9.41-1.78-11.21-2.68-10.71,0-23.3,5.99-24.05,3.29-2.14-22.57,27.61-10.37,30.61-12.17-5.1-.9,93.75-.9,84.3-1.05Z"/>
      <path class="cls-13" d="M321.62,353.48c-6.65,4.47-14.19,8.27-23.01,11.69-1.65-1.35-8.25-9.75-10.35-12-11.55-12.45-25.35-24-42.45-26.7-4.5-.75-20.7-2.55-23.55-.45v1.95c-3.45-3.75-6-3.15-10.65-5.25l-.6-.3-.45.3c-2.55-3-4.8-5.25-7.65-8.1-2.85-2.85-3.15-2.85-4.5-5.7-.15-2.55.3-3,1.65-5.25,0-1.5,2.55-12.75,2.85-14.7,3,.45,6.75.9,9.75.75,23.4-.6,47.85-24.9,62.7-40.95,16.65-21,14.1-29.55,11.4-55.05-.45-4.35.45-10.8-.6-15-1.5,1.8-2.4,2.7-4.05,4.35,2.7-10.8,2.55-14.55.45-25.2,5.55-4.5,12-1.65,15.9-6l-.3-1.5c-2.25-2.1-4.5-1.2-7.35-1.8-1.8-.45-4.05-4.8-5.4-6.75l-1.8,2.4c-2.1.15-5.4-3.75-9.9-5.4v-1.5c-.3-2.7-.6-3.3-1.8-5.55-17.85-13.2-16.73-12.06-21.3-15.75-11.85-8.7-18.75-13.95-28.65-24.6-2.1,13.5-1.95,52.05-8.55,59.25-1.35.45-1.65.9-2.7.3-3.3-1.65-11.55-14.4-12.6-17.4-4.05-7.65-9.9-22.5-12.75-30.9-2.7-5.85-7.05-25.5-9.6-33.3v-1.8l-1.05-6c-1.94-12.95-1.94-26.64,2.01-39.16-.02.06-.04.11-.06.16-6.6-3.6-16.05-1.8-22.8.6-21,6.9-39.3,12.15-55.2,28.65-4.8,4.95-9.3,11.1-13.95,15.6-39.15,32.7-59.55,98.4-44.25,147.45,3.6,13.65,10.5,28.35,17.1,40.5,4.5,8.1,13.05,27.45,2.85,33.75-21.15,13.05-37.5-8.1-46.2-21.9-12.45,18.75-16.8,41.55-12.3,63.6,4.5,22.35,16.35,39.6,34.05,53.55-9.9,11.25-43.2,38.55-42.15,53.4,1.05,13.8,40.05,77.1,49.5,92.55,6.15,10.2,15,21.3,18.9,32.55-4.2,9.9-11.4,12.9-17.1,21.15-4.5,6.6-13.95,3.9-10.35,12.45.9,2.25.6,5.4.3,7.95,8.55,9.3,27.45,4.2,36.3-2.4,8.25-6.15,10.5-8.4,12.45-18,1.5-7.2,5.1-23.85,1.05-30.3-1.95-2.85-7.05-25.95-8.4-30.75-6.9-25.95-13.2-55.05-24.75-79.5,14.4-6.9,28.05-18.45,40.35-24.15-.45-.45-3.75-2.1-4.5-2.55-15-6.75-33.45-30.6-38.4-46.2,3.3-5.7,9.6-9.75,15-13.2,3.9,21.6,16.65,37.8,34.2,50.7,2.85,2.1,7.2,4.95,10.35,5.85,4.35,10.8,7.05,18,14.1,27.45,13.65,18.3,31.5,26.25,40.65,47.55,1.65,5.1,3.3,10.05,4.95,15.15,18.9,12,42.15,21.45,64.95,14.4,7.65-1.2,16.2-4.65,22.65-9.3l2.4-1.8,4.05-2.85c7.35-20.25,13.95-28.95,19.35-51.75,1.95-6.6,4.95-10.5,8.7-16.2,5.1-4.5,5.7-19.35,5.55-25.8-1.5-6.15-3.45-11.4-7.5-16.5,3.45-5.1,7.2-10.2,10.65-15.45,4.95-5.7,3.6-8.4-.6-13.5,8.8-3.47,16.35-7.32,23.01-11.84Z"/>
      <g>
        <path class="cls-10" d="M76.45,522.96c-6.9-25.95-13.2-55.05-24.75-79.5,14.4-6.9,28.05-18.45,40.35-24.15-.45-.45-3.75-2.1-4.5-2.55-15-6.75-33.45-30.6-38.4-46.2-4.05,5.55-7.65,9.15-13.05,13.5-9.9,11.25-43.2,38.55-42.15,53.4,1.05,13.8,40.05,77.1,49.5,92.55,6.15,10.2,15,21.3,18.9,32.55-4.2,9.9-11.4,12.9-17.1,21.15-4.5,6.6-13.95,3.9-10.35,12.45.9,2.25.6,5.4.3,7.95,8.55,9.3,27.45,4.2,36.3-2.4,8.25-6.15,10.5-8.4,12.45-18,1.5-7.2,5.1-23.85,1.05-30.3-1.95-2.85-7.05-25.95-8.4-30.75h0v.3h-.15Z"/>
        <path class="cls-10" d="M298.6,365.46c-1.65-1.35-8.25-9.75-10.35-12-11.55-12.45-25.35-24-42.45-26.7-4.5-.75-20.7-2.55-23.55-.45v1.95c-3.45-3.75-6-3.15-10.65-5.25l-.6-.3-.45.3c-2.55-3-4.8-5.25-7.65-8.1-2.85-2.85-3.15-2.85-4.5-5.7-.15-2.55.3-3,1.65-5.25,0-1.5,2.55-12.75,2.85-14.7-7.8-3.6-14.85-4.95-23.25-10.5-6.15-4.2-14.7-12-20.7-15,1.5,6,1.5,13.65,1.5,19.8-.3,6.6-.6,13.2-1.05,19.95-5.7,1.2-9.9,2.7-13.8,7.35-10.95-5.85-19.2-9.6-32.1-6-19.2,5.25-47.85,31.8-49.2,52.65,3.9,21.6,16.65,37.8,34.2,50.7,2.85,2.1,7.2,4.95,10.35,5.85,4.35,10.8,7.05,18,14.1,27.45,13.65,18.3,31.5,26.25,40.65,47.55,1.65,5.1,3.3,10.05,4.95,15.15,18.9,12,42.15,21.45,64.95,14.4,7.65-1.2,16.2-4.65,22.65-9.3l2.4-1.8,4.05-2.85c7.35-20.25,13.95-28.95,19.35-51.75,1.95-6.6,4.95-10.5,8.7-16.2,5.1-4.5,5.7-19.35,5.55-25.8-1.5-6.15-3.45-11.4-7.5-16.5,3.45-5.1,7.2-10.2,10.65-15.45,4.95-5.7,39.16-9.45,34.96-14.55l-35.56,1.05h-.15Z"/>
      </g>
      <path class="cls-13" d="M49.15,370.71c5.1,15.45,23.4,39.3,38.4,46.2.9.45,4.05,1.95,4.5,2.55-12.3,5.85-25.95,17.25-40.35,24.15,11.4,24.45,17.85,53.55,24.75,79.5,1.2,4.8,6.45,27.9,8.4,30.75,4.2,6.45.6,23.1-1.05,30.3-2.1,9.75-4.2,11.7-12.45,18-8.85,6.6-27.75,11.85-36.3,2.4.3-2.55.6-5.7-.3-7.95-3.6-8.55,5.85-5.85,10.35-12.45,5.7-8.25,12.75-11.4,17.1-21.15-3.75-11.25-12.6-22.5-18.9-32.55-9.45-15.45-48.6-78.75-49.5-92.55-1.05-14.85,32.25-42.3,42.15-53.4,5.4-4.35,9-7.95,13.05-13.5h0v-.3h.15Z"/>
      <path class="cls-23" d="M158.8,263.61c6,3,14.55,10.8,20.7,15,8.4,5.7,15.45,6.9,23.25,10.5-.45,1.95-3,13.2-2.85,14.7-1.2,2.1-1.8,2.7-1.65,5.25,1.35,2.85,2.25,3.45,4.5,5.7s5.1,5.1,7.65,8.1l.45-.3.6.3c4.65,2.1,7.2,1.35,10.65,5.25v-1.95c2.85-2.1,19.05-.3,23.55.45,17.25,2.85,30.9,14.4,42.45,26.7,1.95,2.1,8.55,10.65,10.35,12,4.2,5.1,5.4,7.8.6,13.5-3.45,5.25-7.35,10.35-10.65,15.45,4.05,4.95,6,10.35,7.5,16.5,0,6.45-.45,21.15-5.55,25.8-4.95.3-11.25,5.85-15,9-10.65,2.7-26.4,1.2-37.2-.9-.3-4.2-.45-7.05-1.05-11.25-2.4-2.25-2.1-4.2-2.85-7.8-1.2-8.7-3.75-17.1-6.6-25.35-1.2-3.45-2.4-5.4-3.15-9.15-6.6,3.9-37.8,7.5-47.7,9.3-10.95-27.45-12.3-65.7-31.5-89.85,3.9-4.65,8.1-6,13.8-7.35.45-6.6.75-13.2,1.05-19.95,0-6.15,0-13.8-1.5-19.8h0l.15.15Z"/>
      <path class="cls-10" d="M222.25,328.26v-1.95c2.85-2.1,19.05-.3,23.55.45,17.25,2.85,52.22-16.45,75.31-23.41,1.95,2.1,37.98,46.52,39.78,47.87,4.2,5.1-31.04,23.23-41.22,28.67-10.18,5.44-30.96,14.52-31.11,14.52,4.05,4.95,6,10.35,7.5,16.5,0,6.45-.45,21.15-5.55,25.8-4.95.3-11.25,5.85-15,9-10.65,2.7-26.4,1.2-37.2-.9-.3-4.2-.45-7.05-1.05-11.25-2.4-2.25-2.1-4.2-2.85-7.8-1.2-8.7-3.75-17.1-6.6-25.35-1.2-3.45-2.4-5.4-3.15-9.15h1.5c10.35-.9,24.6-.6,35.25-.6-5.1-9.9-11.7-19.2-17.7-28.5-7.2-11.25-14.1-22.8-21.45-33.9h0Z"/>
      <path class="cls-22" d="M288.55,394.41c-7.5-12.9-15.9-33.6-25.5-44.4l.45-.9c5.55,3.9,30.52,43.37,46.34,35.67-11.53,6.48-21.2,9.78-21.2,9.78l-.09-.3v.15Z"/>
      <path class="cls-22" d="M224.65,391.41h1.5c7.5,16.05,10.5,24.3,11.1,42.3-2.4-2.25-2.1-4.2-2.85-7.8-1.2-8.7-3.75-17.1-6.6-25.35-1.2-3.45-2.4-5.4-3.15-9.15h0Z"/>
      <path class="cls-13" d="M158.8,263.61c6,3,14.55,10.8,20.7,15,8.4,5.7,15.45,6.9,23.25,10.5-.45,1.95-3,13.2-2.85,14.7-1.2,2.1-1.8,2.7-1.65,5.25,1.35,2.85,2.25,3.45,4.5,5.7s5.1,5.1,7.65,8.1c6.45,13.2,8.55,44.7,9,59.7-22.95-18.15-30.9-30.3-43.05-55.8-3-6.3-7.8-15.3-11.7-21.15-1.5-2.25-2.7-1.95-5.25-2.25.45-6.6.75-13.2,1.05-19.95,0-6.15,0-13.8-1.5-19.8h-.15Z"/>
      <path class="cls-2" d="M158.8,263.61c6,3,14.55,10.8,20.7,15,8.4,5.7,15.45,6.9,23.25,10.5-.45,1.95-3,13.2-2.85,14.7-1.2,2.1-1.8,2.7-1.65,5.25,1.35,2.85,2.25,3.45,4.5,5.7-4.05-1.05-37.65-35.7-41.55-36.45,0,1.95,0,3.3-.9,5.1,0-6.15,0-13.8-1.5-19.8h0Z"/>
      <path class="cls-22" d="M108.7,413.91c5.4-6.6,11.1-8.1,16.35-12.6,10.05-8.7,18.6-25.05,25.2-36.9-3.6,24-3.75,54.15,10.8,74.85,13.5,19.2,46.95,20.85,65.25,8.25,6.75-4.5,7.95-14.4,8.1-21.75.6,3.6.45,5.55,2.85,7.8.6,4.2.75,7.05,1.05,11.25,10.65,2.1,26.55,3.6,37.2.9,3.75-3.15,10.05-8.85,15-9-3.75,5.7-6.75,9.6-8.7,16.2-5.4,22.8-12,31.35-19.35,51.75l-4.05,2.85-2.4,1.8c-6.45,4.5-14.85,8.1-22.65,9.3-22.8,6.9-46.05-2.25-64.95-14.4-1.5-5.1-3.3-10.05-4.95-15.15-9.15-21.45-27-29.4-40.65-47.55-7.2-9.6-9.9-16.65-14.1-27.45h0v-.15Z"/>
      <path class="cls-23" d="M202.75,314.76c-2.25-2.25-3.15-2.85-4.5-5.7-.15-2.55.3-3,1.65-5.25,8.1,9.9,6,9.6,10.95,18.75l-.45.3c-2.55-3-4.8-5.25-7.65-8.1h0Z"/>
      <path class="cls-14" d="M185.2,102.81h1.5c1.95,3.3,12.15,26.7,12,29.85l-.6,1.05c-4.05-7.65-9.9-22.5-12.75-30.9h-.15Z"/>
      <path class="cls-6" d="M271.75,131.76c4.65,0,5.1,1.35,7.8,5.1,3.3,2.85,2.1,3.45,3.75,7.5-2.1.15-5.4-3.75-9.9-5.4v-1.5c-.3-2.7-.6-3.3-1.8-5.55h0l.15-.15Z"/>
      <path class="cls-11" d="M84.7,67.11c-15.45,32.55-10.8,51.9,6.6,82.35,2.1,3.75,4.95,8.1,6.9,12l.6,1.95-1.05.9c-1.95-2.1-2.55-3.45-5.25-4.35-3.45.45-5.4,2.25-7.5,5.25-11.4,15.45-.45,34.2,13.2,43.8,7.35,5.1,16.05,8.25,21.75-.45,10.65,18,21.9,42.15,38.7,55.05,1.5,6,1.5,13.65,1.5,19.8-.3,6.6-.6,13.2-1.05,19.95-5.7,1.2-9.9,2.7-13.8,7.35-10.95-5.85-19.2-9.6-32.1-6-19.2,5.25-47.85,31.8-49.2,52.65-5.4,3.6-11.7,7.5-15,13.2-4.05,5.55-7.65,9.15-13.05,13.5-17.55-14.1-29.4-31.35-34.05-53.55-4.5-21.9,0-44.85,12.3-63.6,8.7,13.8,25.05,35.1,46.2,21.9,10.05-6.3,1.5-25.65-2.85-33.75-6.75-12.15-13.5-26.85-17.1-40.5-15.3-49.05,5.1-114.75,44.25-147.45h.15-.15Z"/>
      <path class="cls-18" d="M84.7,67.11c4.65-4.5,9.15-10.65,13.95-15.6,15.9-16.65,34.2-21.75,55.2-28.65,6.9-2.25,16.2-4.05,22.8-.6-4.05,12.6-4.2,26.4-2.1,39.45l1.05,6c-43.95-1.05-73.95,68.25-65.25,105.15l-1.05,1.65c-3,.3-2.4-.9-5.85-2.85-1.5-3.15-2.7-5.25-4.5-8.25l-.6-1.95c-1.95-3.9-4.65-8.1-6.9-12-17.55-30.45-22.05-49.95-6.6-82.35h-.15Z"/>
      <path class="cls-9" d="M98.35,161.46l1.2.6c.9,0,2.55-.6,2.55-1.65,0-37.95,25.05-99.75,72.45-98.85l1.05,6c-43.95-1.05-73.95,68.25-65.25,105.15l-1.05,1.65c-3,.3-2.4-.9-5.85-2.85-1.5-3.15-2.7-5.25-4.5-8.25l-.6-1.95h0v.15Z"/>
      <path class="cls-14" d="M110.35,172.86c-8.55-36.9,21.45-106.05,65.25-105.15v1.8c-17.7,12.9-27.15,28.95-39.75,46.5-13.2,18.3-23.25,45.15-17.55,67.65-3.9-3.75-5.7-5.7-8.1-10.8h.15Z"/>
      <path class="cls-15" d="M242.65,164.01c4.05-3.75,7.65-3,13.2-3,6.15,3.6,6.6,3,8.1,10.05v.6c-1.95,5.1-2.85,7.2-5.25,12.15-9.15,9.75-11.7-1.05-17.1-4.65l-1.8.9-.75-2.55c.3-5.25,1.5-8.85,3.75-13.5h-.15Z"/>
      <path class="cls-20" d="M254.2,164.01c3.75.75,4.65,1.2,6.3,4.95,0,2.85-.45,3.15-2.1,5.4-3.6-.6-4.35-.75-5.85-3.75,0-3,.45-3.6,1.8-6.45h-.15v-.15Z"/>
      <path class="cls-19" d="M239.65,180.06l1.8-.9c5.4,3.75,7.95,14.55,17.1,4.65,2.7-1.05,5.1-2.1,8.1-2.25l1.2-1.65.75.9c-2.25,12.45-18,21-26.4,8.25-1.2-1.8-1.95-6.75-2.4-9h-.15Z"/>
      <path class="cls-3" d="M263.95,171.81l1.05-1.95v.45l1.8-.45h-.45c0-.15,1.2.9,1.2.9v-.3c.9,3.6.45,6.15.3,9.9l-1.2,1.65c-2.85,0-5.25,1.2-8.1,2.25,2.4-5.1,3.3-7.2,5.4-12.15h0v-.3h0Z"/>
      <path class="cls-18" d="M282.4,158.01c-3-7.95-9.3-9.3-16.95-10.5v.15c-4.65.9-8.4,1.65-12.9,2.85.15.15-6.59,6.58-6.59,6.58l-4.21,6.02c-2.85,3.75-4.35,5.85-5.85,10.35-1.35,4.8-2.25,7.8-2.85,12.75.17.2.32.37.48.55-.1-.04-.2-.11-.33-.25-.15,3.75.15,4.35,1.35,7.95l3.6-.6h0c1.8-.6,4.05,6.3,8.25,7.5,8.25,2.1,23.25-3.15,30.45-7.2,1.65-3,3.6-7.65,5.1-10.95,2.7-10.8,2.55-14.55.45-25.2Z"/>
      <path class="cls-15" d="M273.4,138.96c4.5,1.5,7.8,5.55,9.9,5.4l1.8-2.4c1.35,1.95,3.45,6.3,5.4,6.75,2.85.6,5.1-.3,7.35,1.8l.3,1.5c-3.75,4.35-10.35,1.35-15.9,6-3-7.95-9.15-9.3-16.95-10.5-4.65.9-6.92,2.29-11.57,3.49-5.27,4.61-7.93,6.86-12.13,12.11-2.7,3.75-4.2,5.85-5.85,10.35l-1.2-.45c5.25-15.3,13.35-29.55,30.45-33.45,3.6,0,4.8-.15,8.25-.9h0v.3h.15Z"/>
      <path class="cls-8" d="M92.5,179.01c4.65-1.5,6.15-2.1,10.65-.9l2.55,2.1,3.6,7.95c-5.1-.75-11.1-2.85-14.55,1.95-1.8-.6-2.85-.6-4.05-2.1-.75-3,.75-6,1.8-9.15h0v.15Z"/>
      <path class="cls-25" d="M94.6,190.11c3.45-4.65,9.6-2.7,14.55-1.95.6,2.55.75,2.7.9,5.4-2.25,3.6-5.7,2.55-9.6,2.4l-5.85-5.85h0Z"/>
      <path class="cls-4" d="M234.7,173.16l1.2.45c-1.35,4.8-2.25,7.8-2.85,12.75-.15,3.75.3,4.35,1.35,7.95h0c-6-2.4-1.5-16.8.3-21h0v-.15Z"/>
      <path class="cls-2" d="M98.95,163.41c1.8,3,3,5.1,4.5,8.25.6,3.6,1.05,5.1,2.1,8.55l-2.55-2.1c-.6-4.2-3.3-9.9-5.1-13.8l1.05-.9h0Z"/>
      <path class="cls-20" d="M161.95,139.11c4.05,3.75,18.86-1.12,24.26.08,8.25,1.8,16.99,21.97,17.44,30.82,4.65,12.15,7.65,24-7.5,28.95-25.65,8.25-39.6.9-54.6-19.05-7.8-8.4-6.9-15.15-10.8-26.25,3.3.9,7.2,1.5,10.65,2.25,1.2-6.6,1.2-11.85,1.05-18.45l4.2,9.9c5.4-2.85,10.05-5.4,15.3-8.55h0v.3h0Z"/>
      <path class="cls-15" d="M167.28,128.58c4.05,3.75-1.86,4.91,3.54,6.11,20.99-13.05,32.39,26.47,32.84,35.32-8.7-10.95-4.35-24.55-18.45-27.55h0c-9.75-1.95-24.3,6.55-31.5,13h0c-9.6,8.55-10.5,11.7-12,24.6-7.8-8.4-6.9-15.15-10.8-26.25,3.3.9,7.2,1.5,10.65,2.25,1.2-6.6,1.2-11.85,1.05-18.45l4.2,9.9c5.4-2.85,8.27-15.21,13.52-18.36l-1.89,10.15,8.85-10.72Z"/>
      <path class="cls-5" d="M250.76,231.34c-4.5,11.55-1.95,8.27-8.4,18.92-28.2,41.25-39.11,7.25-38.35-3.74,2.13-31.04,29.51-9.64,46.76-15.19Z"/>
      <path class="cls-21" d="M158.78,125.34c-6.98,4.77-10.44,6.15-19.13,7.45,13.15-9.63,20.9-20.29,29.53-33.87.84-1.25,1.92-1.36,3.27-1.65.53.28,2.45,1.14,2.84,1.69,5.77,7.34-12.94,23.53-16.51,26.38h0Z"/>
      <path class="cls-14" d="M158.78,125.34h0c.28-12.27,11.58-15.92,13.67-28.07.53.28,2.45,1.14,2.84,1.69,5.77,7.34-12.94,23.53-16.51,26.38h0Z"/>
      <path class="cls-2" d="M240.4,197.91l.6,1.2c-.6,2.1-5.1,7.5-7.35,8.1l-.9-1.65c-6,1.2-3.15,2.55-10.5,1.05l-.6-1.05.45-1.2c4.2-2.25,6.75-1.35,11.25-.9,2.55.3,4.95-3.3,7.2-5.7h0l-.15.15Z"/>
      <path class="cls-2" d="M282.7,192.66l.6.45v1.2c-2.25,2.7-5.55,3.75-8.85,5.25l-.6-.75c3.3-2.1,5.85-4.05,8.85-6.45h0v.3Z"/>
      <path class="cls-20" d="M108.7,413.91c-3.3-1.05-7.65-3.9-10.35-5.85-17.55-12.9-30.3-29.1-34.2-50.7-5.4,3.6-11.7,7.5-15,13.2,5.1,15.45,23.4,39.3,38.4,46.2.9.45,4.05,1.95,4.5,2.55,7.05-.45,8.7-.45,16.65-5.25h0v-.15Z"/>
      <g class="cls-16">
        <g>
          <ellipse cx="178.76" cy="171.55" rx="20.21" ry="25.54"/>
          <path class="cls-20" d="M185.15,157.47c6.3,3.6,7.83,8.61,3.08,14.72-5.04-4.7-8.39-8.14-3.08-14.72Z"/>
          <path class="cls-12" d="M163.03,177.98c0-4.7-.14-6.89,1.96-10.96,3.36,34.6,22.24,7.98,28.54,7.98l.98,1.1c-.42,19.26-26.16,25.36-31.34,2.19v-.47h-.14v.16Z"/>
        </g>
      </g>
      <g class="cls-17">
        <g>
          <ellipse cx="254.86" cy="172.57" rx="17.83" ry="24.47"/>
          <path class="cls-20" d="M260.49,159.07c5.55,3.45,6.91,8.25,2.72,14.1-4.44-4.5-7.4-7.8-2.72-14.1Z"/>
          <path class="cls-12" d="M240.97,178.72c0-4.5-.12-6.6,1.73-10.5,2.96,33.15,19.62,7.65,25.18,7.65l.86,1.05c-.37,18.45-23.08,24.3-27.64,2.1v-.45h-.12v.15Z"/>
        </g>
      </g>
      <rect class="cls-7" x="347.4" y="107.7" width="410.52" height="19.73"/>
      <path class="cls-20" d="M307.21,305.94c3.19,1.34,7.27,4.57,9.78,6.76,16.31,14.43,27.55,31.72,29.48,53.58,5.7-3.1,12.33-6.41,16.13-11.79-3.68-15.85-19.76-41.25-34.07-49.48-.86-.53-3.86-2.31-4.25-2.95-7.06-.19-8.71-.34-17.06,3.73h0v.15Z"/>
      <path class="cls-21" d="M263.88,126.48c-3.56-2.86-22.23-19.09-16.45-26.42.39-.55,2.31-1.4,2.84-1.68,1.35.3,2.43.41,3.26,1.66,8.6,13.6,16.32,24.28,29.45,33.94-8.69-1.32-12.15-2.71-19.12-7.5h0Z"/>
      <path class="cls-14" d="M263.88,126.48c-3.56-2.86-22.23-19.09-16.45-26.42.39-.55,2.31-1.4,2.84-1.68,2.06,12.16,13.36,15.83,13.6,28.1h0Z"/>
      <path class="cls-20" d="M218.15,235.68c-4.56,1.38-9.39,4.81-7.74,13.29,8.08,4.5,18.71,3.98,27.59-2.45,2.1-2.85,3.15-4.35,4.95-7.35-7.85-1.1-16.37-2.42-24.81-3.49Z"/>
    </g>
  </g>
</svg>