<?xml version="1.0" encoding="UTF-8"?>
<!-- Created with Grafika (https://www.grafika.cc/) -->
<svg xmlns="http://www.w3.org/2000/svg" xmlns:svg="http://www.w3.org/2000/svg" xmlns:xlink="http://www.w3.org/1999/xlink" width="1000" height="1000" viewBox="0 0 379.53 886.13" preserveAspectRatio="xMidYMid meet">
	<g transform="matrix(1, 0, 0, 1, 197.82672119140625, 455.46588134765625)">
		<g transform="matrix(1, 0, 0, 1, -51.182220458984375, 7.40576171875)">
			<path transform="matrix(0.5, 0, 0, 0.5, -512, -512)" d="M1015.12,407.84 C1045.66,427.86 1087.52,437.96 1129.92,430.78 C1153.06,426.18 1164.78,420.27 1179.3,407.74 C1184.13,410.64 1184.08,410.63 1187.57,414.29 C1216.27,422.45 1250.81,414.72 1265.87,441.45 C1269.72,448.27 1276.33,463.55 1274.79,470.3 L1272.48,475.22 C1271.98,485.73 1271.55,488.26 1264.85,497.85 C1287.45,522.45 1302.98,514.31 1326.48,538.47 C1327.79,544.56 1329.25,550.71 1330.13,556.82 C1347.28,558.35 1353.05,569.16 1361.17,572.27 C1372.98,583.59 1383.55,592.4 1376.86,606.94 L1375.91,608.85 C1383.09,612.31 1387.06,617.53 1392.03,619.94 C1415.24,631.24 1428.46,646.97 1431.72,665.95 C1433.07,673.89 1433.01,687.06 1423.72,693.33 C1421.35,694.98 1415.4,698.87 1414.12,700.33 C1420.91,706.32 1423.87,707.31 1433.88,710.82 C1440.03,717.19 1446.17,722.42 1447.55,729.96 C1446.58,731.03 1446.07,731.77 1444.83,732.69 C1425.82,750.11 1420.59,774.78 1404.81,793.12 C1399.8,797.95 1399.42,806.18 1398.22,812.18 C1389.75,853.88 1380.98,897.47 1378.96,939.5 C1371.7,1090.16 1363.9,1241.5 1317.86,1389.57 C1307.26,1423.68 1251.79,1532.11 1192.76,1537.73 C1185.83,1535.96 1168.81,1540.09 1155.44,1540.98 C1117.94,1543.48 1074.27,1545.08 1036.58,1542.26 C1022.85,1541.24 993.74,1537.43 984.93,1538.62 C971.22,1535.15 953.09,1519.97 943.99,1512.49 C920.04,1492.8 904.94,1467.13 891.93,1443.48 C889,1438.15 885.23,1432.52 882.62,1427.09 C880.95,1423.98 883.13,1418.72 881.35,1415.8 C873.74,1403.51 867.7,1391.05 863.32,1378.08 C837.4,1301.33 833.99,1222.91 827.42,1144.73 C822.62,1086.61 816.79,1028.54 809.95,970.51 C802.75,908.11 795.24,814.9 755.01,757.94 C749.31,752.73 736.67,734.97 734.49,728.35 C733.43,725.13 736.22,723.44 738.78,720.87 C751.68,718.45 758.7,716.58 764.23,708.11 C757.1,706.06 745.14,705.36 741.11,703.85 C723.75,697.35 731.35,677.32 740.65,669.38 C748.63,661.07 758.87,659.29 771.01,655.86 C801.7,647.18 828.55,648.33 860.84,647.96 C865.33,647.91 865.57,646.75 867.78,644.55 C843.86,639.62 829.55,640.3 805.12,640.51 C799.32,640.56 796.83,639.95 793.22,637.45 C792.19,630.6 804.6,624.35 812.02,620.64 C804.96,619.46 801.48,618.32 794.86,616.38 C785.57,612.18 780.83,606.54 782.98,598.86 C789.18,576.78 818.74,562.57 844.67,550.49 C809.13,524.35 898.86,513.62 903.49,507.33 C900.21,502.28 900.73,501.53 901.03,495.81 C907.54,466.15 939.89,457.26 979.67,453.32 C974.31,440.06 998.49,415.55 1015.12,407.84 L1015.12,407.84 Z" style="fill:#F1DAB0;" />
			<path transform="matrix(0.5, 0, 0, 0.5, -512, -512)" d="M1015.12,407.84 C1045.66,427.86 1087.52,437.96 1129.92,430.78 C1153.06,426.18 1164.78,420.27 1179.3,407.74 C1184.13,410.64 1184.08,410.63 1187.57,414.29 C1216.27,422.45 1250.81,414.72 1265.87,441.45 C1269.72,448.27 1276.33,463.55 1274.79,470.3 L1272.48,475.22 C1271.98,485.73 1271.55,488.26 1264.85,497.85 C1287.45,522.45 1302.98,514.31 1326.48,538.47 C1327.79,544.56 1329.25,550.71 1330.13,556.82 C1347.28,558.35 1353.05,569.16 1361.17,572.27 C1372.98,583.59 1383.55,592.4 1376.86,606.94 L1375.91,608.85 C1383.09,612.31 1387.06,617.53 1392.03,619.94 C1415.24,631.24 1428.46,646.97 1431.72,665.95 C1433.07,673.89 1433.01,687.06 1423.72,693.33 C1421.35,694.98 1415.4,698.87 1414.12,700.33 C1420.91,706.32 1423.87,707.31 1433.88,710.82 C1440.03,717.19 1446.17,722.42 1447.55,729.96 C1446.58,731.03 1446.07,731.77 1444.83,732.69 L1441.65,729.68 C1435.28,730.66 1435.44,733.22 1427.75,735.56 C1410.94,736.68 1387.85,736.29 1370.59,736.34 C1341.9,736.39 1313.2,736.61 1284.51,737.01 C1272.04,739.01 1064.42,738.68 1050.9,737.1 C1058.48,736.69 1069.42,736.82 1075.67,736.33 C1063.21,732.6 1021.76,729.45 1006.48,727.1 C936.55,716.34 874.66,699.37 802.14,712.34 C790.37,714.44 770.5,716.59 764.17,707.22 L764.23,708.11 C757.1,706.06 745.14,705.36 741.11,703.85 C723.75,697.35 731.35,677.32 740.65,669.38 C748.63,661.07 758.87,659.29 771.01,655.86 C801.7,647.18 828.55,648.33 860.84,647.96 C865.33,647.91 865.57,646.75 867.78,644.55 C843.86,639.62 829.55,640.3 805.12,640.51 C799.32,640.56 796.83,639.95 793.22,637.45 C792.19,630.6 804.6,624.35 812.02,620.64 C804.96,619.46 801.48,618.32 794.86,616.38 C785.57,612.18 780.83,606.54 782.98,598.86 C789.18,576.78 818.74,562.57 844.67,550.49 C809.13,524.35 898.86,513.62 903.49,507.33 C900.21,502.28 900.73,501.53 901.03,495.81 C907.54,466.15 939.89,457.26 979.67,453.32 C974.31,440.06 998.49,415.55 1015.12,407.84 L1015.12,407.84 Z" style="fill:#F7EEC8;" />
			<path transform="matrix(0.5, 0, 0, 0.5, -511.9999694824219, -512)" d="M1015.13,407.84 C1045.66,427.86 1087.52,437.96 1129.93,430.78 C1153.06,426.18 1164.78,420.27 1179.3,407.74 C1184.13,410.64 1184.09,410.63 1187.57,414.29 C1216.27,422.45 1250.82,414.72 1265.88,441.45 C1269.72,448.27 1276.33,463.55 1274.79,470.3 L1272.49,475.22 C1271.99,485.73 1271.55,488.26 1264.85,497.85 C1287.46,522.45 1302.98,514.31 1326.48,538.47 C1327.79,544.56 1329.26,550.71 1330.13,556.82 C1328.77,564.62 1322.83,574.63 1313.38,579.98 C1289.3,593.63 1247.4,568.35 1226.96,576.97 C1205.27,586.11 1217.92,627.07 1176.16,623.81 C1154.53,622.11 1116.41,566.8 1086.99,577.83 C1060.9,587.62 1069.79,629.96 1019.35,625.24 C1010.79,624.44 1002.9,618.68 998.89,613.91 C983.69,595.85 982.59,578.49 951.52,568.4 C930.94,568.77 916.84,570.8 899.6,578.98 C839.45,580.98 874.27,567.26 854.67,550.97 C848.69,549.08 851.87,549.44 844.68,550.49 C809.13,524.35 898.87,513.62 903.5,507.33 C900.21,502.28 900.73,501.53 901.03,495.81 C907.55,466.15 939.89,457.26 979.67,453.32 C974.32,440.06 998.49,415.55 1015.13,407.84 L1015.13,407.84 Z" style="fill:#F7EEC8;" />
			<path transform="matrix(0.5, 0, 0, 0.5, -512.0000610351562, -512)" d="M1015.12,407.84 C1045.66,427.86 1087.52,437.96 1129.92,430.78 C1153.05,426.18 1164.78,420.27 1179.3,407.74 C1184.13,410.64 1184.08,410.63 1187.57,414.29 C1216.27,422.45 1250.81,414.72 1265.87,441.45 C1269.72,448.27 1276.33,463.55 1274.79,470.3 L1272.48,475.22 C1245.12,482.36 1205.95,479.03 1179.73,494.53 C1163.9,502.64 1143.62,492.99 1128.08,487.77 C1094.94,477.96 1075.5,480.1 1040.27,483.4 C1013.5,485.97 1008.34,486.81 990.18,472.69 C986.08,466.91 983.78,455.58 979.67,453.32 C974.31,440.06 998.49,415.55 1015.12,407.84 L1015.12,407.84 Z" style="fill:#F7EEC8;" />
			<path transform="matrix(0.5, 0, 0, 0.5, -512.0000610351562, -512)" d="M1179.73,494.53 C1174.85,488.29 1169.85,476.71 1173.83,469.97 C1190.07,442.5 1247.28,463.58 1274.79,470.3 L1272.48,475.22 C1245.12,482.36 1205.95,479.03 1179.73,494.53 L1179.73,494.53 Z" style="fill:#EBC07F;" />
			<path transform="matrix(0.5, 0, 0, 0.5, -511.9999694824219, -512)" d="M1040.28,483.4 C1040.92,474.47 1049.48,470.2 1058.23,464.28 C1078.72,450.43 1102.52,456.93 1119.2,470.14 C1123.38,473.44 1130.95,480.54 1130.3,484.96 L1128.09,487.77 C1094.95,477.96 1075.51,480.1 1040.28,483.4 L1040.28,483.4 Z" style="fill:#EBC07F;" />
			<path transform="matrix(0.5, 0, 0, 0.5, -511.9999694824219, -512)" d="M979.67,453.32 C983.78,455.58 986.09,466.91 990.19,472.69 C1008.35,486.81 1013.51,485.97 1040.28,483.4 C1075.51,480.1 1094.95,477.96 1128.09,487.77 C1143.63,492.99 1163.91,502.64 1179.74,494.53 C1205.95,479.03 1245.13,482.36 1272.49,475.22 C1271.99,485.73 1271.55,488.26 1264.85,497.85 C1231.44,526.13 1228.66,502.55 1206.48,495.84 C1186.89,496.75 1187.24,519.82 1184.45,529.4 C1181.88,538.18 1180.78,541.25 1171.86,548.07 C1127.26,558.18 1105.42,532.3 1090.95,509.26 C1079.77,473.02 1038.54,513.73 1012.33,512.99 C993.69,512.46 993,498.43 985.13,494.57 C959.14,481.82 934.05,508.19 903.5,507.33 C900.21,502.28 900.73,501.53 901.03,495.81 C907.55,466.15 939.89,457.26 979.67,453.32 L979.67,453.32 Z" style="fill:#551D1A;" />
			<path transform="matrix(0.5, 0, 0, 0.5, -511.9999694824219, -512)" d="M979.67,453.32 C983.78,455.58 986.09,466.91 990.19,472.69 C970.63,479.23 949.95,485.78 931.92,493.96 C926.11,496.59 915.72,502.96 909.84,503.2 C905.9,501.42 904.83,498.51 902.9,495.46 L901.03,495.81 C907.55,466.15 939.89,457.26 979.67,453.32 L979.67,453.32 Z" style="fill:#C3745D;" />
			<path transform="matrix(0.5, 0, 0, 0.5, -511.9999694824219, -512)" d="M954.48,534.03 C978.58,529.78 1033.01,535.25 1056.15,541 C1089.71,549.33 1109.45,554.74 1146.9,553.69 C1157.89,554.1 1189.76,550.48 1191.42,558.4 C1188.1,563.63 1180.04,567.07 1173.07,569.97 C1145.88,570.49 1126.91,565.75 1100.39,564.09 C1079.79,562.81 1057.72,566.26 1037.05,568.19 C995.2,555.27 988.08,541.88 928.27,557.52 C918.47,560.09 905.51,565.4 895.05,566.27 L893.81,565.22 C900.52,557.8 941.92,539.09 954.48,534.03 L954.48,534.03 Z" style="fill:#EBC07F;" />
			<path transform="matrix(0.5, 0, 0, 0.5, -512.0000610351562, -512)" d="M1219.68,532.97 C1240.17,533.07 1271.27,535.6 1293.24,536.61 C1292.22,540.39 1291.71,544.05 1291.1,547.86 C1287.21,550.59 1284.02,552.02 1279.47,554.28 C1264.5,558.03 1218.74,562 1209.21,551.95 C1211.42,545.41 1216.99,540.42 1219.68,532.97 L1219.68,532.97 Z" style="fill:#EBC07F;" />
			<path transform="matrix(0.5, 0, 0, 0.5, -511.9999694824219, -512)" d="M844.68,550.49 C851.87,549.44 848.69,549.08 854.67,550.97 C874.27,567.26 839.45,580.98 899.6,578.98 C916.84,570.8 930.94,568.77 951.52,568.4 C982.59,578.49 983.69,595.85 998.89,613.91 C1002.9,618.68 1010.79,624.44 1019.35,625.24 C1069.79,629.96 1060.9,587.62 1086.99,577.83 C1116.41,566.8 1154.53,622.11 1176.16,623.81 C1217.92,627.07 1205.27,586.11 1226.96,576.97 C1247.4,568.35 1289.3,593.63 1313.38,579.98 C1322.83,574.63 1328.77,564.62 1330.13,556.82 C1347.29,558.35 1353.05,569.16 1361.17,572.27 C1372.99,583.59 1383.55,592.4 1376.87,606.94 C1367.51,603.46 1356.68,601.44 1347.53,598.34 C1262.9,569.67 1303.09,649.66 1241.9,660.27 C1192.34,670.88 1164.69,612.26 1118.67,617.36 C1082.16,621.4 1095.66,682.83 1052.88,688.09 C961.9,699.28 966.96,592.53 886.56,596.8 C875.02,597.42 845.18,615.36 830.95,620.51 C823.99,621.12 818.98,620.83 812.02,620.64 C804.96,619.46 801.49,618.32 794.87,616.38 C785.57,612.18 780.83,606.54 782.98,598.86 C789.18,576.78 818.75,562.57 844.68,550.49 L844.68,550.49 Z" style="fill:#551D1A;" />
			<path transform="matrix(0.5, 0, 0, 0.5, -512, -512)" d="M844.67,550.49 C851.87,549.44 848.69,549.08 854.67,550.97 C874.27,567.26 839.45,580.98 899.59,578.98 C884.4,588.14 833.84,619.02 815.33,617.41 C811.65,617.09 798.89,616.06 794.86,616.38 C785.57,612.18 780.83,606.54 782.98,598.86 C789.18,576.78 818.74,562.57 844.67,550.49 L844.67,550.49 Z" style="fill:#C3745D;" />
			<path transform="matrix(0.5, 0, 0, 0.5, -512.0000610351562, -512)" d="M1202.69,728.84 C1246.6,724.35 1264.71,719.5 1302.37,706.08 C1340.2,692.61 1379.86,677.42 1421.75,671.23 C1420.9,682.08 1420.37,687.86 1410.39,696.61 C1394.37,699.27 1376.77,700.73 1362.04,704.57 C1345.76,708.83 1330.73,717.64 1315.37,722.88 C1303.54,726.92 1287.15,728.25 1274.07,730.36 C1281.99,731.73 1292.16,726.66 1296.67,728.65 C1293.03,729.62 1292.54,729.63 1288.63,730.08 C1284.66,732.37 1283.47,733.14 1280.01,735.75 L1265.58,736.38 L1284.51,737.01 C1272.04,739.01 1064.42,738.68 1050.9,737.1 C1058.48,736.69 1069.42,736.82 1075.67,736.33 C1063.2,732.6 1021.76,729.45 1006.47,727.1 C936.55,716.34 874.66,699.37 802.14,712.34 C790.37,714.44 770.5,716.59 764.16,707.22 C788.24,692.58 823.31,681.88 856.8,682.13 C904.16,682.49 935.93,698.68 976.9,707.87 C1046.9,723.58 1129.39,737.48 1202.69,728.84 L1202.69,728.84 Z" style="fill:#EBC07F;" />
			<path transform="matrix(0.5, 0, 0, 0.5, -512, -512)" d="M812.02,620.64 C818.97,620.83 823.98,621.12 830.94,620.51 C843.45,623 855.54,619.89 866.41,622.48 C899,630.26 928.9,646.19 955.5,660.53 C963.62,664.91 974.26,666.67 982.05,672.02 L982.17,673.63 C977.02,675.5 969.42,674.87 964.17,673.63 C933.08,666.33 899.86,649.51 867.78,644.55 C843.86,639.62 829.55,640.3 805.12,640.51 C799.32,640.56 796.83,639.95 793.22,637.45 C792.19,630.6 804.6,624.35 812.02,620.64 L812.02,620.64 Z" style="fill:#EBC07F;" />
			<path transform="matrix(0.5, 0, 0, 0.5, -512.0000610351562, -512)" d="M1351.87,640.17 C1371.47,639.47 1379.71,641.04 1397.37,646.8 C1313.71,667.26 1277.32,700.2 1175.84,696.28 C1157.6,695.86 1119.52,691.63 1132.61,673.69 C1143.19,667.21 1189.02,673.23 1206.88,672.95 C1266.37,672 1302.27,650.37 1351.87,640.17 L1351.87,640.17 Z" style="fill:#EBC07F;" />
			<path transform="matrix(0.5, 0, 0, 0.5, -512.0000610351562, -512)" d="M1281.13,1188.37 C1306.28,1187.29 1313.31,1188.57 1337.26,1193.51 C1329.18,1288.89 1316.48,1432.24 1206.87,1501.91 C1136.05,1546.92 1017.75,1537.28 957.14,1488.34 C912.92,1453.75 877.28,1384.1 871.41,1338.75 C869.77,1335.85 866.11,1309.59 865.41,1304.78 C859.45,1267.41 854.66,1229.97 851.02,1192.48 C876.07,1188.16 901.02,1188.56 924.72,1195.96 L925.13,1196.67 C964.63,1211.46 976.95,1224.78 999.35,1249.84 C1004.05,1255.1 1012.86,1264.38 1018.63,1268.93 L1020.54,1270.09 C1064.96,1300.51 1112.7,1307.48 1160.3,1273.48 C1192.92,1250.17 1203.67,1222.17 1238.5,1200.18 C1253.01,1192.44 1263.64,1190.89 1281.13,1188.37 L1281.13,1188.37 Z" style="fill:#551D1A;" />
			<path transform="matrix(0.5, 0, 0, 0.5, -512.0000610351562, -512)" d="M1238.5,1200.18 C1253.01,1192.44 1263.64,1190.89 1281.13,1188.37 C1280.84,1265.16 1273.73,1443.14 1100.83,1448.04 C1083.65,1448.53 1058.11,1445.34 1042.16,1440.87 L1041.4,1440.31 C1036.18,1397.83 1026.74,1355.05 1023.74,1312.27 C1023.05,1302.43 1019.03,1278.83 1020.54,1270.09 C1064.96,1300.51 1112.7,1307.48 1160.3,1273.48 C1192.92,1250.17 1203.67,1222.17 1238.5,1200.18 L1238.5,1200.18 Z" style="fill:#9A2C29;" />
			<path transform="matrix(0.5, 0, 0, 0.5, -511.9999694824219, -512)" d="M851.02,1192.48 C876.07,1188.16 901.03,1188.56 924.72,1195.96 L925.13,1196.67 C964.63,1211.46 976.95,1224.78 999.35,1249.84 C1004.05,1255.1 1012.86,1264.38 1018.63,1268.93 L1020.55,1270.09 C1019.04,1278.83 1023.06,1302.43 1023.75,1312.27 C1026.75,1355.05 1036.18,1397.83 1041.41,1440.31 C999.17,1427.64 985.25,1413.36 956.22,1392.61 C962.16,1416.16 970.49,1456.02 987.82,1475.89 C978.9,1474.48 961.32,1464.18 953.6,1459.71 C910.33,1434.64 900.06,1396.04 883.54,1361.3 C879.9,1353.65 874.25,1349.05 874.34,1341.83 C874.38,1339.29 874.67,1338.5 872.9,1336.3 L871.41,1338.75 C869.78,1335.85 866.12,1309.59 865.41,1304.78 C859.46,1267.41 854.66,1229.97 851.02,1192.48 L851.02,1192.48 Z" style="fill:#9A2C29;" />
			<path transform="matrix(0.5, 0, 0, 0.5, -511.9999694824219, -512)" d="M925.13,1196.67 C964.63,1211.46 976.95,1224.78 999.35,1249.84 C1004.05,1255.1 1012.86,1264.38 1018.63,1268.93 L1020.55,1270.09 C1019.04,1278.83 1023.06,1302.43 1023.75,1312.27 C1026.75,1355.05 1036.18,1397.83 1041.41,1440.31 C999.17,1427.64 985.25,1413.36 956.22,1392.61 C937.53,1335.65 924.96,1254.37 925.13,1196.67 L925.13,1196.67 Z" style="fill:#CD8658;" />
			<path transform="matrix(0.5, 0, 0, 0.5, -511.9999694824219, -512)" d="M956.22,1392.61 C985.25,1413.36 999.17,1427.64 1041.41,1440.31 L1042.16,1440.87 C1045.55,1451.97 1059.63,1490.48 1033.17,1493.65 C1023.48,1494.82 1009.04,1488.89 1001.52,1484.78 C996.59,1482.07 992.01,1479.1 987.82,1475.89 C970.49,1456.02 962.16,1416.16 956.22,1392.61 L956.22,1392.61 Z" style="fill:#C3745D;" />
			<path transform="matrix(0.5, 0, 0, 0.5, -511.9999694824219, -512)" d="M1013.77,853.08 C1052.42,853.31 1091.07,853.41 1129.7,853.38 C1165.54,853.18 1204.82,852.41 1240.51,853.32 C1239.97,863.54 1233.4,939.27 1235.51,944.15 L1236.03,944.88 C1241.25,950.19 1240.99,1076.88 1240.36,1094.72 L1238.67,1164.51 C1238.44,1175.48 1236.99,1189.58 1238.5,1200.18 C1203.67,1222.17 1192.93,1250.17 1160.3,1273.48 C1112.71,1307.48 1064.96,1300.51 1020.55,1270.09 L1018.63,1268.93 C1012.86,1264.38 1004.05,1255.1 999.35,1249.84 C976.95,1224.78 964.63,1211.46 925.13,1196.67 L924.72,1195.96 C925.36,1185.3 925.02,1173.56 925.04,1162.81 C933.05,1162.82 938.42,1163.25 945.9,1161.39 L947.12,1160.99 L949.13,1160.29 C990.34,1146.43 989.04,1115.08 990,1088.27 C990.79,1066.14 986.62,1043.64 985.83,1021.54 C985.53,1011.27 986.48,1001 988.67,990.82 C991.75,976.63 997.73,964.71 1015.74,955.71 L1016.4,955.19 C1012.66,948 1013.86,866.41 1013.77,853.08 L1013.77,853.08 Z" style="fill:#DFA163;" />
			<path transform="matrix(0.5, 0, 0, 0.5, -512.0000610351562, -512)" d="M1013.77,853.08 C1052.41,853.31 1091.06,853.41 1129.69,853.38 C1165.53,853.18 1204.81,852.41 1240.5,853.32 C1239.96,863.54 1233.4,939.27 1235.51,944.15 L1236.02,944.88 L1235.13,945.99 C1227.1,956.11 1222.3,967.22 1221.04,978.62 C1215.45,1024.34 1241.52,1073.96 1207.56,1117.23 C1197.33,1130.27 1177.17,1135.18 1158.98,1126.92 C1123.52,1110.8 1119.52,1065.49 1116.97,1040.38 C1113.94,1010.52 1126.9,972.2 1083.97,952.34 C1064.26,943.72 1034.91,945.9 1016.4,955.19 C1012.65,948 1013.86,866.41 1013.77,853.08 L1013.77,853.08 Z" style="fill:#9A2C29;" />
			<path transform="matrix(0.5, 0, 0, 0.5, -511.9999694824219, -512)" d="M1015.74,955.71 C1015.17,967.12 1013.27,978.77 1013.18,990.16 C1012.58,1065.85 1014.81,1141.47 1015.71,1217.15 C1015.91,1234.26 1018.78,1252 1018.63,1268.93 C1012.86,1264.38 1004.05,1255.1 999.35,1249.84 C976.95,1224.78 964.63,1211.46 925.13,1196.67 L924.72,1195.96 C925.36,1185.3 925.02,1173.56 925.04,1162.81 C933.05,1162.82 938.42,1163.25 945.9,1161.39 L947.12,1160.99 L949.13,1160.29 C990.34,1146.43 989.04,1115.08 990,1088.27 C990.79,1066.14 986.62,1043.64 985.83,1021.54 C985.53,1011.27 986.48,1001 988.67,990.82 C991.75,976.63 997.73,964.71 1015.74,955.71 L1015.74,955.71 Z" style="fill:#EBC07F;" />
			<path transform="matrix(0.5, 0, 0, 0.5, -512.0000610351562, -512)" d="M1427.75,735.56 C1426.51,739.76 1413.74,758.54 1410.47,764.06 C1383.12,801.2 1370.36,825.83 1365.65,867.93 C1365,873.82 1362.72,904.02 1361.54,907.9 C1305.42,900.49 1266.59,913.07 1235.51,944.15 C1233.4,939.27 1239.96,863.54 1240.5,853.32 C1204.81,852.41 1165.53,853.18 1129.69,853.38 C1091.06,853.41 1052.41,853.31 1013.77,853.08 C982.93,852.61 949.89,853.03 918.81,852.87 C895.81,851.74 843.85,852.85 818.86,853.11 L815.9,839.81 C810.74,816.34 798.8,789.08 785.49,767.1 C780.19,763.14 765.55,742.67 761.29,736.93 L1050.9,737.1 C1064.42,738.68 1272.04,739.01 1284.51,737.01 C1313.19,736.61 1341.9,736.39 1370.58,736.34 C1387.85,736.29 1410.94,736.68 1427.75,735.56 L1427.75,735.56 Z" style="fill:#551D1A;" />
			<path transform="matrix(0.5, 0, 0, 0.5, -512.0000610351562, -512)" d="M1427.75,735.56 C1426.51,739.76 1413.74,758.54 1410.47,764.06 C1324.6,764.97 1238.72,765.34 1152.86,765.17 C1099.72,764.23 1044.2,766.48 991.03,766.13 C981.41,765.52 924.82,765.51 915.97,766.65 C917.54,791.44 916.74,815.59 917.94,839.97 C888.05,841.7 846.72,840.35 815.9,839.81 C810.74,816.34 798.8,789.08 785.49,767.1 C780.19,763.14 765.55,742.67 761.29,736.93 L1050.9,737.1 C1064.42,738.68 1272.04,739.01 1284.51,737.01 C1313.19,736.61 1341.9,736.39 1370.58,736.34 C1387.85,736.29 1410.94,736.68 1427.75,735.56 L1427.75,735.56 Z" style="fill:#DFA163;" />
			<path transform="matrix(0.5, 0, 0, 0.5, -512, -512)" d="M785.49,767.1 C825.05,767.26 877.33,768.03 915.97,766.65 C917.54,791.44 916.74,815.59 917.94,839.97 C888.05,841.7 846.72,840.35 815.9,839.81 C810.74,816.34 798.81,789.08 785.49,767.1 L785.49,767.1 Z" style="fill:#9A2C29;" />
			<path transform="matrix(0.5, 0, 0, 0.5, -511.9999694824219, -512)" d="M991.03,766.13 C1044.21,766.48 1099.73,764.23 1152.86,765.17 C1156.08,766.23 1154.86,766.19 1158.13,766.25 C1193.17,766.93 1226.43,782.58 1244.79,800.29 C1246.24,813.29 1243.57,825.45 1243.59,838.66 C1192.57,838.43 1141.55,838.57 1090.52,839.07 C1074.39,839.2 1027.41,840.4 1013.5,839.5 C983.77,839.42 946.99,838.57 917.94,839.97 C916.75,815.59 917.55,791.44 915.98,766.65 C924.82,765.51 981.41,765.52 991.03,766.13 L991.03,766.13 Z" style="fill:#9A2C29;" />
			<path transform="matrix(0.5, 0, 0, 0.5, -511.9999694824219, -512)" d="M915.98,766.65 C924.82,765.51 981.41,765.52 991.03,766.13 C998.43,766.67 1004.85,767.15 1012.33,767.3 C1012.55,790.73 1012.21,816.2 1013.5,839.5 C983.77,839.42 946.99,838.57 917.94,839.97 C916.75,815.59 917.55,791.44 915.98,766.65 L915.98,766.65 Z" style="fill:#C3745D;" />
			<path transform="matrix(0.5, 0, 0, 0.5, -512, -512)" d="M1235.51,944.15 C1266.6,913.07 1305.43,900.49 1361.55,907.9 C1353.16,986.27 1349.6,1064.31 1341.96,1142.64 C1341.21,1150.41 1338.85,1188.88 1337.27,1193.51 C1313.32,1188.57 1306.29,1187.29 1281.13,1188.37 C1263.64,1190.89 1253.02,1192.44 1238.5,1200.18 C1236.99,1189.58 1238.44,1175.48 1238.67,1164.51 L1240.36,1094.72 C1240.99,1076.88 1241.25,950.19 1236.03,944.88 L1235.51,944.15 L1235.51,944.15 Z" style="fill:#CD8658;" />
			<path transform="matrix(0.5, 0, 0, 0.5, -511.9999694824219, -512)" d="M918.82,852.87 C949.9,853.03 982.94,852.61 1013.77,853.08 C1013.86,866.41 1012.66,948 1016.4,955.19 L1015.74,955.71 C997.73,964.71 991.75,976.63 988.67,990.82 C986.48,1001 985.53,1011.27 985.83,1021.54 C986.62,1043.64 990.79,1066.14 990,1088.27 C989.04,1115.08 990.34,1146.43 949.13,1160.29 L947.12,1160.99 L945.9,1161.39 C938.02,1160.69 931.24,1160.26 923.35,1159.84 C926.68,1153.11 924.01,1089.78 923.82,1078.32 C923.07,1003.16 921.4,928.01 918.82,852.87 L918.82,852.87 Z" style="fill:#C3745D;" />
			<path transform="matrix(0.5, 0, 0, 0.5, -512, -512)" d="M818.86,853.11 C843.85,852.85 895.81,851.74 918.82,852.87 C921.4,928.01 923.07,1003.16 923.81,1078.32 C924.01,1089.78 926.68,1153.11 923.34,1159.84 C860.1,1139.35 888.54,1019.66 879.79,980.98 C872.55,948.95 865.79,939.33 827.6,918.63 C825.45,916.16 819.89,861.45 818.86,853.11 L818.86,853.11 Z" style="fill:#9A2C29;" />
			<path transform="matrix(0.5, 0, 0, 0.5, -512, -512)" d="M827.6,918.63 C865.79,939.33 872.55,948.95 879.79,980.98 C888.54,1019.66 860.1,1139.35 923.34,1159.84 C931.23,1160.26 938.02,1160.69 945.9,1161.39 C938.42,1163.25 933.04,1162.82 925.04,1162.81 C925.02,1173.56 925.35,1185.3 924.72,1195.96 C901.03,1188.56 876.07,1188.16 851.02,1192.48 C851.07,1156.58 844.71,1114.09 841.78,1077.72 L831.83,968.31 C830.32,951.94 830.04,934.84 827.6,918.63 L827.6,918.63 Z" style="fill:#DFA163;" />
			<path transform="matrix(0.5, 0, 0, 0.5, -512, -512)" d="M738.78,720.87 C744.01,730.22 756.38,749.08 755.01,757.94 C749.31,752.73 736.67,734.97 734.49,728.35 C733.43,725.13 736.22,723.44 738.78,720.87 L738.78,720.87 Z" style="fill:#F7EEC8;" />
			<path transform="matrix(0.5, 0, 0, 0.5, -511.9999694824219, -512)" d="M1018.56,1674.83 C1021.2,1681.72 1026.56,1684.77 1036.1,1688.27 C1097.21,1710.74 1100.91,1738.12 1102.98,1780.46 C1129.79,1778.97 1133.94,1782.1 1163.16,1776.16 C1163.29,1770.75 1163.49,1768.18 1164.76,1762.86 C1164.68,1767 1163.74,1770.93 1167.12,1774.25 C1174.73,1777.68 1179.53,1777.01 1186.71,1779.99 C1193.35,1781.4 1199.86,1781.9 1206.63,1782.85 C1243.33,1788 1280.75,1794.21 1316.1,1802.47 C1336.41,1807.18 1356.78,1815.34 1366.8,1828.39 C1361.64,1841.14 1356.72,1845.52 1336.64,1849.65 C1281.45,1861.09 1251.42,1861.47 1195.66,1866.26 C1089.36,1874.45 973.69,1870.92 868.81,1855.05 C817.12,1847.23 780.43,1824.29 848.26,1803.27 C898.04,1787.83 966.17,1779.02 1021.41,1773.48 C1022.3,1742.54 1019.46,1706.24 1018.56,1674.83 L1018.56,1674.83 Z" style="fill:#F1DAB0;" />
			<path transform="matrix(0.5, 0, 0, 0.5, -512, -512)" d="M1316.1,1802.47 C1336.41,1807.18 1356.78,1815.34 1366.8,1828.39 C1361.64,1841.14 1356.72,1845.52 1336.64,1849.65 C1281.45,1861.09 1251.42,1861.47 1195.66,1866.26 C1203.67,1851.78 1191.43,1837.61 1193.38,1833.05 C1188.35,1833.26 1187.71,1833.27 1182.59,1834.13 L1178.82,1823.82 C1209.44,1821.28 1297.84,1816.84 1316.1,1802.47 L1316.1,1802.47 Z" style="fill:#EBC07F;" />
			<path transform="matrix(0.5, 0, 0, 0.5, -512, -512)" d="M1316.1,1802.47 C1336.41,1807.18 1356.78,1815.34 1366.8,1828.39 C1361.64,1841.14 1356.72,1845.52 1336.64,1849.65 C1337.6,1848.07 1339.23,1845.9 1339.3,1844.16 C1339.55,1839.05 1333.72,1829.32 1328.43,1825.66 C1314.01,1815.68 1220.18,1833.06 1195.09,1833.07 C1194.51,1833.07 1193.94,1833.06 1193.38,1833.05 C1188.35,1833.26 1187.71,1833.27 1182.59,1834.13 L1178.82,1823.82 C1209.44,1821.28 1297.84,1816.84 1316.1,1802.47 L1316.1,1802.47 Z" style="fill:#F1DAB0;" />
			<path transform="matrix(0.5, 0, 0, 0.5, -512.0000610351562, -512)" d="M1186.71,1779.99 C1193.35,1781.4 1199.85,1781.9 1206.63,1782.85 C1243.33,1788 1280.75,1794.21 1316.09,1802.47 C1297.83,1816.84 1209.43,1821.28 1178.81,1823.82 L1176.52,1823.87 C1170.58,1822.64 1132.73,1797.13 1127.32,1792.62 L1120.26,1786.76 C1147.7,1787.31 1161.1,1785.89 1186.71,1779.99 L1186.71,1779.99 Z" style="fill:#EBC07F;" />
			<path transform="matrix(0.5, 0, 0, 0.5, -511.9999694824219, -512)" d="M1182.59,1834.13 C1146.39,1833.42 1110.79,1835.25 1074.15,1834.57 C1033.6,1833.65 993.12,1831.45 952.61,1830 C928.53,1829.14 868.1,1838.95 853.86,1826.04 C845.31,1797.76 961.25,1820.79 978.38,1822.22 C1043.34,1827.64 1111.39,1829.51 1176.52,1823.87 L1178.82,1823.82 L1182.59,1834.13 L1182.59,1834.13 Z" style="fill:#F7EEC8;" />
			<path transform="matrix(0.5, 0, 0, 0.5, -512.0000610351562, -512)" d="M1164.75,1762.86 C1164.67,1767 1163.74,1770.93 1167.12,1774.25 C1174.73,1777.68 1179.52,1777.01 1186.71,1779.99 C1161.1,1785.89 1147.7,1787.31 1120.26,1786.76 C1103.3,1788.49 1037.78,1793.96 1031.37,1779.77 C1043.92,1776.92 1083.26,1780.55 1100.42,1780.48 L1102.97,1780.46 C1129.78,1778.97 1133.94,1782.1 1163.15,1776.16 C1163.29,1770.75 1163.48,1768.18 1164.75,1762.86 L1164.75,1762.86 Z" style="fill:#F7EEC8;" />
			<path transform="matrix(0.5, 0, 0, 0.5, -512.0000610351562, -512)" d="M984.93,1538.62 C993.74,1537.43 1022.85,1541.24 1036.58,1542.26 C1074.27,1545.08 1117.94,1543.48 1155.44,1540.98 C1168.81,1540.09 1185.83,1535.96 1192.76,1537.73 C1190.96,1547.32 1190.25,1554.48 1190.96,1564.2 C1211.83,1582.73 1223.98,1594.83 1218.82,1619.42 C1215.89,1633.94 1204.23,1647.07 1186.48,1655.81 C1181.15,1658.39 1175.58,1660.48 1169.7,1662.45 C1169.53,1692.93 1167.22,1732.19 1164.75,1762.86 C1163.48,1768.18 1163.29,1770.75 1163.15,1776.16 C1133.94,1782.1 1129.78,1778.97 1102.97,1780.46 C1100.9,1738.12 1097.2,1710.74 1036.1,1688.27 C1026.56,1684.77 1021.19,1681.72 1018.55,1674.83 L1018.36,1667.11 C970.51,1647.31 944.43,1621.75 973.75,1584.68 C985.59,1569.71 1005.43,1560.08 992.81,1540.14 L984.93,1538.62 L984.93,1538.62 Z" style="fill:#EBC07F;" />
			<path transform="matrix(0.5, 0, 0, 0.5, -511.9999694824219, -512)" d="M992.81,1540.14 C1012.59,1543.27 982.53,1566.3 1021.11,1571.83 C1049.33,1575.87 1077.14,1577.23 1106.66,1576.86 C1117.39,1577.21 1153.41,1574.65 1158.84,1582.05 C1168.32,1594.96 1164.77,1616.88 1162.57,1631.06 C1161.03,1640.97 1154.93,1659.59 1149.12,1668.86 C1113.51,1670.21 1052.75,1671.92 1018.37,1667.11 C970.51,1647.31 944.43,1621.75 973.75,1584.68 C985.6,1569.71 1005.44,1560.08 992.81,1540.14 L992.81,1540.14 Z" style="fill:#F1DAB0;" />
			<path transform="matrix(0.5, 0, 0, 0.5, -511.9999694824219, -512)" d="M1002.47,1579.9 L1026.97,1582.49 C1030.14,1585.68 1032.55,1587.26 1036.5,1590.08 C1027.55,1596.53 1023.39,1602.37 1013.03,1609.16 C986.22,1619.2 974.45,1593.05 1002.47,1579.9 L1002.47,1579.9 Z" style="fill:#F7EEC8;" />
		</g>
		<g transform="matrix(1, 0, 0, 1, -32.600921630859375, 173.3907470703125)">
			<path transform="matrix(0.5, 0, 0, 0.5, -501.23443603515625, -682.351806640625)" d="M1036.39,330.16 C1051.32,270.93 1069.22,214.94 1094.67,158.82 C1103.41,139.68 1112.75,117.01 1134.91,108.8 C1144.7,105.18 1161.3,106.49 1164.89,117.32 C1160.84,131.85 1131.52,135.51 1119.08,146.92 C1097.15,167.03 1044.93,313.75 1045.63,331.12 C1048.37,335.87 1046.36,334.24 1052.1,335.92 C1104.21,340.75 1136.86,378.98 1111.01,425.91 C1096.76,443.46 1085.26,451.74 1062.56,458.19 C1020.95,468.26 979.87,454.11 949.91,426.04 C919.23,390 951.05,338.82 994.53,330.4 C1011.19,327.17 1019.7,327.54 1036.39,330.16 L1036.39,330.16 Z" style="fill:#CE523D;" />
			<path transform="matrix(0.5, 0, 0, 0.5, -498.1257629394531, -673.3279418945312)" d="M1045.88,317.88 C1097.99,322.7 1130.65,360.93 1104.79,407.86 C1090.55,425.41 1079.04,433.7 1056.34,440.15 L1054,438.77 C1050.43,428.99 1075.87,411.76 1079.37,396.51 C1082.61,382.34 1082.76,385.26 1081.01,370.4 C1078.08,345.44 1051.57,333.32 1044.26,319.73 L1045.88,317.88 L1045.88,317.88 Z" style="fill:#9A2C29;" />
			<path transform="matrix(0.5, 0, 0, 0.5, -508.017578125, -676.2763061523438)" d="M997.46,328.56 C1003.73,328.81 1008.48,328.49 1012.15,333.68 C1010.48,342.06 989.84,356.94 981.89,363.83 C977.29,367.19 975.26,369.04 970.37,365.87 C964.79,349.61 984.75,335.53 997.46,328.56 L997.46,328.56 Z" style="fill:#FEFEFE;" />
		</g>
		<g transform="matrix(1, 0, 0, 1, -169.89581298828125, 120.4039535522461)">
			<path transform="matrix(0.5, 0, 0, 0.5, -327.34222412109375, -640.7188720703125)" d="M1205.17,471.1 C1218.95,469.48 1233.54,468.71 1247.42,467.82 C1241.45,485.55 1235.17,500.96 1226.15,517.45 C1224,522.43 1215.98,541.8 1213.48,545.41 C1211.01,551.24 1206,565.16 1201.51,568.12 L1196.06,572.27 C1190.68,569.16 1186.86,558.35 1175.49,556.82 C1174.91,550.71 1173.94,544.56 1173.07,538.47 C1176.05,533.4 1177.64,525.74 1182.15,522.89 C1184.05,519.43 1204.47,473.62 1205.17,471.1 L1205.17,471.1 Z" style="fill:#EBC07F;" />
			<path transform="matrix(0.5, 0, 0, 0.5, -327.15362548828125, -640.9136962890625)" d="M1226.53,517.06 C1224.35,522.11 1216.21,541.75 1213.68,545.42 C1211.17,551.33 1206.09,565.45 1201.54,568.45 L1196.01,572.66 C1190.55,569.5 1186.68,558.54 1175.15,556.99 C1174.56,550.79 1173.58,544.56 1172.69,538.38 C1175.72,533.23 1177.33,525.47 1181.9,522.58 C1190.16,521.85 1220.13,519.72 1226.53,517.06 L1226.53,517.06 Z" style="fill:#9A2C29;" />
			<path transform="matrix(0.5, 0, 0, 0.5, -327.34222412109375, -640.7188720703125)" d="M1201.51,568.12 C1202.71,561.79 1208.23,549.11 1213.48,545.41 C1211.01,551.24 1206,565.16 1201.51,568.12 L1201.51,568.12 Z" style="fill:#150504;" />
			<path transform="matrix(0.5, 0, 0, 0.5, -327.34222412109375, -640.7188720703125)" d="M1320.13,193.51 C1332.15,197.27 1347.18,201.32 1357.89,207.53 C1355.26,216.71 1352.28,225.4 1347.83,233.88 C1344.33,242.57 1334.24,268.89 1330.02,276.22 C1316.58,277.33 1297.15,278.49 1284.47,280.99 C1287.27,271.32 1298.49,242.26 1304,234.46 C1309.13,222.11 1315.88,206.01 1320.13,193.51 L1320.13,193.51 Z" style="fill:#551D1A;" />
			<path transform="matrix(0.5, 0, 0, 0.5, -327.34222412109375, -640.7188720703125)" d="M1320.13,193.51 C1332.15,197.27 1347.18,201.32 1357.89,207.53 C1355.26,216.71 1352.28,225.4 1347.83,233.88 C1334.62,229.17 1317.36,231.79 1304,234.46 C1309.13,222.11 1315.88,206.01 1320.13,193.51 L1320.13,193.51 Z" style="fill:#EBC07F;" />
			<path transform="matrix(0.5, 0, 0, 0.5, -327.34222412109375, -640.7188720703125)" d="M1275.58,370.62 L1290.55,368.84 C1287.12,378.61 1282.83,388.06 1277.73,397.08 C1275.12,403.25 1270.4,413.2 1268.55,419.07 C1254.37,420.29 1238.85,421.71 1224.9,424.52 C1231.6,408.03 1240.18,388.56 1246.3,372.26 C1251.7,373.84 1268.86,371.22 1275.58,370.62 L1275.58,370.62 Z" style="fill:#EBC07F;" />
			<path transform="matrix(0.5, 0, 0, 0.5, -327.34222412109375, -640.7188720703125)" d="M1275.58,370.62 L1290.55,368.84 C1287.12,378.61 1282.83,388.06 1277.73,397.08 C1277.49,395.39 1277.33,393.98 1277.91,392.31 C1281.52,381.86 1275.77,382.55 1275.58,370.62 L1275.58,370.62 Z" style="fill:#EBC07F;" />
			<path transform="matrix(0.5, 0, 0, 0.5, -327.34222412109375, -640.7188720703125)" d="M1330.02,276.22 C1325.75,286.57 1314.71,316.42 1309.86,323.71 C1295.01,324.23 1279.32,325.12 1264.98,329.25 C1270.76,313.07 1279.48,298 1284.47,280.99 C1297.15,278.49 1316.58,277.33 1330.02,276.22 L1330.02,276.22 Z" style="fill:#EBC07F;" />
			<path transform="matrix(0.5, 0, 0, 0.5, -327.34222412109375, -640.7188720703125)" d="M1224.9,424.52 C1238.85,421.71 1254.37,420.29 1268.55,419.07 C1262.38,435.41 1252.95,452.78 1247.42,467.82 C1233.54,468.71 1218.95,469.48 1205.17,471.1 C1211.58,457.07 1217.62,437.92 1224.9,424.52 L1224.9,424.52 Z" style="fill:#551D1A;" />
			<path transform="matrix(0.5, 0, 0, 0.5, -327.34222412109375, -640.7188720703125)" d="M1264.98,329.25 C1279.32,325.12 1295.01,324.23 1309.86,323.71 C1306.84,330.34 1291.77,363.51 1290.55,368.84 L1275.58,370.62 C1268.86,371.22 1251.7,373.84 1246.3,372.26 C1250.24,362.15 1259.28,337.55 1264.98,329.25 L1264.98,329.25 Z" style="fill:#551D1A;" />
		</g>
	</g>
</svg>