<?xml version="1.0" encoding="UTF-8"?>
<!-- Created with Grafika (https://www.grafika.cc/) -->
<svg xmlns="http://www.w3.org/2000/svg" xmlns:svg="http://www.w3.org/2000/svg" xmlns:xlink="http://www.w3.org/1999/xlink" width="1000" height="1000" viewBox="0 0 450.07 886.13" preserveAspectRatio="xMidYMid meet">
	<g transform="matrix(1, 0, 0, 1, 197.82662963867188, 455.46588134765625)">
		<g transform="matrix(1, 0, 0, 1, -51.182220458984375, 7.40576171875)">
			<path transform="matrix(0.5, 0, 0, 0.5, -511.9999694824219, -512)" d="M1067.99,407.84 C1104.19,427.86 1153.83,437.96 1204.12,430.78 C1231.55,426.18 1245.46,420.27 1262.67,407.74 C1268.4,410.64 1268.35,410.63 1272.48,414.29 C1306.52,422.45 1347.48,414.72 1365.33,441.45 C1369.9,448.27 1377.74,463.55 1375.91,470.3 L1373.18,475.22 C1372.58,485.73 1372.07,488.26 1364.12,497.85 C1390.93,522.45 1409.34,514.31 1437.2,538.47 C1438.76,544.56 1440.5,550.71 1441.53,556.82 C1461.88,558.35 1468.72,569.16 1478.35,572.27 C1492.36,583.59 1504.88,592.4 1496.96,606.94 L1495.83,608.85 C1504.35,612.31 1509.05,617.53 1514.94,619.94 C1542.46,631.24 1558.14,646.97 1562.01,665.95 C1563.61,673.89 1563.54,687.06 1552.52,693.33 C1549.71,694.98 1542.66,698.87 1541.14,700.33 C1549.19,706.32 1552.7,707.31 1564.56,710.82 C1571.86,717.19 1579.15,722.42 1580.78,729.96 C1579.63,731.03 1579.02,731.77 1577.56,732.69 C1555.01,750.11 1548.81,774.78 1530.1,793.12 C1524.16,797.95 1523.71,806.18 1522.28,812.18 C1512.24,853.88 1501.84,897.47 1499.44,939.5 C1490.84,1090.16 1481.58,1241.5 1426.99,1389.57 C1414.42,1423.68 1348.64,1532.11 1278.63,1537.73 C1270.42,1535.96 1250.23,1540.09 1234.38,1540.98 C1189.91,1543.48 1138.12,1545.08 1093.43,1542.26 C1077.15,1541.24 1042.63,1537.43 1032.18,1538.62 C1015.92,1535.15 994.42,1519.97 983.63,1512.49 C955.22,1492.8 937.32,1467.13 921.9,1443.48 C918.42,1438.15 913.95,1432.52 910.85,1427.09 C908.87,1423.98 911.46,1418.72 909.34,1415.8 C900.32,1403.51 893.16,1391.05 887.97,1378.08 C857.23,1301.33 853.18,1222.91 845.39,1144.73 C839.7,1086.61 832.79,1028.54 824.67,970.51 C816.14,908.11 807.23,814.9 759.52,757.94 C752.77,752.73 737.78,734.97 735.19,728.35 C733.94,725.13 737.25,723.44 740.28,720.87 C755.58,718.45 763.91,716.58 770.46,708.11 C762.01,706.06 747.82,705.36 743.04,703.85 C722.46,697.35 731.47,677.32 742.49,669.38 C751.96,661.07 764.1,659.29 778.5,655.86 C814.9,647.18 846.74,648.33 885.03,647.96 C890.35,647.91 890.63,646.75 893.26,644.55 C864.9,639.62 847.92,640.3 818.95,640.51 C812.08,640.56 809.12,639.95 804.84,637.45 C803.62,630.6 818.33,624.35 827.13,620.64 C818.76,619.46 814.64,618.32 806.79,616.38 C795.76,612.18 790.14,606.54 792.7,598.86 C800.04,576.78 835.11,562.57 865.85,550.49 C823.7,524.35 930.12,513.62 935.61,507.33 C931.71,502.28 932.33,501.53 932.68,495.81 C940.41,466.15 978.77,457.26 1025.94,453.32 C1019.59,440.06 1048.26,415.55 1067.99,407.84 L1067.99,407.84 Z" style="fill:#F1DAB0;" />
			<path transform="matrix(0.5, 0, 0, 0.5, -511.9999694824219, -512)" d="M1067.99,407.84 C1104.19,427.86 1153.83,437.96 1204.12,430.78 C1231.55,426.18 1245.46,420.27 1262.67,407.74 C1268.4,410.64 1268.35,410.63 1272.48,414.29 C1306.52,422.45 1347.48,414.72 1365.33,441.45 C1369.9,448.27 1377.74,463.55 1375.91,470.3 L1373.18,475.22 C1372.58,485.73 1372.07,488.26 1364.12,497.85 C1390.93,522.45 1409.34,514.31 1437.2,538.47 C1438.76,544.56 1440.5,550.71 1441.53,556.82 C1461.88,558.35 1468.72,569.16 1478.35,572.27 C1492.36,583.59 1504.88,592.4 1496.96,606.94 L1495.83,608.85 C1504.35,612.31 1509.05,617.53 1514.94,619.94 C1542.46,631.24 1558.14,646.97 1562.01,665.95 C1563.61,673.89 1563.54,687.06 1552.52,693.33 C1549.71,694.98 1542.66,698.87 1541.14,700.33 C1549.19,706.32 1552.7,707.31 1564.56,710.82 C1571.86,717.19 1579.15,722.42 1580.78,729.96 C1579.63,731.03 1579.02,731.77 1577.56,732.69 L1573.78,729.68 C1566.23,730.66 1566.42,733.22 1557.3,735.56 C1537.36,736.68 1509.98,736.29 1489.51,736.34 C1455.49,736.39 1421.46,736.61 1387.44,737.01 C1372.65,739.01 1126.45,738.68 1110.41,737.1 C1119.4,736.69 1132.38,736.82 1139.79,736.33 C1125,732.6 1075.86,729.45 1057.73,727.1 C974.81,716.34 901.42,699.37 815.41,712.34 C801.46,714.44 777.89,716.59 770.38,707.22 L770.46,708.11 C762.01,706.06 747.82,705.36 743.04,703.85 C722.46,697.35 731.47,677.32 742.49,669.38 C751.96,661.07 764.1,659.29 778.5,655.86 C814.9,647.18 846.74,648.33 885.03,647.96 C890.35,647.91 890.63,646.75 893.26,644.55 C864.9,639.62 847.92,640.3 818.95,640.51 C812.08,640.56 809.12,639.95 804.84,637.45 C803.62,630.6 818.33,624.35 827.13,620.64 C818.76,619.46 814.64,618.32 806.79,616.38 C795.76,612.18 790.14,606.54 792.7,598.86 C800.04,576.78 835.11,562.57 865.85,550.49 C823.7,524.35 930.12,513.62 935.61,507.33 C931.71,502.28 932.33,501.53 932.68,495.81 C940.41,466.15 978.77,457.26 1025.94,453.32 C1019.59,440.06 1048.26,415.55 1067.99,407.84 L1067.99,407.84 Z" style="fill:#F7EEC8;" />
			<path transform="matrix(0.5, 0, 0, 0.5, -511.99993896484375, -512)" d="M1068,407.84 C1104.2,427.86 1153.84,437.96 1204.13,430.78 C1231.56,426.18 1245.46,420.27 1262.68,407.74 C1268.41,410.64 1268.35,410.63 1272.49,414.29 C1306.53,422.45 1347.49,414.72 1365.34,441.45 C1369.91,448.27 1377.75,463.55 1375.92,470.3 L1373.19,475.22 C1372.59,485.73 1372.08,488.26 1364.13,497.85 C1390.94,522.45 1409.35,514.31 1437.21,538.47 C1438.77,544.56 1440.51,550.71 1441.54,556.82 C1439.93,564.62 1432.88,574.63 1421.68,579.98 C1393.12,593.63 1343.44,568.35 1319.2,576.97 C1293.48,586.11 1308.48,627.07 1258.96,623.81 C1233.3,622.11 1188.09,566.8 1153.22,577.83 C1122.28,587.62 1132.81,629.96 1073.01,625.24 C1062.85,624.44 1053.5,618.68 1048.74,613.91 C1030.72,595.85 1029.41,578.49 992.57,568.4 C968.16,568.77 951.44,570.8 930.99,578.98 C859.67,580.98 900.96,567.26 877.72,550.97 C870.63,549.08 874.4,549.44 865.86,550.49 C823.71,524.35 930.13,513.62 935.62,507.33 C931.72,502.28 932.34,501.53 932.69,495.81 C940.42,466.15 978.78,457.26 1025.95,453.32 C1019.6,440.06 1048.27,415.55 1068,407.84 L1068,407.84 Z" style="fill:#F7EEC8;" />
			<path transform="matrix(0.5, 0, 0, 0.5, -512, -512)" d="M1067.98,407.84 C1104.19,427.86 1153.83,437.96 1204.12,430.78 C1231.55,426.18 1245.45,420.27 1262.67,407.74 C1268.4,410.64 1268.34,410.63 1272.48,414.29 C1306.51,422.45 1347.47,414.72 1365.33,441.45 C1369.9,448.27 1377.74,463.55 1375.91,470.3 L1373.17,475.22 C1340.73,482.36 1294.27,479.03 1263.19,494.53 C1244.42,502.64 1220.36,492.99 1201.93,487.77 C1162.64,477.96 1139.59,480.1 1097.81,483.4 C1066.06,485.97 1059.94,486.81 1038.41,472.69 C1033.54,466.91 1030.81,455.58 1025.94,453.32 C1019.59,440.06 1048.25,415.55 1067.98,407.84 L1067.98,407.84 Z" style="fill:#F7EEC8;" />
			<path transform="matrix(0.5, 0, 0, 0.5, -512, -512)" d="M1263.19,494.53 C1257.39,488.29 1251.47,476.71 1256.19,469.97 C1275.45,442.5 1343.29,463.58 1375.91,470.3 L1373.17,475.22 C1340.73,482.36 1294.27,479.03 1263.19,494.53 L1263.19,494.53 Z" style="fill:#EBC07F;" />
			<path transform="matrix(0.5, 0, 0, 0.5, -511.99993896484375, -512)" d="M1097.82,483.4 C1098.58,474.47 1108.73,470.2 1119.1,464.28 C1143.41,450.43 1171.63,456.93 1191.41,470.14 C1196.36,473.44 1205.34,480.54 1204.58,484.96 L1201.95,487.77 C1162.65,477.96 1139.6,480.1 1097.82,483.4 L1097.82,483.4 Z" style="fill:#EBC07F;" />
			<path transform="matrix(0.5, 0, 0, 0.5, -511.99993896484375, -512)" d="M1025.95,453.32 C1030.82,455.58 1033.55,466.91 1038.42,472.69 C1059.95,486.81 1066.07,485.97 1097.82,483.4 C1139.6,480.1 1162.65,477.96 1201.95,487.77 C1220.38,492.99 1244.43,502.64 1263.2,494.53 C1294.28,479.03 1340.74,482.36 1373.19,475.22 C1372.59,485.73 1372.08,488.26 1364.13,497.85 C1324.51,526.13 1321.22,502.55 1294.91,495.84 C1271.68,496.75 1272.1,519.82 1268.78,529.4 C1265.75,538.18 1264.44,541.25 1253.86,548.07 C1200.96,558.18 1175.07,532.3 1157.91,509.26 C1144.65,473.02 1095.76,513.73 1064.67,512.99 C1042.57,512.46 1041.75,498.43 1032.42,494.57 C1001.6,481.82 971.85,508.19 935.62,507.33 C931.72,502.28 932.34,501.53 932.69,495.81 C940.42,466.15 978.78,457.26 1025.95,453.32 L1025.95,453.32 Z" style="fill:#551D1A;" />
			<path transform="matrix(0.5, 0, 0, 0.5, -511.99993896484375, -512)" d="M1025.95,453.32 C1030.82,455.58 1033.55,466.91 1038.42,472.69 C1015.23,479.23 990.7,485.78 969.32,493.96 C962.43,496.59 950.12,502.96 943.13,503.2 C938.47,501.42 937.19,498.51 934.9,495.46 L932.69,495.81 C940.42,466.15 978.78,457.26 1025.95,453.32 L1025.95,453.32 Z" style="fill:#C3745D;" />
			<path transform="matrix(0.5, 0, 0, 0.5, -511.99993896484375, -512)" d="M996.07,534.03 C1024.66,529.78 1089.21,535.25 1116.64,541 C1156.44,549.33 1179.85,554.74 1224.26,553.69 C1237.29,554.1 1275.08,550.48 1277.05,558.4 C1273.12,563.63 1263.56,567.07 1255.29,569.97 C1223.04,570.49 1200.55,565.75 1169.11,564.09 C1144.68,562.81 1118.51,566.26 1093.99,568.19 C1044.36,555.27 1035.91,541.88 965,557.52 C953.37,560.09 938.01,565.4 925.6,566.27 L924.13,565.22 C932.09,557.8 981.18,539.09 996.07,534.03 L996.07,534.03 Z" style="fill:#EBC07F;" />
			<path transform="matrix(0.5, 0, 0, 0.5, -512, -512)" d="M1310.56,532.97 C1334.86,533.07 1371.74,535.6 1397.8,536.61 C1396.58,540.39 1395.97,544.05 1395.26,547.86 C1390.64,550.59 1386.86,552.02 1381.46,554.28 C1363.71,558.03 1309.45,562 1298.14,551.95 C1300.77,545.41 1307.37,540.42 1310.56,532.97 L1310.56,532.97 Z" style="fill:#EBC07F;" />
			<path transform="matrix(0.5, 0, 0, 0.5, -511.99993896484375, -512)" d="M865.86,550.49 C874.4,549.44 870.63,549.08 877.72,550.97 C900.96,567.26 859.67,580.98 930.99,578.98 C951.44,570.8 968.16,568.77 992.57,568.4 C1029.41,578.49 1030.72,595.85 1048.74,613.91 C1053.5,618.68 1062.85,624.44 1073.01,625.24 C1132.81,629.96 1122.28,587.62 1153.22,577.83 C1188.09,566.8 1233.3,622.11 1258.96,623.81 C1308.48,627.07 1293.48,586.11 1319.2,576.97 C1343.44,568.35 1393.12,593.63 1421.68,579.98 C1432.88,574.63 1439.93,564.62 1441.54,556.82 C1461.89,558.35 1468.73,569.16 1478.35,572.27 C1492.37,583.59 1504.89,592.4 1496.96,606.94 C1485.87,603.46 1473.02,601.44 1462.18,598.34 C1361.82,569.67 1409.47,649.66 1336.91,660.27 C1278.14,670.88 1245.36,612.26 1190.78,617.36 C1147.49,621.4 1163.49,682.83 1112.76,688.09 C1004.88,699.28 1010.88,592.53 915.54,596.8 C901.85,597.42 866.45,615.36 849.58,620.51 C841.33,621.12 835.39,620.83 827.14,620.64 C818.77,619.46 814.65,618.32 806.8,616.38 C795.77,612.18 790.15,606.54 792.71,598.86 C800.05,576.78 835.12,562.57 865.86,550.49 L865.86,550.49 Z" style="fill:#551D1A;" />
			<path transform="matrix(0.5, 0, 0, 0.5, -512, -512)" d="M865.85,550.49 C874.39,549.44 870.62,549.08 877.71,550.97 C900.95,567.26 859.66,580.98 930.98,578.98 C912.96,588.14 853,619.02 831.06,617.41 C826.7,617.09 811.56,616.06 806.79,616.38 C795.76,612.18 790.14,606.54 792.7,598.86 C800.04,576.78 835.11,562.57 865.85,550.49 L865.85,550.49 Z" style="fill:#C3745D;" />
			<path transform="matrix(0.5, 0, 0, 0.5, -512.0000610351562, -512)" d="M1290.41,728.84 C1342.48,724.35 1363.96,719.5 1408.62,706.08 C1453.48,692.61 1500.51,677.42 1550.19,671.23 C1549.17,682.08 1548.54,687.86 1536.72,696.61 C1517.71,699.27 1496.84,700.73 1479.38,704.57 C1460.07,708.83 1442.25,717.64 1424.03,722.88 C1410,726.92 1390.57,728.25 1375.05,730.36 C1384.45,731.73 1396.51,726.66 1401.86,728.65 C1397.55,729.62 1396.95,729.63 1392.32,730.08 C1387.61,732.37 1386.2,733.14 1382.1,735.75 L1364.99,736.38 L1387.43,737.01 C1372.65,739.01 1126.45,738.68 1110.41,737.1 C1119.39,736.69 1132.38,736.82 1139.78,736.33 C1125,732.6 1075.85,729.45 1057.73,727.1 C974.81,716.34 901.42,699.37 815.41,712.34 C801.45,714.44 777.89,716.59 770.38,707.22 C798.93,692.58 840.52,681.88 880.23,682.13 C936.4,682.49 974.07,698.68 1022.66,707.87 C1105.67,723.58 1203.49,737.48 1290.41,728.84 L1290.41,728.84 Z" style="fill:#EBC07F;" />
			<path transform="matrix(0.5, 0, 0, 0.5, -512, -512)" d="M827.13,620.64 C835.38,620.83 841.32,621.12 849.57,620.51 C864.4,623 878.74,619.89 891.63,622.48 C930.28,630.26 965.74,646.19 997.28,660.53 C1006.91,664.91 1019.52,666.67 1028.76,672.02 L1028.91,673.63 C1022.8,675.5 1013.79,674.87 1007.57,673.63 C970.69,666.33 931.3,649.51 893.25,644.55 C864.89,639.62 847.92,640.3 818.95,640.51 C812.08,640.56 809.12,639.95 804.83,637.45 C803.62,630.6 818.33,624.35 827.13,620.64 L827.13,620.64 Z" style="fill:#EBC07F;" />
			<path transform="matrix(0.5, 0, 0, 0.5, -512, -512)" d="M1467.32,640.17 C1490.57,639.47 1500.34,641.04 1521.27,646.8 C1422.06,667.26 1378.92,700.2 1258.57,696.28 C1236.94,695.86 1191.79,691.63 1207.3,673.69 C1219.85,667.21 1274.2,673.23 1295.38,672.95 C1365.92,672 1408.5,650.37 1467.32,640.17 L1467.32,640.17 Z" style="fill:#EBC07F;" />
			<path transform="matrix(0.5, 0, 0, 0.5, -512.0000610351562, -512)" d="M1383.43,1188.37 C1413.26,1187.29 1421.6,1188.57 1450,1193.51 C1440.4,1288.89 1425.35,1432.24 1295.36,1501.91 C1211.38,1546.92 1071.1,1537.28 999.23,1488.34 C946.79,1453.75 904.52,1384.1 897.56,1338.75 C895.62,1335.85 891.28,1309.59 890.44,1304.78 C883.38,1267.41 877.69,1229.97 873.38,1192.48 C903.08,1188.16 932.68,1188.56 960.78,1195.96 L961.26,1196.67 C1008.1,1211.46 1022.71,1224.78 1049.27,1249.84 C1054.85,1255.1 1065.29,1264.38 1072.14,1268.93 L1074.41,1270.09 C1127.08,1300.51 1183.7,1307.48 1240.14,1273.48 C1278.83,1250.17 1291.57,1222.17 1332.87,1200.18 C1350.09,1192.44 1362.69,1190.89 1383.43,1188.37 L1383.43,1188.37 Z" style="fill:#551D1A;" />
			<path transform="matrix(0.5, 0, 0, 0.5, -512, -512)" d="M1332.87,1200.18 C1350.09,1192.44 1362.69,1190.89 1383.43,1188.37 C1383.09,1265.16 1374.66,1443.14 1169.62,1448.04 C1149.25,1448.53 1118.96,1445.34 1100.04,1440.87 L1099.14,1440.31 C1092.95,1397.83 1081.76,1355.05 1078.2,1312.27 C1077.38,1302.43 1072.62,1278.83 1074.41,1270.09 C1127.08,1300.51 1183.7,1307.48 1240.14,1273.48 C1278.83,1250.17 1291.57,1222.17 1332.87,1200.18 L1332.87,1200.18 Z" style="fill:#9A2C29;" />
			<path transform="matrix(0.5, 0, 0, 0.5, -511.99993896484375, -512)" d="M873.39,1192.48 C903.09,1188.16 932.69,1188.56 960.79,1195.96 L961.27,1196.67 C1008.12,1211.46 1022.72,1224.78 1049.29,1249.84 C1054.86,1255.1 1065.3,1264.38 1072.15,1268.93 L1074.42,1270.09 C1072.63,1278.83 1077.39,1302.43 1078.22,1312.27 C1081.78,1355.05 1092.96,1397.83 1099.16,1440.31 C1049.07,1427.64 1032.56,1413.36 998.14,1392.61 C1005.19,1416.16 1015.06,1456.02 1035.61,1475.89 C1025.04,1474.48 1004.18,1464.18 995.03,1459.71 C943.72,1434.64 931.55,1396.04 911.95,1361.3 C907.63,1353.65 900.93,1349.05 901.05,1341.83 C901.09,1339.29 901.43,1338.5 899.33,1336.3 L897.57,1338.75 C895.63,1335.85 891.29,1309.59 890.45,1304.78 C883.39,1267.41 877.7,1229.97 873.39,1192.48 L873.39,1192.48 Z" style="fill:#9A2C29;" />
			<path transform="matrix(0.5, 0, 0, 0.5, -511.99993896484375, -512)" d="M961.27,1196.67 C1008.12,1211.46 1022.72,1224.78 1049.29,1249.84 C1054.86,1255.1 1065.3,1264.38 1072.15,1268.93 L1074.42,1270.09 C1072.63,1278.83 1077.39,1302.43 1078.22,1312.27 C1081.78,1355.05 1092.96,1397.83 1099.16,1440.31 C1049.07,1427.64 1032.56,1413.36 998.14,1392.61 C975.97,1335.65 961.07,1254.37 961.27,1196.67 L961.27,1196.67 Z" style="fill:#CD8658;" />
			<path transform="matrix(0.5, 0, 0, 0.5, -511.99993896484375, -512)" d="M998.14,1392.61 C1032.56,1413.36 1049.07,1427.64 1099.16,1440.31 L1100.05,1440.87 C1104.07,1451.97 1120.77,1490.48 1089.39,1493.65 C1077.89,1494.82 1060.78,1488.89 1051.85,1484.78 C1046.01,1482.07 1040.58,1479.1 1035.61,1475.89 C1015.06,1456.02 1005.19,1416.16 998.14,1392.61 L998.14,1392.61 Z" style="fill:#C3745D;" />
			<path transform="matrix(0.5, 0, 0, 0.5, -511.99993896484375, -512)" d="M1066.39,853.08 C1112.21,853.31 1158.05,853.41 1203.86,853.38 C1246.36,853.18 1292.94,852.41 1335.26,853.32 C1334.62,863.54 1326.84,939.27 1329.34,944.15 L1329.95,944.88 C1336.14,950.19 1335.84,1076.88 1335.08,1094.72 L1333.08,1164.51 C1332.81,1175.48 1331.09,1189.58 1332.88,1200.18 C1291.58,1222.17 1278.84,1250.17 1240.15,1273.48 C1183.71,1307.48 1127.09,1300.51 1074.42,1270.09 L1072.15,1268.93 C1065.3,1264.38 1054.86,1255.1 1049.29,1249.84 C1022.72,1224.78 1008.12,1211.46 961.27,1196.67 L960.79,1195.96 C961.54,1185.3 961.14,1173.56 961.17,1162.81 C970.66,1162.82 977.03,1163.25 985.9,1161.39 L987.34,1160.99 L989.73,1160.29 C1038.6,1146.43 1037.06,1115.08 1038.19,1088.27 C1039.14,1066.14 1034.19,1043.64 1033.25,1021.54 C1032.89,1011.27 1034.02,1001 1036.62,990.82 C1040.28,976.63 1047.37,964.71 1068.72,955.71 L1069.51,955.19 C1065.07,948 1066.5,866.41 1066.39,853.08 L1066.39,853.08 Z" style="fill:#DFA163;" />
			<path transform="matrix(0.5, 0, 0, 0.5, -512, -512)" d="M1066.38,853.08 C1112.2,853.31 1158.04,853.41 1203.85,853.38 C1246.35,853.18 1292.93,852.41 1335.25,853.32 C1334.61,863.54 1326.82,939.27 1329.33,944.15 L1329.94,944.88 L1328.88,945.99 C1319.36,956.11 1313.67,967.22 1312.17,978.62 C1305.55,1024.34 1336.45,1073.96 1296.19,1117.23 C1284.05,1130.27 1260.15,1135.18 1238.58,1126.92 C1196.53,1110.8 1191.79,1065.49 1188.76,1040.38 C1185.17,1010.52 1200.54,972.2 1149.63,952.34 C1126.25,943.72 1091.45,945.9 1069.5,955.19 C1065.05,948 1066.48,866.41 1066.38,853.08 L1066.38,853.08 Z" style="fill:#9A2C29;" />
			<path transform="matrix(0.5, 0, 0, 0.5, -511.99993896484375, -512)" d="M1068.72,955.71 C1068.04,967.12 1065.79,978.77 1065.69,990.16 C1064.97,1065.85 1067.62,1141.47 1068.68,1217.15 C1068.92,1234.26 1072.33,1252 1072.15,1268.93 C1065.3,1264.38 1054.86,1255.1 1049.29,1249.84 C1022.72,1224.78 1008.12,1211.46 961.27,1196.67 L960.79,1195.96 C961.54,1185.3 961.14,1173.56 961.17,1162.81 C970.66,1162.82 977.03,1163.25 985.9,1161.39 L987.34,1160.99 L989.73,1160.29 C1038.6,1146.43 1037.06,1115.08 1038.19,1088.27 C1039.14,1066.14 1034.19,1043.64 1033.25,1021.54 C1032.89,1011.27 1034.02,1001 1036.62,990.82 C1040.28,976.63 1047.37,964.71 1068.72,955.71 L1068.72,955.71 Z" style="fill:#EBC07F;" />
			<path transform="matrix(0.5, 0, 0, 0.5, -512.0000610351562, -512)" d="M1557.3,735.56 C1555.83,739.76 1540.69,758.54 1536.81,764.06 C1504.38,801.2 1489.24,825.83 1483.66,867.93 C1482.89,873.82 1480.18,904.02 1478.79,907.9 C1412.24,900.49 1366.19,913.07 1329.33,944.15 C1326.82,939.27 1334.61,863.54 1335.25,853.32 C1292.93,852.41 1246.35,853.18 1203.85,853.38 C1158.04,853.41 1112.2,853.31 1066.38,853.08 C1029.81,852.61 990.63,853.03 953.77,852.87 C926.5,851.74 864.88,852.85 835.24,853.11 L831.74,839.81 C825.62,816.34 811.46,789.08 795.68,767.1 C789.38,763.14 772.02,742.67 766.97,736.93 L1110.41,737.1 C1126.45,738.68 1372.65,739.01 1387.43,737.01 C1421.45,736.61 1455.49,736.39 1489.51,736.34 C1509.98,736.29 1537.36,736.68 1557.3,735.56 L1557.3,735.56 Z" style="fill:#551D1A;" />
			<path transform="matrix(0.5, 0, 0, 0.5, -512.0000610351562, -512)" d="M1557.3,735.56 C1555.83,739.76 1540.69,758.54 1536.81,764.06 C1434.98,764.97 1333.14,765.34 1231.32,765.17 C1168.31,764.23 1102.47,766.48 1039.41,766.13 C1028,765.52 960.9,765.51 950.4,766.65 C952.26,791.44 951.32,815.59 952.73,839.97 C917.29,841.7 868.28,840.35 831.74,839.81 C825.62,816.34 811.46,789.08 795.68,767.1 C789.38,763.14 772.02,742.67 766.97,736.93 L1110.41,737.1 C1126.45,738.68 1372.65,739.01 1387.43,737.01 C1421.45,736.61 1455.49,736.39 1489.51,736.34 C1509.98,736.29 1537.36,736.68 1557.3,735.56 L1557.3,735.56 Z" style="fill:#DFA163;" />
			<path transform="matrix(0.5, 0, 0, 0.5, -512, -512)" d="M795.68,767.1 C842.58,767.26 904.58,768.03 950.4,766.65 C952.27,791.44 951.32,815.59 952.73,839.97 C917.29,841.7 868.29,840.35 831.74,839.81 C825.62,816.34 811.46,789.08 795.68,767.1 L795.68,767.1 Z" style="fill:#9A2C29;" />
			<path transform="matrix(0.5, 0, 0, 0.5, -511.99993896484375, -512)" d="M1039.42,766.13 C1102.48,766.48 1168.32,764.23 1231.33,765.17 C1235.14,766.23 1233.69,766.19 1237.58,766.25 C1279.13,766.93 1318.57,782.58 1340.34,800.29 C1342.06,813.29 1338.9,825.45 1338.91,838.66 C1278.41,838.43 1217.91,838.57 1157.4,839.07 C1138.27,839.2 1082.57,840.4 1066.07,839.5 C1030.81,839.42 987.19,838.57 952.75,839.97 C951.33,815.59 952.28,791.44 950.42,766.65 C960.91,765.51 1028.01,765.52 1039.42,766.13 L1039.42,766.13 Z" style="fill:#9A2C29;" />
			<path transform="matrix(0.5, 0, 0, 0.5, -511.99993896484375, -512)" d="M950.42,766.65 C960.91,765.51 1028.01,765.52 1039.42,766.13 C1048.19,766.67 1055.81,767.15 1064.68,767.3 C1064.94,790.73 1064.54,816.2 1066.07,839.5 C1030.81,839.42 987.19,838.57 952.75,839.97 C951.33,815.59 952.28,791.44 950.42,766.65 L950.42,766.65 Z" style="fill:#C3745D;" />
			<path transform="matrix(0.5, 0, 0, 0.5, -511.99993896484375, -512)" d="M1329.34,944.15 C1366.2,913.07 1412.24,900.49 1478.8,907.9 C1468.85,986.27 1464.62,1064.31 1455.57,1142.64 C1454.67,1150.41 1451.88,1188.88 1450,1193.51 C1421.6,1188.57 1413.26,1187.29 1383.43,1188.37 C1362.69,1190.89 1350.09,1192.44 1332.88,1200.18 C1331.09,1189.58 1332.81,1175.48 1333.07,1164.51 L1335.08,1094.72 C1335.83,1076.88 1336.14,950.19 1329.95,944.88 L1329.34,944.15 L1329.34,944.15 Z" style="fill:#CD8658;" />
			<path transform="matrix(0.5, 0, 0, 0.5, -511.99993896484375, -512)" d="M953.79,852.87 C990.64,853.03 1029.82,852.61 1066.39,853.08 C1066.5,866.41 1065.07,948 1069.51,955.19 L1068.72,955.71 C1047.37,964.71 1040.28,976.63 1036.62,990.82 C1034.02,1001 1032.89,1011.27 1033.25,1021.54 C1034.19,1043.64 1039.14,1066.14 1038.19,1088.27 C1037.06,1115.08 1038.6,1146.43 989.73,1160.29 L987.34,1160.99 L985.9,1161.39 C976.56,1160.69 968.51,1160.26 959.15,1159.84 C963.11,1153.11 959.94,1089.78 959.72,1078.32 C958.83,1003.16 956.85,928.01 953.79,852.87 L953.79,852.87 Z" style="fill:#C3745D;" />
			<path transform="matrix(0.5, 0, 0, 0.5, -512, -512)" d="M835.24,853.11 C864.88,852.85 926.5,851.74 953.78,852.87 C956.84,928.01 958.82,1003.16 959.71,1078.32 C959.93,1089.78 963.1,1153.11 959.14,1159.84 C884.15,1139.35 917.87,1019.66 907.5,980.98 C898.92,948.95 890.9,939.33 845.6,918.63 C843.06,916.16 836.46,861.45 835.24,853.11 L835.24,853.11 Z" style="fill:#9A2C29;" />
			<path transform="matrix(0.5, 0, 0, 0.5, -512, -512)" d="M845.6,918.63 C890.9,939.33 898.92,948.95 907.5,980.98 C917.87,1019.66 884.15,1139.35 959.14,1159.84 C968.5,1160.26 976.54,1160.69 985.89,1161.39 C977.02,1163.25 970.65,1162.82 961.16,1162.81 C961.13,1173.56 961.53,1185.3 960.78,1195.96 C932.68,1188.56 903.08,1188.16 873.38,1192.48 C873.43,1156.58 865.9,1114.09 862.42,1077.72 L850.63,968.31 C848.83,951.94 848.5,934.84 845.6,918.63 L845.6,918.63 Z" style="fill:#DFA163;" />
			<path transform="matrix(0.5, 0, 0, 0.5, -512, -512)" d="M740.28,720.87 C746.48,730.22 761.15,749.08 759.52,757.94 C752.77,752.73 737.78,734.97 735.19,728.35 C733.94,725.13 737.25,723.44 740.28,720.87 L740.28,720.87 Z" style="fill:#F7EEC8;" />
			<path transform="matrix(0.5, 0, 0, 0.5, -511.99993896484375, -512)" d="M1072.06,1674.83 C1075.19,1681.72 1081.55,1684.77 1092.86,1688.27 C1165.33,1710.74 1169.72,1738.12 1172.17,1780.46 C1203.97,1778.97 1208.89,1782.1 1243.54,1776.16 C1243.69,1770.75 1243.93,1768.18 1245.43,1762.86 C1245.34,1767 1244.23,1770.93 1248.24,1774.25 C1257.26,1777.68 1262.95,1777.01 1271.47,1779.99 C1279.34,1781.4 1287.06,1781.9 1295.09,1782.85 C1338.61,1788 1382.99,1794.21 1424.9,1802.47 C1448.99,1807.18 1473.15,1815.34 1485.03,1828.39 C1478.91,1841.14 1473.07,1845.52 1449.26,1849.65 C1383.82,1861.09 1348.2,1861.47 1282.08,1866.26 C1156.03,1874.45 1018.86,1870.92 894.48,1855.05 C833.18,1847.23 789.67,1824.29 870.11,1803.27 C929.14,1787.83 1009.94,1779.02 1075.45,1773.48 C1076.5,1742.54 1073.13,1706.24 1072.06,1674.83 L1072.06,1674.83 Z" style="fill:#F1DAB0;" />
			<path transform="matrix(0.5, 0, 0, 0.5, -511.99993896484375, -512)" d="M1424.9,1802.47 C1448.98,1807.18 1473.14,1815.34 1485.02,1828.39 C1478.9,1841.14 1473.07,1845.52 1449.25,1849.65 C1383.81,1861.09 1348.2,1861.47 1282.07,1866.26 C1291.58,1851.78 1277.06,1837.61 1279.37,1833.05 C1273.41,1833.26 1272.65,1833.27 1266.58,1834.13 L1262.1,1823.82 C1298.42,1821.28 1403.24,1816.84 1424.9,1802.47 L1424.9,1802.47 Z" style="fill:#EBC07F;" />
			<path transform="matrix(0.5, 0, 0, 0.5, -511.99993896484375, -512)" d="M1424.9,1802.47 C1448.98,1807.18 1473.14,1815.34 1485.02,1828.39 C1478.9,1841.14 1473.07,1845.52 1449.25,1849.65 C1450.4,1848.07 1452.33,1845.9 1452.42,1844.16 C1452.7,1839.05 1445.8,1829.32 1439.52,1825.66 C1422.43,1815.68 1311.15,1833.06 1281.39,1833.07 C1280.71,1833.07 1280.04,1833.06 1279.37,1833.05 C1273.41,1833.26 1272.65,1833.27 1266.58,1834.13 L1262.1,1823.82 C1298.42,1821.28 1403.24,1816.84 1424.9,1802.47 L1424.9,1802.47 Z" style="fill:#F1DAB0;" />
			<path transform="matrix(0.5, 0, 0, 0.5, -512, -512)" d="M1271.46,1779.99 C1279.33,1781.4 1287.04,1781.9 1295.08,1782.85 C1338.6,1788 1382.98,1794.21 1424.89,1802.47 C1403.24,1816.84 1298.41,1821.28 1262.1,1823.82 L1259.38,1823.87 C1252.33,1822.64 1207.45,1797.13 1201.04,1792.62 L1192.67,1786.76 C1225.2,1787.31 1241.09,1785.89 1271.46,1779.99 L1271.46,1779.99 Z" style="fill:#EBC07F;" />
			<path transform="matrix(0.5, 0, 0, 0.5, -511.99993896484375, -512)" d="M1266.58,1834.13 C1223.66,1833.42 1181.44,1835.25 1137.99,1834.57 C1089.9,1833.65 1041.9,1831.45 993.86,1830 C965.31,1829.14 893.64,1838.95 876.75,1826.04 C866.62,1797.76 1004.1,1820.79 1024.42,1822.22 C1101.45,1827.64 1182.15,1829.51 1259.39,1823.87 L1262.11,1823.82 L1266.58,1834.13 L1266.58,1834.13 Z" style="fill:#F7EEC8;" />
			<path transform="matrix(0.5, 0, 0, 0.5, -512.0000610351562, -512)" d="M1245.42,1762.86 C1245.33,1767 1244.22,1770.93 1248.23,1774.25 C1257.25,1777.68 1262.94,1777.01 1271.46,1779.99 C1241.09,1785.89 1225.2,1787.31 1192.67,1786.76 C1172.55,1788.49 1094.85,1793.96 1087.25,1779.77 C1102.13,1776.92 1148.79,1780.55 1169.13,1780.48 L1172.16,1780.46 C1203.96,1778.97 1208.88,1782.1 1243.52,1776.16 C1243.68,1770.75 1243.92,1768.18 1245.42,1762.86 L1245.42,1762.86 Z" style="fill:#F7EEC8;" />
			<path transform="matrix(0.5, 0, 0, 0.5, -512.0000610351562, -512)" d="M1032.18,1538.62 C1042.63,1537.43 1077.15,1541.24 1093.43,1542.26 C1138.12,1545.08 1189.91,1543.48 1234.38,1540.98 C1250.23,1540.09 1270.42,1535.96 1278.63,1537.73 C1276.5,1547.32 1275.66,1554.48 1276.5,1564.2 C1301.25,1582.73 1315.66,1594.83 1309.54,1619.42 C1306.07,1633.94 1292.23,1647.07 1271.19,1655.81 C1264.87,1658.39 1258.27,1660.48 1251.29,1662.45 C1251.09,1692.93 1248.35,1732.19 1245.42,1762.86 C1243.92,1768.18 1243.68,1770.75 1243.52,1776.16 C1208.88,1782.1 1203.96,1778.97 1172.16,1780.46 C1169.7,1738.12 1165.32,1710.74 1092.85,1688.27 C1081.54,1684.77 1075.18,1681.72 1072.05,1674.83 L1071.83,1667.11 C1015.08,1647.31 984.15,1621.75 1018.92,1584.68 C1032.96,1569.71 1056.49,1560.08 1041.52,1540.14 L1032.18,1538.62 L1032.18,1538.62 Z" style="fill:#EBC07F;" />
			<path transform="matrix(0.5, 0, 0, 0.5, -511.99993896484375, -512)" d="M1041.53,1540.14 C1064.98,1543.27 1029.34,1566.3 1075.08,1571.83 C1108.56,1575.87 1141.53,1577.23 1176.54,1576.86 C1189.26,1577.21 1231.97,1574.65 1238.42,1582.05 C1249.66,1594.96 1245.45,1616.88 1242.84,1631.06 C1241.01,1640.97 1233.78,1659.59 1226.89,1668.86 C1184.66,1670.21 1112.61,1671.92 1071.84,1667.11 C1015.09,1647.31 984.16,1621.75 1018.93,1584.68 C1032.98,1569.71 1056.5,1560.08 1041.53,1540.14 L1041.53,1540.14 Z" style="fill:#F1DAB0;" />
			<path transform="matrix(0.5, 0, 0, 0.5, -511.99993896484375, -512)" d="M1052.98,1579.9 L1082.04,1582.49 C1085.8,1585.68 1088.65,1587.26 1093.34,1590.08 C1082.72,1596.53 1077.8,1602.37 1065.5,1609.16 C1033.71,1619.2 1019.75,1593.05 1052.98,1579.9 L1052.98,1579.9 Z" style="fill:#F7EEC8;" />
		</g>
		<g transform="matrix(1, 0, 0, 1, -32.600921630859375, 173.3907470703125)">
			<path transform="matrix(0.5, 0, 0, 0.5, -501.2344055175781, -682.351806640625)" d="M1104.11,330.16 C1121.81,270.93 1143.04,214.94 1173.23,158.82 C1183.59,139.68 1194.67,117.01 1220.94,108.8 C1232.55,105.18 1252.23,106.49 1256.5,117.32 C1251.69,131.85 1216.92,135.51 1202.17,146.92 C1176.16,167.03 1114.24,313.75 1115.07,331.12 C1118.32,335.87 1115.93,334.24 1122.74,335.92 C1184.54,340.75 1223.26,378.98 1192.6,425.91 C1175.7,443.46 1162.06,451.74 1135.14,458.19 C1085.8,468.26 1037.09,454.11 1001.56,426.04 C965.17,390 1002.91,338.82 1054.47,330.4 C1074.22,327.17 1084.32,327.54 1104.11,330.16 L1104.11,330.16 Z" style="fill:#CE523D;" />
			<path transform="matrix(0.5, 0, 0, 0.5, -498.1257019042969, -673.3279418945312)" d="M1116.53,317.88 C1178.32,322.7 1217.04,360.93 1186.38,407.86 C1169.49,425.41 1155.84,433.7 1128.92,440.15 L1126.15,438.77 C1121.92,428.99 1152.09,411.76 1156.23,396.51 C1160.08,382.34 1160.25,385.26 1158.18,370.4 C1154.7,345.44 1123.27,333.32 1114.59,319.73 L1116.53,317.88 L1116.53,317.88 Z" style="fill:#9A2C29;" />
			<path transform="matrix(0.5, 0, 0, 0.5, -508.0175476074219, -676.2763061523438)" d="M1055.42,328.56 C1062.86,328.81 1068.5,328.49 1072.84,333.68 C1070.86,342.06 1046.39,356.94 1036.96,363.83 C1031.5,367.19 1029.1,369.04 1023.3,365.87 C1016.68,349.61 1040.35,335.53 1055.42,328.56 L1055.42,328.56 Z" style="fill:#FEFEFE;" />
		</g>
		<g transform="matrix(1, 0, 0, 1, -169.89581298828125, 120.4039535522461)">
			<path transform="matrix(0.5, 0, 0, 0.5, -327.3421325683594, -640.7188720703125)" d="M1317.86,471.1 C1334.21,469.48 1351.51,468.71 1367.97,467.82 C1360.89,485.55 1353.44,500.96 1342.74,517.45 C1340.19,522.43 1330.68,541.8 1327.72,545.41 C1324.79,551.24 1318.85,565.16 1313.52,568.12 L1307.06,572.27 C1300.68,569.16 1296.15,558.35 1282.67,556.82 C1281.98,550.71 1280.83,544.56 1279.8,538.47 C1283.33,533.4 1285.22,525.74 1290.57,522.89 C1292.82,519.43 1317.03,473.62 1317.86,471.1 L1317.86,471.1 Z" style="fill:#EBC07F;" />
			<path transform="matrix(0.5, 0, 0, 0.5, -327.1535339355469, -640.9136962890625)" d="M1343.26,517.06 C1340.68,522.11 1331.03,541.75 1328.02,545.42 C1325.05,551.33 1319.03,565.45 1313.63,568.45 L1307.07,572.66 C1300.6,569.5 1296.01,558.54 1282.33,556.99 C1281.64,550.79 1280.47,544.56 1279.42,538.38 C1283,533.23 1284.92,525.47 1290.34,522.58 C1300.13,521.85 1335.67,519.72 1343.26,517.06 L1343.26,517.06 Z" style="fill:#9A2C29;" />
			<path transform="matrix(0.5, 0, 0, 0.5, -327.3421325683594, -640.7188720703125)" d="M1313.52,568.12 C1314.95,561.79 1321.49,549.11 1327.72,545.41 C1324.79,551.24 1318.85,565.16 1313.52,568.12 L1313.52,568.12 Z" style="fill:#150504;" />
			<path transform="matrix(0.5, 0, 0, 0.5, -327.3421325683594, -640.7188720703125)" d="M1454.19,193.51 C1468.45,197.27 1486.27,201.32 1498.97,207.53 C1495.85,216.71 1492.32,225.4 1487.04,233.88 C1482.89,242.57 1470.92,268.89 1465.92,276.22 C1449.98,277.33 1426.94,278.49 1411.9,280.99 C1415.22,271.32 1428.53,242.26 1435.06,234.46 C1441.15,222.11 1449.15,206.01 1454.19,193.51 L1454.19,193.51 Z" style="fill:#551D1A;" />
			<path transform="matrix(0.5, 0, 0, 0.5, -327.3421325683594, -640.7188720703125)" d="M1454.19,193.51 C1468.45,197.27 1486.27,201.32 1498.97,207.53 C1495.85,216.71 1492.32,225.4 1487.04,233.88 C1471.37,229.17 1450.91,231.79 1435.06,234.46 C1441.15,222.11 1449.15,206.01 1454.19,193.51 L1454.19,193.51 Z" style="fill:#EBC07F;" />
			<path transform="matrix(0.5, 0, 0, 0.5, -327.3421325683594, -640.7188720703125)" d="M1401.36,370.62 L1419.11,368.84 C1415.05,378.61 1409.96,388.06 1403.91,397.08 C1400.82,403.25 1395.22,413.2 1393.03,419.07 C1376.21,420.29 1357.8,421.71 1341.26,424.52 C1349.21,408.03 1359.38,388.56 1366.64,372.26 C1373.04,373.84 1393.39,371.22 1401.36,370.62 L1401.36,370.62 Z" style="fill:#EBC07F;" />
			<path transform="matrix(0.5, 0, 0, 0.5, -327.3421325683594, -640.7188720703125)" d="M1401.36,370.62 L1419.11,368.84 C1415.05,378.61 1409.96,388.06 1403.91,397.08 C1403.63,395.39 1403.44,393.98 1404.12,392.31 C1408.41,381.86 1401.59,382.55 1401.36,370.62 L1401.36,370.62 Z" style="fill:#EBC07F;" />
			<path transform="matrix(0.5, 0, 0, 0.5, -327.3421325683594, -640.7188720703125)" d="M1465.92,276.22 C1460.86,286.57 1447.76,316.42 1442.01,323.71 C1424.4,324.23 1405.8,325.12 1388.79,329.25 C1395.65,313.07 1405.99,298 1411.9,280.99 C1426.94,278.49 1449.98,277.33 1465.92,276.22 L1465.92,276.22 Z" style="fill:#EBC07F;" />
			<path transform="matrix(0.5, 0, 0, 0.5, -327.3421325683594, -640.7188720703125)" d="M1341.26,424.52 C1357.8,421.71 1376.21,420.29 1393.03,419.07 C1385.71,435.41 1374.52,452.78 1367.97,467.82 C1351.51,468.71 1334.21,469.48 1317.86,471.1 C1325.47,457.07 1332.63,437.92 1341.26,424.52 L1341.26,424.52 Z" style="fill:#551D1A;" />
			<path transform="matrix(0.5, 0, 0, 0.5, -327.3421325683594, -640.7188720703125)" d="M1388.79,329.25 C1405.8,325.12 1424.4,324.23 1442.01,323.71 C1438.43,330.34 1420.56,363.51 1419.11,368.84 L1401.36,370.62 C1393.39,371.22 1373.04,373.84 1366.64,372.26 C1371.31,362.15 1382.03,337.55 1388.79,329.25 L1388.79,329.25 Z" style="fill:#551D1A;" />
		</g>
	</g>
</svg>