<?xml version="1.0" encoding="UTF-8"?>
<svg id="Layer_1" data-name="Layer 1" xmlns="http://www.w3.org/2000/svg" xmlns:xlink="http://www.w3.org/1999/xlink" viewBox="0 0 466.03 415.32">
  <defs>
    <style>
      .cls-1 {
        fill: none;
      }

      .cls-2 {
        fill: #be7e51;
      }

      .cls-3 {
        fill: #d6d6d6;
      }

      .cls-4 {
        fill: #ce8e48;
      }

      .cls-5 {
        fill: #ebc07f;
      }

      .cls-6 {
        fill: #551d1a;
      }

      .cls-7 {
        fill: #131311;
      }

      .cls-8 {
        fill: #652725;
      }

      .cls-9 {
        fill: #62c4ed;
      }

      .cls-10 {
        fill: #fff;
      }

      .cls-11 {
        fill: #0372bd;
      }

      .cls-12 {
        fill: #fefefe;
      }

      .cls-13 {
        fill: #8c5641;
      }

      .cls-14 {
        fill: #85c7e2;
      }

      .cls-15 {
        fill: #491817;
      }

      .cls-16 {
        fill: #57a1d3;
      }

      .cls-17 {
        clip-path: url(#clippath);
      }

      .cls-18 {
        fill: #0070bc;
      }
    </style>
    <clipPath id="clippath">
      <rect class="cls-1" width="466.03" height="415.32"/>
    </clipPath>
  </defs>
  <g class="cls-17">
    <g>
      <path class="cls-5" d="M411.95,578.07c-5.52-1.43-9.25-5.73-12.32-10.38,0-3.58-2.76-11.09-2.35-13.55,2.76-15.39,11.25-29.24,17.13-43.56,4.5-11.25,6.08-36.5,5.88-48.51l-.1-5.01c-.92-14.47-2.91-30.88-10.28-43.71l-4.29-7.31c11.81,5.06,35.63-31.8,51.43-21.27,3.07,2.04,3.68,13.14,7.62,25.36,11.66,36.55-12.22,71.21-24.69,92.02,6.7,4.55,7.57,6.39,3.32,14.01-1.64,2.91-3.22,6.19-4.65,9.2,13.14,10.43,10.43,9.56,6.59,23.52-1.89,6.9,2.71,5.62-5.67,11.96.82,18.4-14.16,16.56-27.55,17.28l-.05-.05Z"/>
      <path class="cls-2" d="M423.7,448.02c-.97,2.97-1.18,6.9-3.53,9.05-.92-14.47-2.91-30.88-10.28-43.71l-4.29-7.31c10.58,4.5,43.2-32.31,52.91-19.78,2.66,3.43-29.09,43.96-34.81,61.75Z"/>
      <path class="cls-10" d="M367.06,277.07l.41.82c9.15,8.44,17.18,16.87,25.92,25.66,3.22,3.27,9.2,6.03,12.58,8.9,4.75,4.04,10.94,10.89,14.88,15.75,11.76,14.57,20.5,31.03,29.85,47.03l1.18,1.53c1.38,4.65,3.22,6.08,6.7,9.51l-3.17,3.89c-9.61,10.89-21.27,22.65-34.92,28.27l-7.87,3.17c-3.02-3.73-4.81-7.72-6.54-12.12-4.45,10.68-10.38,25.05-14.67,35.43-4.29,10.43-20.24,44.73-20.76,54.14.87,3.32,1.18,5.93,1.58,9.3-5.37,4.04-5.57,9.76-13.34,11.86-1.48-.15-12.98,5.52-15.64,6.65-5.98,2.4-12.12,4.5-18.35,6.19-12.93,3.58-25,4.6-38.34,3.32-1.43-.15-4.09-.56-5.37-.46-9.36-.05-25.61-11.14-33.38-16.36-3.22-2.97-2.97-7.82-3.48-12.32l-.31-.66c.2-1.23.61-4.4.46-5.57-3.94-28.37-4.96-58.74-9.76-86.8-.41-5.06-.36-12.42-.46-17.64l-.46-2.56c-1.43-.51-11.91-9.05-13.85-10.58-4.65-3.89-9-7.67-13.96-11.2-1.18-4.5,0-5.37,2.81-8.69,2.91-3.48,6.08-8.23,9.15-12.01l29.04-35.32c2.15-2.66,10.07-13.55,11.66-14.47,10.63-6.03,22.75-11.86,33.54-17.89l.82,3.22c4.14,8.64,8.69,4.75,16.67,5.06-.61-3.17-.87-5.57-1.12-8.79,16-.1,35.22-4.91,47.8-15.23,3.53-2.91,5.47-7.57,9.46-10.48-.31,6.65-1.64,13.6,1.23,19.53l.05-.05Z"/>
      <path class="cls-9" d="M265.43,323.44c-6.13,35.17-9.36,66.25-9,102.24.31,30.83,3.94,61.81,3.99,92.48,28.12,14.26,39.93,12.22,70.19,3.73-.15-55.98,2.76-114.77,17.74-168.91l.66-2.04c4.24-3.78,8.08-7.41,13.09-10.12-17.48,64.46-22.03,108.58-20.45,176.37,10.17-4.81,20.24-9.97,28.37-17.89l.51-.26c.87,3.32,1.18,5.93,1.58,9.3-5.37,4.04-5.57,9.76-13.34,11.86-1.48-.15-12.98,5.52-15.64,6.65-5.98,2.4-12.12,4.5-18.35,6.19-12.93,3.58-25,4.6-38.34,3.32-1.43-.15-4.09-.56-5.37-.46-9.36-.05-25.61-11.14-33.38-16.36-3.22-2.97-2.97-7.82-3.48-12.32l.72-.15c1.58.51,5.21,4.5,6.59,5.93-.61-32.97-4.35-64.26-4.86-96.72-.26-34.76,4.24-69.37,13.29-102.91,1.84,3.32,3.63,6.7,5.37,10.07h.1Z"/>
      <path class="cls-16" d="M311.6,309.89c1.43,1.23,2.86,2.4,4.24,3.73,13.39,26.43,7.67,29.8,1.99,57.41-9.56-11.81-12.68-19.89-16.41-34.51-1.74.51-1.38.66-2.76,2.45-12.27,11.91-17.38,11.2-31.59,16.87l-.82-.92c2.45-7.36,5.47-14.77,8.28-22.03l1.38-2.91c1.38-4.14,4.5-7.36,7.36-10.53,8.74-5.47,12.32-8.64,22.14-13.14,2.04,1.07,4.35,2.2,6.19,3.53v.05Z"/>
      <path class="cls-18" d="M311.6,309.89c-6.59,2.71-27.86,14.52-34.56,20.35-.36-.1-.77-.15-1.12-.26,1.38-4.14,4.5-7.36,7.36-10.53,8.74-5.47,12.32-8.64,22.14-13.14,2.04,1.07,4.35,2.2,6.19,3.53v.05Z"/>
      <path class="cls-3" d="M393.95,394.9c2.86,2.4,6.75,10.68,9.1,11.91-.26-4.81-3.17-3.99-3.58-8.49l.36-1.07c2.5,2.25,10.68,10.84,12.83,11.3.36,1.07.26,1.18.87,2.1l-.56,1.12c1.69,2.71,4.81,4.75,7.41,6.59l-7.87,3.17c-3.02-3.73-4.81-7.72-6.54-12.12-4.45,10.68-10.38,25.05-14.67,35.43-4.29,10.43-20.24,44.73-20.76,54.14l-.51.26c-.51-.97-1.43-2.61-1.38-3.68,1.07-19.38,6.44-38.85,7.36-58.28.97-20.55.51-41.36.97-61.96,3.12,6.29,9.41,18.71,16.92,19.58h.05Z"/>
      <path class="cls-2" d="M367.06,277.07l.41.82c-1.33,4.55-2.86,5.88-6.34,9.1-9.71,3.32-40.59,27.96-49.18,16.15.05-1.28-1.84-9.3-2.25-11.09-.61-3.17-.87-5.57-1.12-8.79,16-.1,35.22-4.91,47.8-15.23,3.53-2.91,5.47-7.57,9.46-10.48-.31,6.65-1.64,13.6,1.23,19.53h0Z"/>
      <path class="cls-13" d="M367.47,277.84c-1.33,4.55-2.86,5.88-6.34,9.1-9.71,3.32-40.59,27.96-49.18,16.15,13.14-3.02,33.84-9.87,44.83-17.99,2.3-1.74,6.39-6.19,8.49-8.44l1.79.31.41.82v.05Z"/>
      <path class="cls-10" d="M451.82,376.76c1.38,4.65,3.22,6.08,6.7,9.51l-3.17,3.89c-9.61,10.89-21.27,22.65-34.92,28.27-2.61-1.89-5.73-3.94-7.41-6.59l.56-1.12c-.61-.87-.56-1.02-.87-2.1,8.33-5.73,15.64-10.53,23.06-17.53,4.35-4.14,10.68-12.47,14.93-15.8l1.18,1.53-.05-.05Z"/>
      <path class="cls-9" d="M451.82,376.76c-8.13,11.6-25.61,27.96-38.24,33.94-.61-.87-.56-1.02-.87-2.1,8.33-5.73,15.64-10.53,23.06-17.53,4.35-4.14,10.68-12.47,14.93-15.8l1.18,1.53-.05-.05Z"/>
      <path class="cls-5" d="M309.7,292.05c.41,1.79,2.3,9.82,2.25,11.09,8.59,11.76,39.47-12.83,49.18-16.15-9.97,10.17-30.98,21.83-44.63,26.43l-.66.2c-1.33-1.33-2.76-2.5-4.24-3.73-1.89-1.38-4.14-2.45-6.19-3.53-2.76-2.4-15.03-16.31-15.44-18.86l.82-.97,2.3.51c4.14,8.64,8.69,4.75,16.67,5.06l-.05-.05Z"/>
      <path class="cls-3" d="M233.79,393.98c-1.43-.51-11.91-9.05-13.85-10.58l2.35-2.91c.46-2.61.2-1.99-1.23-4.81,3.07-3.58,8.23-11.5,11.3-13.65l1.18.1c1.07,2.15.97,29.91.72,34.4l-.46-2.56h0Z"/>
      <path class="cls-3" d="M351.73,341.99c-.87,2.86-1.94,6.03-2.71,8.95l-.66,2.04c-2.3.1-16.97,12.83-20.3,15.29-.41-9.15-2.15-18.91-2.86-28.27l5.16,14.57c6.65-3.32,14.83-8.59,21.32-12.52l.05-.05Z"/>
      <path class="cls-3" d="M364.86,331.62c2.45-1.94,26.94-19.94,27.5-20.14-9.56,11.4-19.17,18.51-29.75,28.42l2.25-8.28Z"/>
      <path class="cls-3" d="M269.73,356.26c-.82,0-1.89-.15-2.71-.36,14.16-5.67,19.27-5.01,31.59-16.87-.15,10.99-19.68,16.77-28.88,17.23Z"/>
      <path class="cls-16" d="M362.61,339.9l-.46.87c-5.01,2.71-8.84,6.34-13.09,10.12.77-2.86,1.84-6.03,2.71-8.95,1.38-1.69,10.79-8.59,13.09-10.38l-2.25,8.28v.05Z"/>
      <path class="cls-3" d="M275.91,330.03l-1.38,2.91c-1.99.36-2.35,1.02-5.11,1.28l-1.43-1.33c-.82-2.2-1.02-2.56-.77-4.91,5.93-2.86,10.43-5.78,16-8.54-2.86,3.22-5.98,6.39-7.36,10.53l.05.05Z"/>
      <path class="cls-9" d="M399.47,398.33c.41,4.5,3.32,3.68,3.58,8.49-2.35-1.23-6.19-9.51-9.1-11.91-3.12-4.6-4.5-7.62-6.24-12.93,4.09,5.88,7.11,10.12,12.12,15.34l-.36,1.07v-.05Z"/>
      <path class="cls-4" d="M284.81,406c0,1.28-.72,2.45-1.89,3.07-1.12.61-2.5.51-3.58-.2-1.58-1.07-1.99-3.12-1.02-4.75.97-1.58,3.07-2.15,4.7-1.23,1.12.61,1.79,1.84,1.79,3.12h0Z"/>
      <path class="cls-4" d="M292.88,370.26c-.87,1.64-2.91,2.3-4.6,1.53-1.12-.56-1.89-1.69-1.94-2.97-.05-1.28.56-2.45,1.64-3.12,1.07-.66,2.45-.66,3.53,0,1.64.92,2.2,2.97,1.33,4.65l.05-.1Z"/>
      <path class="cls-5" d="M412.2,31.33c1.28.77,7.72,4.4,8.44,5.11-2.66,4.29-16.41,27.55-19.32,28.47l-.2.36c-2.61,5.06-6.03,10.28-8.23,14.62,6.24,2.81,15.23,6.8,20.86,10.43-6.39,11.09-14.21,19.32-20.19,28.93,27.35,20.19,22.08,50.46,6.39,75.66,12.22,3.83,10.43,14.16,7,24.49-4.45,13.39-12.17,20.6-25.61,24.38-3.12,5.98-7.82,12.32-14.93,13.6l-.61.2c-3.99,2.91-5.93,7.62-9.46,10.48-12.58,10.28-31.75,15.13-47.8,15.23.31,3.27.51,5.62,1.12,8.79-8.03-.31-12.52,3.58-16.67-5.06l-.82-3.22c-.26-2.61-.1-3.12.46-5.57v-.66c-9.3-2.2-19.58-4.24-28.12-8.33-6.13-3.58-8.95-10.02-8.59-16.92,1.48-28.07,11.14-55.98,14.72-83.74l-3.63-4.81c-.66-6.24.72-18.56-.87-23.21-2.35-4.96-3.53-8.28-5.27-13.5-4.04-16.72-4.04-33.28,12.88-42.28l.51-.82c-.26-2.4-.26-4.81-.1-7.21,1.28-16.26,11.35-21.37,26.07-20.09,3.83.66,10.07,1.89,13.55,3.58-6.03,4.4-14.52,11.66-10.63,20.3,1.28-.31,7.31-6.03,11.55-7.77v-17.28c0-1.99-.1-2.5.36-4.4.61-4.7,1.38-9.66,2.1-14.37,1.38-11.09,4.19-25.2,6.03-36.55,7.11-.82,14.16,1.02,20.81,3.58,24.08,8.33,45.91,13.8,68.14,27.61l.05-.05Z"/>
      <path class="cls-6" d="M412.2,31.33c1.28.77,7.72,4.4,8.44,5.11-2.66,4.29-16.41,27.55-19.32,28.47l-.2.36c-2.61,5.06-6.03,10.28-8.23,14.62,6.24,2.81,15.23,6.8,20.86,10.43-6.39,11.09-14.21,19.32-20.19,28.93,27.35,20.19,22.08,50.46,6.39,75.66-23.98,5.88-21.73,31.59-39.21,29.6-1.84-2.56,9.05-12.88,10.89-17.13,4.91-11.09,9.92-30.11,10.48-41.82-4.45-2.71-7.46-4.6-11.6-7.72-5.01-4.5-6.7-7.46-8.64-13.75-.36-7.51,3.78-12.06,2.3-17.79-1.74-2.25-1.28-1.58-4.24-2.76-4.75.1-7.77.46-12.27,2.15l-.66-.31c.61-2.1,1.23-3.53.72-5.57-1.89-.72-2.15-.15-4.45.61-12.52,3.48-21.78,6.13-34.71,2.71-7.21-3.83-11.76-7.16-16.82-13.6-4.19.31-14.01.66-17.18,2.71-.77,6.19-1.48,12.01-1.84,18.25-3.12,3.99-4.35,5.52-6.49,10.12-2.35-4.96-3.53-8.28-5.27-13.5-4.04-16.72-4.04-33.28,12.88-42.28l.51-.82c-.26-2.4-.26-4.81-.1-7.21,1.28-16.26,11.35-21.37,26.07-20.09,3.83.66,10.07,1.89,13.55,3.58-6.03,4.4-14.52,11.66-10.63,20.3,1.28-.31,7.31-6.03,11.55-7.77v-17.28c0-1.99-.1-2.5.36-4.4.61-4.7,1.38-9.66,2.1-14.37,1.38-11.09,4.19-25.2,6.03-36.55,7.11-.82,14.16,1.02,20.81,3.58,24.08,8.33,45.91,13.8,68.14,27.61v-.1Z"/>
      <path class="cls-10" d="M412.2,31.33c1.28.77,7.72,4.4,8.44,5.11-2.66,4.29-16.41,27.55-19.32,28.47l-.2.36c-2.61,5.06-6.03,10.28-8.23,14.62l-.61-.2c-17.94-7.62-36.19-14.47-54.7-20.45-6.24-1.99-14.88-4.7-21.37-6.59-.41-.56-.77-1.02-1.02-1.43.61-4.7,1.38-9.66,2.1-14.37,1.38-11.09,4.19-25.2,6.03-36.55,7.11-.82,14.16,1.02,20.81,3.58,24.08,8.33,45.91,13.8,68.14,27.61l-.05-.15Z"/>
      <path class="cls-9" d="M337.16,41.76c23.72,7.51,41,13.65,64.16,23.11l-.2.36c-2.61,5.06-6.03,10.28-8.23,14.62l-.61-.2c-17.94-7.62-36.19-14.47-54.7-20.45-6.24-1.99-14.88-4.7-21.37-6.59-.41-.56-.77-1.02-1.02-1.43.61-4.7,1.38-9.66,2.1-14.37,2.56.41,5.27.82,7.77,1.43l12.12,3.58v-.05Z"/>
      <path class="cls-10" d="M328.93,1.63c-.61,7.21-4.7,32.51-3.89,36.55-2.5-.61-5.21-1.02-7.77-1.43,1.38-11.09,4.19-25.2,6.03-36.55,2.2.36,4.14.26,5.67,1.43h-.05Z"/>
      <path class="cls-10" d="M316.2,52.54c6.49,1.94,15.13,4.6,21.37,6.59,18.51,6.03,36.76,12.83,54.7,20.45l.61.2c6.24,2.81,15.23,6.8,20.86,10.43-6.39,11.09-14.21,19.32-20.19,28.93-5.78-3.48-14.77-6.85-21.22-9.46l-7.62-2.86c-6.49-1.79-16.21-6.13-22.95-8.38-9.71-3.22-19.17-6.13-28.93-9.1-1.43-3.32-1.38-5.01-1.69-8.69,2.5-2.76,6.13-5.01,7.72-7.62l-.66-.66-3.43.41v-17.28c0-1.99-.1-2.5.36-4.4.31.41.61.87,1.02,1.43h.05Z"/>
      <path class="cls-3" d="M413.74,90.22c-6.39,11.09-14.21,19.32-20.19,28.93-5.78-3.48-14.77-6.85-21.22-9.46,7-10.28,13.19-19.73,19.94-30.06l.61.2c6.24,2.81,15.23,6.8,20.86,10.43v-.05Z"/>
      <path class="cls-8" d="M313.84,60.21c-6.03,4.4-14.52,11.66-10.63,20.3,1.28-.31,7.31-6.03,11.55-7.77l3.43-.41.66.66c-1.58,2.61-5.21,4.86-7.72,7.62.26,3.68.2,5.37,1.69,8.69,9.76,2.97,19.27,5.88,28.93,9.1,6.75,2.25,16.46,6.54,22.95,8.38-12.37,7.26-22.8,14.42-38.14,10.28-2.86-.77-5.62-1.84-8.18-3.22,1.12-3.02,9-6.54,9.97-9.61-6.29-4.24-25.77,10.17-40.33-6.65,1.02,3.89,1.99,8.28,3.68,11.86-4.19.31-14.01.66-17.18,2.71-.77,6.19-1.48,12.01-1.84,18.25-3.12,3.99-4.35,5.52-6.49,10.12-2.35-4.96-3.53-8.28-5.27-13.5-4.04-16.72-4.04-33.28,12.88-42.28l.51-.82c-.26-2.4-.26-4.81-.1-7.21,1.28-16.26,11.35-21.37,26.07-20.09,3.83.66,10.07,1.89,13.55,3.58h0Z"/>
      <path class="cls-15" d="M303.21,80.56c1.28-.31,7.31-6.03,11.55-7.77l3.43-.41.66.66c-1.58,2.61-5.21,4.86-7.72,7.62.26,3.68.2,5.37,1.69,8.69-2.76,4.81-5.88,6.59-10.38,9.71-10.68-7.62-13.75-18.76-12.17-31.34,2.66-3.68,6.7-7.92,10.02-11.04,3.83.66,10.07,1.89,13.55,3.58-6.03,4.4-14.52,11.66-10.63,20.3h0Z"/>
      <path class="cls-15" d="M272.64,130.45c-3.12,3.99-4.35,5.52-6.49,10.12-2.35-4.96-3.53-8.28-5.27-13.5,2.71-4.96,4.09-21.73,6.24-23.11,4.14,3.83-1.07,5.78,7.36,8.28-.77,6.19-1.48,12.01-1.84,18.25v-.05Z"/>
      <path class="cls-6" d="M274.33,83.98c2.3.82,4.81,3.27,5.27,5.73-2.15-.05-4.4-3.22-5.78-4.91l.51-.82h0Z"/>
      <path class="cls-15" d="M370.49,157.7c-5.01-4.5-6.7-7.46-8.64-13.75l1.02-1.53c2.4.72,3.48,1.58,5.57,2.91,5.98-1.38,9.61-2.56,15.39-4.65-11.2,8.38-7.36,9-13.34,16.97v.05Z"/>
      <path class="cls-2" d="M366.4,257.29l-.61.2c-3.99,2.91-5.93,7.62-9.46,10.48-12.58,10.28-31.75,15.13-47.8,15.23.31,3.27,3.37,21.98,9.41,23.06-8.03-.31-20.76-10.68-24.9-19.27l-.82-3.22c-.26-2.61-.1-3.12.46-5.57v-.66l2.56-1.58c14.47,4.55,58.23-.92,71.26-27.91-.05,1.89-.41,7.67-.1,9.2v.05Z"/>
      <path class="cls-15" d="M275.3,234.23s.97-6.29,25.61-1.69c24.64,4.6,30.93,7.31,31.13,12.68.2,5.37,0,13.19-13.04,12.83-13.09-.41-19.43-8.38-29.04-9.2-9.61-.87-11.14-.97-15.08,1.89-3.94,2.86.41-16.51.41-16.51Z"/>
      <path class="cls-12" d="M318.91,240.57c8.03,3.58,3.22,12.12-4.45,8.28s-15.34-7.46-26.02-6.65-9.46.72-9.46-4.6c0-4.91,16.36-1.74,22.08-1.07,2.35,1.07,9.82.46,17.84,4.04h0Z"/>
      <path class="cls-6" d="M366.4,257.29c-.26-1.53,0-7.36.1-9.2,2.1-3.99,4.14-8.03,6.19-12.06,2.91,5.06,3.22,5.83,8.64,7.72-3.12,5.98-7.82,12.32-14.93,13.6v-.05Z"/>
      <path class="cls-4" d="M311.8,127.23c-2.15-1.12-2.76-1.79-3.32-4.19,12.93,3.43,22.24.77,34.71-2.71-8.54,10.12-18.45,13.7-31.39,6.9Z"/>
      <path class="cls-2" d="M292.63,277.58c-9.3-2.2-19.58-4.24-28.12-8.33,8.54,4.09,10.68-1.58,30.72,6.75l-2.61,1.58Z"/>
      <path class="cls-4" d="M346.51,129.74l-.66-.97c.36-1.28.51-2.25,1.12-3.43l.66.31c4.5-1.69,7.57-2.04,12.27-2.15-4.6,1.38-8.74,6.24-13.39,6.29v-.05Z"/>
      <path class="cls-6" d="M333.32,144.41c9.2,2.45,27.71,20.09,33.43,27.09.66,2.56.36,1.94-.72,4.81-2.25,4.35-3.78,7.16-7.36,10.79,1.94,7.31,1.18,11.04-2.66,17.64-.46.82-.97,1.58-1.48,2.4l.2.36-.36,1.18c-13.5,11.4-28.88-2.97-24.69-18.2.77-2.81,1.38-4.45,2.61-7.11,1.48-7.05,16.56-8.64,26.99-4.81-2.04.26-19.32-7.31-21.11-8.13-1.84-3.58-6.39-1.07-6.24-5.21l-4.09-5.21s-5.88-19.48,5.37-15.64l.1.05Z"/>
      <path class="cls-2" d="M335.01,180.55c-.87,1.02-1.58,1.94-2.61,2.81,0-1.18,0-.82-.31-1.99-2.04.26-2.2.36-3.94-.51-1.84-3.58-.31-16.72-.2-20.86,6.54,1.79,23.77,15.69,29.96,18.56-3.22,0-21.68-1.84-22.9,1.99Z"/>
      <path class="cls-2" d="M358.73,187.15c-2.71-6.03-6.03-7.31-11.66-10.17,7.51.61,11.81,1.48,19.02-.61-2.25,4.35-3.78,7.16-7.36,10.79h0Z"/>
      <path class="cls-12" d="M343.19,187.15c1.33,3.22.56,5.32-2.66,6.7-2.81-.97-3.02-1.79-3.53-4.86-4.65,13.7,1.74,29.55,17.64,18.2l.2.36-.36,1.18c-13.5,11.4-28.88-2.97-24.69-18.2.77-2.81,1.38-4.45,2.61-7.11,1.02-.87,1.74-1.79,2.61-2.81,2.61-.61,5.78-1.53,8.38-1.18l.46.97c-1.84,3.32-3.63,3.68-5.01,6.03,3.12-.31,2.04-.61,4.35.72Z"/>
      <path class="cls-6" d="M304.28,144.41c.51,5.37-2.04,23.52-1.69,28.93-.51,1.48-1.18,3.12-1.53,4.6-1.74.61-3.27-1.07-4.65-2.1-.56,7.51-3.37,24.18-13.5,24.08-15.64.56-12.17-19.48-4.09-28.27-1.53.46-1.99.72-3.63.77-.41-1.33-1.07-8.13-1.99-11.76-4.6-14.88,9.2-22.65,19.58-22.65,3.63,0,5.47-.31,9.1-.31,2.86.61,2.35,3.48,2.35,6.65l.05.05Z"/>
      <path class="cls-6" d="M290.23,167.67c3.83,2.5,5.37,3.53,6.19,8.23-.56,7.51-3.37,24.18-13.5,24.08-15.64.56-12.17-19.48-4.09-28.27l.87-1.23-.26-.72c1.64-1.84,2.66-1.69,5.21-2.61,1.84.2,3.73.41,5.52.56l.05-.05Z"/>
      <path class="cls-12" d="M283.02,173.96c1.02.92,1.94,1.02,3.27,1.38l.61.92c-.61,2.35-.1,1.74-1.69,3.17-2.35-.05-1.43.2-3.53-1.18l-.87-1.64c-5.16,7.72-5.93,17.33,2.1,23.41-15.64.56-12.17-19.48-4.09-28.27l.87-1.23c3.43-.87,4.35-1.23,7.82-.61-1.99,1.33-3.48,1.99-4.5,4.09v-.05Z"/>
      <path class="cls-13" d="M302.65,173.34c-.51,1.48-1.18,3.12-1.53,4.6-1.74.61-3.27-1.07-4.65-2.1-.82-4.7-2.35-5.73-6.19-8.23-1.84-.1-3.73-.36-5.52-.56-2.61.92-3.58.77-5.21,2.61l.26.72-.87,1.23c-1.53.46-1.99.72-3.63.77-.41-1.33-1.07-8.13-1.99-11.76l1.64,1.28c6.8-.05,18.61-9.15,25.25-10.89,1.33-.34,2.25-.07,2.76.82.51,5.37-.61,16.05-.26,21.47l-.05.05Z"/>
      <path class="cls-2" d="M275.71,164.91c3.78.05,5.57-1.48,8.23-.51.92,1.64.87,1.07.77,2.71-2.61.92-3.58.77-5.21,2.61l.26.72-.87,1.23c-1.53.46-1.99.72-3.63.77-.41-1.33-1.07-8.13-1.99-11.76l1.64,1.28.82,2.91v.05Z"/>
      <path class="cls-2" d="M287.21,214.85c-1.43,1.33-1.28,1.99-1.18,3.48,3.32,4.75,17.84,8.74,23.11,4.96,1.48-1.07,3.63-2.4,5.27-2.97l.51.87c-.56,2.81-2.66,6.59-5.78,7.41-8.03,2.15-24.03-2.56-27.55-10.43-2.3-5.16,8.79-10.17,11.6-13.14,1.79-1.89,2.97-4.29,4.29-6.8l1.43.56c-3.73,10.33-3.27,8.38-11.6,16.05h-.1Z"/>
      <path class="cls-2" d="M378.05,230.96c-1.43-3.32,2.81-13.19,4.24-17.18l5.88.61c9.51,10.02-4.09,19.58-10.12,16.51v.05Z"/>
      <path class="cls-2" d="M397.27,210.05c-2.71,1.07-7.16,2.5-9.15,4.4l-5.88-.61c3.02-4.5,8.38-12.22,14.77-9.71,5.11,4.04,3.12,11.3,1.89,16.82-.82-4.04-1.28-6.65-1.69-10.84l.05-.05Z"/>
      <path class="cls-4" d="M284.3,258.41c-7.57-1.84-4.91-.97-9.92-3.37.05-1.48,5.06-.92,9.1-1.69,11.6-.2,12.93,1.69,18.35,4.45,11.5,5.78,4.09,5.11-17.48.61h-.05Z"/>
      <path class="cls-2" d="M315.94,204.94l-.77-.51c-1.84-12.58,2.35-35.43,10.33-41.92-4.45,19.89-7.77,19.32-9.51,42.48l-.05-.05Z"/>
      <path class="cls-2" d="M297.38,198.19c1.69-3.48,5.67-16.92,3.73-20.24.36-1.48,1.02-3.17,1.53-4.6,1.07,5.78-1.43,19.89-3.83,25.46l-1.43-.56v-.05Z"/>
      <path class="cls-2" d="M99.7,344.45c-12.37-1.84-22.49-5.06-35.53-6.19l-3.07-1.58c7.57-.87,31.18.2,40.54.26,12.58.1,28.93-.97,40.59-.41-8.64,6.95-31.75,9.56-42.53,7.92Z"/>
      <path class="cls-5" d="M170.35,364.33c7.21,7.16,14.93,14.01,21.78,21.47l13.85-13.65c4.91,3.53,9.3,7.31,13.96,11.2,1.94,1.58,12.42,10.07,13.85,10.58l.46,2.56c.1,5.27,0,12.58.46,17.64-25.71,20.3-43.66,36.04-71.83,7.11-10.53-9-28.12-47.59-33.48-61.45-23.46,1.23-46.52-7.82-65.18-21.57,13.09,1.12,23.21,4.35,35.53,6.19,10.79,1.64,33.94-.97,42.53-7.92l.41.56c9.41,8.9,18.45,18.2,27.71,27.3h-.05Z"/>
      <rect class="cls-14" y="317.78" width="194.87" height="19.73"/>
      <path class="cls-2" d="M219.93,383.35c1.94,1.58,12.42,10.07,13.85,10.58l.46,2.56c.1,5.27,0,12.58.46,17.64-25.71,20.3-43.66,36.04-71.83,7.11,5.78.46,19.53,12.78,30.93,9.15,26.02-8.28,0-32.21-1.64-44.58l13.85-13.65c4.91,3.53,9.3,7.31,13.96,11.2h-.05Z"/>
      <path class="cls-3" d="M440.98,50.04c-3.99,5.73-16,21.37-18.66,26.99-2.81,4.81-5.37,8.59-8.54,13.19-5.62-3.63-14.62-7.57-20.86-10.43,2.2-4.35,5.62-9.51,8.23-14.62l.2-.36c2.91-.87,16.61-24.18,19.32-28.47,7.36,4.55,13.39,8.38,20.35,13.65l-.05.05Z"/>
      <path class="cls-18" d="M413.74,90.22c-5.62-3.63-14.62-7.57-20.86-10.43,2.2-4.35,5.62-9.51,8.23-14.62,3.94,1.69,17.94,9.2,21.16,11.81-2.81,4.81-5.37,8.59-8.54,13.19v.05Z"/>
      <path class="cls-7" d="M356.89,189.04c-.77,1.64-.72,1.84-2.1,2.91v1.28c1.33,2.66,1.28,4.04,1.23,7.11l.87,2.1c-7.92,19.73-31.95,4.91-20.55-16.92,1.74-2.56,2.86-3.78,5.37-5.27,5.88-1.28,8.49-.46,12.93,3.99,1.02,1.94,1.48,2.76,2.2,4.81h.05Z"/>
      <path class="cls-9" d="M355.97,200.59c-3.43,14.98-20.4,10.94-20.65-1.48l.61-.66c4.19,0,16.61,17.13,18.86-5.21,1.33,2.66,1.28,4.04,1.28,7.11v.26h-.1Z"/>
      <path class="cls-11" d="M356.89,189.04c-.77,1.64-.72,1.84-2.1,2.91-4.24-10.12-11.4-5.78-18.4-6.44,1.74-2.56,2.86-3.78,5.37-5.27,5.88-1.28,8.49-.46,12.93,3.99,1.02,1.94,1.48,2.76,2.2,4.81h0Z"/>
      <path class="cls-12" d="M338.64,196.6c-3.17-4.04-2.15-7.26,1.99-9.56,3.58,4.19,1.38,6.44-1.99,9.56Z"/>
      <path class="cls-11" d="M356.89,202.38l-.87-2.1c0-3.07.1-4.45-1.28-7.11v-1.28c1.43-1.07,1.38-1.28,2.15-2.91,1.23,5.27,1.43,7.87,0,13.39Z"/>
      <path class="cls-7" d="M295.49,179.38c-.77,1.53-.77,1.69-1.99,2.66l-.15,1.23c.92,2.61.72,3.94.46,6.85l.56,2.04c-8.23,18.2-26.84,2.35-15.54-17.59,1.64-2.3,2.66-3.43,4.91-4.65,4.96-.77,7.05.15,10.38,4.75.66,1.89.97,2.76,1.43,4.75l-.05-.05Z"/>
      <path class="cls-9" d="M293.75,190.32c-4.09,14.01-17.79,8.95-16.97-2.91l.56-.61c3.48.31,12.27,17.53,16-3.58.92,2.61.72,3.94.46,6.85v.26h-.05Z"/>
      <path class="cls-11" d="M295.49,179.38c-.77,1.53-.77,1.69-1.99,2.66-2.66-9.97-8.95-6.34-14.67-7.51,1.64-2.3,2.66-3.43,4.91-4.65,4.96-.77,7.05.15,10.38,4.75.66,1.89.97,2.76,1.43,4.75h-.05Z"/>
      <path class="cls-12" d="M279.8,185.31c-2.3-4.04-1.18-7.11,2.45-8.95,2.61,4.24.61,6.24-2.45,8.95Z"/>
      <path class="cls-11" d="M294.37,192.11l-.56-2.04c.26-2.91.41-4.24-.46-6.85l.15-1.23c1.23-.92,1.23-1.12,1.99-2.66.56,5.11.51,7.62-1.12,12.73v.05Z"/>
    </g>
  </g>
</svg>