<?xml version="1.0" encoding="UTF-8"?>
<svg id="Layer_1" data-name="Layer 1" xmlns="http://www.w3.org/2000/svg" xmlns:xlink="http://www.w3.org/1999/xlink" viewBox="0 0 757.11 418.36">
  <defs>
    <style>
      .cls-1 {
        fill: none;
      }

      .cls-2 {
        fill: #d79f48;
      }

      .cls-3 {
        fill: #343b37;
      }

      .cls-4 {
        fill: #633614;
      }

      .cls-5 {
        fill: #783026;
      }

      .cls-6 {
        fill: #93382c;
      }

      .cls-7 {
        fill: #ff89ff;
      }

      .cls-8 {
        fill: #b0825b;
      }

      .cls-9 {
        fill: #bcbec0;
      }

      .cls-10 {
        fill: #f063af;
      }

      .cls-11 {
        fill: url(#linear-gradient);
      }

      .cls-12 {
        fill: #588c8a;
      }

      .cls-13 {
        fill: #ebc07f;
      }

      .cls-14 {
        fill: #551d1a;
      }

      .cls-15 {
        fill: #131311;
      }

      .cls-16 {
        clip-path: url(#clippath-1);
      }

      .cls-17 {
        clip-path: url(#clippath-2);
      }

      .cls-18 {
        fill: #fff;
      }

      .cls-19 {
        fill: #6bb199;
      }

      .cls-20 {
        fill: #fefefe;
      }

      .cls-21 {
        fill: #381714;
      }

      .cls-22 {
        fill: #965299;
      }

      .cls-23 {
        fill: #f3f1f8;
      }

      .cls-24 {
        clip-path: url(#clippath);
      }

      .cls-25 {
        fill: #ac672e;
      }
    </style>
    <clipPath id="clippath">
      <rect class="cls-1" width="757.11" height="418.36"/>
    </clipPath>
    <linearGradient id="linear-gradient" x1="4710.77" y1="3199.89" x2="4408.99" y2="3146.4" gradientTransform="translate(-2187.76 -1355.58) scale(.5)" gradientUnits="userSpaceOnUse">
      <stop offset="0" stop-color="#3c1a12"/>
      <stop offset="1" stop-color="#77352c"/>
    </linearGradient>
    <clipPath id="clippath-1">
      <path class="cls-1" d="M203.44,169.83c-8.69-10.94-4.46-26.59-18.55-29.59,0,0-22.53,4.82-31.35,15.05s-10.49,11.69-11.99,24.57c3.08,9.46,26.39,31.12,54.39,18.88,14.59-6.38,12.14-16.78,7.49-28.92Z"/>
    </clipPath>
    <clipPath id="clippath-2">
      <path class="cls-1" d="M282.1,157.85c-3-7.94-9.29-9.29-16.93-10.49v.15c-4.64.9-8.39,1.65-12.89,2.85.15.15-6.59,6.57-6.59,6.57l-4.2,6.01c-2.85,3.75-4.35,5.84-5.84,10.34-1.35,4.79-2.25,7.79-2.85,12.74.16.19.32.37.48.55-.1-.04-.2-.11-.33-.25-.15,3.75.15,4.35,1.35,7.94l3.6-.6h0c1.8-.6,4.05,6.29,8.24,7.49,8.24,2.1,23.23-3.15,30.42-7.19,1.65-3,3.6-7.64,5.09-10.94,2.7-10.79,2.55-14.53.45-25.17Z"/>
    </clipPath>
  </defs>
  <g class="cls-24">
    <g>
      <path class="cls-5" d="M176.62,22.24c3.45-8.99,6.59-14.83,15.73-19.18,13.19-6.29,32.52-1.8,45.4,3.75,50.95,21.73,118.22,87.81,94.25,148.64-5.24,14.38-16.18,24.27-24.12,36.86-12.74,20.08-19.03,48.85-10.04,71.62,8.09,20.68,26.67,27.87,47.05,18.73,6.89-3.15,10.64-8.54,14.38-15.13,5.69,19.33,4.05,28.02-4.94,46.3-13.79,26.37-28.92,40.46-56.04,50.95-1.65-1.35-8.24-9.74-10.34-11.99-11.54-12.44-25.32-23.97-42.41-26.67-4.5-.75-20.68-2.55-23.53-.45v1.95c-3.45-3.75-5.99-3.15-10.64-5.24l-.6-.3-.45.3c-2.55-3-4.79-5.24-7.64-8.09s-3.15-2.85-4.5-5.69c-.15-2.55.3-3,1.65-5.24,0-1.5,2.55-12.74,2.85-14.68,3,.45,6.74.9,9.74.75,23.38-.6,47.8-24.87,62.63-40.91,16.63-20.98,14.09-29.52,11.39-54.99-.45-4.35.45-10.79-.6-14.98-1.5,1.8-2.4,2.7-4.05,4.35,2.7-10.79,2.55-14.53.45-25.17,5.54-4.5,11.99-1.65,15.88-5.99l-.3-1.5c-2.25-2.1-4.5-1.2-7.34-1.8-1.8-.45-4.05-4.79-5.39-6.74l-1.8,2.4c-2.1.15-5.39-3.75-9.89-5.39v-1.5c-.3-2.7-.6-3.3-1.8-5.54-17.83-13.19-16.78-6.44-35.36-.6,4.79-6.59,7.49-10.34,14.09-15.13-11.84-8.69-18.73-13.94-28.62-24.57-2.1,13.49-1.95,52-8.54,59.19-1.35.45-1.65.9-2.7.3-3.3-1.65-11.54-14.38-12.59-17.38-4.05-7.64-9.89-22.48-12.74-30.87-2.7-5.84-7.04-25.47-9.59-33.26v-1.8l-1.05-5.99c-1.95-13.04-1.95-26.82,2.1-39.41h0v.15Z"/>
      <path class="cls-14" d="M275.06,248.8c2.55,3.6,1.8,14.83,2.7,19.63,8.99,44.8,48.4,47.95,76.12,18.43-.6,8.54-4.2,21.58.3,27.27-13.79,26.37-28.92,40.46-56.04,50.95-1.65-1.35-8.24-9.74-10.34-11.99-11.54-12.44-25.32-23.97-42.41-26.67-4.5-.75-20.68-2.55-23.53-.45v1.95c-3.45-3.75-5.99-3.15-10.64-5.24l-.6-.3-.45.3c-2.55-3-4.79-5.24-7.64-8.09-2.85-2.85-3.15-2.85-4.5-5.69-.15-2.55.3-3,1.65-5.24,0-1.5,2.55-12.74,2.85-14.68,3,.45,6.74.9,9.74.75,23.38-.6,47.8-24.87,62.63-40.91h.15Z"/>
      <path class="cls-13" d="M592.76,138.17c2.4,8.39-6.61,13.88-12.76,17.48-15.43,8.84-34.56,4.94-46.74,1.15-29.37,44.35-63.23,100.04-103.68,135.55-5.99,5.24-15.28,12.89-22.63,16.03-20.21,27.52-97.84,81.16-123.68,81.97-3.57-5.88-21.91-50.93-21.27-57.64,3.06-.25,72.04-33.55,122.94-65.36,3.6-2.85,29.05-26.54,32.95-29.24,25.32-17.83,49.3-38.36,71.02-60.54,8.39-8.54,15.88-18.13,24.27-26.82-1.8-.9-9.4-1.78-11.2-2.68-10.7,0-23.28,5.99-24.03,3.29-2.14-22.55,27.58-10.36,30.58-12.15-5.09-.9,93.65-.9,84.21-1.05Z"/>
      <path class="cls-13" d="M321.28,353.1c-6.65,4.47-14.18,8.27-22.99,11.67-1.65-1.35-8.24-9.74-10.34-11.99-11.54-12.44-25.32-23.97-42.41-26.67-4.5-.75-20.68-2.55-23.53-.45v1.95c-3.45-3.75-5.99-3.15-10.64-5.24l-.6-.3-.45.3c-2.55-3-4.8-5.24-7.64-8.09-2.85-2.85-3.15-2.85-4.5-5.69-.15-2.55.3-3,1.65-5.24,0-1.5,2.55-12.74,2.85-14.68,3,.45,6.74.9,9.74.75,23.38-.6,47.8-24.87,62.63-40.91,16.63-20.98,14.08-29.52,11.39-54.99-.45-4.35.45-10.79-.6-14.98-1.5,1.8-2.4,2.7-4.05,4.35,2.7-10.79,2.55-14.53.45-25.17,5.54-4.5,11.99-1.65,15.88-5.99l-.3-1.5c-2.25-2.1-4.5-1.2-7.34-1.8-1.8-.45-4.05-4.79-5.39-6.74l-1.8,2.4c-2.1.15-5.39-3.75-9.89-5.39v-1.5c-.3-2.7-.6-3.3-1.8-5.54-17.83-13.19-16.78-6.44-35.36-.6,4.79-6.59,7.49-10.34,14.08-15.13-11.84-8.69-18.73-13.94-28.62-24.57-2.1,13.49-1.95,52-8.54,59.19-1.35.45-1.65.9-2.7.3-3.3-1.65-11.54-14.38-12.59-17.38-4.05-7.64-9.89-22.48-12.74-30.87-2.7-5.84-7.04-25.47-9.59-33.26v-1.8l-1.05-5.99c-1.93-12.94-1.94-26.61,2.01-39.12-.02.06-.04.11-.06.16-6.59-3.6-16.03-1.8-22.78.6-20.98,6.89-39.26,12.14-55.14,28.62-4.79,4.94-9.29,11.09-13.94,15.58-39.11,32.67-59.49,98.3-44.2,147.29,3.6,13.64,10.49,28.32,17.08,40.46,4.5,8.09,13.04,27.42,2.85,33.71-21.13,13.04-37.46-8.09-46.15-21.88-12.44,18.73-16.78,41.51-12.29,63.53,4.5,22.33,16.33,39.56,34.01,53.49-9.89,11.24-43.15,38.51-42.11,53.34,1.05,13.79,40.01,77.02,49.45,92.45,6.14,10.19,14.98,21.28,18.88,32.52-4.2,9.89-11.39,12.89-17.08,21.13-4.5,6.59-13.94,3.9-10.34,12.44.9,2.25.6,5.39.3,7.94,8.54,9.29,27.42,4.2,36.26-2.4,8.24-6.14,10.49-8.39,12.44-17.98,1.5-7.19,5.09-23.83,1.05-30.27-1.95-2.85-7.04-25.92-8.39-30.72-6.89-25.92-13.19-54.99-24.72-79.42,14.38-6.89,28.02-18.43,40.31-24.12-.45-.45-3.75-2.1-4.5-2.55-14.98-6.74-33.41-30.57-38.36-46.15,3.3-5.69,9.59-9.74,14.98-13.19,3.9,21.58,16.63,37.76,34.16,50.65,2.85,2.1,7.19,4.94,10.34,5.84,4.35,10.79,7.04,17.98,14.09,27.42,13.64,18.28,31.47,26.22,40.61,47.5,1.65,5.09,3.3,10.04,4.94,15.13,18.88,11.99,42.11,21.43,64.88,14.38,7.64-1.2,16.18-4.65,22.63-9.29l2.4-1.8,4.05-2.85c7.34-20.23,13.94-28.92,19.33-51.7,1.95-6.59,4.94-10.49,8.69-16.18,5.09-4.5,5.69-19.33,5.54-25.77-1.5-6.14-3.45-11.39-7.49-16.48,3.45-5.09,7.19-10.19,10.64-15.43,4.94-5.69,3.6-8.39-.6-13.49,8.79-3.47,16.33-7.32,22.99-11.82Z"/>
      <g>
        <path class="cls-10" d="M76.37,522.41c-6.89-25.92-13.19-54.99-24.72-79.42,14.38-6.89,28.02-18.43,40.31-24.12-.45-.45-3.75-2.1-4.5-2.55-14.98-6.74-33.41-30.57-38.36-46.15-4.05,5.54-7.64,9.14-13.04,13.49-9.89,11.24-43.15,38.51-42.11,53.34,1.05,13.79,40.01,77.02,49.45,92.45,6.14,10.19,14.98,21.28,18.88,32.52-4.2,9.89-11.39,12.89-17.08,21.13-4.5,6.59-13.94,3.9-10.34,12.44.9,2.25.6,5.39.3,7.94,8.54,9.29,27.42,4.2,36.26-2.4,8.24-6.14,10.49-8.39,12.44-17.98,1.5-7.19,5.09-23.82,1.05-30.27-1.95-2.85-7.04-25.92-8.39-30.72h0v.3h-.15Z"/>
        <path class="cls-10" d="M298.29,365.08c-1.65-1.35-8.24-9.74-10.34-11.99-11.54-12.44-25.32-23.97-42.41-26.67-4.5-.75-20.68-2.55-23.53-.45v1.95c-3.45-3.75-5.99-3.15-10.64-5.24l-.6-.3-.45.3c-2.55-3-4.79-5.24-7.64-8.09s-3.15-2.85-4.5-5.69c-.15-2.55.3-3,1.65-5.24,0-1.5,2.55-12.74,2.85-14.68-7.79-3.6-14.83-4.94-23.23-10.49-6.14-4.2-14.68-11.99-20.68-14.98,1.5,5.99,1.5,13.64,1.5,19.78-.3,6.59-.6,13.19-1.05,19.93-5.69,1.2-9.89,2.7-13.79,7.34-10.94-5.84-19.18-9.59-32.07-5.99-19.18,5.24-47.8,31.77-49.15,52.59,3.9,21.58,16.63,37.76,34.16,50.65,2.85,2.1,7.19,4.94,10.34,5.84,4.35,10.79,7.04,17.98,14.09,27.42,13.64,18.28,31.47,26.22,40.61,47.5,1.65,5.09,3.3,10.04,4.94,15.13,18.88,11.99,42.11,21.43,64.88,14.38,7.64-1.2,16.18-4.65,22.63-9.29l2.4-1.8,4.05-2.85c7.34-20.23,13.94-28.92,19.33-51.7,1.95-6.59,4.94-10.49,8.69-16.18,5.09-4.5,5.69-19.33,5.54-25.77-1.5-6.14-3.45-11.39-7.49-16.48,3.45-5.09,7.19-10.19,10.64-15.43,4.94-5.69,39.12-9.44,34.93-14.53l-35.53,1.05h-.15Z"/>
      </g>
      <path class="cls-13" d="M49.1,370.32c5.09,15.43,23.38,39.26,38.36,46.15.9.45,4.05,1.95,4.5,2.55-12.29,5.84-25.92,17.23-40.31,24.12,11.39,24.42,17.83,53.49,24.72,79.42,1.2,4.79,6.44,27.87,8.39,30.72,4.2,6.44.6,23.08-1.05,30.27-2.1,9.74-4.2,11.69-12.44,17.98-8.84,6.59-27.72,11.84-36.26,2.4.3-2.55.6-5.69-.3-7.94-3.6-8.54,5.84-5.84,10.34-12.44,5.69-8.24,12.74-11.39,17.08-21.13-3.75-11.24-12.59-22.48-18.88-32.52-9.44-15.43-48.55-78.67-49.45-92.45-1.05-14.83,32.22-42.26,42.11-53.34,5.39-4.35,8.99-7.94,13.04-13.49h0v-.3h.15Z"/>
      <path class="cls-23" d="M158.64,263.34c5.99,3,14.53,10.79,20.68,14.98,8.39,5.69,15.43,6.89,23.23,10.49-.45,1.95-3,13.19-2.85,14.68-1.2,2.1-1.8,2.7-1.65,5.24,1.35,2.85,2.25,3.45,4.5,5.69s5.09,5.09,7.64,8.09l.45-.3.6.3c4.65,2.1,7.19,1.35,10.64,5.24v-1.95c2.85-2.1,19.03-.3,23.53.45,17.23,2.85,30.87,14.38,42.41,26.67,1.95,2.1,8.54,10.64,10.34,11.99,4.2,5.09,5.39,7.79.6,13.49-3.45,5.24-7.34,10.34-10.64,15.43,4.05,4.94,5.99,10.34,7.49,16.48,0,6.44-.45,21.13-5.54,25.77-4.94.3-11.24,5.84-14.98,8.99-10.64,2.7-26.37,1.2-37.16-.9-.3-4.2-.45-7.04-1.05-11.24-2.4-2.25-2.1-4.2-2.85-7.79-1.2-8.69-3.75-17.08-6.59-25.32-1.2-3.45-2.4-5.39-3.15-9.14-6.59,3.9-37.76,7.49-47.65,9.29-10.94-27.42-12.29-65.63-31.47-89.76,3.9-4.65,8.09-5.99,13.79-7.34.45-6.59.75-13.19,1.05-19.93,0-6.14,0-13.79-1.5-19.78h0l.15.15Z"/>
      <path class="cls-10" d="M222.02,327.92v-1.95c2.85-2.1,19.03-.3,23.53.45,17.23,2.85,52.16-16.43,75.23-23.39,1.95,2.1,37.94,46.47,39.73,47.82,4.2,5.09-31.01,23.2-41.18,28.64s-30.93,14.51-31.08,14.51c4.05,4.94,5.99,10.34,7.49,16.48,0,6.44-.45,21.13-5.54,25.77-4.94.3-11.24,5.84-14.98,8.99-10.64,2.7-26.37,1.2-37.16-.9-.3-4.2-.45-7.04-1.05-11.24-2.4-2.25-2.1-4.2-2.85-7.79-1.2-8.69-3.75-17.08-6.59-25.32-1.2-3.45-2.4-5.39-3.15-9.14h1.5c10.34-.9,24.57-.6,35.21-.6-5.09-9.89-11.69-19.18-17.68-28.47-7.19-11.24-14.09-22.78-21.43-33.86h0Z"/>
      <path class="cls-22" d="M288.25,394c-7.49-12.89-15.88-33.56-25.47-44.35l.45-.9c5.54,3.9,30.48,43.32,46.29,35.63-11.52,6.47-21.18,9.77-21.18,9.77l-.09-.3v.15Z"/>
      <path class="cls-22" d="M224.42,391h1.5c7.49,16.03,10.49,24.27,11.09,42.26-2.4-2.25-2.1-4.2-2.85-7.79-1.2-8.69-3.75-17.08-6.59-25.32-1.2-3.45-2.4-5.39-3.15-9.14h0Z"/>
      <path class="cls-13" d="M158.64,263.34c5.99,3,14.53,10.79,20.68,14.98,8.39,5.69,15.43,6.89,23.23,10.49-.45,1.95-3,13.19-2.85,14.68-1.2,2.1-1.8,2.7-1.65,5.24,1.35,2.85,2.25,3.45,4.5,5.69s5.09,5.09,7.64,8.09c6.44,13.19,8.54,44.65,8.99,59.64-22.93-18.13-30.87-30.27-43-55.74-3-6.29-7.79-15.28-11.69-21.13-1.5-2.25-2.7-1.95-5.24-2.25.45-6.59.75-13.19,1.05-19.93,0-6.14,0-13.79-1.5-19.78h-.15Z"/>
      <path class="cls-2" d="M158.64,263.34c5.99,3,14.53,10.79,20.68,14.98,8.39,5.69,15.43,6.89,23.23,10.49-.45,1.95-3,13.19-2.85,14.68-1.2,2.1-1.8,2.7-1.65,5.24,1.35,2.85,2.25,3.45,4.5,5.69-4.05-1.05-37.61-35.66-41.51-36.41,0,1.95,0,3.3-.9,5.09,0-6.14,0-13.79-1.5-19.78h0Z"/>
      <path class="cls-22" d="M108.59,413.48c5.39-6.59,11.09-8.09,16.33-12.59,10.04-8.69,18.58-25.02,25.17-36.86-3.6,23.97-3.75,54.09,10.79,74.77,13.49,19.18,46.9,20.83,65.18,8.24,6.74-4.5,7.94-14.38,8.09-21.73.6,3.6.45,5.54,2.85,7.79.6,4.2.75,7.04,1.05,11.24,10.64,2.1,26.52,3.6,37.16.9,3.75-3.15,10.04-8.84,14.98-8.99-3.75,5.69-6.74,9.59-8.69,16.18-5.39,22.78-11.99,31.32-19.33,51.7l-4.05,2.85-2.4,1.8c-6.44,4.5-14.83,8.09-22.63,9.29-22.78,6.89-46-2.25-64.88-14.38-1.5-5.09-3.3-10.04-4.94-15.13-9.14-21.43-26.97-29.37-40.61-47.5-7.19-9.59-9.89-16.63-14.09-27.42h0v-.15Z"/>
      <path class="cls-23" d="M202.54,314.43c-2.25-2.25-3.15-2.85-4.5-5.69-.15-2.55.3-3,1.65-5.24,8.09,9.89,5.99,9.59,10.94,18.73l-.45.3c-2.55-3-4.79-5.24-7.64-8.09h0Z"/>
      <path class="cls-14" d="M185.01,102.71h1.5c1.95,3.3,12.14,26.67,11.99,29.82l-.6,1.05c-4.05-7.64-9.89-22.48-12.74-30.87h-.15Z"/>
      <path class="cls-6" d="M271.47,131.63c4.65,0,5.09,1.35,7.79,5.09,3.3,2.85,2.1,3.45,3.75,7.49-2.1.15-5.39-3.75-9.89-5.39v-1.5c-.3-2.7-.6-3.3-1.8-5.54h0l.15-.15Z"/>
      <path class="cls-11" d="M84.61,67.04c-15.43,32.52-10.79,51.85,6.59,82.26,2.1,3.75,4.94,8.09,6.89,11.99l.6,1.95-1.05.9c-1.95-2.1-2.55-3.45-5.24-4.35-3.45.45-5.39,2.25-7.49,5.24-11.39,15.43-.45,34.16,13.19,43.75,7.34,5.09,16.03,8.24,21.73-.45,10.64,17.98,21.88,42.11,38.66,54.99,1.5,5.99,1.5,13.64,1.5,19.78-.3,6.59-.6,13.19-1.05,19.93-5.69,1.2-9.89,2.7-13.79,7.34-10.94-5.84-19.18-9.59-32.07-5.99-19.18,5.24-47.8,31.77-49.15,52.59-5.39,3.6-11.69,7.49-14.98,13.19-4.05,5.54-7.64,9.14-13.04,13.49-17.53-14.09-29.37-31.32-34.01-53.49-4.5-21.88,0-44.8,12.29-63.53,8.69,13.79,25.02,35.06,46.15,21.88,10.04-6.29,1.5-25.62-2.85-33.71-6.74-12.14-13.49-26.82-17.08-40.46-15.28-49,5.09-114.63,44.2-147.29h.15-.15Z"/>
      <path class="cls-18" d="M84.61,67.04c4.65-4.5,9.14-10.64,13.94-15.58,15.88-16.63,34.16-21.73,55.14-28.62,6.89-2.25,16.18-4.05,22.78-.6-4.05,12.59-4.2,26.37-2.1,39.41l1.05,5.99c-43.9-1.05-73.87,68.18-65.18,105.04l-1.05,1.65c-3,.3-2.4-.9-5.84-2.85-1.5-3.15-2.7-5.24-4.5-8.24l-.6-1.95c-1.95-3.9-4.65-8.09-6.89-11.99-17.53-30.42-22.03-49.9-6.59-82.26h-.15Z"/>
      <path class="cls-9" d="M98.25,161.29l1.2.6c.9,0,2.55-.6,2.55-1.65,0-37.91,25.02-99.64,72.37-98.75l1.05,5.99c-43.9-1.05-73.87,68.18-65.18,105.04l-1.05,1.65c-3,.3-2.4-.9-5.84-2.85-1.5-3.15-2.7-5.24-4.5-8.24l-.6-1.95h0v.15Z"/>
      <path class="cls-14" d="M110.24,172.68c-8.54-36.86,21.43-105.94,65.18-105.04v1.8c-17.68,12.89-27.12,28.92-39.71,46.45-13.19,18.28-23.23,45.1-17.53,67.58-3.9-3.75-5.69-5.69-8.09-10.79h.15Z"/>
      <path class="cls-15" d="M242.4,163.84c4.05-3.75,7.64-3,13.19-3,6.14,3.6,6.59,3,8.09,10.04v.6c-1.95,5.09-2.85,7.19-5.24,12.14-9.14,9.74-11.69-1.05-17.08-4.65l-1.8.9-.75-2.55c.3-5.24,1.5-8.84,3.75-13.49h-.15Z"/>
      <path class="cls-20" d="M253.93,163.84c3.75.75,4.65,1.2,6.29,4.94,0,2.85-.45,3.15-2.1,5.39-3.6-.6-4.35-.75-5.84-3.75,0-3,.45-3.6,1.8-6.44h-.15v-.15Z"/>
      <path class="cls-19" d="M239.4,179.87l1.8-.9c5.39,3.75,7.94,14.53,17.08,4.65,2.7-1.05,5.09-2.1,8.09-2.25l1.2-1.65.75.9c-2.25,12.44-17.98,20.98-26.37,8.24-1.2-1.8-1.95-6.74-2.4-8.99h-.15Z"/>
      <path class="cls-3" d="M263.67,171.63l1.05-1.95v.45l1.8-.45h-.45c0-.15,1.2.9,1.2.9v-.3c.9,3.6.45,6.14.3,9.89l-1.2,1.65c-2.85,0-5.24,1.2-8.09,2.25,2.4-5.09,3.3-7.19,5.39-12.14h0v-.3h0Z"/>
      <path class="cls-18" d="M282.1,157.85c-3-7.94-9.29-9.29-16.93-10.49v.15c-4.64.9-8.39,1.65-12.89,2.85.15.15-6.59,6.57-6.59,6.57l-4.2,6.01c-2.85,3.75-4.35,5.84-5.84,10.34-1.35,4.79-2.25,7.79-2.85,12.74.16.19.32.37.48.55-.1-.04-.2-.11-.33-.25-.15,3.75.15,4.35,1.35,7.94l3.6-.6h0c1.8-.6,4.05,6.29,8.24,7.49,8.24,2.1,23.23-3.15,30.42-7.19,1.65-3,3.6-7.64,5.09-10.94,2.7-10.79,2.55-14.53.45-25.17Z"/>
      <path class="cls-15" d="M273.11,138.82c4.5,1.5,7.79,5.54,9.89,5.39l1.8-2.4c1.35,1.95,3.45,6.29,5.39,6.74,2.85.6,5.09-.3,7.34,1.8l.3,1.5c-3.75,4.35-10.34,1.35-15.88,5.99-3-7.94-9.14-9.29-16.93-10.49-4.65.9-6.91,2.29-11.56,3.49-5.26,4.61-7.92,6.85-12.12,12.1-2.7,3.75-4.2,5.84-5.84,10.34l-1.2-.45c5.24-15.28,13.34-29.52,30.42-33.41,3.6,0,4.79-.15,8.24-.9h0v.3h.15Z"/>
      <path class="cls-8" d="M92.41,178.83c4.65-1.5,6.14-2.1,10.64-.9l2.55,2.1,3.6,7.94c-5.09-.75-11.09-2.85-14.53,1.95-1.8-.6-2.85-.6-4.05-2.1-.75-3,.75-5.99,1.8-9.14h0v.15Z"/>
      <path class="cls-25" d="M94.5,189.91c3.45-4.65,9.59-2.7,14.53-1.95.6,2.55.75,2.7.9,5.39-2.25,3.6-5.69,2.55-9.59,2.4l-5.84-5.84h0Z"/>
      <path class="cls-4" d="M234.46,172.98l1.2.45c-1.35,4.79-2.25,7.79-2.85,12.74-.15,3.75.3,4.35,1.35,7.94h0c-5.99-2.4-1.5-16.78.3-20.98h0v-.15Z"/>
      <path class="cls-2" d="M98.85,163.24c1.8,3,3,5.09,4.5,8.24.6,3.6,1.05,5.09,2.1,8.54l-2.55-2.1c-.6-4.2-3.3-9.89-5.09-13.79l1.05-.9h0Z"/>
      <path class="cls-20" d="M161.78,138.97c4.05,3.75,8.39,3.75,13.79,4.94,8.24,1.8,27.42,17.08,27.87,25.92,4.65,12.14,7.64,23.97-7.49,28.92-25.62,8.24-39.56.9-54.54-19.03-7.79-8.39-6.89-15.13-10.79-26.22,3.3.9,7.19,1.5,10.64,2.25,1.2-6.59,1.2-11.84,1.05-18.43l4.2,9.89c5.39-2.85,10.04-5.39,15.28-8.54h0v.3h0Z"/>
      <path class="cls-15" d="M167.1,128.45c4.05,3.75-1.86,4.9,3.53,6.1,20.97-13.04,32.35,26.45,32.8,35.29-8.69-10.94-4.35-24.53-18.43-27.52h0c-9.74-1.95-24.27,6.55-31.47,12.99h0c-9.59,8.54-10.49,11.69-11.99,24.57-7.79-8.39-6.89-15.13-10.79-26.22,3.3.9,7.19,1.5,10.64,2.25,1.2-6.59,1.2-11.84,1.05-18.43l4.2,9.89c5.39-2.85,8.26-15.19,13.5-18.34l-1.89,10.14,8.84-10.7Z"/>
      <path class="cls-5" d="M187.4,218.68c2.7.45,9.74,3.45,14.38,4.35,17.83,3.6,37.01,2.85,54.24-2.7-4.5,11.54-7.49,19.03-13.94,29.67-28.17,41.21-44.05,5.69-49.15-25.17l-5.69-6.14h.15Z"/>
      <path class="cls-20" d="M198.79,233.67c13.94.6,29.97,3.3,43.9,5.24-1.8,3-2.85,4.5-4.94,7.34-14.68,10.64-34.16,5.09-38.96-12.59Z"/>
      <path class="cls-21" d="M152.34,107.2c4.2-1.8,27.27-10.64,31.02-2.1.3.6.15,2.7.15,3.3-.9,1.05-1.5,1.95-3,2.1-16.03,1.2-29.07,3-43.75,10.04,5.24-7.04,8.09-9.44,15.58-13.34h0Z"/>
      <path class="cls-14" d="M152.34,107.2c4.2-1.8,27.27-10.64,31.02-2.1.3.6.15,2.7.15,3.3-11.69-3.9-20.23,4.35-31.17-1.2h0Z"/>
      <path class="cls-2" d="M240.15,197.71l.6,1.2c-.6,2.1-5.09,7.49-7.34,8.09l-.9-1.65c-5.99,1.2-3.15,2.55-10.49,1.05l-.6-1.05.45-1.2c4.2-2.25,6.74-1.35,11.24-.9,2.55.3,4.94-3.3,7.19-5.69h0l-.15.15Z"/>
      <path class="cls-2" d="M282.4,192.46l.6.45v1.2c-2.25,2.7-5.54,3.75-8.84,5.24l-.6-.75c3.3-2.1,5.84-4.05,8.84-6.44h0v.3Z"/>
      <path class="cls-20" d="M108.59,413.48c-3.3-1.05-7.64-3.9-10.34-5.84-17.53-12.89-30.27-29.07-34.16-50.65-5.39,3.6-11.69,7.49-14.98,13.19,5.09,15.43,23.38,39.26,38.36,46.15.9.45,4.05,1.95,4.5,2.55,7.04-.45,8.69-.45,16.63-5.24h0v-.15Z"/>
      <g class="cls-16">
        <g>
          <ellipse cx="180.69" cy="154.16" rx="20.92" ry="25.12"/>
          <path class="cls-20" d="M187.3,140.31c6.52,3.54,8.11,8.47,3.19,14.47-5.21-4.62-8.69-8.01-3.19-14.47Z"/>
          <path class="cls-12" d="M164.4,160.48c0-4.62-.14-6.78,2.03-10.78,3.48,34.03,23.03,7.85,29.54,7.85l1.01,1.08c-.43,18.94-27.08,24.95-32.44,2.16v-.46h-.14v.15Z"/>
        </g>
      </g>
      <g class="cls-17">
        <g>
          <ellipse cx="254.59" cy="158.01" rx="17.81" ry="24.44"/>
          <path class="cls-20" d="M260.22,144.54c5.55,3.45,6.9,8.24,2.71,14.09-4.44-4.5-7.4-7.79-2.71-14.09Z"/>
          <path class="cls-12" d="M240.72,164.16c0-4.5-.12-6.59,1.73-10.49,2.96,33.11,19.6,7.64,25.15,7.64l.86,1.05c-.37,18.43-23.05,24.27-27.62,2.1v-.45h-.12v.15Z"/>
        </g>
      </g>
      <rect class="cls-7" x="347.03" y="107.59" width="410.08" height="19.71"/>
      <path class="cls-20" d="M306.88,305.61c3.19,1.34,7.26,4.57,9.77,6.75,16.3,14.42,27.52,31.68,29.45,53.52,5.7-3.09,12.32-6.41,16.11-11.78-3.68-15.83-19.74-41.21-34.04-49.43-.85-.53-3.85-2.31-4.25-2.94-7.05-.19-8.7-.34-17.04,3.72h0v.15Z"/>
    </g>
  </g>
</svg>