<?xml version="1.0" encoding="UTF-8"?>
<!-- Created with Grafika (https://www.grafika.cc/) -->
<svg xmlns="http://www.w3.org/2000/svg" xmlns:svg="http://www.w3.org/2000/svg" xmlns:xlink="http://www.w3.org/1999/xlink" width="1000" height="1000" viewBox="0 0 2616.21 2250.59" preserveAspectRatio="xMidYMid meet">
	<g transform="matrix(1, 0, 0, 1, 1545.46630859375, 582.2754516601562)">
		<g transform="matrix(1, 0, 0, 1, -2264.632080078125, -1512.7734375)">
			<path d="M3089.66,2907.7 C2969.16,3029.57 2656.48,3162.2 2034.23,3162.2 C1411.98,3162.2 1099.24,3029.57 978.74,2907.7 C901.46,2829.55 910.1,2678.97 919.13,2631.5 C930.18,2573.95 967.23,2544.49 967.23,2544.49 L2034.17,2674.82 L2034.23,2674.82 L3101.16,2544.49 C3101.16,2544.49 3138.28,2573.95 3149.27,2631.5 C3158.3,2678.97 3166.93,2829.55 3089.66,2907.7 L3089.66,2907.7 Z" style="fill:#FFB743;" />
		</g>
		<g transform="matrix(1, 0, 0, 1, -2264.632080078125, -1512.7734375)">
			<path d="M3089.66,2907.7 C2969.16,3029.57 2656.48,3162.2 2034.23,3162.2 C1411.98,3162.2 1099.24,3029.57 978.74,2907.7 C901.46,2829.55 910.1,2678.97 919.13,2631.5 C930.18,2573.95 967.23,2544.49 967.23,2544.49 L2034.17,2674.82 L2034.23,2674.82 L3101.16,2544.49 C3101.16,2544.49 3138.28,2573.95 3149.27,2631.5 C3158.3,2678.97 3166.93,2829.55 3089.66,2907.7 L3089.66,2907.7 Z" style="fill:#FFB743;" />
		</g>
		<g transform="matrix(1, 0, 0, 1, -2264.632080078125, -1512.7734375)">
			<path d="M2103.24,3060.73 C2099.88,3097.32 2559.85,3086.05 2814.14,2980.91 C3017.37,2896.89 3091.37,2810.37 3077.09,2789.48 C3064.25,2770.71 2981.81,2882.54 2602.54,2967.92 C2344.96,3025.91 2106.6,3024.13 2103.24,3060.73 L2103.24,3060.73 Z" style="fill:#FFD283;" />
		</g>
		<g transform="matrix(1, 0, 0, 1, -2264.632080078125, -1512.7734375)">
			<path d="M1601.51,3136.79 C1259.3,3092.45 1067.19,2997.16 978.73,2907.7 C901.48,2829.55 910.1,2678.99 919.15,2631.5 C930.19,2573.97 967.22,2544.51 967.22,2544.51 L1394.62,2596.74 C1390.2,2606.83 1386.36,2618.46 1383.84,2631.5 C1374.79,2678.99 1369.01,2926.42 1457.36,3033.97 C1497.7,3083.09 1544.34,3115.59 1601.51,3136.79 L1601.51,3136.79 Z" style="fill:#FF8327;" />
		</g>
		<g transform="matrix(1, 0, 0, 1, -2264.632080078125, -1512.7734375)">
			<path d="M3145.25,2615.14 C3135.47,2632.34 3122.37,2648.28 3104.91,2661.48 C2982.64,2753.88 2665.47,2854.48 2034.22,2854.48 C1402.98,2854.48 1085.75,2753.88 963.53,2661.48 C946.07,2648.28 932.93,2632.29 923.2,2615.09 C937.24,2568.39 967.22,2544.52 967.22,2544.52 L2034.17,2674.83 L2034.22,2674.83 L3101.18,2544.52 C3101.18,2544.51 3131.26,2568.39 3145.25,2615.14 L3145.25,2615.14 Z" style="fill:#FF8327;" />
		</g>
		<g transform="matrix(1, 0, 0, 1, -2264.632080078125, -1512.7734375)">
			<path d="M2034.23,3181.09 C1301.58,3181.09 1042.64,2999.18 965.32,2920.97 C882.43,2837.16 890.48,2681.05 900.58,2627.97 C912.82,2564.26 953.74,2531.09 955.48,2529.71 C959.45,2526.56 964.52,2525.15 969.52,2525.75 L2034.2,2655.8 L3098.88,2525.75 C3103.87,2525.13 3108.94,2526.56 3112.9,2529.7 C3114.64,2531.08 3155.66,2564.25 3167.82,2627.95 C3177.92,2681.04 3185.98,2837.15 3103.09,2920.97 C3025.76,2999.18 2766.82,3181.09 2034.23,3181.09 L2034.23,3181.09 ZM973.71,2564.31 C964.26,2574.11 944.77,2598.08 937.67,2635.06 C929.22,2679.48 921.09,2822.54 992.17,2894.42 C1066.16,2969.26 1315.81,3143.32 2034.23,3143.32 C2752.59,3143.32 3002.24,2969.26 3076.23,2894.42 L3076.23,2894.42 C3147.32,2822.54 3139.18,2679.48 3130.72,2635.03 C3123.67,2598.1 3104.19,2574.15 3094.69,2564.31 L2036.52,2693.57 C2035,2693.76 2033.4,2693.76 2031.89,2693.57 L973.71,2564.31 L973.71,2564.31 Z" style="fill:#512717;" />
		</g>
		<g transform="matrix(1, 0, 0, 1, -2264.632080078125, -1512.7734375)">
			<path d="M1295.6,2697.54 C1295.6,2697.54 1260.55,2730.56 1263.72,2778.09 C1267.48,2834.3 1356.47,2838.34 1378.13,2881.67 C1399.79,2924.99 1360.47,3008.84 1363.38,3092.66 C1363.38,3092.66 1390.34,3131.8 1467.67,3115.56 C1467.67,3115.56 1467.49,3085.43 1457.33,3033.98 C1447.18,2982.54 1441.76,2914.16 1482.38,2883.02 C1523,2851.88 1593.4,2842.41 1603.56,2774.71 C1613.71,2707.01 1295.6,2697.54 1295.6,2697.54 L1295.6,2697.54 Z" style="fill:#FF3B3B;" />
		</g>
		<g transform="matrix(1, 0, 0, 1, -2264.632080078125, -1512.7734375)">
			<path d="M1603.56,2774.7 C1599.19,2803.73 1583.78,2822.03 1564.33,2835.97 C1538.5,2854.54 1505.58,2865.26 1482.39,2883.04 C1441.74,2914.17 1447.15,2982.54 1457.36,3033.97 C1467.51,3085.41 1467.67,3115.54 1467.67,3115.54 C1390.36,3131.79 1363.38,3092.67 1363.38,3092.67 C1360.49,3008.84 1399.77,2925.01 1378.1,2881.67 C1357.65,2840.7 1276.92,2834.87 1265.04,2786.75 C1264.35,2784.01 1263.93,2781.12 1263.72,2778.07 C1260.56,2730.58 1295.59,2697.55 1295.59,2697.55 C1295.59,2697.55 1613.71,2707.02 1603.56,2774.7 L1603.56,2774.7 Z" style="fill:#FF3B3B;" />
		</g>
		<g transform="matrix(1, 0, 0, 1, -2264.632080078125, -1512.7734375)">
			<path d="M1603.56,2774.7 C1599.19,2803.73 1583.78,2822.03 1564.33,2835.97 C1538.5,2854.54 1505.58,2865.26 1482.39,2883.04 C1441.74,2914.17 1447.15,2982.54 1457.36,3033.97 C1467.51,3085.41 1467.67,3115.54 1467.67,3115.54 C1448.84,3119.49 1433.01,3120.17 1419.81,3118.91 C1378.84,3115.07 1363.38,3092.67 1363.38,3092.67 C1360.49,3008.84 1399.77,2925.01 1378.1,2881.67 C1376.47,2878.41 1374.48,2875.41 1372.16,2872.57 C1345.29,2839.49 1275.97,2831.08 1265.04,2786.75 C1264.35,2784.01 1263.93,2781.12 1263.72,2778.07 C1260.56,2730.58 1295.59,2697.55 1295.59,2697.55 C1295.59,2697.55 1613.71,2707.02 1603.56,2774.7 L1603.56,2774.7 Z" style="fill:#FF3B3B;" />
		</g>
		<g opacity="0.5" transform="matrix(1, 0, 0, 1, -2264.632080078125, -1512.7734375)">
			<path d="M1419.81,3118.91 C1378.84,3115.07 1363.38,3092.66 1363.38,3092.66 C1360.49,3008.84 1399.77,2925.01 1378.11,2881.67 C1376.47,2878.41 1374.48,2875.41 1372.16,2872.57 C1379,2869.36 1384,2867 1384,2867 C1384,2867 1415.34,2886.3 1401.93,2974.02 C1392.15,3038.02 1383.21,3085.62 1419.81,3118.91 L1419.81,3118.91 Z" style="fill:#FFFFFF;" />
		</g>
		<g transform="matrix(1, 0, 0, 1, -2264.632080078125, -1512.7734375)">
			<path d="M1603.56,2774.7 C1599.19,2803.73 1583.78,2822.03 1564.33,2835.97 C1441.95,2834.34 1335.71,2809.05 1265.03,2786.75 C1264.35,2784.01 1263.93,2781.12 1263.72,2778.07 C1260.56,2730.58 1295.59,2697.55 1295.59,2697.55 C1295.59,2697.55 1613.71,2707.02 1603.56,2774.7 L1603.56,2774.7 Z" style="fill:#DD2A2A;" />
		</g>
		<g transform="matrix(1, 0, 0, 1, -2264.632080078125, -1512.7734375)">
			<path d="M1432.29,3138.37 C1372.74,3138.37 1348.99,3105.06 1347.82,3103.37 C1345.78,3100.41 1344.63,3096.92 1344.5,3093.31 C1343.15,3054.2 1350.39,3015.62 1356.78,2981.58 C1363.83,2944.06 1370.49,2908.62 1361.24,2890.11 C1354.57,2876.79 1335.62,2867.02 1315.55,2856.69 C1285.33,2841.13 1247.71,2821.76 1244.88,2779.35 C1241.15,2723.57 1280.95,2685.39 1282.65,2683.79 C1286.3,2680.36 1291.25,2678.5 1296.16,2678.66 C1340.88,2679.99 1566.31,2689.43 1612.31,2744.48 C1622.74,2756.96 1623.46,2769.33 1622.23,2777.51 C1613.6,2835.07 1568.31,2857.83 1531.93,2876.11 C1517.74,2883.24 1504.34,2889.98 1493.87,2898.01 C1468.44,2917.51 1462.38,2962.03 1475.86,3030.33 C1486.24,3082.93 1486.54,3114.14 1486.55,3115.45 C1486.6,3124.42 1480.33,3132.19 1471.55,3134.04 C1457.02,3137.09 1443.96,3138.37 1432.29,3138.37 L1432.29,3138.37 ZM1382.11,3085.21 C1389.19,3091.49 1408.76,3104.19 1447.84,3099.7 C1446.72,3086.37 1444.23,3065.13 1438.81,3037.64 C1422.31,2954.07 1433.11,2897 1470.89,2868.04 C1484.2,2857.84 1499.84,2849.97 1514.97,2842.37 C1549.41,2825.06 1579.15,2810.11 1584.88,2771.91 C1584.94,2771.56 1585.06,2770.76 1583.33,2768.7 C1558.23,2738.66 1407.8,2720.54 1303.73,2716.7 C1295.68,2726.59 1280.7,2748.97 1282.56,2776.83 C1283.88,2796.53 1302.43,2807.46 1332.84,2823.11 C1357.42,2835.77 1382.84,2848.86 1395.02,2873.22 C1409.95,2903.1 1402.52,2942.7 1393.9,2988.55 C1388.26,3018.59 1381.92,3052.38 1382.11,3085.21 L1382.11,3085.21 Z" style="fill:#512717;" />
		</g>
		<g transform="matrix(1, 0, 0, 1, -2264.632080078125, -1512.7734375)">
			<path d="M3103.24,2601.06 C2872.61,2794.51 2232.02,2805.48 2034.23,2805.48 C1836.43,2805.48 1195.79,2794.51 965.16,2601.06 C836.04,2492.71 918.5,2246.31 918.5,2246.31 L2034.23,2332.28 L3149.96,2246.31 C3149.96,2246.31 3232.36,2492.71 3103.24,2601.06 L3103.24,2601.06 Z" style="fill:#89522C;" />
		</g>
		<g transform="matrix(1, 0, 0, 1, -2264.632080078125, -1512.7734375)">
			<path d="M3077.69,2572.66 C2852.59,2761.52 2227.29,2772.2 2034.22,2772.2 C1841.16,2772.2 1215.8,2761.52 990.7,2572.66 C929.1,2520.97 941.32,2506.41 990.7,2547.89 C1215.8,2736.7 1841.16,2747.43 2034.22,2747.43 C2227.29,2747.43 2852.59,2736.7 3077.69,2547.89 C3127.13,2506.36 3139.34,2520.92 3077.69,2572.66 L3077.69,2572.66 Z" style="fill:#AA6333;" />
		</g>
		<g transform="matrix(1, 0, 0, 1, -2264.632080078125, -1512.7734375)">
			<path d="M2470.24,2622.85 C2490.43,2640.66 2518,2654.34 2541.73,2636.74 C2548.78,2631.5 2555.17,2623.89 2561.39,2614.98 C2564.62,2676.13 2480.55,2680.28 2470.24,2622.85 L2470.24,2622.85 L2470.24,2622.85 Z" style="fill:#633B20;" />
		</g>
		<g transform="matrix(1, 0, 0, 1, -2264.632080078125, -1512.7734375)">
			<path d="M1912.01,2710.76 C1932.2,2728.56 1959.78,2742.24 1983.5,2724.64 C1990.56,2719.4 1996.95,2711.8 2003.17,2702.89 C2006.39,2764.03 1922.33,2768.18 1912.01,2710.76 L1912.01,2710.76 L1912.01,2710.76 Z" style="fill:#633B20;" />
		</g>
		<g transform="matrix(1, 0, 0, 1, -2264.632080078125, -1512.7734375)">
			<path d="M1817.48,2618.35 C1837.67,2636.16 1865.24,2649.84 1888.97,2632.24 C1896.03,2627 1902.41,2619.4 1908.63,2610.48 C1911.86,2671.63 1827.79,2675.78 1817.48,2618.35 L1817.48,2618.35 L1817.48,2618.35 Z" style="fill:#633B20;" />
		</g>
		<g transform="matrix(1, 0, 0, 1, -2264.632080078125, -1512.7734375)">
			<path d="M2715.05,2655.53 C2735.24,2673.33 2762.82,2687.02 2786.54,2669.42 C2793.6,2664.17 2799.98,2656.57 2806.21,2647.66 C2809.43,2708.8 2725.37,2712.95 2715.05,2655.53 L2715.05,2655.53 L2715.05,2655.53 Z" style="fill:#633B20;" />
		</g>
		<g transform="matrix(1, 0, 0, 1, -2264.632080078125, -1512.7734375)">
			<path d="M2787.44,2507.66 C2807.63,2525.46 2835.21,2539.14 2858.93,2521.54 C2865.99,2516.3 2872.37,2508.7 2878.59,2499.79 C2881.82,2560.93 2797.76,2565.08 2787.44,2507.66 L2787.44,2507.66 L2787.44,2507.66 Z" style="fill:#633B20;" />
		</g>
		<g transform="matrix(1, 0, 0, 1, -2264.632080078125, -1512.7734375)">
			<path d="M2284.89,2698.85 C2305.08,2716.65 2332.66,2730.33 2356.38,2712.74 C2363.44,2707.49 2369.83,2699.89 2376.05,2690.98 C2379.27,2752.12 2295.21,2756.27 2284.89,2698.85 L2284.89,2698.85 L2284.89,2698.85 Z" style="fill:#633B20;" />
		</g>
		<g transform="matrix(1, 0, 0, 1, -2264.632080078125, -1512.7734375)">
			<path d="M1526.27,2679.2 C1546.46,2697 1574.04,2710.68 1597.76,2693.08 C1604.82,2687.84 1611.2,2680.24 1617.42,2671.33 C1620.65,2732.47 1536.59,2736.62 1526.27,2679.2 L1526.27,2679.2 L1526.27,2679.2 Z" style="fill:#633B20;" />
		</g>
		<g transform="matrix(1, 0, 0, 1, -2264.632080078125, -1512.7734375)">
			<path d="M1175.49,2630.47 C1193.39,2650.58 1219.11,2667.48 1244.79,2652.88 C1252.43,2648.52 1259.68,2641.75 1266.93,2633.65 C1262.75,2694.74 1178.81,2688.72 1175.49,2630.47 L1175.49,2630.47 L1175.49,2630.47 Z" style="fill:#633B20;" />
		</g>
		<g transform="matrix(1, 0, 0, 1, -2264.632080078125, -1512.7734375)">
			<path d="M992.58,2541.84 C1012.77,2559.65 1040.35,2573.33 1064.07,2555.73 C1071.13,2550.49 1077.52,2542.89 1083.74,2533.98 C1086.96,2595.12 1002.9,2599.27 992.58,2541.84 L992.58,2541.84 L992.58,2541.84 Z" style="fill:#633B20;" />
		</g>
		<g transform="matrix(1, 0, 0, 1, -2264.632080078125, -1512.7734375)">
			<path d="M3173.65,2453.01 C3155.98,2471.36 3126.84,2463.42 3094.08,2463.58 C3062.21,2463.74 3049.9,2499.34 3048.48,2562.4 C3046.8,2637.39 3011.83,2665.89 2966.02,2667.16 C2902.7,2668.84 2860.47,2622.24 2850.32,2568.76 C2840.17,2515.27 2828.13,2467.15 2791.53,2472.26 C2766.76,2475.67 2736.62,2517.54 2710.48,2559.5 C2683.98,2602.05 2647.74,2597.79 2617.08,2581.12 C2578.85,2560.45 2549.08,2500.18 2490.87,2525.9 C2432.65,2551.62 2435.8,2643.28 2362.18,2662.21 C2300.22,2678.09 2241.01,2603.94 2183.37,2651.69 C2157.44,2673.15 2131.99,2727.11 2067.67,2724.06 C1998.67,2720.75 1964.91,2658.43 1945.45,2629.4 C1908.01,2573.44 1883.92,2591.69 1856.68,2619.51 C1825.96,2650.85 1788.42,2693.24 1713.74,2682.78 C1644.74,2673.05 1618.49,2622.45 1582.58,2598.47 C1529.98,2563.29 1513.05,2591.06 1506.48,2634.97 C1500.27,2676.41 1494.49,2724.22 1486.91,2772.55 C1438.32,2765.97 1389.67,2758.14 1342.34,2748.72 C1336.77,2721.01 1336.61,2688.77 1343.13,2658.16 C1355.91,2598.47 1363.64,2521.27 1309.74,2525.9 C1253.83,2530.74 1236.74,2605.89 1186.78,2602 C1132.72,2597.84 1125.3,2522.06 1117.15,2495.66 C1109.05,2469.26 1085.02,2466.47 1054.57,2508.12 C1030.53,2540.89 1007.03,2595.74 967.48,2602.94 C966.69,2602.31 965.9,2601.68 965.16,2601.05 C881.7,2531 886.65,2403.31 900.58,2321.74 C966.85,2302.92 1141.92,2289.66 1367.06,2280.88 C1807.87,2263.63 2440.54,2263.42 2824.55,2271.41 C3027.29,2275.57 3160.71,2282.04 3159.92,2289.5 C3157.98,2307.65 3164.24,2326.26 3171.39,2345.25 L3171.39,2345.3 C3175.65,2377.96 3177.75,2415.56 3173.65,2453.01 L3173.65,2453.01 Z" style="fill:#633B20;" />
		</g>
		<g transform="matrix(1, 0, 0, 1, -2264.632080078125, -1512.7734375)">
			<path d="M2034.23,2824.37 C1723.42,2824.37 1169.66,2797.24 953.03,2615.53 C815.63,2500.23 897.05,2250.88 900.59,2240.32 C903.34,2232.11 911.29,2226.85 919.94,2227.49 L2034.23,2313.34 L3148.51,2227.49 C3157.18,2226.86 3165.12,2232.11 3167.87,2240.32 C3171.4,2250.88 3252.76,2500.23 3115.37,2615.52 C3115.37,2615.52 3115.37,2615.52 3115.37,2615.53 C2898.74,2797.24 2345.01,2824.37 2034.23,2824.37 L2034.23,2824.37 ZM932.26,2266.31 C917.9,2318.38 876.39,2501.91 977.3,2586.59 C1192.51,2767.11 1788.13,2786.6 2034.23,2786.6 C2280.3,2786.6 2875.89,2767.11 3091.1,2586.59 C3192.01,2501.92 3150.55,2318.4 3136.19,2266.31 L2035.68,2351.11 C2034.71,2351.18 2033.74,2351.18 2032.78,2351.11 L932.26,2266.31 L932.26,2266.31 ZM3103.24,2601.06 L3103.28,2601.06 L3103.24,2601.06 L3103.24,2601.06 Z" style="fill:#512717;" />
		</g>
		<g transform="matrix(1, 0, 0, 1, -2264.632080078125, -1512.7734375)">
			<path d="M872.53,2283.55 C845.24,2335.15 897.54,2380.18 895.27,2440.47 C893.4,2490.05 892.56,2525.9 931.65,2544.49 C994.36,2574.33 1024.08,2497.16 1054.54,2455.52 C1085.01,2413.89 1121.56,2434.71 1129.68,2461.11 C1137.81,2487.51 1131.02,2561.27 1185.08,2565.46 C1235.05,2569.33 1248.46,2510.61 1304.34,2505.79 C1358.25,2501.14 1382.98,2550.99 1370.19,2610.68 C1358,2667.55 1342.05,2724.94 1367.57,2753.58 C1394.49,2785.05 1445.65,2780.05 1465.09,2769.51 C1476.35,2760.96 1482.07,2749.84 1484.66,2734.1 C1493.4,2681.02 1479.61,2649.05 1486.43,2603.58 C1493.02,2559.68 1529.38,2537.21 1571.85,2558.87 C1610.33,2578.49 1638.11,2629.62 1707.13,2639.32 C1781.81,2649.82 1823.49,2609.92 1854.21,2578.56 C1881.45,2550.76 1921.02,2548.35 1945.46,2576.81 C1968.23,2603.32 1994.91,2679.35 2063.89,2682.64 C2128.19,2685.71 2150.33,2636.42 2176.26,2614.95 C2233.92,2567.2 2296.45,2639.95 2358.41,2624.04 C2432.02,2605.13 2425.38,2516.79 2483.6,2491.06 C2541.82,2465.34 2571.74,2520.5 2609.94,2541.19 C2640.64,2557.82 2684.55,2562.08 2711.06,2519.5 C2737.18,2477.54 2767.48,2445.77 2792.3,2442.32 C2828.85,2437.25 2859.31,2468.05 2869.47,2521.53 C2879.62,2575.01 2894.9,2633.02 2958.1,2637.11 C3019.5,2641.09 3046.78,2584.82 3048.49,2509.8 C3049.92,2446.77 3063.02,2424.88 3094.9,2424.72 C3136.02,2424.52 3170.55,2423.34 3184.91,2380.75 C3201.68,2331.01 3155.01,2282.41 3159.9,2236.94 C3163.18,2206.39 920.82,2192.21 872.53,2283.55 L872.53,2283.55 Z" style="fill:#FFCE00;" />
		</g>
		<g transform="matrix(1, 0, 0, 1, -2264.632080078125, -1512.7734375)">
			<path d="M3188.27,2364.66 C3187.79,2370.02 3186.69,2375.38 3184.9,2380.75 C3170.55,2423.35 3136.05,2424.5 3094.92,2424.71 C3063,2424.87 3049.9,2446.75 3048.48,2509.81 C3047.69,2544.15 3041.59,2574.54 3029.23,2597.05 L3023.55,2585.48 C3023.55,2585.48 3036.55,2538.47 3029.45,2477.83 C3022.35,2417.19 3032.86,2376.33 3062.84,2372.02 C3096.5,2367.13 3131.26,2425.98 3188.27,2364.66 L3188.27,2364.66 Z" style="fill:#FF9022;" />
		</g>
		<g transform="matrix(1, 0, 0, 1, -2264.632080078125, -1512.7734375)">
			<path d="M2958.29,2637.13 L2958.13,2637.13 C2894.92,2633.02 2879.61,2575.02 2869.47,2521.53 C2859.31,2468.05 2828.86,2437.23 2792.31,2442.33 C2767.49,2445.75 2737.2,2477.51 2711.06,2519.48 C2684.56,2562.08 2640.64,2557.82 2609.93,2541.2 C2571.75,2520.48 2541.83,2465.31 2483.61,2491.08 C2425.39,2516.8 2432.02,2605.15 2358.39,2624.03 C2296.44,2639.97 2233.91,2567.18 2176.27,2614.93 C2150.34,2636.44 2128.2,2685.72 2063.88,2682.62 C2036.12,2681.3 2015.24,2668.21 1998.67,2651.27 C2026.7,2666.68 2059.47,2676.36 2087.44,2661.9 C2160.02,2624.35 2156.86,2560.5 2204.41,2544.51 C2249.84,2529.16 2268.88,2588.11 2313.43,2602 C2342.93,2611.25 2372.54,2617.98 2404.88,2573.44 C2434.07,2533.21 2418.29,2470.68 2454.95,2442.86 C2510.11,2400.94 2554.6,2433.28 2593.26,2495.66 C2624.34,2545.78 2644.06,2553.24 2671.2,2540.31 C2715.43,2519.27 2693.81,2419.66 2740.62,2393.58 C2793.52,2364.08 2876.67,2403.89 2891.76,2470.99 C2900.18,2508.17 2901.18,2583.17 2958.29,2637.13 L2958.29,2637.13 Z" style="fill:#FF9022;" />
		</g>
		<g transform="matrix(1, 0, 0, 1, -2264.632080078125, -1512.7734375)">
			<path d="M1629.33,2603.89 C1608.35,2587.11 1591.52,2568.86 1571.85,2558.87 C1529.35,2537.2 1493.02,2559.66 1486.44,2603.57 C1485.02,2612.93 1484.5,2621.66 1484.44,2630.13 C1478.4,2605.52 1475.34,2574.18 1480.97,2536.57 C1492.23,2461.53 1563.91,2452.43 1592.78,2505.49 C1611.29,2539.52 1615.24,2571.07 1629.33,2603.89 L1629.33,2603.89 Z" style="fill:#FF9022;" />
		</g>
		<g transform="matrix(1, 0, 0, 1, -2264.632080078125, -1512.7734375)">
			<path d="M1362.33,2661.58 C1361.12,2663.21 1359.85,2664.68 1358.59,2666 C1361.8,2648.22 1366.22,2629.4 1370.21,2610.67 C1382.99,2550.98 1358.28,2501.13 1304.32,2505.81 C1248.47,2510.59 1235.06,2569.34 1185.1,2565.45 C1171.53,2564.39 1161.75,2558.98 1154.65,2550.98 C1170.69,2551.72 1207.45,2548.67 1241.05,2513.07 C1273.24,2479.04 1301.06,2423.35 1349.18,2441.02 C1406.14,2461.9 1421.7,2581.12 1362.33,2661.58 L1362.33,2661.58 Z" style="fill:#FF9022;" />
		</g>
		<g transform="matrix(1, 0, 0, 1, -2264.632080078125, -1512.7734375)">
			<path d="M1173.74,2563.29 C1131.98,2550.25 1137.19,2485.51 1129.67,2461.11 C1121.57,2434.71 1085.02,2413.88 1054.57,2455.53 C1024.06,2497.13 994.35,2574.33 931.66,2544.51 C917.1,2537.57 908.05,2528.26 902.58,2516.69 C924.04,2520.85 959.64,2523.21 984.31,2501.13 C1011.76,2476.57 1037.53,2423.35 1014.44,2376.07 C998.82,2344.09 1128.4,2326.05 1156.86,2389.16 C1182.31,2445.64 1142.45,2505.28 1173.74,2563.29 L1173.74,2563.29 Z" style="fill:#FF9022;" />
		</g>
		<g transform="matrix(1, 0, 0, 1, -2264.632080078125, -1512.7734375)">
			<path d="M3184.64,2330.73 C2729.06,2335.15 2027.03,2573.45 2027.03,2573.45 C1659.93,2414.83 1099.74,2386.11 876.39,2363.66 C866.03,2336.62 858.04,2311.01 872.55,2283.56 C920.83,2192.21 3163.18,2206.41 3159.92,2236.91 C3156.66,2267 3176.02,2298.5 3184.64,2330.73 L3184.64,2330.73 Z" style="fill:#FF9022;" />
		</g>
		<g transform="matrix(1, 0, 0, 1, -2264.632080078125, -1512.7734375)">
			<path d="M1426.15,2796.47 C1401.01,2796.47 1372.87,2788.82 1353.23,2765.85 C1323.94,2732.99 1335.75,2679.4 1348.25,2622.66 C1349.42,2617.36 1350.59,2612.04 1351.73,2606.72 C1357.97,2577.59 1354,2551.48 1341.12,2536.88 C1332.8,2527.44 1320.99,2523.31 1305.97,2524.6 C1284.8,2526.42 1271.44,2538.35 1255.98,2552.15 C1237.75,2568.43 1217.08,2586.89 1183.62,2584.28 C1126.68,2579.87 1119.16,2520.01 1115.12,2487.85 C1114.04,2479.28 1113.03,2471.18 1111.64,2466.66 C1109.21,2458.77 1102.28,2452.17 1095.16,2450.98 C1084.34,2449.17 1074.64,2460.03 1069.79,2466.67 C1064.48,2473.92 1059.05,2482.57 1053.3,2491.73 C1027.96,2532.06 989.71,2593.01 923.54,2561.54 C872.71,2537.37 874.5,2489.95 876.4,2439.76 C877.22,2418.09 869.5,2398.21 861.34,2377.16 C849.51,2346.64 836.1,2312.06 855.84,2274.72 C863.85,2259.57 877.26,2234.21 1234.96,2215.34 C1477.14,2202.57 1782.74,2197.75 1996.46,2195.95 C2500.67,2191.72 3106.32,2199.73 3162.16,2216.8 C3179.57,2222.12 3178.97,2236.19 3178.67,2238.95 C3177,2254.49 3183.95,2272.72 3191.29,2292.01 C3202.1,2320.39 3214.34,2352.55 3202.81,2386.78 C3183.79,2443.17 3134.56,2443.41 3094.99,2443.6 C3083.35,2443.66 3068.88,2443.73 3067.36,2510.23 C3066.09,2566.46 3051.39,2609.02 3024.87,2633.33 C3006.59,2650.08 2983.73,2657.69 2956.89,2655.95 C2874.77,2650.63 2859.25,2568.94 2850.92,2525.05 C2842.85,2482.55 2820.89,2457.41 2794.89,2461.02 C2782.18,2462.79 2756.79,2481.78 2727.1,2529.47 C2693.88,2582.81 2638.39,2578.06 2600.95,2557.79 C2588.39,2550.99 2577.21,2541.48 2566.4,2532.3 C2538.95,2508.98 2520.65,2495.33 2491.23,2508.33 C2470.7,2517.4 2459.89,2537.87 2447.37,2561.57 C2430.45,2593.63 2411.27,2629.95 2363.11,2642.32 C2331.1,2650.55 2300.18,2639.64 2272.9,2630.02 C2235.84,2616.95 2211.91,2609.92 2188.31,2629.49 C2183.13,2633.77 2177.49,2640.15 2171.51,2646.9 C2150.08,2671.1 2120.66,2704.32 2063,2701.5 C2000.3,2698.51 1967.99,2646.47 1946.6,2612.04 C1940.91,2602.88 1935.54,2594.22 1931.14,2589.1 C1923.76,2580.52 1914.36,2575.8 1903.93,2575.46 C1891.56,2575.06 1878.26,2580.99 1867.7,2591.77 C1842.05,2617.96 1800.94,2659.9 1730.89,2659.91 C1722.51,2659.91 1713.73,2659.31 1704.5,2658.01 C1653.73,2650.87 1622.58,2623.57 1597.56,2601.64 C1585.16,2590.77 1574.45,2581.39 1563.27,2575.68 C1549.01,2568.41 1535.98,2567.41 1525.56,2572.77 C1514.95,2578.23 1507.5,2590.47 1505.12,2606.37 C1502.2,2625.78 1503.49,2643.02 1504.86,2661.27 C1506.46,2682.68 1508.27,2706.96 1503.3,2737.16 C1499.83,2758.24 1491.32,2773.3 1476.51,2784.54 C1475.75,2785.13 1474.94,2785.65 1474.09,2786.11 C1463.61,2791.79 1445.79,2796.46 1426.15,2796.47 L1426.15,2796.47 ZM1311.01,2486.61 C1334.4,2486.61 1354.92,2495.43 1369.45,2511.9 C1390.53,2535.79 1397.53,2573.24 1388.65,2614.64 C1387.5,2620.02 1386.32,2625.41 1385.13,2630.78 C1375.22,2675.76 1364.97,2722.27 1381.68,2741.02 C1401.31,2763.97 1440.57,2760.27 1454.86,2753.53 C1460.09,2749.22 1463.99,2743.44 1466.03,2731.03 C1470.27,2705.28 1468.78,2685.27 1467.19,2664.09 C1465.73,2644.56 1464.23,2624.37 1467.76,2600.77 C1471.97,2572.72 1486.74,2550.27 1508.28,2539.19 C1529.65,2528.2 1555.27,2529.22 1580.42,2542.04 C1595.81,2549.89 1608.75,2561.23 1622.46,2573.24 C1645.9,2593.8 1670.15,2615.05 1709.76,2620.62 C1772.13,2629.39 1807.28,2599.48 1840.72,2565.35 C1858.68,2547.03 1882.31,2536.93 1905.17,2537.72 C1926.15,2538.4 1945.55,2547.92 1959.79,2564.51 C1966.08,2571.83 1971.92,2581.23 1978.69,2592.12 C1997.95,2623.14 2021.92,2661.73 2064.8,2663.78 C2104.4,2665.69 2124.16,2643.4 2143.24,2621.86 C2150.21,2613.99 2156.79,2606.56 2164.22,2600.4 C2205.51,2566.21 2249.84,2581.85 2285.46,2594.41 C2309.81,2603 2332.82,2611.11 2353.72,2605.75 C2385.68,2597.54 2398.8,2572.7 2413.98,2543.94 C2427.79,2517.8 2443.43,2488.17 2475.97,2473.79 C2528.53,2450.58 2564.55,2481.18 2590.85,2503.52 C2600.62,2511.82 2609.84,2519.66 2618.94,2524.58 C2630.64,2530.92 2670.71,2548.58 2695.03,2509.51 C2713.55,2479.77 2750.47,2429.07 2789.7,2423.62 C2837.32,2417.01 2875.88,2454.06 2888.02,2518.01 C2899.67,2579.33 2915.07,2615.4 2959.33,2618.27 C2975.73,2619.31 2988.81,2615.15 2999.36,2605.48 C3017.84,2588.55 3028.59,2554.42 3029.61,2509.38 C3030.37,2475.87 3031.96,2406.15 3094.81,2405.84 C3138.74,2405.63 3157.57,2402.75 3167.02,2374.72 C3174.23,2353.33 3165.37,2330.08 3156,2305.45 C3149.28,2287.81 3142.38,2269.7 3140.93,2250.92 C3058.02,2239.33 2570.35,2229.34 2021.59,2233.52 C1236.47,2239.5 921.2,2269.61 888.47,2293.85 C878.42,2314.34 885.04,2333.82 896.56,2363.51 C905.32,2386.1 915.25,2411.71 914.14,2441.19 C912.14,2494 913.83,2515.11 939.76,2527.44 C970.58,2542.1 989.05,2523.02 1021.31,2471.65 C1027.43,2461.91 1033.21,2452.71 1039.3,2444.38 C1062.6,2412.55 1088.2,2411.53 1101.42,2413.74 C1122.52,2417.29 1141.13,2434.09 1147.73,2455.56 C1150.09,2463.22 1151.25,2472.45 1152.59,2483.15 C1157.82,2524.79 1164.24,2544.91 1186.54,2546.63 C1203.11,2547.94 1213.67,2539.31 1230.83,2523.99 C1247.85,2508.79 1269.03,2489.88 1302.72,2486.98 C1305.52,2486.73 1308.29,2486.61 1311.01,2486.61 L1311.01,2486.61 ZM889.23,2292.37 L889.23,2292.37 L889.23,2292.37 L889.23,2292.37 ZM872.53,2283.55 L872.58,2283.55 L872.53,2283.55 L872.53,2283.55 Z" style="fill:#512717;" />
		</g>
		<g transform="matrix(1, 0, 0, 1, -2264.632080078125, -1512.7734375)">
			<path d="M3312.88,2255.48 C3312.88,2255.48 2672.48,2330.62 2034.23,2501.14 C1620.68,2363.04 779.36,2314.38 779.36,2314.38 C756,2261.57 746.85,2211.81 746.85,2211.81 L1513.54,2185.4 L2034.23,2273.5 L2554.92,2185.4 L3312.88,2169.17 C3312.88,2169.17 3321,2206.06 3312.88,2255.48 L3312.88,2255.48 Z" style="fill:#FF9022;" />
		</g>
		<g transform="matrix(1, 0, 0, 1, -2264.632080078125, -1512.7734375)">
			<path d="M2034.23,2520.02 C2032.2,2520.02 2030.18,2519.7 2028.25,2519.05 C1621.83,2383.33 786.66,2333.71 778.27,2333.23 C771.2,2332.82 764.95,2328.49 762.09,2322.01 C738.11,2267.8 728.67,2217.35 728.28,2215.23 C727.29,2209.83 728.69,2204.26 732.14,2199.98 C735.58,2195.7 740.71,2193.13 746.2,2192.94 L1512.89,2166.53 C1514.16,2166.49 1515.43,2166.57 1516.69,2166.79 L2034.23,2254.35 L2551.77,2166.79 C2552.68,2166.63 2553.6,2166.55 2554.52,2166.53 L3312.48,2150.29 C3312.62,2150.29 3312.75,2150.29 3312.89,2150.29 C3321.73,2150.29 3329.42,2156.44 3331.33,2165.11 C3331.69,2166.76 3340.13,2206.15 3331.52,2258.55 C3330.15,2266.86 3323.45,2273.26 3315.08,2274.24 C3308.69,2274.99 2668.64,2351.2 2039.1,2519.38 C2037.5,2519.81 2035.87,2520.02 2034.23,2520.02 L2034.23,2520.02 ZM792.16,2296.25 C895.21,2302.8 1648.56,2354.31 2034.81,2481.44 C2612.51,2327.6 3197.32,2250.86 3296.13,2238.51 C3298.37,2217.69 3297.64,2200.08 3296.53,2188.41 L2556.71,2204.25 L2037.38,2292.12 C2035.29,2292.47 2033.16,2292.47 2031.08,2292.12 L1512.27,2204.34 L770.35,2229.9 C774.57,2246.39 781.64,2270.61 792.16,2296.25 L792.16,2296.25 ZM3312.88,2255.48 L3312.93,2255.48 L3312.88,2255.48 L3312.88,2255.48 Z" style="fill:#512717;" />
		</g>
		<g transform="matrix(1, 0, 0, 1, -2264.632080078125, -1512.7734375)">
			<path d="M3312.88,2169.17 C3312.88,2169.17 2672.48,2244.31 2034.23,2414.83 C1620.68,2276.73 746.85,2211.81 746.85,2211.81 C797.66,2146.85 876.84,2077.8 876.84,2077.8 L1513.54,2099.09 L2034.23,2187.19 L2554.92,2099.09 L3191.56,2077.8 C3191.56,2077.8 3271.25,2111.29 3312.88,2169.17 L3312.88,2169.17 Z" style="fill:#FFCE00;" />
		</g>
		<g transform="matrix(1, 0, 0, 1, -2264.632080078125, -1512.7734375)">
			<path d="M3312.86,2169.18 C3312.86,2169.18 3081.51,2196.31 2758.29,2255 C2543.77,2293.97 2288.81,2346.83 2034.22,2414.83 C1846.42,2352.14 1563.8,2304.49 1311.16,2271.2 C1311.1,2271.2 1311.1,2271.2 1311.1,2271.2 C1176.42,2253.48 1050.31,2239.81 951.59,2230.02 C827.59,2217.82 746.86,2211.83 746.86,2211.83 C765.85,2187.58 788.72,2162.76 810.02,2141.15 C845.73,2104.91 876.81,2077.77 876.81,2077.77 L1513.52,2099.07 L2034.22,2187.16 L2554.92,2099.07 L3191.58,2077.77 C3191.58,2077.77 3271.26,2111.27 3312.86,2169.18 L3312.86,2169.18 Z" style="fill:#FFCE00;" />
		</g>
		<g transform="matrix(1, 0, 0, 1, -2264.632080078125, -1512.7734375)">
			<path d="M3312.86,2169.18 C3312.86,2169.18 3081.51,2196.31 2758.29,2255 C2632.91,2246.85 2543.46,2231.55 2543.46,2231.55 C2543.46,2231.55 2435.8,2361.5 2064.78,2355.29 C1685.5,2348.98 1584.47,2226.6 1584.47,2226.6 C1584.47,2226.6 1487.44,2264.15 1311.16,2271.2 C1311.1,2271.2 1311.1,2271.2 1311.1,2271.2 C1176.42,2253.48 1050.31,2239.81 951.59,2230.02 C887.8,2205.99 840.58,2173.59 810.02,2141.15 C845.73,2104.91 876.81,2077.77 876.81,2077.77 L1513.52,2099.07 L2034.22,2187.16 L2554.92,2099.07 L3191.58,2077.77 C3191.58,2077.77 3271.26,2111.27 3312.86,2169.18 L3312.86,2169.18 Z" style="fill:#FF9022;" />
		</g>
		<g transform="matrix(1, 0, 0, 1, -2264.632080078125, -1512.7734375)">
			<path d="M2655.36,2281.42 C2454.37,2326.82 2237.19,2377.87 2037.5,2428.6 C2034.83,2429.27 2032.16,2429.1 2029.74,2428.26 C1986.26,2413.23 1941.9,2400.19 1897.2,2388.29 C1762.66,2352.8 1625.83,2326.72 1488.55,2303.6 C1484.69,2302.96 1482.09,2299.32 1482.73,2295.46 C1483.36,2291.66 1486.92,2289.08 1490.7,2289.61 C1628.99,2309.3 1767.15,2332.02 1903.26,2364.26 C1948.69,2375.13 1993.93,2387.17 2038.71,2401.39 L2030.57,2401.14 C2183.82,2358.04 2339.45,2323.68 2495.85,2294.28 C2541.17,2286.03 2607.56,2274.21 2652.69,2267.51 C2656.57,2266.91 2660.2,2269.58 2660.79,2273.46 C2661.34,2277.14 2658.93,2280.59 2655.36,2281.42 L2655.36,2281.42 L2655.36,2281.42 Z" style="fill:#512717;" />
		</g>
		<g transform="matrix(1, 0, 0, 1, -2264.632080078125, -1512.7734375)">
			<path d="M1127.04,2258.16 C1041.46,2251.78 877.84,2241.25 792.95,2235.09 C792.95,2235.09 769.15,2233.07 769.15,2233.07 C761.25,2232.23 753.29,2231.58 745.45,2230.64 C740.41,2237.03 731.16,2238.12 724.77,2233.08 C718.39,2228.04 717.29,2218.78 722.33,2212.4 L731.98,2200.18 C761.92,2162.36 794.86,2128.7 829.41,2095.71 C840.9,2084.81 852.35,2074.22 864.43,2063.57 C868.17,2060.27 872.84,2058.75 877.47,2058.92 C880,2059.18 1514.39,2079.9 1516.68,2080.47 C1516.69,2080.47 2037.38,2168.57 2037.38,2168.57 L2031.08,2168.57 C2033.48,2168.3 2552.22,2080.08 2554.29,2080.22 C2554.29,2080.22 3190.93,2058.92 3190.93,2058.92 C3193.68,2058.8 3196.49,2059.36 3198.88,2060.39 C3248.74,2083.44 3294.58,2113.19 3328.21,2158.14 C3337.37,2169.19 3329.6,2187.43 3315.08,2187.92 C3153.4,2200.46 2992.63,2225.46 2832.59,2251.36 C2820.06,2253.05 2817.36,2235.17 2829.34,2232.76 C2984.7,2204.05 3155.33,2176.86 3310.68,2150.42 C3310.68,2150.41 3297.55,2180.19 3297.55,2180.19 C3284.2,2161.74 3266.34,2145.52 3246.84,2131.37 C3227.62,2117.45 3205.85,2104.86 3184.24,2095.21 C3184.24,2095.21 3192.19,2096.67 3192.19,2096.67 C3192.49,2096.55 2547.22,2118.52 2558.06,2117.71 C2558.07,2117.71 2037.37,2205.8 2037.37,2205.8 C2035.26,2206.16 2033.08,2206.14 2031.07,2205.8 L1510.38,2117.71 C1522.16,2118.53 874.14,2096.48 876.2,2096.67 C876.2,2096.67 889.24,2092.03 889.24,2092.03 C877.96,2101.99 866.53,2112.55 855.42,2123.09 C822.38,2154.58 789.8,2187.95 761.72,2223.45 L748.25,2192.98 C779.88,2194.38 812.56,2197.51 843.95,2201.04 C901.84,2208.05 977.87,2217.06 1034.29,2225.29 C1065.96,2229.66 1097.59,2234.46 1129.18,2239.4 C1141.11,2241.65 1138.81,2258.77 1127.04,2258.16 L1127.04,2258.16 L1127.04,2258.16 Z" style="fill:#512717;" />
		</g>
		<g transform="matrix(1, 0, 0, 1, -2264.632080078125, -1512.7734375)">
			<path d="M3265.52,1958.09 C3265.52,1958.09 3265.52,2064.8 3265.52,2075.9 C3265.52,2078.26 3265.31,2080.58 3265,2082.94 C3253.11,2157.83 3052.17,2217.47 2805.99,2217.47 C2552.19,2217.47 2346.45,2154.1 2346.45,2075.9 C2346.45,2061.22 2346.45,1958.09 2346.45,1958.09 C2346.45,1958.09 2467.15,1946.79 2609.77,1939.74 C2673.72,1936.58 2742.09,1934.32 2805.99,1934.32 C3023.87,1934.32 3265.52,1958.09 3265.52,1958.09 L3265.52,1958.09 Z" style="fill:#FF3B27;" />
		</g>
		<g opacity="0.5" transform="matrix(1, 0, 0, 1, -2264.632080078125, -1512.7734375)">
			<path d="M2924.35,2120.36 C2930.17,2112.49 2976.54,2121.29 3105.08,2095.42 C3151.83,2086.01 3095.8,2125 3023.56,2131.07 C2971.47,2135.45 2918.53,2128.22 2924.35,2120.36 L2924.35,2120.36 Z" style="fill:#FFFFFF;" />
		</g>
		<g transform="matrix(1, 0, 0, 1, -2264.632080078125, -1512.7734375)">
			<path d="M3265,2082.94 C3253.11,2157.83 3052.17,2217.47 2805.99,2217.47 C2552.19,2217.47 2346.45,2154.1 2346.45,2075.9 C2346.45,2061.22 2346.45,1958.1 2346.45,1958.1 C2346.45,1958.1 2467.15,1946.79 2609.77,1939.74 L2609.77,2023.72 C2609.77,2084.94 2653.12,2137.43 2713.17,2149.36 C2778.51,2162.35 2872.54,2172.73 2988.69,2162.88 C3141.73,2149.89 3223.77,2111.61 3265,2082.94 L3265,2082.94 Z" style="fill:#D81D13;" />
		</g>
		<g transform="matrix(1, 0, 0, 1, -2264.632080078125, -1512.7734375)">
			<path d="M2806,2236.34 C2574.07,2236.34 2327.57,2180.11 2327.57,2075.89 L2327.57,1958.09 C2327.57,1948.34 2334.99,1940.19 2344.69,1939.29 C2347.23,1939.05 2601.27,1915.44 2806,1915.44 C3022.28,1915.44 3264.96,1939.05 3267.39,1939.29 C3277.06,1940.24 3284.42,1948.37 3284.42,1958.09 L3284.42,2075.89 C3284.42,2180.11 3037.93,2236.34 2806,2236.34 L2806,2236.34 ZM2365.34,1975.36 L2365.34,2075.89 C2365.34,2133.81 2553.79,2198.58 2806,2198.58 C3058.21,2198.58 3246.66,2133.81 3246.66,2075.89 L3246.66,1975.3 C3187.9,1969.99 2987.45,1953.21 2806,1953.21 C2633.64,1953.21 2425.64,1970.12 2365.34,1975.36 L2365.34,1975.36 Z" style="fill:#512717;" />
		</g>
		<g transform="matrix(1, 0, 0, 1, -2264.632080078125, -1512.7734375)">
			<ellipse cx="2806" cy="1958.09" rx="459.54" ry="121.28" style="fill:#D81D13;" />
		</g>
		<g transform="matrix(1, 0, 0, 1, -2264.632080078125, -1512.7734375)">
			<path d="M2806,2098.24 C2568.25,2098.24 2327.57,2050.1 2327.57,1958.09 C2327.57,1866.07 2568.25,1817.93 2806,1817.93 C3043.75,1817.93 3284.42,1866.07 3284.42,1958.09 C3284.42,2050.1 3043.75,2098.24 2806,2098.24 L2806,2098.24 ZM2806,1855.7 C2537,1855.7 2365.33,1916.34 2365.33,1958.09 C2365.33,1999.83 2537,2060.48 2806,2060.48 C3075,2060.48 3246.66,1999.83 3246.66,1958.09 C3246.66,1916.34 3075,1855.7 2806,1855.7 L2806,1855.7 Z" style="fill:#512717;" />
		</g>
		<g transform="matrix(1, 0, 0, 1, -2264.632080078125, -1512.7734375)">
			<path d="M1755.14,2080.8 C1755.14,2158.99 1549.4,2222.37 1295.6,2222.37 C1041.8,2222.37 836.05,2158.99 836.05,2080.8 C836.05,2066.14 836.05,1962.99 836.05,1962.99 C836.05,1962.99 1089.39,1939.23 1295.6,1939.23 C1513.46,1939.23 1755.14,1962.99 1755.14,1962.99 C1755.14,1962.99 1755.14,2069.73 1755.14,2080.8 L1755.14,2080.8 Z" style="fill:#FF3B27;" />
		</g>
		<g opacity="0.5" transform="matrix(1, 0, 0, 1, -2264.632080078125, -1512.7734375)">
			<path d="M965.73,2109.99 C966.48,2132.8 1105.56,2163.29 1198.37,2169.17 C1301.57,2175.71 1356.14,2166.19 1356.14,2156.09 C1356.14,2150.7 1242.53,2145.8 1139.59,2132.57 C1049.52,2121 965.5,2102.88 965.73,2109.99 L965.73,2109.99 Z" style="fill:#FFFFFF;" />
		</g>
		<g transform="matrix(1, 0, 0, 1, -2264.632080078125, -1512.7734375)">
			<path d="M1755.13,1962.97 C1755.13,1962.97 1755.13,2069.73 1755.13,2080.82 C1755.13,2139.67 1638.53,2190.11 1472.56,2211.46 C1495.65,2194.63 1508.42,2176.07 1508.42,2156.61 C1508.42,2145.51 1508.42,2038.8 1508.42,2038.8 C1508.42,2038.8 1460.99,1991.58 1388.57,1940.51 C1576.95,1945.46 1755.13,1962.97 1755.13,1962.97 L1755.13,1962.97 Z" style="fill:#D81D13;" />
		</g>
		<g transform="matrix(1, 0, 0, 1, -2264.632080078125, -1512.7734375)">
			<path d="M1295.6,2241.25 C1063.67,2241.25 817.17,2185.01 817.17,2080.8 L817.17,1962.99 C817.17,1953.25 824.59,1945.1 834.29,1944.19 C836.83,1943.95 1090.87,1920.35 1295.6,1920.35 C1511.89,1920.35 1754.56,1943.96 1756.99,1944.2 C1766.66,1945.15 1774.02,1953.28 1774.02,1962.99 L1774.02,2080.8 C1774.02,2185.02 1527.53,2241.25 1295.6,2241.25 L1295.6,2241.25 ZM854.93,1980.27 L854.93,2080.8 C854.93,2138.71 1043.39,2203.48 1295.6,2203.48 C1547.81,2203.48 1736.26,2138.71 1736.26,2080.8 L1736.26,1980.2 C1677.5,1974.9 1477.06,1958.11 1295.6,1958.11 C1123.24,1958.11 915.24,1975.03 854.93,1980.27 L854.93,1980.27 Z" style="fill:#512717;" />
		</g>
		<g transform="matrix(1, 0, 0, 1, -2264.632080078125, -1512.7734375)">
			<ellipse cx="1295.6" cy="1962.99" rx="459.54" ry="121.28" style="fill:#D81D13;" />
		</g>
		<g transform="matrix(1, 0, 0, 1, -2264.632080078125, -1512.7734375)">
			<path d="M1295.6,2103.15 C1057.85,2103.15 817.17,2055.01 817.17,1962.99 C817.17,1870.98 1057.85,1822.84 1295.6,1822.84 C1533.35,1822.84 1774.02,1870.98 1774.02,1962.99 C1774.02,2055.01 1533.35,2103.15 1295.6,2103.15 L1295.6,2103.15 ZM1295.6,1860.6 C1026.6,1860.6 854.93,1921.24 854.93,1962.99 C854.93,2004.74 1026.6,2065.39 1295.6,2065.39 C1564.6,2065.39 1736.26,2004.74 1736.26,1962.99 C1736.26,1921.24 1564.6,1860.6 1295.6,1860.6 L1295.6,1860.6 Z" style="fill:#512717;" />
		</g>
		<g transform="matrix(1, 0, 0, 1, -2264.632080078125, -1512.7734375)">
			<path d="M2518.27,2168.71 C2518.27,2246.89 2312.52,2310.27 2058.72,2310.27 C1804.92,2310.27 1599.18,2246.89 1599.18,2168.71 C1599.18,2154.05 1599.18,2050.9 1599.18,2050.9 C1599.18,2050.9 1852.51,2027.14 2058.72,2027.14 C2276.58,2027.14 2518.27,2050.9 2518.27,2050.9 C2518.27,2050.9 2518.27,2157.63 2518.27,2168.71 L2518.27,2168.71 Z" style="fill:#FF3B27;" />
		</g>
		<g transform="matrix(1, 0, 0, 1, -2264.632080078125, -1512.7734375)">
			<path d="M2518.27,2050.9 C2518.27,2050.9 2518.27,2066.47 2518.27,2086.35 L2518.27,2168.7 C2518.27,2246.91 2312.53,2310.28 2058.73,2310.28 C1804.93,2310.28 1599.19,2246.91 1599.19,2168.7 L1599.19,2090.76 C1599.19,2068.83 1599.19,2050.9 1599.19,2050.9 C1599.19,2050.9 1852.52,2027.13 2058.73,2027.13 C2276.56,2027.13 2518.27,2050.9 2518.27,2050.9 L2518.27,2050.9 Z" style="fill:#FF3B27;" />
		</g>
		<g opacity="0.5" transform="matrix(1, 0, 0, 1, -2264.632080078125, -1512.7734375)">
			<path d="M1906.06,2247.65 C1910.09,2241.47 1948.8,2248.6 2053.44,2249.52 C2158.92,2250.44 2222.18,2236.52 2223.65,2243.01 C2225.12,2249.51 2149.14,2271.83 2054.97,2271.86 C1984.44,2271.87 1902.04,2253.84 1906.06,2247.65 L1906.06,2247.65 Z" style="fill:#FFFFFF;" />
		</g>
		<g transform="matrix(1, 0, 0, 1, -2264.632080078125, -1512.7734375)">
			<path d="M2518.27,2050.9 C2518.27,2050.9 2518.27,2066.47 2518.27,2086.35 C2499.81,2131.94 2466.78,2182.53 2408.56,2200.63 C2273.98,2242.38 2206.25,2183.01 2075.35,2196 C2001.88,2203.31 1914.84,2238.7 1797.88,2222.35 C1704.32,2209.3 1635.64,2138.41 1599.2,2090.76 C1599.2,2068.83 1599.2,2050.9 1599.2,2050.9 C1599.2,2050.9 1852.52,2027.13 2058.73,2027.13 C2276.56,2027.13 2518.27,2050.9 2518.27,2050.9 L2518.27,2050.9 Z" style="fill:#D81D13;" />
		</g>
		<g transform="matrix(1, 0, 0, 1, -2264.632080078125, -1512.7734375)">
			<path d="M2058.72,2329.16 C1826.79,2329.16 1580.3,2272.92 1580.3,2168.71 L1580.3,2050.9 C1580.3,2041.15 1587.71,2033.01 1597.42,2032.1 C1599.96,2031.86 1854,2008.25 2058.72,2008.25 C2275.01,2008.25 2517.69,2031.86 2520.12,2032.1 C2529.78,2033.06 2537.15,2041.18 2537.15,2050.9 L2537.15,2168.71 C2537.15,2272.92 2290.65,2329.16 2058.72,2329.16 L2058.72,2329.16 ZM1618.06,2068.17 L1618.06,2168.71 C1618.06,2226.62 1806.51,2291.39 2058.72,2291.39 C2310.93,2291.39 2499.38,2226.62 2499.38,2168.71 L2499.38,2068.11 C2440.62,2062.81 2240.18,2046.02 2058.72,2046.02 C1886.36,2046.02 1678.36,2062.93 1618.06,2068.17 L1618.06,2068.17 Z" style="fill:#512717;" />
		</g>
		<g transform="matrix(1, 0, 0, 1, -2264.632080078125, -1512.7734375)">
			<ellipse cx="2058.72" cy="2050.9" rx="459.54" ry="121.28" style="fill:#D81D13;" />
		</g>
		<g transform="matrix(1, 0, 0, 1, -2264.632080078125, -1512.7734375)">
			<ellipse cx="2042.91" cy="2055.87" rx="141.99" ry="54.12" style="fill:#FF514D;" />
		</g>
		<g transform="matrix(1, 0, 0, 1, -2264.632080078125, -1512.7734375)">
			<path d="M2058.72,2191.06 C1820.98,2191.06 1580.3,2142.91 1580.3,2050.9 C1580.3,1958.89 1820.98,1910.74 2058.72,1910.74 C2296.47,1910.74 2537.15,1958.89 2537.15,2050.9 C2537.15,2142.91 2296.47,2191.06 2058.72,2191.06 L2058.72,2191.06 ZM2058.72,1948.51 C1789.72,1948.51 1618.06,2009.15 1618.06,2050.9 C1618.06,2092.65 1789.72,2153.29 2058.72,2153.29 C2327.72,2153.29 2499.38,2092.65 2499.38,2050.9 C2499.38,2009.15 2327.72,1948.51 2058.72,1948.51 L2058.72,1948.51 Z" style="fill:#512717;" />
		</g>
		<g transform="matrix(1, 0, 0, 1, -2264.632080078125, -1512.7734375)">
			<path d="M974.72,1583.83 C974.72,1583.83 919.96,1603.11 859.04,1604.65 C798.11,1606.2 774.97,1688.72 865.21,1763.52 C865.21,1763.52 781.91,1787.43 791.17,1838.33 C800.42,1889.23 858.27,1896.17 890.66,1940.13 C923.05,1984.09 944.64,2029.21 1009.81,2034.6 C1074.97,2040 1116.23,1967.26 1150.17,1962.76 C1184.1,1958.25 1219.45,1965.58 1268.81,2022.14 C1318.16,2078.69 1404.54,2055.04 1479.6,2029.33 C1554.67,2003.63 1601.45,2002.08 1652.35,2039.1 C1703.25,2076.12 1781.4,2138.85 1856.47,2123.42 C1931.53,2108 1989.78,2003.63 2043.17,2003.63 C2096.57,2003.63 2120.28,2114.88 2247.73,2118.79 C2364.95,2122.39 2423.56,2109.54 2453.39,2064.29 C2483.21,2019.05 2519.2,1995.4 2556.21,2007.74 C2593.23,2020.08 2660.07,2099.26 2727.94,2115.19 C2795.8,2131.13 2835.9,2099.77 2858.53,2054.01 C2881.15,2008.25 2933.59,1948.1 3029.22,1990.26 C3124.85,2032.42 3176.27,2040.64 3243.1,1999.51 C3309.94,1958.38 3288.35,1872.01 3265.73,1840.13 C3243.1,1808.25 3212.26,1803.11 3212.26,1803.11 C3212.26,1803.11 3270.75,1739.93 3254.41,1674.58 C3235.91,1600.54 3121.77,1594.37 3053.9,1630.36" style="fill:#63F233;" />
		</g>
		<g transform="matrix(1, 0, 0, 1, -2264.632080078125, -1512.7734375)">
			<path d="M3243.12,2010.03 C3176.28,2051.16 3124.84,2042.95 3029.23,2000.78 C2933.57,1958.6 2881.14,2018.76 2858.53,2064.52 C2835.91,2110.27 2795.79,2141.67 2727.94,2125.73 C2660.05,2109.74 2593.21,2030.6 2556.24,2018.24 C2519.21,2005.93 2483.19,2029.54 2453.37,2074.82 C2423.55,2120.05 2364.96,2132.88 2247.74,2129.31 C2120.26,2125.42 2096.6,2014.14 2043.16,2014.14 C2012.29,2014.14 1979.79,2049 1943.4,2081.45 C1943.35,2081.45 1943.35,2081.5 1943.35,2081.5 C1916.74,2105.12 1888.13,2127.47 1856.47,2133.94 C1815.71,2142.3 1774.06,2127.63 1736.35,2106.54 C1704.59,2088.81 1675.61,2066.57 1652.36,2049.63 C1601.46,2012.61 1554.65,2014.14 1479.6,2039.85 C1404.56,2065.57 1318.15,2089.18 1268.82,2032.65 C1219.44,1976.11 1184.1,1968.75 1150.18,1973.27 C1116.26,1977.8 1074.97,2050.53 1009.81,2045.11 C944.65,2039.69 923.04,1994.62 890.64,1950.66 C858.25,1906.69 800.4,1899.75 791.19,1848.84 C781.94,1797.94 865.19,1774.06 865.19,1774.06 C775,1699.22 798.08,1616.71 859.04,1615.18 C919.93,1613.61 974.73,1594.36 974.73,1594.36 L3053.9,1640.85 C3121.74,1604.88 3235.91,1611.03 3254.43,1685.08 C3270.73,1750.45 3212.25,1813.61 3212.25,1813.61 C3212.25,1813.61 3243.12,1818.76 3265.73,1850.63 C3288.35,1882.5 3309.96,1968.91 3243.12,2010.03 L3243.12,2010.03 Z" style="fill:#63F233;" />
		</g>
		<g transform="matrix(1, 0, 0, 1, -2264.632080078125, -1512.7734375)">
			<path d="M3243.12,2010.04 C3176.28,2051.16 3124.84,2042.96 3029.23,2000.78 C2933.57,1958.6 2881.14,2018.77 2858.53,2064.52 C2835.91,2110.28 2795.79,2141.67 2727.94,2125.74 C2660.05,2109.75 2593.21,2030.6 2556.24,2018.24 C2519.21,2005.94 2483.19,2029.55 2453.37,2074.83 C2448.85,2081.72 2443.64,2087.82 2437.64,2093.24 C2404.35,2123.58 2347.14,2132.36 2247.74,2129.31 C2222.76,2128.58 2201.78,2123.69 2183.79,2116.32 C2109.85,2086.08 2086.13,2014.14 2043.16,2014.14 C2012.29,2014.14 1979.79,2049.01 1943.4,2081.46 C1943.35,2081.46 1943.35,2081.51 1943.35,2081.51 C1916.74,2105.12 1888.13,2127.47 1856.47,2133.94 C1815.71,2142.3 1774.06,2127.63 1736.35,2106.54 C1704.59,2088.82 1675.61,2066.57 1652.36,2049.64 C1601.46,2012.62 1554.65,2014.14 1479.6,2039.86 C1404.56,2065.57 1318.15,2089.19 1268.82,2032.65 C1219.44,1976.12 1184.1,1968.76 1150.18,1973.28 C1116.26,1977.8 1074.97,2050.53 1009.81,2045.12 C944.65,2039.7 923.04,1994.63 890.64,1950.66 C858.25,1906.7 800.4,1899.76 791.19,1848.85 C781.94,1797.94 865.19,1774.06 865.19,1774.06 C775,1699.23 798.08,1616.71 859.03,1615.19 C919.93,1613.61 974.73,1594.36 974.73,1594.36 L3053.9,1640.85 C3121.74,1604.88 3235.91,1611.03 3254.43,1685.08 C3270.73,1750.45 3212.25,1813.61 3212.25,1813.61 C3212.25,1813.61 3243.12,1818.77 3265.73,1850.64 C3288.35,1882.51 3309.96,1968.91 3243.12,2010.04 L3243.12,2010.04 Z" style="fill:#63F233;" />
		</g>
		<g transform="matrix(1, 0, 0, 1, -2264.632080078125, -1512.7734375)">
			<path d="M3243.12,2010.04 C3176.28,2051.16 3124.84,2042.96 3029.23,2000.78 C2984.43,1981.01 2949.09,1983.74 2921.9,1996.89 L2921.85,1996.89 C2890.97,2011.83 2870.52,2040.22 2858.53,2064.52 C2835.91,2110.28 2795.79,2141.67 2727.94,2125.74 C2699.07,2118.95 2670.41,2100.7 2644.11,2081.04 C2644.06,2080.98 2644.06,2080.98 2644.06,2080.98 C2608.56,2054.48 2577.48,2025.34 2556.24,2018.24 C2519.21,2005.94 2483.19,2029.55 2453.37,2074.83 C2448.85,2081.72 2443.64,2087.82 2437.64,2093.24 C2404.35,2123.58 2347.14,2132.36 2247.74,2129.31 C2222.76,2128.58 2201.78,2123.69 2183.79,2116.32 C2109.85,2086.08 2086.13,2014.14 2043.16,2014.14 C2012.29,2014.14 1979.79,2049.01 1943.4,2081.46 C1943.35,2081.46 1943.35,2081.51 1943.35,2081.51 C1916.74,2105.12 1888.13,2127.47 1856.47,2133.94 C1815.71,2142.3 1774.06,2127.63 1736.35,2106.54 C1704.59,2088.82 1675.61,2066.57 1652.36,2049.64 C1601.46,2012.61 1554.65,2014.14 1479.6,2039.86 C1404.56,2065.57 1318.15,2089.19 1268.82,2032.65 C1219.44,1976.12 1184.1,1968.75 1150.18,1973.28 C1116.26,1977.8 1074.97,2050.53 1009.81,2045.12 C944.65,2039.7 923.04,1994.63 890.64,1950.66 C858.25,1906.7 800.4,1899.75 791.19,1848.85 C781.94,1797.94 865.19,1774.06 865.19,1774.06 C775,1699.23 798.08,1616.71 859.03,1615.19 C919.93,1613.61 974.73,1594.36 974.73,1594.36 L3053.9,1640.85 C3121.74,1604.88 3235.91,1611.03 3254.43,1685.08 C3270.73,1750.45 3212.25,1813.61 3212.25,1813.61 C3212.25,1813.61 3243.12,1818.77 3265.73,1850.64 C3288.35,1882.51 3309.96,1968.91 3243.12,2010.04 L3243.12,2010.04 Z" style="fill:#63F233;" />
		</g>
		<g transform="matrix(1, 0, 0, 1, -2264.632080078125, -1512.7734375)">
			<path d="M3243.12,2010.04 C3176.28,2051.16 3124.84,2042.96 3029.23,2000.78 C2984.43,1981.01 2949.09,1983.74 2921.9,1996.89 L2921.85,1996.89 C2890.97,2011.83 2870.52,2040.22 2858.53,2064.52 C2835.91,2110.28 2795.79,2141.67 2727.94,2125.74 C2699.07,2118.95 2670.41,2100.7 2644.11,2081.04 C2644.06,2080.98 2644.06,2080.98 2644.06,2080.98 C2608.56,2054.48 2577.48,2025.34 2556.24,2018.24 C2519.21,2005.94 2483.19,2029.55 2453.37,2074.83 C2448.85,2081.72 2443.64,2087.82 2437.64,2093.24 C2404.35,2123.58 2347.14,2132.36 2247.74,2129.31 C2222.76,2128.58 2201.78,2123.69 2183.79,2116.32 C2109.85,2086.08 2086.13,2014.14 2043.16,2014.14 C2012.29,2014.14 1979.79,2049.01 1943.4,2081.46 C1943.35,2081.46 1943.35,2081.51 1943.35,2081.51 C1916.74,2105.12 1888.13,2127.47 1856.47,2133.94 C1815.71,2142.3 1774.06,2127.63 1736.35,2106.54 C1704.59,2088.82 1675.61,2066.57 1652.36,2049.64 C1601.46,2012.61 1554.65,2014.14 1479.6,2039.86 C1404.56,2065.57 1318.15,2089.19 1268.82,2032.65 C1219.44,1976.12 1184.1,1968.75 1150.18,1973.28 C1116.26,1977.8 1074.97,2050.53 1009.81,2045.12 C944.65,2039.7 923.04,1994.63 890.64,1950.66 C858.25,1906.7 800.4,1899.75 791.19,1848.85 C781.94,1797.94 865.19,1774.06 865.19,1774.06 C775,1699.23 798.08,1616.71 859.03,1615.19 C919.93,1613.61 974.73,1594.36 974.73,1594.36 L2820.71,1635.65 L3053.9,1640.85 C3086.87,1623.39 3130.73,1615.87 3169.28,1621.24 C3210.09,1626.86 3244.91,1647.01 3254.43,1685.08 C3270.73,1750.45 3212.25,1813.61 3212.25,1813.61 C3212.25,1813.61 3243.12,1818.77 3265.73,1850.64 C3267.63,1853.32 3269.52,1856.37 3271.41,1859.79 C3291.35,1896.71 3304.34,1972.38 3243.12,2010.04 L3243.12,2010.04 Z" style="fill:#63F233;" />
		</g>
		<g opacity="0.7" transform="matrix(1, 0, 0, 1, -2264.632080078125, -1512.7734375)">
			<path d="M3191.24,1656.17 C3212.27,1657.56 3230.99,1683.08 3223.41,1705.35 C3220.8,1713.04 3211.81,1692.36 3204.37,1681.9 C3193.46,1666.57 3172.1,1654.9 3191.24,1656.17 L3191.24,1656.17 Z" style="fill:#FFFFFF;" />
		</g>
		<g opacity="0.7" transform="matrix(1, 0, 0, 1, -2264.632080078125, -1512.7734375)">
			<path d="M3079.87,1969.85 C3077.16,1980.22 3151.51,2005.74 3215.68,1977.28 C3275.59,1950.7 3246.3,1886.33 3241.97,1886.33 C3237.64,1886.33 3251.25,1937.67 3203.92,1959.95 C3147.86,1986.35 3081.73,1962.76 3079.87,1969.85 L3079.87,1969.85 Z" style="fill:#FFFFFF;" />
		</g>
		<g transform="matrix(1, 0, 0, 1, -2264.632080078125, -1512.7734375)">
			<path d="M3271.41,1859.79 C3221.24,1822.71 3225.34,1871.73 3156.61,1887.87 C3035.6,1916.32 2961.97,1812.19 2813.19,1880.46 L2740.62,1682.14 L2820.71,1635.65 L3053.9,1640.85 C3086.87,1623.39 3130.73,1615.87 3169.28,1621.24 C3173.18,1682.45 3128.47,1745.72 3168.13,1751.92 C3227.13,1761.18 3254.43,1685.08 3254.43,1685.08 C3270.73,1750.45 3212.25,1813.61 3212.25,1813.61 C3212.25,1813.61 3243.12,1818.77 3265.73,1850.64 C3267.63,1853.32 3269.52,1856.37 3271.41,1859.79 L3271.41,1859.79 Z" style="fill:#48C928;" />
		</g>
		<g transform="matrix(1, 0, 0, 1, -2264.632080078125, -1512.7734375)">
			<path d="M2921.85,1996.89 C2890.97,2011.83 2870.52,2040.22 2858.53,2064.52 C2835.91,2110.27 2795.79,2141.67 2727.94,2125.74 C2699.07,2118.95 2670.41,2100.7 2644.11,2081.04 C2646.27,2082.09 2701.49,2109.33 2722.89,2075.04 C2747.93,2034.86 2622.03,1996.89 2567.12,1891.45 C2523.16,1806.99 2680.19,1777.43 2680.19,1777.43 L2904.75,1784.85 C2904.75,1784.85 2768.54,1926 2775.38,1996.89 C2782.16,2067.73 2859.74,2001.05 2921.85,1996.89 L2921.85,1996.89 Z" style="fill:#48C928;" />
		</g>
		<g transform="matrix(1, 0, 0, 1, -2264.632080078125, -1512.7734375)">
			<path d="M2419.19,1980.96 C2397.31,2021.03 2335.72,2105.97 2437.64,2093.24 C2404.35,2123.58 2347.14,2132.36 2247.74,2129.31 C2222.76,2128.58 2201.78,2123.69 2183.79,2116.32 C2183.16,2111.12 2183.53,2105.54 2184.89,2099.49 C2234.07,2115.69 2314.9,2091.39 2223.65,2030.71 C2109.27,1954.71 2103.22,1816.4 2103.22,1816.4 L2379.79,1735.67 L2535.73,1873.93 C2535.73,1873.93 2450.79,1923.16 2419.19,1980.96 L2419.19,1980.96 Z" style="fill:#48C928;" />
		</g>
		<g transform="matrix(1, 0, 0, 1, -2264.632080078125, -1512.7734375)">
			<path d="M1943.35,2070.99 C1916.74,2094.6 1888.13,2116.95 1856.47,2123.42 C1815.71,2131.79 1774.06,2117.11 1736.35,2096.02 C1716.58,2044.64 1686.97,1985.69 1603.61,1929.31 L1755.13,1888.19 L1936.3,1929.31 C1936.3,1929.31 1889.7,1990.84 1856.84,2006.72 C1838.48,2015.56 1823.44,2013.35 1811.55,2008.93 C1801.25,2005.09 1773.48,2007 1797.44,2041.47 C1821.54,2076.15 1896.96,2089.82 1943.35,2070.99 L1943.35,2070.99 Z" style="fill:#48C928;" />
		</g>
		<g transform="matrix(1, 0, 0, 1, -2264.632080078125, -1512.7734375)">
			<path d="M1187.25,1839.38 C1113,1843.33 1046.52,1856 1005.55,1931.1 C994.67,1951.08 962.64,2031.29 1073.13,2026.45 L1073.08,2026.5 C1054.67,2038.44 1033.9,2047.12 1009.81,2045.12 C944.65,2039.7 923.04,1994.63 890.64,1950.66 C874.81,1929.15 852.88,1916.53 833.53,1903.23 C835.32,1894.55 843.26,1890.66 855.93,1893.5 C924.14,1908.85 956.38,1890.82 978.36,1865.36 C1023.86,1812.82 1012.76,1740.62 1012.76,1740.62 L1154.75,1740.62 C1154.75,1740.62 1261.46,1835.44 1187.25,1839.38 L1187.25,1839.38 Z" style="fill:#48C928;" />
		</g>
		<g transform="matrix(1, 0, 0, 1, -2264.632080078125, -1512.7734375)">
			<path d="M1059.14,1774.06 C1059.14,1774.06 831.74,1784.69 792.83,1855.58 C792.14,1853.42 791.62,1851.16 791.19,1848.85 C781.94,1797.94 865.19,1774.06 865.19,1774.06 C831.37,1745.98 813.44,1716.79 807.5,1691.23 C823.49,1703.91 845.84,1714.32 875.39,1712.8 C923.46,1710.27 922.41,1648.22 916.83,1608.98 C926.09,1607.25 934.66,1605.41 942.13,1603.62 L1012.76,1662.68 L1059.14,1774.06 L1059.14,1774.06 Z" style="fill:#48C928;" />
		</g>
		<g transform="matrix(1, 0, 0, 1, -2264.632080078125, -1512.7734375)">
			<path d="M1832.72,2155.19 C1764.14,2155.2 1697.87,2106.48 1652.2,2072.91 C1648.42,2070.14 1644.77,2067.45 1641.25,2064.89 C1598.48,2033.78 1560.68,2032.05 1485.72,2057.72 C1426.5,2078 1316.27,2115.75 1254.58,2045.07 C1206.5,1989.99 1176.75,1988.79 1152.65,1991.99 C1144.97,1993.02 1130.99,2004.78 1118.65,2015.15 C1092.19,2037.41 1056.1,2067.88 1008.25,2063.94 C943.37,2058.57 915.37,2018.57 888.3,1979.88 C884.12,1973.92 879.89,1967.88 875.45,1961.85 C864,1946.31 848.5,1935.98 832.09,1925.03 C807.42,1908.58 779.45,1889.93 772.59,1852.23 C765.22,1811.68 798.01,1783.33 830.44,1767.37 C786.63,1720.86 780.44,1674.66 790.88,1644.54 C800.91,1615.58 826.85,1597.1 858.56,1596.3 C915.59,1594.85 967.94,1576.72 968.46,1576.54 C978.29,1573.09 989.07,1578.26 992.52,1588.09 C995.98,1597.93 990.82,1608.7 980.99,1612.16 C978.64,1612.99 922.69,1632.45 859.51,1634.05 C843.46,1634.46 831.46,1642.79 826.57,1656.9 C819.05,1678.62 827.81,1718.51 877.25,1759.51 C882.65,1763.98 885.12,1771.06 883.68,1777.91 C882.25,1784.76 877.14,1790.26 870.41,1792.19 C869.78,1792.38 803.85,1813.07 809.75,1845.47 C813.54,1866.34 828.67,1877.36 853.05,1893.61 C870.59,1905.31 890.48,1918.57 905.86,1939.45 C910.48,1945.72 914.89,1952.02 919.24,1958.23 C944.33,1994.08 964.15,2022.39 1011.37,2026.3 C1043.52,2028.99 1070.53,2006.27 1094.35,1986.25 C1112.99,1970.57 1129.09,1957.03 1147.69,1954.55 C1196.72,1948.05 1237.17,1967.7 1283.03,2020.24 C1324.56,2067.81 1403.11,2046.08 1473.49,2021.99 C1546.08,1997.12 1603.19,1990.51 1663.46,2034.35 C1667.03,2036.94 1670.73,2039.67 1674.56,2042.48 C1723.72,2078.61 1791.05,2128.11 1852.67,2115.44 C1885.91,2108.61 1917.05,2080.09 1947.18,2052.52 C1979.34,2023.07 2009.71,1995.26 2043.18,1995.26 C2072.49,1995.26 2093.01,2017 2114.73,2040.02 C2144.94,2072.03 2179.18,2108.32 2248.31,2110.44 C2361.9,2113.92 2413.21,2101.45 2437.61,2064.42 C2474.41,2008.58 2518.66,1985.83 2562.19,2000.34 C2580.24,2006.36 2601.06,2023.01 2625.16,2042.28 C2656.62,2067.45 2695.79,2098.77 2732.25,2107.33 C2782.9,2119.22 2818.69,2102.49 2841.6,2056.16 C2881.94,1974.56 2954.93,1947.39 3036.84,1983.5 C3134.42,2026.52 3176.63,2028.77 3233.2,1993.95 C3251.53,1982.67 3262.97,1966.39 3267.22,1945.56 C3274.16,1911.5 3260.54,1875.97 3250.33,1861.58 C3232.88,1837 3209.93,1832.41 3208.96,1832.22 C3202.21,1830.94 3196.58,1826.08 3194.43,1819.56 C3192.28,1813.04 3193.73,1805.84 3198.4,1800.8 C3198.89,1800.27 3249.71,1744.13 3236.1,1689.67 C3231.55,1671.48 3219.09,1657.73 3199.06,1648.81 C3161.94,1632.27 3103.34,1636.03 3062.75,1657.56 C3053.54,1662.44 3042.11,1658.94 3037.22,1649.72 C3032.33,1640.51 3035.84,1629.08 3045.06,1624.19 C3096.55,1596.88 3166.2,1592.82 3214.43,1614.31 C3245.17,1628 3265.33,1650.89 3272.73,1680.51 C3285.35,1730.99 3260.63,1778.82 3242.58,1805.26 C3254.73,1811.9 3268.99,1822.62 3281.12,1839.72 C3298.41,1864.07 3313.01,1909.95 3304.22,1953.1 C3297.9,1984.13 3280.19,2009.38 3252.99,2026.11 C3177.36,2072.65 3118.11,2060.6 3021.6,2018.05 C2940.81,1982.45 2897.54,2028.22 2875.46,2072.89 C2844.93,2134.64 2791,2159.91 2723.62,2144.09 C2678.86,2133.58 2636.01,2099.31 2601.57,2071.77 C2581.18,2055.46 2561.91,2040.06 2550.24,2036.17 C2517.18,2025.15 2487.9,2056.75 2469.15,2085.2 C2431.6,2142.17 2356.33,2151.53 2247.15,2148.18 C2162.43,2145.58 2118.98,2099.55 2087.26,2065.94 C2069.91,2047.55 2056.2,2033.02 2043.18,2033.02 C2024.39,2033.02 1998.1,2057.09 1972.68,2080.37 C1940.35,2109.96 1903.72,2143.5 1860.27,2152.43 C1851.07,2154.33 1841.87,2155.19 1832.72,2155.19 L1832.72,2155.19 Z" style="fill:#512717;" />
		</g>
		<g transform="matrix(1, 0, 0, 1, -2264.632080078125, -1512.7734375)">
			<path d="M860.81,1755.68 C886.29,1753.05 911.7,1740.46 926.91,1719.33 C928.93,1716.22 933.19,1715.37 936.15,1717.67 C938.4,1719.4 939.16,1722.37 938.2,1724.9 C927.2,1756.24 900.01,1780.05 869.6,1792.41 C869.6,1792.41 865.17,1793.97 865.17,1793.97 C854.87,1797.6 843.58,1792.19 839.95,1781.89 C834.87,1768.52 846.77,1753.78 860.81,1755.68 L860.81,1755.68 L860.81,1755.68 Z" style="fill:#512717;" />
		</g>
		<g transform="matrix(1, 0, 0, 1, -2264.632080078125, -1512.7734375)">
			<path d="M3123,1807.58 C3145.42,1801.21 3168.02,1797.2 3191.29,1795.56 C3199.13,1794.95 3207.09,1794.88 3215.16,1794.97 C3225.7,1795.09 3234.15,1803.72 3234.03,1814.26 C3233.91,1824.8 3225.28,1833.25 3214.74,1833.13 C3206,1832.25 3198.06,1828.38 3189.21,1826.96 C3168.32,1822.42 3146.41,1820.13 3125.01,1820.01 C3117.61,1820.25 3115.93,1809.63 3123,1807.58 L3123,1807.58 L3123,1807.58 Z" style="fill:#512717;" />
		</g>
		<g transform="matrix(1, 0, 0, 1, -2264.632080078125, -1512.7734375)">
			<path d="M2043.17,949.38 C2813.35,949.38 3090.68,1338.67 3137.78,1518.54 C3180.45,1681.52 3098.48,1812.37 2861.68,1888.72 C2579.42,1979.72 2043.17,1961.21 2043.17,1961.21 C2043.17,1961.21 1506.92,1979.72 1224.66,1888.72 C987.86,1812.37 905.89,1681.52 948.57,1518.54 C995.66,1338.67 1272.99,949.38 2043.17,949.38 L2043.17,949.38 Z" style="fill:#FFB743;" />
		</g>
		<g transform="matrix(1, 0, 0, 1, -2264.632080078125, -1512.7734375)">
			<path d="M2043.17,949.38 C2813.35,949.38 3090.68,1338.67 3137.78,1518.54 C3180.45,1681.52 3098.48,1812.37 2861.68,1888.72 C2579.42,1979.72 2043.17,1961.21 2043.17,1961.21 C2043.17,1961.21 1506.92,1979.72 1224.66,1888.72 C987.86,1812.37 905.89,1681.52 948.57,1518.54 C995.66,1338.67 1272.99,949.38 2043.17,949.38 L2043.17,949.38 Z" style="fill:#FFAB31;" />
		</g>
		<g transform="matrix(1, 0, 0, 1, -2264.632080078125, -1512.7734375)">
			<path d="M2861.69,1888.69 C2579.43,1979.71 2043.15,1961.23 2043.15,1961.23 C2043.15,1961.23 1506.92,1979.71 1224.66,1888.69 C987.86,1812.35 905.9,1681.53 948.56,1518.52 C976.49,1411.94 1085.23,1231.81 1329.54,1102.69 C1497.46,1013.98 1729.4,949.4 2043.15,949.4 C2299.38,949.4 2501.08,992.5 2657.88,1056.63 C2972.38,1185.25 3106.35,1398.52 3137.79,1518.52 C3180.45,1681.53 3098.49,1812.35 2861.69,1888.69 L2861.69,1888.69 Z" style="fill:#FFAB31;" />
		</g>
		<g transform="matrix(1, 0, 0, 1, -2264.632080078125, -1512.7734375)">
			<path d="M3052.11,1791.68 C3006.09,1829.86 2943.04,1862.47 2861.68,1888.71 C2579.43,1979.69 2043.16,1961.23 2043.16,1961.23 C2043.16,1961.23 1506.95,1979.69 1224.65,1888.71 C987.88,1812.35 905.9,1681.5 948.55,1518.53 C985.78,1376.38 1166.8,1103.43 1621.33,995.2 C1400.3,1068.57 1257.96,1283.71 1246.63,1412.39 C1228.07,1623.1 1370.99,1737.56 1599.19,1821.29 C2033.52,1980.65 2684.14,1907.59 3052.11,1791.68 L3052.11,1791.68 Z" style="fill:#FF8327;" />
		</g>
		<g transform="matrix(1, 0, 0, 1, -2264.632080078125, -1512.7734375)">
			<path d="M2162.98,1981.78 C2096.34,1981.78 2051.43,1980.38 2043.17,1980.1 C2013.17,1981.11 1498.68,1996.9 1218.87,1906.69 C920.52,1810.5 897.27,1639.92 930.3,1513.75 C942.67,1466.49 999.69,1300.68 1213.9,1151.03 C1423.36,1004.7 1702.37,930.5 2043.17,930.5 C2383.97,930.5 2662.98,1004.7 2872.44,1151.03 C3086.65,1300.68 3143.67,1466.49 3156.04,1513.75 C3189.08,1639.91 3165.83,1810.49 2867.48,1906.69 C2664.66,1972.08 2338.52,1981.78 2162.98,1981.78 L2162.98,1981.78 ZM2043.17,968.27 C1306.75,968.27 1017.1,1331.34 966.83,1523.32 C924.79,1683.9 1013.49,1800.79 1230.46,1870.74 C1506.38,1959.71 2037.21,1942.53 2042.52,1942.34 C2042.95,1942.32 2043.39,1942.32 2043.82,1942.34 C2049.17,1942.52 2580.04,1959.68 2855.89,1870.74 C3072.86,1800.79 3161.56,1683.9 3119.51,1523.32 C3069.24,1331.34 2779.6,968.27 2043.17,968.27 L2043.17,968.27 Z" style="fill:#512717;" />
		</g>
		<g transform="matrix(1, 0, 0, 1, -2264.632080078125, -1512.7734375)">
			<path d="M1020.02,1892.63 C1020.02,1892.63 1089.74,1825.61 1172.33,1829 C1265.8,1832.83 1323.3,1945.43 1374.74,1951.53 C1426.19,1957.62 1483.06,1908.2 1548.72,1912.94 C1614.39,1917.68 1665.16,1994.85 1685.47,1996.88 L1551.04,1981.61 L1345.62,2015.02 L1210.21,1921.95 L1020.02,1892.63 L1020.02,1892.63 Z" style="fill:#63F233;" />
		</g>
		<g opacity="0.7" transform="matrix(1, 0, 0, 1, -2264.632080078125, -1512.7734375)">
			<path d="M1685.44,1996.89 L1674.29,1995.63 C1628.01,1974.64 1588.52,1944.3 1537.61,1943.88 C1471.77,1943.35 1415.08,1988.58 1363.59,1982.48 C1312.16,1976.38 1254.67,1863.78 1161.22,1859.94 C1119.52,1858.21 1066.93,1875.72 1025.07,1893.44 L1020.02,1892.65 C1020.02,1892.65 1089.75,1825.6 1172.32,1829.02 C1265.77,1832.81 1323.31,1945.45 1374.74,1951.5 C1426.17,1957.6 1483.07,1908.22 1548.71,1912.95 C1614.39,1917.69 1665.14,1994.84 1685.44,1996.89 L1685.44,1996.89 Z" style="fill:#FFFFFF;" />
		</g>
		<g transform="matrix(1, 0, 0, 1, -2264.632080078125, -1512.7734375)">
			<path d="M1016.75,1889.23 C1062.25,1843.14 1127.75,1808.16 1194.16,1818.82 C1260.02,1830.57 1303.5,1887.18 1353.44,1925.09 C1360.59,1929.97 1366.72,1933.63 1374.07,1935.32 C1392.48,1937.87 1409.59,1932.74 1428.63,1926.3 C1457.1,1916.22 1487.53,1902.55 1522.05,1898.98 C1576.04,1891.5 1620.65,1924.12 1654.67,1961.71 C1662.64,1969.56 1676.16,1987.09 1685.94,1992.18 C1688.74,1992.86 1690.9,1995.73 1689.7,1998.62 C1684.9,2007.67 1666.05,1993.41 1660.95,1990.02 C1620.86,1960.27 1579.24,1919.24 1525.45,1928.23 C1473.47,1933.59 1415.24,1981.02 1359.67,1964.06 C1334.87,1954.4 1316.34,1935.23 1298.24,1918.41 C1237.57,1858.99 1190.13,1821.28 1102.99,1851.78 C1074.73,1861.86 1047.33,1877.2 1023.29,1896.03 C1021.27,1897.8 1018.11,1897.53 1016.45,1895.39 C1014.99,1893.52 1015.16,1890.9 1016.75,1889.23 L1016.75,1889.23 L1016.75,1889.23 Z" style="fill:#512717;" />
		</g>
		<g transform="matrix(1, 0, 0, 1, -2264.632080078125, -1512.7734375)">
			<path d="M1817.48,2009.07 C1817.48,2009.07 1848.36,2024.47 1886.95,1982.58 C1920.48,1946.18 1956.35,1890.73 2034.21,1894.66 C2131.42,1899.57 2184.39,2023.28 2223.65,2030.73 C2223.65,2030.73 2126.65,1986.22 2039.21,1986.22 C1993.65,1986.22 1912.57,2028.26 1867.2,2034.2 C1825.47,2039.66 1817.48,2009.07 1817.48,2009.07 L1817.48,2009.07 Z" style="fill:#63F233;" />
		</g>
		<g opacity="0.7" transform="matrix(1, 0, 0, 1, -2264.632080078125, -1512.7734375)">
			<path d="M2212.56,2025.97 C2206.56,2023.5 2198.31,2020.24 2188.42,2016.66 C2188.37,2016.66 2188.37,2016.66 2188.37,2016.66 C2137.93,1980.43 2104.59,1919.79 2034.22,1916.22 C1956.34,1912.27 1926.9,1974.65 1886.97,2004.15 C1858.74,2025 1836.17,2022.45 1818.97,2012.88 C1818.02,2010.88 1817.61,2009.51 1817.55,2009.14 C1819.13,2009.88 1849.37,2023.34 1886.97,1982.58 C1920.47,1946.19 1956.34,1890.71 2034.22,1894.65 C2122.58,1899.12 2174.38,2001.78 2212.56,2025.97 L2212.56,2025.97 Z" style="fill:#FFFFFF;" />
		</g>
		<g opacity="0.5" transform="matrix(1, 0, 0, 1, -2264.632080078125, -1512.7734375)">
			<path d="M2223.65,2030.71 C2220.08,2030.02 2216.4,2028.39 2212.56,2025.97 C2219.66,2028.87 2223.65,2030.71 2223.65,2030.71 L2223.65,2030.71 Z" style="fill:#FFFFFF;" />
		</g>
		<g transform="matrix(1, 0, 0, 1, -2264.632080078125, -1512.7734375)">
			<path d="M1819.23,2005.55 C1840.2,2011.27 1861,1997.93 1875.12,1983.13 C1901.33,1953.55 1923.95,1919 1959.9,1899.71 C1999.25,1877.55 2050.28,1877.22 2090.01,1898.38 C2138.35,1923.81 2167.94,1969.45 2202.27,2009.48 C2208.68,2016.33 2215.72,2024.06 2224.52,2026.9 C2228.91,2028.17 2227.83,2035.21 2222.92,2034.59 C2200.85,2030.08 2186.23,2010.88 2170.89,1996.33 C2143.09,1967.44 2115.35,1936.55 2079.62,1918.85 C2050.96,1904.2 2017.05,1902.65 1986.76,1912.53 C1972.18,1917.84 1958.56,1925.33 1946.46,1935.36 C1907.42,1963.81 1873.24,2034.66 1815.72,2012.59 C1811.22,2010.16 1814.4,2003.45 1819.23,2005.55 L1819.23,2005.55 L1819.23,2005.55 Z" style="fill:#512717;" />
		</g>
		<g transform="matrix(1, 0, 0, 1, -2264.632080078125, -1512.7734375)">
			<path d="M2416.25,1986.22 C2416.25,1986.22 2455.37,1908.47 2527.68,1906.68 C2593.75,1905.03 2613.14,1968.47 2644.04,1982.94" style="fill:#63F233;" />
		</g>
		<g transform="matrix(1, 0, 0, 1, -2264.632080078125, -1512.7734375)">
			<path d="M2644.06,1982.95 L2416.24,1986.21 C2416.24,1986.21 2416.56,1985.64 2417.14,1984.53 C2423.34,1973.17 2461.68,1908.33 2527.68,1906.7 C2584.95,1905.22 2607.2,1952.82 2632.23,1974.91 C2636.07,1978.27 2639.96,1981.06 2644.06,1982.95 L2644.06,1982.95 Z" style="fill:#63F233;" />
		</g>
		<g opacity="0.7" transform="matrix(1, 0, 0, 1, -2264.632080078125, -1512.7734375)">
			<path d="M2632.23,1974.91 C2609.96,1974.49 2581.12,1933.38 2535.73,1931.18 C2484.67,1928.71 2440.43,1971.4 2417.13,1984.53 C2423.34,1973.17 2461.68,1908.33 2527.68,1906.7 C2584.95,1905.23 2607.2,1952.82 2632.23,1974.91 L2632.23,1974.91 Z" style="fill:#FFFFFF;" />
		</g>
		<g transform="matrix(1, 0, 0, 1, -2264.632080078125, -1512.7734375)">
			<path d="M2412.03,1984.1 C2433.33,1922.47 2503.08,1872.21 2568.46,1900.54 C2593.1,1911.08 2610.02,1932.6 2624.38,1953.14 C2631.21,1962.84 2637.69,1972.05 2646.05,1978.66 C2648.4,1980.19 2649.09,1983.44 2647.29,1985.67 C2640.26,1993.24 2615.8,1970.54 2610.31,1965.4 C2594.11,1949.78 2578.55,1933.33 2558,1925.76 C2503.56,1906.52 2452.84,1947.01 2420.47,1988.34 C2417.47,1992.93 2410.07,1989.26 2412.03,1984.1 L2412.03,1984.1 L2412.03,1984.1 Z" style="fill:#512717;" />
		</g>
		<g transform="matrix(1, 0, 0, 1, -2264.632080078125, -1512.7734375)">
			<path d="M2775.37,1979.96 C2775.37,1979.96 2814.74,1874.19 2893.5,1858.95 C2980.9,1842.05 3068.58,1931.56 3148.59,1885.86 C3148.59,1885.86 3208.56,1940.87 3056.36,1932.78 C2904.16,1924.69 2775.37,1979.96 2775.37,1979.96 L2775.37,1979.96 Z" style="fill:#63F233;" />
		</g>
		<g opacity="0.7" transform="matrix(1, 0, 0, 1, -2264.632080078125, -1512.7734375)">
			<path d="M3151.51,1889.03 C3083.35,1951.61 2987.43,1866.05 2894.86,1885.08 C2842.96,1895.76 2812.56,1943.98 2787.9,1975.07 C2780.32,1977.85 2776.01,1979.69 2775.43,1979.9 C2776.64,1976.7 2815.93,1873.93 2893.5,1858.95 C2980.9,1842.06 3068.57,1931.57 3148.56,1885.87 C3148.56,1885.87 3149.83,1887.03 3151.51,1889.03 L3151.51,1889.03 Z" style="fill:#FFFFFF;" />
		</g>
		<g transform="matrix(1, 0, 0, 1, -2264.632080078125, -1512.7734375)">
			<path d="M2770.95,1978.31 C2788.48,1914.43 2836.75,1846.27 2908.91,1842.89 C2957.28,1840.69 3001.71,1862.9 3045.51,1878.14 C3078.47,1889.9 3113.31,1896.84 3146.25,1881.76 C3148.65,1880.66 3151.5,1881.75 3152.56,1884.17 C3153.48,1886.28 3152.75,1888.69 3150.93,1889.96 C3127.18,1906.98 3095.3,1910.8 3066.79,1905.98 C3021.49,1899.27 2980.13,1878.05 2935.18,1872.07 C2861.98,1860.16 2812.76,1923.86 2779.8,1981.6 C2777.4,1986.56 2769.5,1983.8 2770.95,1978.31 L2770.95,1978.31 L2770.95,1978.31 Z" style="fill:#512717;" />
		</g>
		<g transform="matrix(1, 0, 0, 1, -2264.632080078125, -1512.7734375)">
			<path d="M1178.1,1299.84 C1153.73,1309.47 1103.89,1355.25 1141.99,1382.1 C1176.7,1406.57 1209.28,1353.38 1210.19,1318.19 C1210.78,1295.49 1193.83,1293.62 1178.1,1299.84 L1178.1,1299.84 Z" style="fill:#E0AE80;" />
			<path d="M1160.09,1397.73 C1152.03,1397.73 1144.01,1395.08 1136.55,1389.81 C1119.84,1378.04 1117.75,1363.64 1118.95,1353.64 C1122.33,1325.28 1156.48,1298.23 1174.64,1291.05 C1188.06,1285.75 1200.1,1286.09 1208.54,1292 C1213.82,1295.68 1220.02,1303.27 1219.63,1318.44 C1218.95,1344.71 1202.74,1380.84 1177.75,1393.4 C1171.98,1396.29 1166.02,1397.73 1160.09,1397.73 L1160.09,1397.73 ZM1192.52,1306.21 C1189.44,1306.21 1185.6,1307.02 1181.57,1308.62 L1181.57,1308.62 C1165.42,1315 1139.87,1337.65 1137.7,1355.88 C1137.15,1360.49 1137.56,1367.43 1147.43,1374.38 C1154.74,1379.53 1161.88,1380.23 1169.27,1376.52 C1186.65,1367.79 1200.22,1338.4 1200.75,1317.94 C1200.83,1314.88 1200.55,1309.44 1197.72,1307.47 C1196.51,1306.62 1194.71,1306.21 1192.52,1306.21 L1192.52,1306.21 ZM1178.1,1299.83 L1178.15,1299.83 L1178.1,1299.83 L1178.1,1299.83 Z" style="fill:#512717;" />
		</g>
		<g transform="matrix(1, 0, 0, 1, -2264.632080078125, -1512.7734375)">
			<path d="M1485.12,1434.14 C1459.15,1430.58 1393.27,1446.06 1413.31,1488.13 C1431.57,1526.48 1486.04,1496.09 1504.09,1465.86 C1515.73,1446.37 1501.87,1436.43 1485.12,1434.14 L1485.12,1434.14 Z" style="fill:#FFD9B3;" />
			<path d="M1441.19,1515.56 C1440.44,1515.56 1439.69,1515.55 1438.94,1515.51 C1423.74,1514.8 1411.61,1506.51 1404.79,1492.2 C1395.99,1473.74 1401.24,1460.17 1407.18,1452.04 C1424.04,1428.98 1467.04,1422.15 1486.4,1424.78 L1486.4,1424.78 C1500.7,1426.74 1511.03,1432.93 1515.5,1442.23 C1518.29,1448.03 1519.98,1457.68 1512.2,1470.7 C1499.08,1492.67 1468.57,1515.56 1441.19,1515.56 L1441.19,1515.56 ZM1476.72,1443.05 C1458.66,1443.05 1431.91,1450.21 1422.43,1463.18 C1419.69,1466.93 1416.64,1473.17 1421.83,1484.07 C1425.68,1492.15 1431.57,1496.26 1439.83,1496.65 C1459.07,1497.6 1485.5,1478.59 1495.99,1461.02 C1497.56,1458.39 1499.97,1453.51 1498.48,1450.41 C1496.95,1447.22 1491.2,1444.5 1483.84,1443.49 L1483.83,1443.49 C1481.69,1443.2 1479.3,1443.05 1476.72,1443.05 L1476.72,1443.05 Z" style="fill:#512717;" />
		</g>
		<g transform="matrix(1, 0, 0, 1, -2264.632080078125, -1512.7734375)">
			<path d="M1832.52,1471.72 C1847.26,1493.39 1902.85,1531.98 1920.7,1488.93 C1936.97,1449.7 1877.93,1429.57 1843.4,1436.39 C1821.12,1440.79 1823.01,1457.74 1832.52,1471.72 L1832.52,1471.72 Z" style="fill:#FFD9B3;" />
			<path d="M1893.7,1517.86 C1866.25,1517.86 1835.15,1492.37 1824.71,1477.03 C1824.71,1477.03 1824.71,1477.03 1824.71,1477.03 C1816.6,1465.1 1814.28,1453.27 1818.19,1443.73 C1820.64,1437.78 1826.68,1430.07 1841.56,1427.13 C1867.36,1422.04 1906.16,1429.93 1923.88,1451.57 C1933.53,1463.34 1935.49,1477.9 1929.42,1492.55 C1921.59,1511.43 1908,1516.62 1897.98,1517.65 C1896.57,1517.79 1895.14,1517.86 1893.7,1517.86 L1893.7,1517.86 ZM1840.33,1466.41 C1850.09,1480.78 1877.79,1500.77 1896.06,1498.86 C1900.68,1498.39 1907.35,1496.47 1911.97,1485.31 C1915.4,1477.06 1914.52,1469.93 1909.28,1463.53 C1896.95,1448.49 1865.28,1441.68 1845.22,1445.65 C1842.21,1446.24 1836.97,1447.72 1835.67,1450.9 C1834.32,1454.18 1836.15,1460.27 1840.33,1466.41 L1840.33,1466.41 L1840.33,1466.41 Z" style="fill:#512717;" />
		</g>
		<g transform="matrix(1, 0, 0, 1, -2264.632080078125, -1512.7734375)">
			<path d="M2247.76,1248.56 C2225.46,1234.79 2158.96,1222.25 2160.23,1268.84 C2161.4,1311.29 2223.51,1305.57 2252.25,1285.25 C2270.79,1272.14 2262.15,1257.44 2247.76,1248.56 L2247.76,1248.56 Z" style="fill:#FFD9B3;" />
			<path d="M2201.11,1310.26 C2190.84,1310.26 2180.95,1308.44 2172.58,1304.25 C2158.97,1297.44 2151.23,1284.95 2150.79,1269.09 C2150.23,1248.66 2160.52,1238.38 2169.26,1233.35 C2194.01,1219.1 2236.1,1230.27 2252.72,1240.52 C2265,1248.1 2271.93,1257.95 2272.26,1268.26 C2272.46,1274.69 2270.1,1284.2 2257.7,1292.96 C2243.42,1303.05 2221.53,1310.26 2201.11,1310.26 L2201.11,1310.26 ZM2199.04,1245.4 C2191.2,1245.4 2183.97,1246.67 2178.68,1249.71 C2174.65,1252.03 2169.34,1256.51 2169.67,1268.58 C2169.92,1277.51 2173.63,1283.66 2181.03,1287.36 C2198.42,1296.06 2230.1,1289.35 2246.81,1277.54 C2249.31,1275.77 2253.49,1272.29 2253.38,1268.85 C2253.28,1265.3 2249.12,1260.49 2242.8,1256.59 C2242.8,1256.59 2242.8,1256.59 2242.8,1256.59 C2232.93,1250.5 2214.76,1245.4 2199.04,1245.4 L2199.04,1245.4 Z" style="fill:#512717;" />
		</g>
		<g transform="matrix(1, 0, 0, 1, -2264.632080078125, -1512.7734375)">
			<path d="M2457.3,1054.64 C2478.54,1070 2543.96,1087.33 2546.07,1040.78 C2547.99,998.35 2485.63,999.54 2455.49,1017.72 C2436.04,1029.45 2443.6,1044.74 2457.3,1054.64 L2457.3,1054.64 Z" style="fill:#FFD9B3;" />
			<path d="M2510.62,1080.33 C2488.04,1080.33 2463.25,1070.59 2451.77,1062.3 C2440.08,1053.84 2433.87,1043.51 2434.3,1033.21 C2434.57,1026.78 2437.61,1017.47 2450.61,1009.64 C2473.12,996.05 2512.29,990.26 2536.34,1004.56 C2549.42,1012.35 2556.22,1025.36 2555.5,1041.21 C2554.57,1061.63 2543.57,1071.14 2534.49,1075.51 C2527.42,1078.93 2519.18,1080.33 2510.62,1080.33 L2510.62,1080.33 ZM2501.88,1015.21 C2487.15,1015.21 2471.05,1019.36 2460.36,1025.8 C2457.73,1027.39 2453.31,1030.56 2453.17,1034 C2453.02,1037.54 2456.82,1042.64 2462.84,1046.99 L2462.84,1046.99 C2476.91,1057.17 2509.74,1066.48 2526.29,1058.51 C2530.47,1056.49 2536.09,1052.41 2536.64,1040.35 C2537.04,1031.42 2533.78,1025.02 2526.68,1020.79 C2520.16,1016.91 2511.3,1015.21 2501.88,1015.21 L2501.88,1015.21 Z" style="fill:#512717;" />
		</g>
		<g transform="matrix(1, 0, 0, 1, -2264.632080078125, -1512.7734375)">
			<path d="M2857.42,1169.74 C2842.94,1147.9 2787.8,1108.66 2769.45,1151.5 C2752.72,1190.54 2811.52,1211.36 2846.13,1204.95 C2868.46,1200.81 2866.77,1183.84 2857.42,1169.74 L2857.42,1169.74 Z" style="fill:#FFD9B3;" />
			<path d="M2832.68,1215.54 C2808.63,1215.54 2780.12,1206.7 2765.83,1188.83 C2756.32,1176.94 2754.52,1162.37 2760.77,1147.79 C2768.82,1128.99 2782.47,1123.97 2792.51,1123.06 C2820.96,1120.52 2854.5,1148.25 2865.29,1164.53 L2865.29,1164.53 C2873.26,1176.55 2875.44,1188.4 2871.42,1197.89 C2868.9,1203.82 2862.78,1211.46 2847.85,1214.23 C2843.15,1215.1 2838.03,1215.54 2832.68,1215.54 L2832.68,1215.54 ZM2796.37,1141.77 C2795.63,1141.77 2794.92,1141.8 2794.21,1141.86 C2789.58,1142.28 2782.88,1144.12 2778.13,1155.22 C2774.61,1163.44 2775.41,1170.58 2780.57,1177.03 C2792.72,1192.22 2824.3,1199.4 2844.41,1195.66 C2847.43,1195.1 2852.68,1193.69 2854.03,1190.52 C2855.41,1187.26 2853.66,1181.15 2849.55,1174.96 L2849.55,1174.96 C2840.32,1161.05 2814.58,1141.77 2796.37,1141.77 L2796.37,1141.77 Z" style="fill:#512717;" />
		</g>
		<g transform="matrix(1, 0, 0, 1, -2264.632080078125, -1512.7734375)">
			<path d="M2477.3,1439.77 C2451.31,1436.38 2385.53,1452.3 2405.85,1494.24 C2424.36,1532.46 2478.63,1501.71 2496.48,1471.37 C2507.99,1451.8 2494.07,1441.95 2477.3,1439.77 L2477.3,1439.77 Z" style="fill:#FFD9B3;" />
			<path d="M2433.58,1521.48 C2432.94,1521.48 2432.3,1521.47 2431.66,1521.44 C2416.45,1520.83 2404.27,1512.63 2397.35,1498.35 C2388.44,1479.96 2393.59,1466.35 2399.48,1458.18 C2416.19,1435.01 2459.16,1427.88 2478.52,1430.41 L2478.52,1430.41 C2492.83,1432.27 2503.2,1438.39 2507.73,1447.65 C2510.56,1453.44 2512.31,1463.07 2504.62,1476.15 C2491.59,1498.29 2461.05,1521.48 2433.58,1521.48 L2433.58,1521.48 ZM2469.41,1448.74 C2451.35,1448.74 2424.28,1456.08 2414.8,1469.22 C2412.08,1472.99 2409.08,1479.26 2414.35,1490.12 C2418.24,1498.17 2424.15,1502.24 2432.42,1502.58 C2451.85,1503.52 2477.97,1484.22 2488.34,1466.58 C2489.9,1463.94 2492.28,1459.04 2490.76,1455.95 C2489.21,1452.77 2483.44,1450.09 2476.08,1449.13 L2476.08,1449.13 C2474.06,1448.87 2471.81,1448.74 2469.41,1448.74 L2469.41,1448.74 Z" style="fill:#512717;" />
		</g>
		<g transform="matrix(1, 0, 0, 1, -2264.632080078125, -1512.7734375)">
			<path d="M2651.88,1296.67 C2637.08,1275.04 2581.38,1236.61 2563.65,1279.71 C2547.49,1318.99 2606.58,1338.95 2641.1,1332.04 C2663.36,1327.58 2661.43,1310.63 2651.88,1296.67 L2651.88,1296.67 Z" style="fill:#FFD9B3;" />
			<path d="M2626.37,1342.83 C2602.62,1342.83 2574.83,1334.4 2560.57,1317.09 C2550.89,1305.34 2548.88,1290.79 2554.91,1276.12 C2562.69,1257.21 2576.27,1251.99 2586.29,1250.93 C2614.68,1247.95 2648.64,1275.23 2659.67,1291.34 L2659.67,1291.34 C2667.81,1303.25 2670.16,1315.07 2666.28,1324.62 C2663.85,1330.58 2657.84,1338.31 2642.96,1341.29 C2637.85,1342.32 2632.23,1342.83 2626.37,1342.83 L2626.37,1342.83 ZM2590.8,1269.58 C2589.94,1269.58 2589.09,1269.63 2588.26,1269.71 C2583.64,1270.2 2576.97,1272.14 2572.38,1283.3 C2568.98,1291.57 2569.88,1298.69 2575.14,1305.08 C2587.5,1320.09 2619.21,1326.79 2639.25,1322.78 C2642.25,1322.18 2647.49,1320.69 2648.79,1317.5 C2650.12,1314.22 2648.27,1308.14 2644.08,1302 L2644.08,1302 C2634.72,1288.32 2609,1269.58 2590.8,1269.58 L2590.8,1269.58 Z" style="fill:#512717;" />
		</g>
		<g transform="matrix(1, 0, 0, 1, -2264.632080078125, -1512.7734375)">
			<path d="M2896.6,1335.36 C2898.16,1361.52 2926.16,1423.13 2963.53,1395.28 C2997.59,1369.91 2957.18,1322.39 2924.03,1310.57 C2902.64,1302.95 2895.59,1318.48 2896.6,1335.36 L2896.6,1335.36 Z" style="fill:#FFD9B3;" />
			<path d="M2944.65,1411.81 C2938.66,1411.81 2933.46,1410.24 2929.32,1408.32 C2903.42,1396.27 2888.33,1355.41 2887.17,1335.92 L2887.17,1335.92 C2886.31,1321.51 2890.37,1310.17 2898.62,1303.98 C2903.76,1300.12 2912.89,1296.57 2927.2,1301.67 C2951.96,1310.51 2981.25,1337.16 2985.4,1364.82 C2987.66,1379.87 2981.89,1393.38 2969.17,1402.85 C2960.21,1409.53 2951.87,1411.81 2944.65,1411.81 L2944.65,1411.81 ZM2906.02,1334.79 C2907.06,1352.13 2920.64,1383.46 2937.28,1391.2 C2941.49,1393.16 2948.21,1394.92 2957.89,1387.71 C2965.06,1382.37 2967.95,1375.8 2966.72,1367.62 C2963.84,1348.39 2940.13,1326.34 2920.86,1319.46 C2917.97,1318.43 2912.71,1317.01 2909.96,1319.08 C2907.12,1321.21 2905.58,1327.38 2906.02,1334.79 L2906.02,1334.79 L2906.02,1334.79 Z" style="fill:#512717;" />
		</g>
		<g transform="matrix(1, 0, 0, 1, -2264.632080078125, -1512.7734375)">
			<path d="M1484.17,1139.2 C1465.09,1121.24 1402.46,1095.6 1394.36,1141.5 C1386.97,1183.32 1448.97,1190.19 1481.21,1176.05 C1502,1166.93 1496.48,1150.8 1484.17,1139.2 L1484.17,1139.2 Z" style="fill:#FFD9B3;" />
			<path d="M1445.96,1192.22 C1428.76,1192.22 1411.4,1188.15 1399.34,1178.67 C1387.37,1169.26 1382.3,1155.47 1385.06,1139.85 C1388.61,1119.72 1400.76,1111.72 1410.32,1108.54 C1437.42,1099.55 1476.42,1118.94 1490.64,1132.33 C1501.15,1142.22 1505.97,1153.26 1504.21,1163.42 C1503.12,1169.76 1498.89,1178.6 1484.99,1184.7 C1474.13,1189.46 1460.1,1192.22 1445.96,1192.22 L1445.96,1192.22 ZM1425.86,1125.08 C1422.38,1125.08 1419.14,1125.51 1416.26,1126.47 C1411.85,1127.93 1405.75,1131.25 1403.65,1143.14 C1402.1,1151.94 1404.5,1158.71 1411.01,1163.82 C1426.29,1175.84 1458.68,1175.63 1477.41,1167.41 C1480.22,1166.17 1485.02,1163.6 1485.61,1160.21 C1486.21,1156.72 1483.1,1151.17 1477.7,1146.08 C1477.69,1146.08 1477.69,1146.08 1477.69,1146.08 C1467.13,1136.13 1443.51,1125.08 1425.86,1125.08 L1425.86,1125.08 Z" style="fill:#512717;" />
		</g>
		<g transform="matrix(1, 0, 0, 1, -2264.632080078125, -1512.7734375)">
			<path d="M1804.03,965.26 C1781.92,951.19 1715.6,937.74 1716.24,984.34 C1716.82,1026.8 1779,1021.94 1808.02,1002.01 C1826.74,989.16 1818.3,974.34 1804.03,965.26 L1804.03,965.26 Z" style="fill:#FFD9B3;" />
			<path d="M1757.75,1026.32 C1747.05,1026.32 1736.73,1024.39 1728.09,1019.91 C1714.58,1012.92 1707.01,1000.33 1706.8,984.47 C1706.52,964.03 1716.95,953.89 1725.74,948.98 C1750.69,935.07 1792.63,946.81 1809.1,957.3 L1809.1,957.3 C1821.27,965.04 1828.08,974.99 1828.26,985.29 C1828.37,991.73 1825.88,1001.2 1813.37,1009.8 C1799.23,1019.5 1777.82,1026.32 1757.75,1026.32 L1757.75,1026.32 ZM1754.39,961.43 C1746.92,961.43 1740.05,962.62 1734.94,965.47 C1730.88,967.73 1725.51,972.14 1725.68,984.21 C1725.8,993.15 1729.43,999.34 1736.78,1003.15 C1754.04,1012.09 1785.81,1005.81 1802.68,994.23 C1805.21,992.49 1809.44,989.07 1809.38,985.62 C1809.31,982.08 1805.23,977.21 1798.96,973.23 L1798.96,973.23 C1788.98,966.87 1770.33,961.43 1754.39,961.43 L1754.39,961.43 Z" style="fill:#512717;" />
		</g>
		<g transform="matrix(1, 0, 0, 1, -2264.632080078125, -1512.7734375)">
			<path d="M2186.93,975.97 C2166.68,959.33 2102.48,937.95 2097.47,984.29 C2092.91,1026.51 2155.23,1029.21 2186.44,1012.94 C2206.58,1002.45 2199.99,986.71 2186.93,975.97 L2186.93,975.97 Z" style="fill:#FFD9B3;" />
			<path d="M2145.23,1031.68 C2130.43,1031.68 2115.86,1028.49 2104.94,1021.04 C2092.36,1012.46 2086.38,999.04 2088.08,983.27 C2090.28,962.95 2101.86,954.15 2111.19,950.34 C2137.63,939.55 2177.84,956.28 2192.92,968.68 C2204.07,977.84 2209.62,988.54 2208.55,998.79 C2207.89,1005.2 2204.27,1014.3 2190.81,1021.31 C2178.52,1027.72 2161.73,1031.68 2145.23,1031.68 L2145.23,1031.68 ZM2130.9,965.7 C2126.24,965.7 2121.93,966.35 2118.32,967.82 C2114.02,969.58 2108.16,973.3 2106.86,985.3 C2105.9,994.19 2108.75,1000.78 2115.58,1005.44 C2131.64,1016.41 2163.94,1014.02 2182.08,1004.57 C2184.8,1003.15 2189.42,1000.26 2189.77,996.84 C2190.14,993.31 2186.67,987.98 2180.93,983.27 L2180.93,983.27 C2170.37,974.58 2148.16,965.7 2130.9,965.7 L2130.9,965.7 Z" style="fill:#512717;" />
		</g>
		<g transform="matrix(1, 0, 0, 1, -2264.632080078125, -1512.7734375)">
			<path d="M1931.13,1188.97 C1910.89,1172.33 1846.68,1150.95 1841.68,1197.29 C1837.11,1239.51 1899.43,1242.2 1930.65,1225.94 C1950.78,1215.44 1944.2,1199.71 1931.13,1188.97 L1931.13,1188.97 Z" style="fill:#FFD9B3;" />
			<path d="M1889.43,1244.67 C1874.64,1244.67 1860.06,1241.49 1849.14,1234.04 C1836.57,1225.45 1830.59,1212.04 1832.29,1196.27 C1834.48,1175.95 1846.06,1167.14 1855.39,1163.34 C1881.84,1152.54 1922.05,1169.28 1937.13,1181.68 C1937.13,1181.68 1937.13,1181.68 1937.13,1181.68 C1948.28,1190.84 1953.82,1201.54 1952.76,1211.79 C1952.09,1218.19 1948.47,1227.3 1935.01,1234.31 C1922.72,1240.71 1905.94,1244.67 1889.43,1244.67 L1889.43,1244.67 ZM1875.1,1178.7 C1870.44,1178.7 1866.14,1179.35 1862.53,1180.82 C1858.23,1182.58 1852.36,1186.3 1851.06,1198.3 C1850.1,1207.19 1852.96,1213.78 1859.79,1218.44 C1875.85,1229.4 1908.14,1227.02 1926.28,1217.56 C1929,1216.15 1933.62,1213.26 1933.97,1209.84 C1934.34,1206.31 1930.88,1200.98 1925.14,1196.27 L1925.14,1196.27 C1914.58,1187.58 1892.36,1178.7 1875.1,1178.7 L1875.1,1178.7 Z" style="fill:#512717;" />
		</g>
	</g>
</svg>