<?xml version="1.0" encoding="UTF-8"?>
<svg id="Layer_2" data-name="Layer 2" xmlns="http://www.w3.org/2000/svg" xmlns:xlink="http://www.w3.org/1999/xlink" viewBox="0 0 412.14 383.61">
  <defs>
    <style>
      .cls-1, .cls-2, .cls-3 {
        fill: none;
      }

      .cls-4 {
        fill: url(#radial-gradient);
      }

      .cls-4, .cls-5, .cls-6, .cls-7, .cls-8, .cls-9 {
        fill-rule: evenodd;
      }

      .cls-10 {
        fill: url(#linear-gradient-4);
      }

      .cls-2 {
        stroke-linejoin: round;
      }

      .cls-2, .cls-3 {
        stroke: #000;
        stroke-linecap: round;
        stroke-width: 22px;
      }

      .cls-5 {
        fill: #260b0b;
        opacity: .9;
      }

      .cls-5, .cls-7, .cls-8, .cls-9, .cls-11 {
        isolation: isolate;
      }

      .cls-6 {
        fill: red;
      }

      .cls-12 {
        fill: #fff;
      }

      .cls-7 {
        fill: url(#linear-gradient);
        opacity: .77;
      }

      .cls-8 {
        fill: url(#linear-gradient-2);
        opacity: .85;
      }

      .cls-9 {
        fill: url(#linear-gradient-3);
        opacity: .25;
      }

      .cls-11 {
        fill: #f4d7d7;
        opacity: .75;
      }

      .cls-3 {
        stroke-miterlimit: 10;
      }

      .cls-13 {
        clip-path: url(#clippath);
      }
    </style>
    <radialGradient id="radial-gradient" cx="-1409.56" cy="-992.46" fx="-1409.56" fy="-992.46" r="205.79" gradientTransform="translate(915.42 -2096.74) rotate(-41.85) scale(1.54 -1.4)" gradientUnits="userSpaceOnUse">
      <stop offset="0" stop-color="#ffbdbd"/>
      <stop offset="1" stop-color="#ffb4b4" stop-opacity=".02"/>
    </radialGradient>
    <clipPath id="clippath">
      <path class="cls-1" d="M205.78,382.16s236.67-140,202.39-274.28C373.88-26.41,228.17,5.02,205.78,76.45,183.4,5.02,37.69-26.41,3.4,107.88-30.88,242.16,205.78,382.16,205.78,382.16Z"/>
    </clipPath>
    <linearGradient id="linear-gradient" x1="99.71" y1="-88.16" x2="308.29" y2="-109.59" gradientTransform="translate(-75.16 95.22) scale(1 -1)" gradientUnits="userSpaceOnUse">
      <stop offset="0" stop-color="#d40000"/>
      <stop offset="1" stop-color="#d40000" stop-opacity="0"/>
    </linearGradient>
    <linearGradient id="linear-gradient-2" x1="451.44" y1="-56.15" x2="255.72" y2="-131.87" gradientTransform="translate(-75.16 95.22) scale(1 -1)" gradientUnits="userSpaceOnUse">
      <stop offset="0" stop-color="#ff8080"/>
      <stop offset="1" stop-color="#ff8080" stop-opacity="0"/>
    </linearGradient>
    <linearGradient id="linear-gradient-3" x1="184.89" y1="25.58" x2="340.59" y2="-198.7" gradientTransform="translate(-75.16 95.22) scale(1 -1)" gradientUnits="userSpaceOnUse">
      <stop offset="0" stop-color="#501616"/>
      <stop offset="1" stop-color="#501616" stop-opacity="0"/>
    </linearGradient>
    <linearGradient id="linear-gradient-4" x1="3892.49" y1="-1234.53" x2="3944.72" y2="-1358.89" gradientTransform="translate(-1236.03 -443.57) scale(.41 -.41)" gradientUnits="userSpaceOnUse">
      <stop offset="0" stop-color="#f4d7d7"/>
      <stop offset="1" stop-color="#f4d7d7" stop-opacity="0"/>
    </linearGradient>
  </defs>
  <g id="svg4455">
    <g id="layer1">
      <g id="g5842">
        <g id="g5829">
          <path id="path5679" class="cls-5" d="M205.78,378.84s196.68-116.35,168.19-227.94c-28.5-111.6-149.59-85.48-168.19-26.12-18.6-59.36-139.69-85.48-168.19,26.12-28.49,111.59,168.19,227.94,168.19,227.94Z"/>
          <g id="g5730">
            <path id="path5277" class="cls-6" d="M205.78,383.59s236.67-140,202.39-274.28C373.88-24.98,228.17,6.45,205.78,77.88,183.4,6.45,37.69-24.98,3.4,109.31-30.88,243.59,205.78,383.59,205.78,383.59Z"/>
            <path id="path4465" class="cls-4" d="M109.05,14.43C65.54,14.43,20.54,40.13,3.39,107.27c-8.5,33.32-.32,67.02,16.78,98.81,27.12-5.32,59.48-9.67,93.38-9.78,32.08-.1,65.5,3.6,97,13.85,66.01,21.47,134.2,9.29,181.72-5.72h.03c16.49-31.31,24.23-64.42,15.87-97.16C373.89-27.01,228.18,4.44,205.8,75.87c-11.19-35.72-53.24-61.44-96.75-61.44ZM20.55,206.8c.69,1.27,1.41,2.52,2.12,3.78-.71-1.26-1.43-2.51-2.12-3.78ZM109.55,310.9c2.56,2.23,5.11,4.44,7.66,6.59-2.55-2.15-5.1-4.36-7.66-6.59ZM193.83,374.12c1.82,1.17,3.07,1.94,4.5,2.84-1.36-.86-2.8-1.75-4.5-2.84Z"/>
            <g class="cls-13">
              <path id="path4472" class="cls-7" d="M109.05,15.01C65.54,15.01,20.54,40.74,3.39,107.89c-31.49,123.32,165.1,251.15,197.47,271.25,9.36-14.47,25.44-33.75,22.53-56.97-4.28-34.29-45.71-45.72-80-90-34.28-44.29-52.85-100.01-27.14-121.44,25.72-21.42,64.28-17.14,81.42-24.28,10.86-4.52,21.72-26.19,28.22-41.5-9.35,9.04-16.4,19.72-20.09,31.5-11.19-35.72-53.24-61.44-96.75-61.44h0Z"/>
            </g>
            <path id="path5038" class="cls-8" d="M246.26,79.31s-3.54,57.3-5.72,98.57c-2.17,41.27-5.71,75.71-8.57,105.71-2.72,28.59-41.43,50-31.43,68.57,10,18.58,57.15-7.14,122.86-72.85,65.72-65.72,77.14-150,65.72-185.72-11.43-35.71-70-64.28-98.58-54.28-28.57,10-45.71,42.85-44.28,40h0Z"/>
            <path id="path5264" class="cls-9" d="M113.55,198.32c-33.9.11-66.26,4.46-93.38,9.79,51.83,96.35,185.63,175.5,185.63,175.5,0,0,135.34-80.06,186.5-177.16-47.52,15.02-115.73,27.2-181.75,5.72-31.5-10.25-64.92-13.95-97-13.85Z"/>
            <path id="path5292" class="cls-11" d="M303.22,33.62c-16.46,0-31.84,4.47-44.99,12.23,53.5,3.75,95.76,47.53,95.76,100.96,0,18.22-4.92,35.33-13.52,50.11,29.62-13.73,50.14-43.31,50.14-77.56,0-47.32-39.15-85.74-87.39-85.74Z"/>
            <path id="path5457" class="cls-10" d="M341.06,52.82c-6.69,0-12.93,1.82-18.27,4.97,21.73,1.52,38.89,19.3,38.89,41,0,7.4-2,14.35-5.49,20.35,12.03-5.58,20.36-17.59,20.36-31.5,0-19.22-15.9-34.82-35.49-34.82Z"/>
            <path id="path5661" class="cls-12" d="M387.32,109.34l-34.86-47.8,11.88,57.84-12.41-57.84-12.67,57.67,12.19-57.89-35.03,47.54,34.68-47.93-51.34,29.18,51.18-29.68-58.77,5.78,58.83-6.3-56.04-18.63,56.31,18.17-43.62-39.81,44.04,39.5-23.65-54.11,24.17,54,.39-59.05.11,59.17,24.38-53.78-23.96,54.09,44.15-39.22-43.89,39.67,56.28-17.87-56.23,18.39,58.68,6.57-58.85-6.07,50.94,29.87-51.29-29.48,34.38,48.01h0Z"/>
          </g>
        </g>
      </g>
    </g>
    <line class="cls-3" x1="91.66" y1="103.73" x2="147.73" y2="159.81"/>
    <line class="cls-3" x1="147.73" y1="103.73" x2="91.66" y2="159.81"/>
    <line class="cls-3" x1="270.76" y1="103.73" x2="326.83" y2="159.81"/>
    <line class="cls-3" x1="326.83" y1="103.73" x2="270.76" y2="159.81"/>
    <polyline class="cls-2" points="117.21 262.15 146.93 232.43 177.84 263.34 207.74 233.44 239.64 265.34 272.95 232.03 304.55 263.62"/>
  </g>
</svg>